<svg width="48" height="48" viewBox="0 0 48 48" fill="none" xmlns="http://www.w3.org/2000/svg">
<path d="M26.1692 40.466C26.1692 40.7249 25.9593 40.9347 25.7004 40.9347H22.1695C21.9107 40.9347 21.7008 40.7249 21.7008 40.466C21.7008 40.207 21.9107 39.9972 22.1695 39.9972H25.7004C25.9593 39.9972 26.1692 40.207 26.1692 40.466ZM45.5625 36.9326V42.3218C45.5625 44.1087 44.1087 45.5624 42.3218 45.5624H32.1455C30.9307 45.5624 29.8703 44.8901 29.3156 43.8983H17.6429C15.2891 43.8983 13.3742 41.9834 13.3742 39.6297V26.6321H10.8918C10.6329 26.6321 10.423 26.4223 10.423 26.1634V14.6305H5.75991C3.92784 14.6305 2.4375 13.1401 2.4375 11.3081V5.75981C2.4375 3.92784 3.92784 2.4375 5.75981 2.4375H16.0236C17.8555 2.4375 19.346 3.92784 19.346 5.75981V8.55656H30.2269C31.6575 8.55656 32.9899 9.28725 33.7761 10.4615L39.1307 5.10684C39.3138 4.92375 39.6106 4.92375 39.7936 5.10684L41.9042 7.21734C41.9921 7.30528 42.0415 7.42444 42.0415 7.54875C42.0415 7.67306 41.9921 7.79231 41.9043 7.88016L34.4957 15.2888V30.4761H37.2337C37.4925 30.4761 37.7024 30.6859 37.7024 30.9448V33.6922H42.3218C44.1087 33.6921 45.5625 35.1458 45.5625 36.9326ZM34.4957 31.4134V33.6921H36.7649V31.4134H34.4957ZM27.772 17.7912L27.1144 19.8966L29.2197 19.2389L40.91 7.54866L39.4623 6.10116L27.772 17.7912ZM27.8445 20.6507L26.5401 21.0581C26.4941 21.0725 26.4471 21.0795 26.4004 21.0795C26.2779 21.0795 26.1581 21.0314 26.0689 20.9422C25.9456 20.819 25.9009 20.6374 25.9529 20.471L26.4283 18.9491C25.7033 18.4348 24.8296 18.1538 23.935 18.1538C21.7171 18.1538 19.8851 19.8381 19.6507 21.9947H28.2191C28.1682 21.5287 28.0409 21.0744 27.8445 20.6507ZM23.9349 17.2163C24.9632 17.2163 25.7997 16.3798 25.7997 15.3516C25.7997 14.3233 24.9632 13.4868 23.9349 13.4868C22.9068 13.4868 22.0702 14.3233 22.0702 15.3516C22.0702 16.3798 22.9067 17.2163 23.9349 17.2163ZM5.75981 13.693H16.0236C17.3386 13.693 18.4085 12.6232 18.4085 11.3082V5.75981C18.4085 4.44488 17.3386 3.375 16.0236 3.375H5.75981C4.44488 3.375 3.375 4.44488 3.375 5.75981V11.3081C3.375 12.6231 4.44488 13.693 5.75981 13.693ZM13.3742 25.6946V14.6305H11.3605V25.6947H13.3742V25.6946ZM17.5357 27.4113V26.6321H14.3116V37.3308H28.9048V36.9326C28.9048 35.1457 30.3585 33.6921 32.1454 33.6921H33.5581V31.4134H30.3341V32.1925C30.3341 32.4515 30.1242 32.6613 29.8654 32.6613H18.0044C17.7456 32.6613 17.5357 32.4515 17.5357 32.1925V29.6967C17.5357 29.4378 17.7456 29.228 18.0044 29.228H29.8655C30.1243 29.228 30.3342 29.4378 30.3342 29.6967V30.476H33.5582V16.2262L29.8011 19.9834C29.7474 20.037 29.6817 20.0767 29.6093 20.0993L28.7462 20.369C29.032 21.0263 29.182 21.7402 29.182 22.4633C29.182 22.7223 28.9721 22.9321 28.7133 22.9321H19.1566C18.8978 22.9321 18.6878 22.7223 18.6878 22.4633C18.6878 20.1903 20.141 18.251 22.1668 17.5236C21.5362 17.0092 21.1327 16.2267 21.1327 15.3515C21.1327 13.8064 22.3897 12.5492 23.9348 12.5492C25.4799 12.5492 26.7371 13.8063 26.7371 15.3515C26.7371 16.2267 26.3335 17.0093 25.7029 17.5236C26.0577 17.6505 26.399 17.8154 26.7197 18.0159L26.9116 17.4015C26.9342 17.3292 26.974 17.2634 27.0276 17.2099L33.0956 11.1418C32.4989 10.132 31.4062 9.49387 30.227 9.49387H19.346V11.308C19.346 13.14 17.8555 14.6303 16.0236 14.6303H14.3116V25.6945H17.5357V24.9153C17.5357 24.6563 17.7456 24.4465 18.0044 24.4465H29.8655C30.1243 24.4465 30.3342 24.6563 30.3342 24.9153V27.4111C30.3342 27.67 30.1243 27.8798 29.8655 27.8798H18.0044C17.7456 27.88 17.5357 27.6701 17.5357 27.4113ZM29.3967 26.9425V25.3842H18.4732V26.9425H29.3967ZM18.4732 30.1655V31.7238H29.3967V30.1655H18.4732ZM28.9685 42.9609C28.9269 42.7542 28.9049 42.5407 28.9049 42.3219V38.2684H14.3117V39.6298C14.3117 41.4667 15.8061 42.9609 17.6429 42.9609H28.9685ZM44.625 36.9326C44.625 35.6627 43.5918 34.6296 42.3218 34.6296H32.1455C30.8755 34.6296 29.8424 35.6628 29.8424 36.9326V42.3218C29.8424 43.5918 30.8756 44.6249 32.1455 44.6249H42.3218C43.5918 44.625 44.625 43.5918 44.625 42.3219V36.9326ZM15.2512 6.34256H6.53241C6.27356 6.34256 6.06366 6.55237 6.06366 6.81131C6.06366 7.07025 6.27356 7.28006 6.53241 7.28006H15.2512C15.51 7.28006 15.7199 7.07025 15.7199 6.81131C15.7199 6.55237 15.51 6.34256 15.2512 6.34256ZM15.2512 9.78788H6.53241C6.27356 9.78788 6.06366 9.99769 6.06366 10.2566C6.06366 10.5156 6.27356 10.7254 6.53241 10.7254H15.2512C15.51 10.7254 15.7199 10.5156 15.7199 10.2566C15.7199 9.99769 15.51 9.78788 15.2512 9.78788ZM41.593 40.8811H32.8743C32.6154 40.8811 32.4055 41.0909 32.4055 41.3498C32.4055 41.6088 32.6154 41.8186 32.8743 41.8186H41.593C41.8519 41.8186 42.0618 41.6088 42.0618 41.3498C42.0618 41.0909 41.8519 40.8811 41.593 40.8811ZM41.593 37.4358H32.8743C32.6154 37.4358 32.4055 37.6456 32.4055 37.9045C32.4055 38.1635 32.6154 38.3733 32.8743 38.3733H41.593C41.8519 38.3733 42.0618 38.1635 42.0618 37.9045C42.0618 37.6456 41.8519 37.4358 41.593 37.4358Z" fill="white"/>
</svg>
