<svg width="48" height="48" viewBox="0 0 48 48" fill="none" xmlns="http://www.w3.org/2000/svg">
<path fill-rule="evenodd" clip-rule="evenodd" d="M33.9946 34.2382L34.1377 34.5615C34.2638 34.8461 34.2018 35.1788 33.9818 35.3989L30.5824 38.7983C30.3623 39.0184 30.0295 39.0804 29.745 38.9544C29.745 38.9544 27.2163 37.8343 27.2163 37.8342C25.9866 38.5517 24.6632 39.0987 23.2856 39.4627L22.2929 42.0423C22.181 42.333 21.9016 42.5248 21.5902 42.5248H16.7816C16.4701 42.5248 16.1907 42.333 16.0789 42.0423C16.0789 42.0423 15.0862 39.463 15.0863 39.463C13.7055 39.0984 12.3849 38.5483 11.1521 37.8336L8.62189 38.9544C8.33737 39.0804 8.00467 39.0184 7.78453 38.7983L4.38519 35.3989C4.16486 35.1786 4.10302 34.8453 4.22961 34.5606C4.22961 34.5606 5.35375 32.0323 5.35375 32.0324C4.63648 30.8029 4.08937 29.4798 3.72194 28.1026L1.14123 27.1094C0.850503 26.9976 0.658691 26.7182 0.658691 26.4067V21.5981C0.658691 21.2867 0.850503 21.0074 1.14123 20.8955C1.14123 20.8955 3.72166 19.9023 3.72156 19.9024C4.08919 18.5216 4.63639 17.2011 5.35394 15.9683L4.22961 13.4395C4.10302 13.1548 4.16486 12.8215 4.38519 12.6011L7.78453 9.20171C8.00486 8.98138 8.33813 8.91955 8.62293 9.04614L11.1517 10.1706C12.3844 9.45301 13.7046 8.90609 15.0817 8.54204L16.0791 5.9571C16.1912 5.66675 16.4704 5.47522 16.7816 5.47522H21.5902C21.9018 5.47522 22.1812 5.66722 22.293 5.95814L23.2859 8.54223C24.6627 8.90628 25.9826 9.4531 27.2152 10.1706L29.7441 9.04614C30.0288 8.91955 30.362 8.98138 30.5824 9.20171L33.9818 12.6011C34.2018 12.8212 34.2638 13.1539 34.1377 13.4385L33.9946 13.7617C35.4653 13.761 40.2018 13.7585 40.2018 13.7585V11.8591C40.2018 11.5713 40.3661 11.3085 40.6248 11.1824C40.8836 11.0562 41.1917 11.0887 41.4185 11.2659L47.0518 15.6689C47.2343 15.8116 47.341 16.0304 47.341 16.2621C47.341 16.4939 47.2343 16.7127 47.0518 16.8554L41.4185 21.2584C41.1917 21.4357 40.8836 21.4682 40.6248 21.3419C40.3661 21.2157 40.2018 20.9531 40.2018 20.6651V18.7665H34.8004C34.8004 18.7665 34.6737 18.9332 34.4515 19.2249C34.5215 19.4491 34.5864 19.6751 34.6465 19.9028L37.2257 20.8955C37.5164 21.0074 37.7082 21.2867 37.7082 21.5981V26.4067C37.7082 26.7182 37.5164 26.9976 37.2257 27.1094L34.6461 28.1022C34.5862 28.3282 34.5214 28.5526 34.4516 28.7754L34.8004 29.2335H40.2018V27.3348C40.2018 27.0469 40.3661 26.7842 40.6248 26.658C40.8836 26.5318 41.1917 26.5643 41.4185 26.7416L47.0518 31.1446C47.2343 31.2873 47.341 31.5061 47.341 31.7378C47.341 31.9695 47.2343 32.1883 47.0518 32.331L41.4185 36.7341C41.1917 36.9114 40.8836 36.9438 40.6248 36.8176C40.3661 36.6915 40.2018 36.4287 40.2018 36.1409V34.2414L33.9946 34.2382ZM32.1551 14.1964L32.5518 13.3008L29.8833 10.6323L27.4697 11.7054C27.2427 11.8063 26.9804 11.7887 26.7688 11.6584C25.462 10.8531 24.0402 10.2641 22.5492 9.90976C22.3074 9.85235 22.1096 9.67927 22.0205 9.44727L21.0728 6.9811H17.2981L16.346 9.4483C16.2567 9.67983 16.0591 9.85244 15.8178 9.90976C14.3268 10.2641 12.9049 10.8531 11.5981 11.6584C11.3865 11.7887 11.1243 11.8063 10.8972 11.7054L8.48363 10.6323L5.81568 13.3003L6.88881 15.7137C6.9898 15.9408 6.9722 16.203 6.84184 16.4146C6.0362 17.7221 5.44711 19.1446 5.08796 20.6408C5.03017 20.8817 4.85756 21.0787 4.62631 21.1677L2.16457 22.1151V25.8897L4.62631 26.8372C4.85737 26.926 5.02989 27.1229 5.08787 27.3636C5.44693 28.8549 6.03573 30.2818 6.84119 31.5844C6.9721 31.7961 6.98999 32.0588 6.88881 32.2863L5.81568 34.6998L8.4842 37.3683L10.8981 36.299C11.1244 36.1989 11.3855 36.2162 11.5965 36.3454C12.9038 37.1465 14.326 37.7405 15.8221 38.095C16.0639 38.1523 16.2619 38.3252 16.3511 38.5572L17.2986 41.0189H21.0732L22.0206 38.5572C22.1098 38.3254 22.3075 38.1525 22.5492 38.0951C24.0398 37.7408 25.4659 37.1522 26.7679 36.3471C26.9793 36.2164 27.2416 36.1984 27.4688 36.299L29.8827 37.3683L32.5518 34.6992L32.1549 33.8032C31.9398 33.6564 31.7442 33.4734 31.5776 33.2553L31.5769 33.2544L29.5806 30.6324C27.3897 34.0594 23.5511 36.3317 19.1826 36.3317C12.3721 36.3317 6.85662 30.8095 6.85662 23.9991C6.85662 17.1885 12.372 11.6732 19.1826 11.6732C23.5511 11.6732 27.3897 13.9427 29.5805 17.3676L31.5769 14.7456L31.5776 14.7449C31.7442 14.5265 31.9399 14.3433 32.1551 14.1964ZM33.306 20.7292C32.5963 21.6614 31.709 22.8267 30.8156 24L33.3073 27.2724C33.3827 27.0737 33.5394 26.9146 33.7406 26.8372L36.2023 25.8897V22.1151L33.7406 21.1677C33.5384 21.0899 33.381 20.9294 33.306 20.7292ZM29.8692 25.2428C29.4319 25.8172 29.0082 26.3738 28.6194 26.8843L32.7745 32.3414C32.8646 32.4594 32.976 32.5518 33.0993 32.617C33.2435 32.6931 33.4039 32.7321 33.5652 32.7322L40.9553 32.736C41.3709 32.7362 41.7077 33.0732 41.7077 33.489V34.5967L45.3654 31.7378L41.7077 28.8789V29.9865C41.7077 30.4023 41.3707 30.7394 40.9548 30.7394H34.4274C34.1923 30.7394 33.9708 30.6296 33.8284 30.4426L29.8692 25.2428ZM27.673 28.1272C27.0436 28.9537 26.6388 29.4854 26.6389 29.4853C26.189 30.1517 25.4269 30.5897 24.5624 30.5897H14.7645C14.3487 30.5897 14.0115 30.2526 14.0115 29.8367V26.334C14.0115 25.9182 14.3487 25.5811 14.7645 25.5811H23.3266L24.5305 24L23.3266 22.4189H14.7645C14.3487 22.4189 14.0115 22.0818 14.0115 21.666V18.1632C14.0115 17.7473 14.3487 17.4103 14.7645 17.4103H24.5624C25.4272 17.4103 26.1895 17.8486 26.6385 18.514L27.6731 19.8728L28.5998 18.6557C26.7373 15.3842 23.2175 13.1791 19.1826 13.1791C13.204 13.1791 8.3625 18.0206 8.3625 23.9991C8.3625 29.9777 13.2039 34.8258 19.1826 34.8258C23.2175 34.8258 26.7373 32.6177 28.5997 29.3443L27.673 28.1272ZM25.4769 22.7571L26.7267 21.1157L25.4263 19.4078C25.4161 19.3943 25.4062 19.3804 25.3969 19.3662C25.2181 19.0953 24.9112 18.9162 24.5624 18.9162H15.5174V20.9131H23.6997C23.9347 20.9131 24.1564 21.0228 24.2988 21.2098L25.4769 22.7571ZM24.5624 29.0838C24.9112 29.0838 25.2181 28.9048 25.3968 28.6337C25.4062 28.6196 25.4161 28.6057 25.4263 28.5921L33.8284 17.5575C33.9708 17.3705 34.1923 17.2607 34.4274 17.2607H40.9548C41.3707 17.2607 41.7077 17.5978 41.7077 18.0136V19.1211L45.3654 16.2621L41.7077 13.4033V14.511C41.7077 14.9267 41.3709 15.2637 40.9553 15.2639L33.5654 15.2678C33.2661 15.2681 32.9702 15.4024 32.7745 15.6587L24.2988 26.7902C24.1564 26.9772 23.9347 27.087 23.6997 27.087H15.5174V29.0838H24.5624Z" fill="white"/>
</svg>
