<svg width="48" height="48" viewBox="0 0 48 48" fill="none" xmlns="http://www.w3.org/2000/svg">
<path d="M42.7715 31.3648C45.1747 28.3894 45.8274 24.2744 44.3555 20.6685L47.7839 16.8792C48.017 16.6216 48.0082 16.2271 47.7643 15.9799L46.5211 14.7208C46.2757 14.4722 45.8783 14.4601 45.6182 14.6931L42.4085 17.5691C41.9224 17.0295 41.3921 16.5509 40.8277 16.1342V6.45137C40.8277 4.52199 39.2568 2.95215 37.3259 2.95215H18.7354C16.806 2.95215 15.2362 4.5219 15.2362 6.45137V14.4788C14.1356 14.7619 13.0682 15.108 12.085 15.5501C9.10791 16.8888 7.50244 18.9046 7.30406 21.548H6.61828V20.3022C6.61828 19.9405 6.32512 19.6474 5.96353 19.6474H0.701625C0.340031 19.6474 0.046875 19.9406 0.046875 20.3022V35.0038C0.046875 35.3655 0.340031 35.6585 0.701625 35.6585H5.96353C6.32512 35.6585 6.61828 35.3654 6.61828 35.0038V33.7606H7.71422C8.88056 36.7658 12.0805 37.5406 15.2362 37.8085V41.5461C15.2362 43.477 16.8059 45.048 18.7354 45.048H37.3258C39.2567 45.048 40.8276 43.477 40.8276 41.5461V36.4992L43.7826 40.003C44.1867 40.4789 44.7637 40.7239 45.3439 40.7238C45.8091 40.7238 46.2764 40.5662 46.6578 40.2437L47.2027 39.7833C47.6187 39.4336 47.8732 38.9416 47.9194 38.3979C47.9657 37.8534 47.7974 37.3245 47.4462 36.9091L42.7715 31.3648ZM46.0274 16.0846L46.3976 16.4595L43.1151 20.0876C43.1071 20.0958 43.0995 20.1044 43.0921 20.113L41.2831 22.1124C41.2675 22.1279 41.2529 22.1442 41.239 22.1611L35.4652 28.5425L31.703 22.8692L32.7491 22.818L35.4659 24.8431C35.7157 25.0292 36.0622 25.0137 36.2942 24.8059L40.9646 20.6211C40.9657 20.6201 40.9669 20.6191 40.968 20.6181L46.0274 16.0846ZM38.9474 29.9307C36.0528 32.3734 31.71 32.0053 29.2667 29.1101C28.0833 27.7078 27.5171 25.9286 27.6725 24.1002C27.8278 22.2716 28.6863 20.6129 30.0899 19.4293C31.5354 18.209 33.3761 17.6531 35.2723 17.8634C36.971 18.0519 38.4907 18.8311 39.6132 20.0736L35.8192 23.4731L33.3433 21.6274C33.2214 21.5366 33.0721 21.4904 32.9198 21.4984L30.489 21.6177C30.2539 21.6292 30.043 21.7661 29.9367 21.9762C29.8305 22.1863 29.8452 22.4372 29.9754 22.6335L34.8397 29.9685C34.9515 30.1369 35.1348 30.2445 35.3363 30.2596C35.3527 30.2609 35.3692 30.2614 35.3855 30.2614C35.5697 30.2614 35.7463 30.1836 35.8709 30.0459L41.3544 23.9852C41.5801 26.2154 40.7005 28.4528 38.9474 29.9307ZM41.4332 18.4428L40.5881 19.2C39.2507 17.7167 37.44 16.7865 35.4167 16.5618C33.1597 16.3116 30.968 16.9742 29.2454 18.4284C27.5745 19.8373 26.5524 21.8121 26.3675 23.9894C26.1825 26.1664 26.8567 28.285 28.2657 29.9547C29.8819 31.8696 32.1954 32.8561 34.5241 32.8559C36.3871 32.8558 38.2599 32.2243 39.7916 30.9316C42.1675 28.9289 43.1949 25.7539 42.4685 22.7539L43.3629 21.7653C44.5371 25.3312 43.4438 29.3361 40.5248 31.7993C40.0013 32.2407 39.4428 32.6136 38.8602 32.9205C38.8522 32.9245 38.8444 32.9285 38.8365 32.9329C35.0546 34.9109 30.2641 34.0787 27.4004 30.6847C24.0893 26.7604 24.5883 20.8741 28.5123 17.5632C32.3594 14.3193 38.0895 14.7333 41.4332 18.4428ZM22.8044 4.26184H33.6358V5.87884C33.6358 6.02349 33.5193 6.14124 33.376 6.14124H23.0669C22.9246 6.14124 22.8044 6.02115 22.8044 5.87884V4.26184ZM5.30878 34.3489H1.35637V20.9569H5.30878V22.2028V33.1057V34.3489ZM8.81016 32.9199C8.72784 32.6418 8.47237 32.451 8.18231 32.451H6.61828V22.8576H7.93847C8.11341 22.8576 8.28112 22.7876 8.40422 22.6631C8.52722 22.5386 8.59528 22.37 8.59322 22.1951C8.56397 19.7257 9.84422 17.9936 12.6222 16.7445C13.6624 16.2767 14.822 15.9213 16.0231 15.634C16.0232 15.634 16.0233 15.634 16.0234 15.6339C17.7059 15.2314 19.4707 14.9632 21.1086 14.7155C21.6349 14.6359 22.132 14.5606 22.6122 14.4831C23.0854 14.4067 23.5279 14.7159 23.6198 15.1864L23.787 16.0459C23.9681 16.9727 23.3504 17.8846 22.4097 18.0785L16.8774 19.2214C16.7956 19.1945 16.7072 19.1833 16.6161 19.1914C16.2559 19.2229 15.9893 19.5406 16.0209 19.9008C16.1081 20.8964 15.7623 22.2091 15.0958 23.4125C14.3006 24.8484 13.1434 25.9606 12.1476 26.2458C11.8014 26.3449 11.5126 26.3326 11.2892 26.2085C10.9732 26.0332 10.5744 26.1469 10.3989 26.4631C10.2233 26.7792 10.3373 27.1779 10.6535 27.3534C10.9738 27.5313 11.3346 27.6209 11.7204 27.6209C11.9737 27.6209 12.2377 27.5822 12.5083 27.5047C13.433 27.2398 14.4044 26.5208 15.2366 25.521V36.4928C11.3299 36.1363 9.44934 35.0792 8.81016 32.9199ZM37.3259 43.7383H18.7354C17.5281 43.7383 16.5457 42.7549 16.5457 41.546V40.6474H39.5181V41.546C39.5182 42.7549 38.5347 43.7383 37.3259 43.7383ZM39.5182 39.3378H16.5457V23.4487C17.0204 22.4357 17.2951 21.3973 17.3369 20.4635L22.6742 19.3608C24.3145 19.0226 25.3902 17.4227 25.0721 15.7952L24.905 14.9357C24.6766 13.767 23.5777 13.0006 22.403 13.1902C21.9294 13.2667 21.4356 13.3414 20.9125 13.4206C19.5096 13.6328 18.0159 13.8596 16.5457 14.1728V6.45137C16.5457 5.24396 17.5279 4.26174 18.7353 4.26174H21.4948V5.87874C21.4948 6.74546 22.2 7.45074 23.0668 7.45074H33.3759C34.2412 7.45074 34.9452 6.74555 34.9452 5.87874V4.26184H37.3257C38.5345 4.26184 39.518 5.24406 39.518 6.45146V15.3091C35.7969 13.3307 31.0823 13.6833 27.6679 16.5623C23.1919 20.3389 22.6228 27.053 26.3994 31.5292C28.498 34.0165 31.5033 35.2978 34.5284 35.2976C36.0474 35.2975 37.5714 34.9739 38.9879 34.318L39.5179 34.9464V39.3378H39.5182ZM46.6147 38.287C46.5982 38.4814 46.5078 38.6569 46.359 38.7821L45.8127 39.2435C45.5056 39.5032 45.0427 39.4636 44.7822 39.157L40.8277 34.468V33.2247C41.0111 33.0891 41.1924 32.9493 41.3692 32.8003C41.5457 32.6514 41.7144 32.4962 41.8791 32.3378L46.4459 37.754C46.5713 37.9025 46.6313 38.0917 46.6147 38.287Z" fill="white"/>
</svg>
