<svg width="48" height="48" viewBox="0 0 48 48" fill="none" xmlns="http://www.w3.org/2000/svg">
<g clip-path="url(#clip0_623_78)">
<path d="M45.3333 43.4286C44.0733 43.4286 43.0476 44.4543 43.0476 45.7143C43.0476 46.9743 44.0733 48 45.3333 48C46.5934 48 47.619 46.9743 47.619 45.7143C47.619 44.4543 46.5934 43.4286 45.3333 43.4286ZM45.3333 46.4762C44.9137 46.4762 44.5714 46.1347 44.5714 45.7143C44.5714 45.2939 44.9137 44.9524 45.3333 44.9524C45.753 44.9524 46.0952 45.2939 46.0952 45.7143C46.0952 46.1347 45.753 46.4762 45.3333 46.4762Z" fill="white"/>
<path d="M4.95229 2.28571C4.95229 1.02567 3.92662 0 2.66657 0C1.40653 0 0.380859 1.02567 0.380859 2.28571C0.380859 3.54576 1.40653 4.57143 2.66657 4.57143C3.92662 4.57143 4.95229 3.54576 4.95229 2.28571ZM1.90467 2.28571C1.90467 1.86607 2.24693 1.52381 2.66657 1.52381C3.08622 1.52381 3.42848 1.86607 3.42848 2.28571C3.42848 2.70536 3.08622 3.04762 2.66657 3.04762C2.24693 3.04762 1.90467 2.70536 1.90467 2.28571Z" fill="white"/>
<path d="M41.3113 30.1935L39.8065 27.1842C40.1257 26.5365 40.3991 25.8821 40.6238 25.2307L43.8095 24.1686V15.4506L40.6238 14.3885C40.3999 13.737 40.1257 13.0826 39.8065 12.435L41.3128 9.42268L35.1488 3.25862L32.1365 4.76494C31.4888 4.44574 30.8344 4.17156 30.183 3.9476L29.1209 0.761963H20.4029L19.3407 3.9476C18.6893 4.17156 18.0349 4.44574 17.3872 4.76494L14.375 3.25862L8.21089 9.42268L9.71722 12.435C9.39802 13.0826 9.12384 13.737 8.89988 14.3885L5.71424 15.4506V24.1678L8.89988 25.2296C9.12235 25.8765 9.39281 26.525 9.70903 27.1675L8.72912 28.9524H4.19043V44.1905H9.52376V41.9048H15.3035L17.5892 44.1905H21.7142V44.9524C21.7142 46.6332 23.0811 48.0001 24.7619 48.0001C26.4427 48.0001 27.8095 46.6332 27.8095 44.9524V44.1905H33.1436C34.4036 44.1905 35.4293 43.1649 35.4293 41.9048C35.4293 41.3174 35.2001 40.7865 34.8351 40.381C35.2008 39.9755 35.4293 39.4446 35.4293 38.8572C35.4293 38.2698 35.2001 37.7389 34.8351 37.3334C35.1261 37.0105 35.3247 36.6072 35.3943 36.1578L41.3113 30.1935ZM11.2466 26.8297C10.8273 26.0246 10.4854 25.2062 10.2299 24.3985L10.1127 24.0283L7.23805 23.0696V16.5488L10.1127 15.5908L10.2291 15.2199C10.4836 14.413 10.8258 13.5946 11.2455 12.7895L11.4248 12.4443L10.0647 9.72365L14.6752 5.11315L17.3958 6.47327L17.741 6.29433C18.5468 5.87431 19.3645 5.53242 20.1715 5.27759L20.5424 5.16114L21.5018 2.28577H28.0226L28.9806 5.1604L29.3515 5.27684C30.1584 5.53131 30.9769 5.87357 31.7819 6.29321L32.1272 6.47253L34.8478 5.11241L39.4583 9.7229L38.0982 12.4435L38.2771 12.7887C38.6971 13.5946 39.039 14.4123 39.2939 15.2192L39.4103 15.5901L42.2857 16.5495V23.0704L39.411 24.0283L39.2939 24.3985C39.0383 25.2062 38.6964 26.0246 38.2771 26.8297L38.0982 27.1749L39.4598 29.8974L34.9575 34.4342C34.9189 34.3832 34.8776 34.333 34.8351 34.2858C35.2008 33.8803 35.4293 33.3494 35.4293 32.762C35.4293 31.5733 34.5141 30.6057 33.3537 30.4975C36.5859 27.9071 38.4761 24.0198 38.4761 19.8096C38.4761 12.2478 32.3236 6.0953 24.7619 6.0953C17.2001 6.0953 11.0476 12.2478 11.0476 19.8096C11.0476 23.9688 12.9386 27.8814 16.1484 30.4763H9.63128L11.4345 27.1909L11.2466 26.8297ZM33.9055 38.8572C33.9055 39.2776 33.5632 39.6191 33.1436 39.6191H27.0476C26.6279 39.6191 26.2857 39.2776 26.2857 38.8572C26.2857 38.4368 26.6279 38.0953 27.0476 38.0953H33.1436C33.5632 38.0953 33.9055 38.4368 33.9055 38.8572ZM22.9226 19.8096H26.6011L27.8095 18.6012V15.2382C28.6499 15.2382 29.3333 15.9216 29.3333 16.762V20.256L26.7321 22.8572H22.7916L20.1904 20.256V16.762C20.1904 15.9216 20.8738 15.2382 21.7142 15.2382V18.6012L22.9226 19.8096ZM23.238 24.381H26.2857V27.4286H23.238V24.381ZM27.8095 23.9346L30.8571 20.887V16.762C30.8571 15.0812 29.4903 13.7143 27.8095 13.7143H26.2857V17.9703L25.9702 18.2858H23.5535L23.238 17.9703V13.7143H21.7142C20.0334 13.7143 18.6666 15.0812 18.6666 16.762V20.887L21.7142 23.9346V27.4286H19.875L19.827 27.4766C17.2258 25.7981 15.619 22.9204 15.619 19.8096C15.619 14.7679 19.7202 10.6667 24.7619 10.6667C29.8035 10.6667 33.9047 14.7679 33.9047 19.8096C33.9047 22.8978 32.3619 25.7259 29.7797 27.4286H27.8095V23.9346ZM35.4285 19.8096C35.4285 13.9275 30.6439 9.14292 24.7619 9.14292C18.8798 9.14292 14.0952 13.9275 14.0952 19.8096C14.0952 23.3289 15.8459 26.6057 18.7176 28.586L17.6205 29.6831C14.4564 27.3914 12.5714 23.7236 12.5714 19.8096C12.5714 13.0882 18.0405 7.61911 24.7619 7.61911C31.4832 7.61911 36.9523 13.0882 36.9523 19.8096C36.9523 23.5748 35.2503 27.0492 32.3444 29.3524C32.2574 28.8122 31.9817 28.3397 31.5855 27.9963C34.0137 25.9803 35.4285 23.012 35.4285 19.8096ZM33.1436 32.0001C33.5632 32.0001 33.9055 32.3416 33.9055 32.762C33.9055 33.1824 33.5632 33.5239 33.1436 33.5239H27.0476C26.6279 33.5239 26.2857 33.1824 26.2857 32.762C26.2857 32.3416 26.6279 32.0001 27.0476 32.0001H33.1436ZM27.0476 36.5715C26.6279 36.5715 26.2857 36.23 26.2857 35.8096C26.2857 35.3892 26.6279 35.0477 27.0476 35.0477H33.1436C33.5632 35.0477 33.9055 35.3892 33.9055 35.8096C33.9055 36.23 33.5632 36.5715 33.1436 36.5715H27.0476ZM7.99995 42.6667H5.71424V30.4763H7.99995V42.6667ZM18.2202 42.6667L15.9345 40.381H9.52376V32.0001H17.4583L20.5059 28.9524H30.0952C30.5148 28.9524 30.8571 29.294 30.8571 29.7143C30.8571 30.1347 30.5148 30.4763 30.0952 30.4763H22.1607L18.8898 33.7471L19.9672 34.8245L21.7142 33.0774V42.6667H18.2202ZM24.7619 46.4763C23.9215 46.4763 23.238 45.7928 23.238 44.9524V32.0001H24.9021C24.8165 32.2393 24.7619 32.4937 24.7619 32.762C24.7619 33.3494 24.991 33.8803 25.356 34.2858C24.9903 34.6913 24.7619 35.2222 24.7619 35.8096C24.7619 36.397 24.991 36.9279 25.356 37.3334C24.9903 37.7389 24.7619 38.2698 24.7619 38.8572C24.7619 39.4446 24.991 39.9755 25.356 40.381C24.9903 40.7865 24.7619 41.3174 24.7619 41.9048C24.7619 42.8966 25.401 43.7348 26.2857 44.0503V44.9524C26.2857 45.7928 25.6023 46.4763 24.7619 46.4763ZM33.1436 42.6667H27.0476C26.6279 42.6667 26.2857 42.3252 26.2857 41.9048C26.2857 41.4844 26.6279 41.1429 27.0476 41.1429H33.1436C33.5632 41.1429 33.9055 41.4844 33.9055 41.9048C33.9055 42.3252 33.5632 42.6667 33.1436 42.6667Z" fill="white"/>
<path d="M1.90479 6.85718H3.42859V8.38099H1.90479V6.85718Z" fill="white"/>
<path d="M1.90479 10.6666H3.42859V12.1904H1.90479V10.6666Z" fill="white"/>
<path d="M1.90479 14.4762H3.42859V16H1.90479V14.4762Z" fill="white"/>
<path d="M44.5715 32H46.0953V33.5238H44.5715V32Z" fill="white"/>
<path d="M44.5715 35.8096H46.0953V37.3334H44.5715V35.8096Z" fill="white"/>
<path d="M44.5715 39.619H46.0953V41.1428H44.5715V39.619Z" fill="white"/>
</g>
<defs>
<clipPath id="clip0_623_78">
<rect width="48" height="48" fill="white"/>
</clipPath>
</defs>
</svg>
