<svg width="54" height="54" viewBox="0 0 54 54" fill="none" xmlns="http://www.w3.org/2000/svg">
<g clip-path="url(#clip0_822_103)">
<path d="M0 0H44.323C46.8895 0 49.3509 1.01954 51.1657 2.83434C52.9805 4.64914 54 7.11053 54 9.67705V54H9.67705C7.11053 54 4.64914 52.9805 2.83434 51.1657C1.01954 49.3509 0 46.8895 0 44.323L0 0Z" fill="#1F0040"/>
<path d="M44.323 2.45455C46.2377 2.45698 48.0734 3.2187 49.4273 4.57266C50.7813 5.92661 51.543 7.76227 51.5455 9.67705V51.5455H9.67705C7.76227 51.543 5.92661 50.7813 4.57266 49.4273C3.2187 48.0734 2.45698 46.2377 2.45455 44.323V2.45455H44.323ZM44.323 0H0V44.323C0 46.8895 1.01954 49.3509 2.83434 51.1657C4.64914 52.9805 7.11053 54 9.67705 54H54V9.67705C54 7.11053 52.9805 4.64914 51.1657 2.83434C50.2671 1.93574 49.2003 1.22294 48.0262 0.736621C46.8521 0.250304 45.5938 0 44.323 0Z" fill="#D291FF"/>
<path d="M23.1433 31.0039H16.7369L15.1353 35.8363C15.1169 35.9836 15.0146 36.0572 14.8285 36.0572H11.9321C11.748 36.0572 11.6836 35.9652 11.7388 35.7811L17.4886 19.3786C17.656 18.8846 17.74 18.3661 17.7371 17.8445C17.7371 17.7341 17.8016 17.6788 17.9304 17.6788H21.9191C21.9651 17.6792 22.0101 17.6922 22.0491 17.7166C22.0881 17.741 22.1195 17.7757 22.14 17.8169L28.5341 35.8087C28.5893 35.9744 28.5341 36.0572 28.3684 36.0572H25.1038C25.0431 36.059 24.9835 36.0412 24.9338 36.0063C24.884 35.9715 24.8468 35.9216 24.8277 35.8639L23.1433 31.0039ZM17.4549 28.3254H22.4253C22.3517 28.0677 21.9702 26.8946 21.2809 24.8062C20.5916 22.7178 20.1354 21.286 19.9125 20.5108H19.8849C19.664 21.4496 18.854 24.0545 17.4549 28.3254Z" fill="#D291FF"/>
<path d="M39.1042 29.9822H33.5538C33.5399 30.4799 33.6271 30.9752 33.8101 31.4382C33.9931 31.9013 34.2681 32.3224 34.6185 32.6761C35.3099 33.347 36.3172 33.6824 37.6407 33.6824C38.8191 33.709 39.9887 33.4732 41.0647 32.9921C41.1752 32.9553 41.2304 33.0013 41.2304 33.1302V35.2012C41.2385 35.2666 41.2271 35.3329 41.1977 35.3919C41.1682 35.4509 41.1219 35.4998 41.0647 35.5325C39.749 36.0976 38.3265 36.3708 36.8951 36.3333C35.7903 36.3575 34.6918 36.1603 33.6643 35.7535C32.8243 35.4234 32.0842 34.8811 31.5166 34.1795C31.0095 33.5304 30.623 32.7957 30.3752 32.0103C30.1207 31.193 29.9944 30.3411 30.0009 29.4852C29.9461 27.6378 30.5705 25.8345 31.7559 24.4165C32.9259 23.0481 34.5224 22.3629 36.5453 22.3608C38.4599 22.3608 39.8917 22.9315 40.8408 24.0729C41.7892 25.1892 42.2995 26.6122 42.2767 28.0769C42.2798 28.6036 42.2429 29.1297 42.1662 29.6508C42.1626 29.7082 42.1382 29.7624 42.0975 29.803C42.0568 29.8437 42.0027 29.8681 41.9453 29.8717C41.0013 29.9648 40.0526 30.0017 39.1042 29.9822ZM33.5538 27.8345H37.475C37.9635 27.8544 38.4528 27.8359 38.9385 27.7793C38.9613 27.6517 38.9705 27.5221 38.9661 27.3927C38.975 26.7195 38.7674 26.0612 38.3739 25.5149C37.9751 24.9627 37.3277 24.6865 36.4257 24.6865C36.0409 24.6681 35.6573 24.7398 35.3052 24.8958C34.9531 25.0519 34.6423 25.2881 34.3976 25.5855C33.8931 26.229 33.5985 27.0119 33.5538 27.8283V27.8345Z" fill="#D291FF"/>
</g>
<defs>
<clipPath id="clip0_822_103">
<rect width="54" height="54" fill="white"/>
</clipPath>
</defs>
</svg>
