<svg width="54" height="47" viewBox="0 0 54 47" fill="none" xmlns="http://www.w3.org/2000/svg">
<path fill-rule="evenodd" clip-rule="evenodd" d="M53.1828 46.0289C52.6598 46.4828 51.9495 46.7379 51.2089 46.7379C50.4682 46.7379 49.758 46.4828 49.235 46.0289L38.4531 36.6975L39.1738 34.0237L42.4009 33.2808L53.1828 42.6122C54.2719 43.556 54.2719 45.0851 53.1828 46.0289Z" fill="#E64C3C"/>
<path fill-rule="evenodd" clip-rule="evenodd" d="M40.688 30.3799L42.5595 31.9996C42.9205 32.3139 42.9205 32.8215 42.5595 33.1358L42.4012 33.2808L38.4534 36.6975L38.2858 36.8345C37.9227 37.147 37.3362 37.147 36.973 36.8345L35.1016 35.2148L40.688 30.3799Z" fill="#F0C419"/>
<path fill-rule="evenodd" clip-rule="evenodd" d="M44.6917 19.34C44.6917 30.0211 34.6871 38.6798 22.3458 38.6798C10.0046 38.6798 0 30.0211 0 19.34C0 8.65895 10.0046 0.000236419 22.3458 0.000236419C28.2813 -0.0252085 33.9821 2.0042 38.1792 5.63664C42.3762 9.26908 44.7211 14.203 44.6917 19.34Z" fill="#41767F"/>
<path d="M22.3457 35.4566C32.6301 35.4566 40.9672 28.241 40.9672 19.3401C40.9672 10.4392 32.6301 3.22363 22.3457 3.22363C12.0613 3.22363 3.72412 10.4392 3.72412 19.3401C3.72412 28.241 12.0613 35.4566 22.3457 35.4566Z" fill="#B0D3F0"/>
<path fill-rule="evenodd" clip-rule="evenodd" d="M19.5529 7.48633C19.0743 7.48509 18.6748 7.1701 18.6289 6.75784C18.5829 6.34559 18.9056 5.97033 19.375 5.88999C20.3538 5.7244 21.3488 5.64102 22.3461 5.64099C22.8603 5.64099 23.2772 6.00177 23.2772 6.44681C23.2772 6.89186 22.8603 7.25264 22.3461 7.25264C21.4685 7.25252 20.593 7.32565 19.7316 7.47102C19.6728 7.48117 19.6129 7.48629 19.5529 7.48633Z" fill="white"/>
<path fill-rule="evenodd" clip-rule="evenodd" d="M7.44866 20.1459C6.93444 20.1459 6.51758 19.7851 6.51758 19.3401C6.54775 14.1074 9.99514 9.33973 15.4196 7.0287C15.719 6.90232 16.0735 6.92376 16.3497 7.08496C16.6258 7.24616 16.7816 7.52262 16.7584 7.8102C16.7352 8.09778 16.5365 8.3528 16.2371 8.47918C11.4503 10.5171 8.40745 14.7232 8.37973 19.3401C8.37973 19.7851 7.96287 20.1459 7.44866 20.1459Z" fill="white"/>
<path fill-rule="evenodd" clip-rule="evenodd" d="M30.7252 18.5342V27.3982C30.7252 27.8433 30.3083 28.2041 29.7941 28.2041H14.8969C14.3827 28.2041 13.9658 27.8433 13.9658 27.3982V18.5342H30.7252Z" fill="white"/>
<path fill-rule="evenodd" clip-rule="evenodd" d="M31.6005 18.5342H13.0907C12.6893 18.5411 12.325 18.3322 12.176 18.0096C12.0269 17.687 12.1242 17.3183 12.4203 17.0837L21.6845 9.88773C22.0616 9.59781 22.6296 9.59781 23.0066 9.88773L27.0009 12.9902L30.7253 15.8831L32.2708 17.0837C32.5669 17.3183 32.6642 17.687 32.5152 18.0096C32.3661 18.3322 32.0018 18.5411 31.6005 18.5342Z" fill="#E64C3C"/>
<path fill-rule="evenodd" clip-rule="evenodd" d="M30.7258 11.2818V15.883L27.0015 12.9901V11.2818C27.0015 10.8367 27.4183 10.476 27.9325 10.476H29.7947C30.3089 10.476 30.7258 10.8367 30.7258 11.2818Z" fill="#C03A2B"/>
<path fill-rule="evenodd" clip-rule="evenodd" d="M22.346 23.3691C23.3745 23.3691 24.2082 24.0907 24.2082 24.9808V28.2041H20.4839V24.9808C20.4839 24.0907 21.3176 23.3691 22.346 23.3691Z" fill="#CB8252"/>
</svg>
