<svg width="54" height="54" viewBox="0 0 54 54" fill="none" xmlns="http://www.w3.org/2000/svg">
<g clip-path="url(#clip0_822_294)">
<path d="M0 0H44.323C46.8895 0 49.3509 1.01954 51.1657 2.83434C52.9805 4.64914 54 7.11053 54 9.67705V54H9.67705C7.11053 54 4.64914 52.9805 2.83434 51.1657C1.01954 49.3509 0 46.8895 0 44.323L0 0Z" fill="#2F0014"/>
<path d="M44.323 2.45455C46.2377 2.45698 48.0734 3.2187 49.4273 4.57266C50.7813 5.92661 51.543 7.76227 51.5455 9.67705V51.5455H9.67705C7.76227 51.543 5.92661 50.7813 4.57266 49.4273C3.2187 48.0734 2.45698 46.2377 2.45455 44.323V2.45455H44.323ZM44.323 0H0V44.323C0 46.8895 1.01954 49.3509 2.83434 51.1657C4.64914 52.9805 7.11053 54 9.67705 54H54V9.67705C54 7.11053 52.9805 4.64914 51.1657 2.83434C50.2671 1.93574 49.2003 1.22294 48.0262 0.736621C46.8521 0.250304 45.5938 0 44.323 0Z" fill="#FC3F93"/>
<path d="M20.7716 18.6453V36.5696C20.7716 36.7353 20.698 36.8181 20.5507 36.8181H17.5132C17.4795 36.8227 17.4452 36.8194 17.413 36.8085C17.3807 36.7976 17.3515 36.7795 17.3274 36.7554C17.3033 36.7313 17.2852 36.7021 17.2743 36.6698C17.2634 36.6376 17.2601 36.6033 17.2647 36.5696V18.6453C17.2647 18.5011 17.3475 18.4274 17.5132 18.4274H20.5568C20.5862 18.4239 20.6159 18.4271 20.6438 18.4368C20.6717 18.4466 20.697 18.4626 20.7177 18.4836C20.7385 18.5046 20.7541 18.5302 20.7634 18.5582C20.7728 18.5862 20.7756 18.616 20.7716 18.6453Z" fill="#FC3F93"/>
<path d="M31.0161 37.0943C28.8806 37.0943 27.1634 36.5093 25.8646 35.3393C24.5657 34.1693 23.9214 32.4532 23.9316 30.1909C23.9038 29.2472 24.075 28.3081 24.4339 27.4349C24.7928 26.5616 25.3315 25.7737 26.0149 25.1223C27.4058 23.7886 29.2703 23.1208 31.6082 23.1187C32.1248 23.1064 32.6407 23.1631 33.1423 23.2875V17.102C33.1382 17.0756 33.1404 17.0485 33.1486 17.0231C33.1568 16.9976 33.1709 16.9744 33.1897 16.9553C33.2085 16.9363 33.2314 16.9218 33.2568 16.9132C33.2821 16.9046 33.3091 16.902 33.3356 16.9057H36.4836C36.5063 16.9025 36.5295 16.9047 36.5513 16.9121C36.573 16.9196 36.5927 16.932 36.6088 16.9484C36.6249 16.9648 36.637 16.9847 36.644 17.0066C36.651 17.0285 36.6528 17.0517 36.6492 17.0744V33.7254C36.6492 34.0384 36.6769 34.6643 36.7321 35.6032C36.7388 35.6304 36.7398 35.6588 36.7349 35.6865C36.7301 35.7142 36.7195 35.7405 36.7039 35.7639C36.6884 35.7873 36.6681 35.8071 36.6444 35.8223C36.6207 35.8374 36.5942 35.8474 36.5664 35.8517C34.835 36.683 32.9366 37.108 31.0161 37.0943ZM33.1423 34.2225V25.8556C32.639 25.632 32.091 25.527 31.5407 25.5487C30.9974 25.5257 30.4554 25.6186 29.9507 25.8212C29.446 26.0238 28.9903 26.3315 28.6137 26.7238C27.8773 27.5073 27.5091 28.6169 27.5091 30.0528C27.5091 31.5624 27.8773 32.6874 28.6137 33.4278C28.9787 33.7921 29.4145 34.0778 29.8942 34.2672C30.3738 34.4566 30.8872 34.5458 31.4027 34.5293C31.9961 34.5574 32.5884 34.4526 33.1362 34.2225H33.1423Z" fill="#FC3F93"/>
</g>
<defs>
<clipPath id="clip0_822_294">
<rect width="54" height="54" fill="white"/>
</clipPath>
</defs>
</svg>
