<svg width="54" height="54" viewBox="0 0 54 54" fill="none" xmlns="http://www.w3.org/2000/svg">
<g clip-path="url(#clip0_822_52)">
<path d="M0 0H44.323C46.8895 0 49.3509 1.01954 51.1657 2.83434C52.9805 4.64914 54 7.11053 54 9.67705V54H9.67705C7.11053 54 4.64914 52.9805 2.83434 51.1657C1.01954 49.3509 0 46.8895 0 44.323L0 0Z" fill="#002732"/>
<path d="M44.323 2.45455C46.2377 2.45698 48.0734 3.2187 49.4273 4.57266C50.7813 5.92661 51.543 7.76227 51.5455 9.67705V51.5455H9.67705C7.76227 51.543 5.92661 50.7813 4.57266 49.4273C3.2187 48.0734 2.45698 46.2377 2.45455 44.323V2.45455H44.323ZM44.323 0H0V44.323C0 46.8895 1.01954 49.3509 2.83434 51.1657C4.64914 52.9805 7.11053 54 9.67705 54H54V9.67705C54 7.11053 52.9805 4.64914 51.1657 2.83434C50.2671 1.93574 49.2003 1.22294 48.0262 0.736621C46.8521 0.250304 45.5938 0 44.323 0Z" fill="#00D4FF"/>
<path d="M14.795 35.8977V17.8875C14.7915 17.8613 14.794 17.8346 14.8025 17.8095C14.8109 17.7845 14.8251 17.7617 14.8438 17.743C14.8625 17.7243 14.8853 17.7101 14.9103 17.7017C14.9354 17.6932 14.9621 17.6907 14.9883 17.6942C16.3874 17.6574 18.1639 17.639 20.3177 17.639C22.8582 17.639 24.7226 18.2097 25.911 19.351C26.4876 19.8909 26.944 20.5461 27.2506 21.274C27.5572 22.0019 27.7071 22.7862 27.6906 23.5759C27.6906 25.6541 26.9542 27.2045 25.4815 28.2273C24.0088 29.25 22.1627 29.7522 19.9434 29.7338H18.3019V35.8701C18.306 35.9001 18.3031 35.9306 18.2934 35.9592C18.2837 35.9879 18.2676 36.0139 18.2462 36.0353C18.2248 36.0567 18.1988 36.0728 18.1701 36.0825C18.1415 36.0922 18.111 36.0951 18.081 36.091H15.0128C14.8676 36.0869 14.795 36.0225 14.795 35.8977ZM18.3019 20.2899V27.0828C18.8989 27.1326 19.498 27.1511 20.0968 27.1381C21.3241 27.1381 22.3233 26.866 23.0944 26.3219C23.8656 25.7778 24.2471 24.8901 24.2389 23.6588C24.2389 22.5726 23.9034 21.735 23.2325 21.1459C22.5616 20.5568 21.59 20.2582 20.3177 20.25C20.0109 20.25 19.7041 20.25 19.3973 20.25C19.0905 20.25 18.845 20.25 18.6517 20.25L18.3019 20.2899Z" fill="#00D4FF"/>
<path d="M38.1561 25.8126C37.1929 25.1907 36.0718 24.8575 34.9253 24.8523C34.4243 24.8128 33.9241 24.9389 33.5017 25.2112C33.3635 25.3076 33.2502 25.4356 33.1713 25.5844C33.0923 25.7333 33.0499 25.8988 33.0476 26.0673C33.05 26.231 33.0864 26.3925 33.1545 26.5415C33.2227 26.6904 33.321 26.8236 33.4434 26.9325C33.9352 27.3093 34.4856 27.6026 35.0726 27.8008C36.6006 28.3899 37.6724 29.0117 38.2881 29.6662C38.916 30.3535 39.2468 31.2612 39.2085 32.1913C39.2268 32.7722 39.1073 33.3491 38.8599 33.8749C38.6125 34.4007 38.2441 34.8604 37.7849 35.2166C36.8358 35.9795 35.5523 36.361 33.9343 36.361C32.3163 36.361 30.9868 36.0665 29.9457 35.4774C29.8905 35.4575 29.8438 35.4191 29.8136 35.3688C29.7834 35.3185 29.7716 35.2593 29.78 35.2012V32.6332C29.7765 32.6043 29.7809 32.5751 29.7928 32.5486C29.8047 32.5221 29.8236 32.4994 29.8475 32.4828C29.8649 32.4675 29.8872 32.4591 29.9104 32.4591C29.9335 32.4591 29.9559 32.4675 29.9733 32.4828C31.073 33.3332 32.4215 33.7988 33.8116 33.8083C34.3266 33.841 34.8398 33.7215 35.2874 33.4646C35.4434 33.3721 35.5726 33.2405 35.6625 33.0829C35.7523 32.9253 35.7996 32.7471 35.7998 32.5657C35.8031 32.3826 35.768 32.2009 35.6966 32.0323C35.6253 31.8637 35.5193 31.7119 35.3856 31.5869C34.8987 31.2018 34.3469 30.9067 33.7563 30.7155C32.2836 30.1449 31.2609 29.5312 30.6882 28.8746C30.0974 28.1892 29.7873 27.306 29.8199 26.4017C29.8112 25.8569 29.9231 25.317 30.1475 24.8206C30.3718 24.3241 30.7032 23.8834 31.1177 23.5299C31.9809 22.7751 33.2133 22.3977 34.8149 22.3977C36.306 22.3977 37.4566 22.6023 38.2666 23.0113C38.3586 23.0666 38.4046 23.1862 38.4046 23.3703V25.6623C38.4046 25.8729 38.3218 25.923 38.1561 25.8126Z" fill="#00D4FF"/>
</g>
<defs>
<clipPath id="clip0_822_52">
<rect width="54" height="54" fill="white"/>
</clipPath>
</defs>
</svg>
