<svg width="54" height="47" viewBox="0 0 54 47" fill="none" xmlns="http://www.w3.org/2000/svg">
<g clip-path="url(#clip0_822_241)">
<path d="M27 46.7379C41.9117 46.7379 54 36.2753 54 23.3689C54 10.4626 41.9117 0 27 0C12.0883 0 0 10.4626 0 23.3689C0 36.2753 12.0883 46.7379 27 46.7379Z" fill="#6E64C3"/>
<path d="M42.7368 11.8127L35.2859 9.20679L22.1613 20.214L14.2319 15.0076L11.2241 16.3092L11.2627 30.0635L30.3241 46.5614C43.6673 45.1433 53.9998 35.3009 53.9998 23.3689C53.9998 22.7348 53.9696 22.1067 53.9123 21.4852L42.7368 11.8127Z" fill="#5046AF"/>
<path d="M42.7368 11.8127L35.2859 9.20679L22.1613 20.214L14.2319 15.0076L11.2241 16.3092L11.2627 30.0635L14.2705 31.3651L22.1999 26.1587L35.3245 37.1659L42.7754 34.56L42.7368 11.8127ZM15.0225 26.0995V20.2733L18.7435 23.1863H18.7821L15.0225 26.0995ZM34.5384 28.0371L27.0577 23.1863H27.0191L34.5384 18.3356V28.0371Z" fill="white"/>
</g>
<defs>
<clipPath id="clip0_822_241">
<rect width="54" height="46.7379" fill="white"/>
</clipPath>
</defs>
</svg>
