<svg width="81" height="81" viewBox="0 0 81 81" fill="none" xmlns="http://www.w3.org/2000/svg">
<path d="M15.3052 46.4408C13.4626 45.5544 11.4039 45.2167 9.3747 45.4679C7.34547 45.719 5.43129 46.5485 3.86041 47.8574C2.28953 49.1663 1.12823 50.8994 0.514977 52.85C-0.0982753 54.8006 -0.137601 56.8864 0.40169 58.8587C0.94098 60.831 2.03613 62.6066 3.55656 63.9738C5.07698 65.3409 6.95853 66.242 8.97685 66.5695C10.9952 66.897 13.0651 66.6371 14.9398 65.8208C16.8145 65.0046 18.4149 63.6664 19.5502 61.9658L29.6262 67.0098C29.2324 68.7345 29.274 70.5301 29.747 72.2349C30.2201 73.9396 31.1098 75.4998 32.3361 76.775C33.5624 78.0502 35.0866 79.0003 36.7715 79.5396C38.4565 80.079 40.2491 80.1907 41.9879 79.8647C43.7268 79.5386 45.3572 78.7851 46.7322 77.672C48.1073 76.5589 49.1839 75.1212 49.8649 73.4884C50.5459 71.8556 50.81 70.079 50.6334 68.3187C50.4568 66.5584 49.845 64.8697 48.8532 63.4048L63.0122 48.6048C64.6068 49.7904 66.501 50.507 68.4811 50.6737C70.4612 50.8405 72.4485 50.4508 74.219 49.5485C75.9895 48.6463 77.4727 47.2674 78.5015 45.5673C79.5302 43.8672 80.0636 41.9136 80.0415 39.9266C80.0194 37.9396 79.4426 35.9983 78.3763 34.3216C77.3099 32.6448 75.7963 31.2993 74.0062 30.4367C72.2161 29.5741 70.2206 29.2287 68.2447 29.4395C66.2688 29.6503 64.3911 30.4089 62.8232 31.6298L48.4352 17.2378C49.544 15.8176 50.2751 14.1398 50.5604 12.3608C50.8457 10.5818 50.6759 8.75948 50.0668 7.06381C49.4578 5.36813 48.4293 3.85428 47.0773 2.66338C45.7252 1.47248 44.0937 0.64331 42.3347 0.253171C40.5757 -0.136968 38.7465 -0.0753725 37.0178 0.432215C35.289 0.939803 33.7169 1.87685 32.4481 3.15601C31.1792 4.43517 30.2549 6.01478 29.7613 7.74759C29.2677 9.4804 29.2209 11.31 29.6252 13.0658L20.1692 16.5108C19.2205 14.6562 17.7496 13.1199 15.938 12.0913C14.1265 11.0628 12.0534 10.5871 9.97471 10.7229C7.89596 10.8586 5.90242 11.5999 4.24 12.8553C2.57758 14.1106 1.31899 15.8252 0.619504 17.7874C-0.0799872 19.7496 -0.189786 21.8737 0.30365 23.8976C0.797086 25.9215 1.87217 27.7566 3.39629 29.1767C4.92041 30.5968 6.82689 31.5397 8.88056 31.8891C10.9342 32.2384 13.0452 31.979 14.9532 31.1428L19.8612 39.4028L15.3052 46.4408ZM10.6822 64.0408C9.09995 64.0408 7.55323 63.5716 6.23764 62.6925C4.92205 61.8135 3.89667 60.564 3.29117 59.1022C2.68567 57.6404 2.52724 56.0319 2.83592 54.48C3.1446 52.9282 3.90653 51.5027 5.02535 50.3839C6.14417 49.2651 7.56963 48.5032 9.12148 48.1945C10.6733 47.8858 12.2819 48.0442 13.7437 48.6497C15.2055 49.2552 16.4549 50.2806 17.334 51.5962C18.213 52.9118 18.6822 54.4585 18.6822 56.0408C18.6801 58.1618 17.8365 60.1954 16.3367 61.6953C14.8369 63.1951 12.8033 64.0386 10.6822 64.0408ZM20.7382 59.5758C21.4657 57.5345 21.5498 55.3193 20.979 53.2288C20.4082 51.1383 19.2101 49.2731 17.5462 47.8848L21.3822 41.9658L32.9422 61.4168C31.9638 62.2856 31.1531 63.3264 30.5502 64.4878L20.7382 59.5758ZM40.0192 21.3758C42.3865 21.3757 44.6856 20.5833 46.5502 19.1248L60.9382 33.5118C60.0643 34.6347 59.4249 35.9219 59.0582 37.2968L50.6822 36.1448C50.6822 36.1098 50.6822 36.0758 50.6822 36.0448C50.6836 33.7562 49.9485 31.528 48.5858 29.6895C47.223 27.851 45.3049 26.4997 43.1149 25.8354C40.9249 25.1712 38.5793 25.2292 36.4248 26.0009C34.2704 26.7726 32.4214 28.2171 31.1512 30.1208L29.5602 29.3258L35.3972 20.3108C36.8379 21.0105 38.4186 21.3739 40.0202 21.3738L40.0192 21.3758ZM41.3522 58.8008V46.6138C43.4544 46.3453 45.4291 45.4575 47.0252 44.0634C48.6213 42.6692 49.7666 40.8317 50.3152 38.7848L58.6912 39.9368C58.6912 39.9718 58.6862 40.0058 58.6862 40.0368C58.6842 42.4858 59.5297 44.8601 61.0792 46.7568L47.0792 61.3958C45.4763 59.9724 43.4801 59.0674 41.3532 58.7998L41.3522 58.8008ZM40.0202 28.0408C41.6025 28.0408 43.1492 28.5099 44.4648 29.389C45.7804 30.268 46.8057 31.5175 47.4112 32.9793C48.0167 34.4411 48.1752 36.0496 47.8665 37.6015C47.5578 39.1533 46.7959 40.5788 45.6771 41.6976C44.5582 42.8164 43.1328 43.5784 41.5809 43.887C40.0291 44.1957 38.4205 44.0373 36.9587 43.4318C35.4969 42.8263 34.2475 41.8009 33.3684 40.4853C32.4894 39.1697 32.0202 37.623 32.0202 36.0408C32.0223 33.9197 32.8659 31.8861 34.3657 30.3862C35.8655 28.8864 37.8991 28.0429 40.0202 28.0408ZM29.9682 32.5058C29.4343 34.0056 29.2443 35.6063 29.4121 37.1895C29.58 38.7728 30.1015 40.298 30.938 41.6526C31.7746 43.0072 32.9048 44.1565 34.2453 45.0155C35.5857 45.8746 37.102 46.4215 38.6822 46.6158V58.8008C37.4453 58.9558 36.2455 59.3282 35.1382 59.9008L22.9982 39.4658L28.1062 31.5778L29.9682 32.5058ZM40.0202 77.3738C38.438 77.3738 36.8912 76.9046 35.5756 76.0255C34.26 75.1465 33.2347 73.897 32.6292 72.4352C32.0237 70.9734 31.8652 69.3649 32.1739 67.813C32.4826 66.2612 33.2445 64.8357 34.3633 63.7169C35.4822 62.5981 36.9076 61.8362 38.4595 61.5275C40.0113 61.2188 41.6199 61.3772 43.0817 61.9827C44.5435 62.5882 45.7929 63.6136 46.672 64.9292C47.551 66.2448 48.0202 67.7915 48.0202 69.3738C48.0181 71.4948 47.1745 73.5284 45.6747 75.0283C44.1749 76.5281 42.1413 77.3716 40.0202 77.3738ZM69.3532 32.0408C70.9355 32.0408 72.4822 32.5099 73.7978 33.389C75.1133 34.268 76.1387 35.5175 76.7442 36.9793C77.3497 38.4411 77.5082 40.0496 77.1995 41.6015C76.8908 43.1533 76.1289 44.5788 75.0101 45.6976C73.8912 46.8164 72.4658 47.5784 70.9139 47.887C69.3621 48.1957 67.7535 48.0373 66.2917 47.4318C64.8299 46.8263 63.5805 45.8009 62.7014 44.4853C61.8224 43.1697 61.3532 41.623 61.3532 40.0408C61.3553 37.9197 62.1989 35.8861 63.6987 34.3862C65.1985 32.8864 67.2321 32.0429 69.3532 32.0408ZM40.0202 2.70775C41.6025 2.70775 43.1492 3.17695 44.4648 4.056C45.7804 4.93505 46.8057 6.18448 47.4112 7.64629C48.0167 9.1081 48.1752 10.7166 47.8665 12.2685C47.5578 13.8203 46.7959 15.2458 45.6771 16.3646C44.5582 17.4834 43.1328 18.2454 41.5809 18.554C40.0291 18.8627 38.4205 18.7043 36.9587 18.0988C35.4969 17.4933 34.2475 16.4679 33.3684 15.1523C32.4894 13.8367 32.0202 12.29 32.0202 10.7078C32.0223 8.58667 32.8659 6.55307 34.3657 5.05324C35.8655 3.55341 37.8991 2.70987 40.0202 2.70775ZM30.5372 15.5658C31.1849 16.8283 32.0764 17.9499 33.1602 18.8658L27.1652 28.1248L20.7382 24.9118C21.4188 23.0207 21.5382 20.9732 21.0822 19.0158L30.5372 15.5658ZM2.6822 21.3738C2.6822 19.7915 3.15139 18.2448 4.03045 16.9292C4.9095 15.6136 6.15893 14.5882 7.62073 13.9827C9.08254 13.3772 10.6911 13.2188 12.2429 13.5275C13.7948 13.8362 15.2202 14.5981 16.3391 15.7169C17.4579 16.8357 18.2198 18.2612 18.5285 19.813C18.8372 21.3649 18.6787 22.9734 18.0732 24.4352C17.4677 25.897 16.4424 27.1465 15.1268 28.0255C13.8112 28.9046 12.2645 29.3738 10.6822 29.3738C8.56112 29.3716 6.52752 28.5281 5.02769 27.0283C3.52786 25.5284 2.68432 23.4948 2.6822 21.3738ZM17.2352 29.7738C18.1314 29.076 18.9114 28.2406 19.5462 27.2988L25.7022 30.3758L21.4822 36.9048L17.2352 29.7738Z" fill="#ED1C24"/>
</svg>
