<?xml version="1.0" encoding="UTF-8"?>
<svg xmlns="http://www.w3.org/2000/svg" id="Layer_3" data-name="Layer 3" viewBox="0 0 64 64" width="512" height="512"><path d="M31,31a1,1,0,0,0,.641-.232l4.318-3.6A22.288,22.288,0,0,0,44,10a1,1,0,0,0-1-1h-.6A17.314,17.314,0,0,1,31.625,5.219a1,1,0,0,0-1.25,0A17.314,17.314,0,0,1,19.6,9H19a1,1,0,0,0-1,1,22.285,22.285,0,0,0,8.041,17.168l4.318,3.6A1,1,0,0,0,31,31ZM20.024,11A19.329,19.329,0,0,0,31,7.26,19.334,19.334,0,0,0,41.976,11a20.284,20.284,0,0,1-7.3,14.637L31,28.7l-3.679-3.065A20.283,20.283,0,0,1,20.024,11Z"/><path d="M31.65,25.759l3.129-2.681a15.838,15.838,0,0,0,5.2-8.882A1,1,0,0,0,39,13a11.069,11.069,0,0,1-6.6-2.2l-.8-.6a1,1,0,0,0-1.2,0l-.8.6A11.074,11.074,0,0,1,23,13a1,1,0,0,0-.98,1.2,15.838,15.838,0,0,0,5.2,8.882l3.129,2.681a1,1,0,0,0,1.3,0Zm-3.129-4.2a13.839,13.839,0,0,1-4.262-6.621A13.106,13.106,0,0,0,30.8,12.4l.2-.15.2.15a13.1,13.1,0,0,0,6.541,2.538,13.839,13.839,0,0,1-4.262,6.621L31,23.683Z"/><path d="M62,35H53V2a1,1,0,0,0-1-1H10A1,1,0,0,0,9,2V27H2a1,1,0,0,0-1,1V58a5.006,5.006,0,0,0,5,5H48a5.006,5.006,0,0,0,5-5V55h9a1,1,0,0,0,1-1V36A1,1,0,0,0,62,35ZM3,58V29H9V58a3,3,0,0,1-6,0Zm48,0a3,3,0,0,1-3,3H9.974A4.948,4.948,0,0,0,11,58V3H51V35H50a1,1,0,0,0-1,1v1H46.414L43,33.586V28a1,1,0,0,0-1-1H41a4,4,0,0,0-4,4v6H30a3,3,0,0,0-3,3V52a3,3,0,0,0,3,3H42a1,1,0,0,0,.447-.1L46.236,53H49v1a1,1,0,0,0,1,1h1Zm-2-7H46a1,1,0,0,0-.447.1L41.764,53H30a1,1,0,0,1-1-1V51h8V49H29V47h8V45H29V43h8V41H29V40a1,1,0,0,1,1-1h8a1,1,0,0,0,1-1V31a2,2,0,0,1,2-2v5a1,1,0,0,0,.293.707l4,4A1,1,0,0,0,46,39h3Zm12,2H51V37H61Z"/><path d="M22.46,31.126A.974.974,0,0,0,22,31H14a1,1,0,0,0-1,1v8a1,1,0,0,0,1,1h8a1,1,0,0,0,1-1V33.414l2.707-2.707-1.414-1.414ZM21,39H15V33h5.586L18,35.586l-1.293-1.293-1.414,1.414,2,2a1,1,0,0,0,1.414,0L21,35.414Z"/><path d="M24.293,41.293,22.46,43.126A.971.971,0,0,0,22,43H14a1,1,0,0,0-1,1v8a1,1,0,0,0,1,1h8a1,1,0,0,0,1-1V45.414l2.707-2.707ZM21,51H15V45h5.586L18,47.586l-1.293-1.293-1.414,1.414,2,2a1,1,0,0,0,1.414,0L21,47.414Z"/></svg>
