<svg id="Capa_1" enable-background="new 0 0 512 512" height="512" viewBox="0 0 512 512" width="512" xmlns="http://www.w3.org/2000/svg"><g><g><path d="m329.618 126.454h86.662c4.143 0 7.5-3.358 7.5-7.5s-3.357-7.5-7.5-7.5h-86.662c-4.143 0-7.5 3.358-7.5 7.5s3.358 7.5 7.5 7.5z"/><path d="m264.077 111.454h-3.55c-4.142 0-7.5 3.358-7.5 7.5s3.358 7.5 7.5 7.5h3.55c4.143 0 7.5-3.358 7.5-7.5s-3.357-7.5-7.5-7.5z"/><path d="m234.495 111.454h-3.55c-4.142 0-7.5 3.358-7.5 7.5s3.358 7.5 7.5 7.5h3.55c4.142 0 7.5-3.358 7.5-7.5s-3.358-7.5-7.5-7.5z"/><path d="m416.28 204.963h-86.662c-4.143 0-7.5 3.358-7.5 7.5s3.357 7.5 7.5 7.5h86.662c4.143 0 7.5-3.358 7.5-7.5s-3.357-7.5-7.5-7.5z"/><path d="m264.077 204.963h-3.55c-4.142 0-7.5 3.358-7.5 7.5s3.358 7.5 7.5 7.5h3.55c4.143 0 7.5-3.358 7.5-7.5s-3.357-7.5-7.5-7.5z"/><path d="m234.495 204.963h-3.55c-4.142 0-7.5 3.358-7.5 7.5s3.358 7.5 7.5 7.5h3.55c4.142 0 7.5-3.358 7.5-7.5s-3.358-7.5-7.5-7.5z"/><path d="m416.28 298.473h-86.662c-4.143 0-7.5 3.358-7.5 7.5s3.357 7.5 7.5 7.5h86.662c4.143 0 7.5-3.358 7.5-7.5s-3.357-7.5-7.5-7.5z"/><path d="m154.349 253.633c-15.714 0-31.071 5.45-43.243 15.347-11.99 9.749-20.421 23.387-23.742 38.401-.895 4.044 1.659 8.048 5.704 8.943 4.047.895 8.048-1.66 8.943-5.704 5.38-24.329 27.392-41.987 52.338-41.987 29.565 0 53.619 24.053 53.619 53.619s-24.053 53.619-53.619 53.619c-22.103 0-42.242-13.881-50.113-34.542-1.474-3.87-5.807-5.812-9.679-4.338-3.871 1.475-5.813 5.808-4.338 9.679 10.073 26.438 35.845 44.201 64.13 44.201 37.836 0 68.619-30.782 68.619-68.619s-30.782-68.619-68.619-68.619z"/><path d="m148.078 350.328c1.989 0 3.897-.79 5.303-2.197l36.528-36.528c2.929-2.929 2.929-7.678 0-10.606-2.929-2.929-7.678-2.929-10.606 0l-31.225 31.225-18.263-18.263c-2.928-2.929-7.677-2.929-10.606 0s-2.929 7.678 0 10.606l23.566 23.566c1.406 1.407 3.314 2.197 5.303 2.197z"/><path d="m79.783 211.797h80.008c6.929 0 12.565-5.637 12.565-12.565v-89.248c0-3.356-1.307-6.512-3.68-8.885l-18.136-18.136c-2.373-2.375-5.529-3.682-8.886-3.682h-61.87c-6.929 0-12.565 5.637-12.565 12.565v107.386c-.001 6.929 5.635 12.565 12.564 12.565zm2.435-117.516h58.427l16.712 16.711v85.805h-75.139z"/><path d="m136.012 113.87h-32.45c-4.142 0-7.5 3.358-7.5 7.5s3.358 7.5 7.5 7.5h32.45c4.142 0 7.5-3.358 7.5-7.5s-3.358-7.5-7.5-7.5z"/><path d="m136.012 140.194h-32.45c-4.142 0-7.5 3.358-7.5 7.5s3.358 7.5 7.5 7.5h32.45c4.142 0 7.5-3.358 7.5-7.5s-3.358-7.5-7.5-7.5z"/><path d="m119.088 166.518h-15.526c-4.142 0-7.5 3.358-7.5 7.5s3.358 7.5 7.5 7.5h15.526c4.142 0 7.5-3.358 7.5-7.5s-3.358-7.5-7.5-7.5z"/><path d="m152.01 68.282h43.151c6.929 0 12.565-5.637 12.565-12.565v-43.152c.001-6.928-5.636-12.565-12.564-12.565h-43.152c-6.928 0-12.565 5.637-12.565 12.565v43.151c0 6.929 5.637 12.566 12.565 12.566zm2.435-53.282h38.282v38.282h-38.282z"/><path d="m362.862 359.5h-43.151c-6.929 0-12.565 5.637-12.565 12.565v43.151c0 6.928 5.637 12.565 12.565 12.565h43.151c6.929 0 12.565-5.637 12.565-12.565v-43.151c.001-6.928-5.636-12.565-12.565-12.565zm-2.434 53.282h-38.282v-38.282h38.282z"/><path d="m446.007 359.5h-43.151c-6.929 0-12.565 5.637-12.565 12.565v43.151c0 6.928 5.637 12.565 12.565 12.565h43.151c6.929 0 12.565-5.637 12.565-12.565v-43.151c0-6.928-5.636-12.565-12.565-12.565zm-2.435 53.282h-38.282v-38.282h38.282z"/><path d="m440.941 158.628c9.722 0 17.631-7.909 17.631-17.631v-44.086c0-9.721-7.909-17.63-17.631-17.63h-234.868c-9.721 0-17.63 7.909-17.63 17.63v44.086c0 9.722 7.909 17.631 17.63 17.631h.432v14.162h-.432c-9.721 0-17.63 7.909-17.63 17.63v36.843c-10.655-3.836-22.134-5.932-34.094-5.932-55.648 0-100.921 45.273-100.921 100.921s45.273 100.921 100.921 100.921c19.24 0 37.238-5.415 52.555-14.796l25.085 25.085c.013 3.394 1.339 6.583 3.74 8.983l14.544 14.544c2.928 2.929 7.676 2.929 10.607 0 2.929-2.929 2.929-7.677 0-10.606l-12.972-12.972 17.586-17.587 59.959 59.959c4.849 4.849 4.849 12.739 0 17.587-4.848 4.85-12.738 4.848-17.586 0l-22.238-22.239c-2.93-2.929-7.678-2.93-10.607 0-2.929 2.929-2.929 7.678 0 10.606l22.238 22.239c5.349 5.349 12.375 8.023 19.4 8.023s14.052-2.674 19.4-8.023c10.696-10.697 10.696-28.103 0-38.8l-61.531-61.531c-2.395-2.395-5.573-3.719-8.957-3.739l-25.099-25.099c5.456-8.908 9.566-18.723 12.053-29.161h188.414c9.722 0 17.631-7.909 17.631-17.63v-44.086c0-9.722-7.909-17.63-17.631-17.63h-.432v-14.163h.432c9.722 0 17.631-7.909 17.631-17.63v-44.087c0-9.721-7.909-17.63-17.631-17.63h-.432v-14.162zm-372.513 163.624c0-47.377 38.544-85.921 85.921-85.921s85.921 38.544 85.921 85.921-38.544 85.921-85.921 85.921-85.921-38.544-85.921-85.921zm183.851 85.575-12.356 12.356-20.695-20.695c4.465-3.757 8.6-7.892 12.356-12.356zm191.293-123.897v44.086c0 1.45-1.181 2.63-2.631 2.63h-186.023c.229-2.769.352-5.567.352-8.394 0-3.962-.237-7.87-.684-11.714 1.371 1.782 3.519 2.935 5.941 2.935h3.55c4.143 0 7.5-3.358 7.5-7.5s-3.357-7.5-7.5-7.5h-3.55c-3.232 0-5.979 2.049-7.033 4.915-1.463-7.706-3.803-15.105-6.916-22.088h194.363c1.451-.001 2.631 1.179 2.631 2.63zm-18.062-17.631h-187.213c-3.385-5.062-7.215-9.801-11.434-14.163h198.647zm18.062-75.879v44.086c0 1.45-1.181 2.63-2.631 2.63h-232.42c-1.659-1.06-3.354-2.068-5.078-3.032v-43.684c0-1.45 1.18-2.63 2.63-2.63h234.868c1.451 0 2.631 1.18 2.631 2.63zm-18.062-17.63h-204.005v-14.162h24.495c4.142 0 7.5-3.358 7.5-7.5s-3.358-7.5-7.5-7.5h-39.927c-1.45 0-2.63-1.18-2.63-2.631v-44.086c0-1.45 1.18-2.63 2.63-2.63h234.868c1.45 0 2.631 1.18 2.631 2.63v44.086c0 1.451-1.181 2.631-2.631 2.631h-159.941c-4.143 0-7.5 3.358-7.5 7.5s3.357 7.5 7.5 7.5h144.51z"/></g></g></svg>