<svg id="Layer_1" enable-background="new 0 0 450 450" height="512" viewBox="0 0 450 450" width="512" xmlns="http://www.w3.org/2000/svg"><path d="m399.1 385.2h-33.4c-2.8 0-5-2.2-5-5s2.2-5 5-5h33.4c8.7 0 15.8-7.1 15.8-15.8v-328.8c0-8.7-7.1-15.8-15.8-15.8h-347.7c-8.7 0-15.8 7.1-15.8 15.8v328.8c0 8.7 7.1 15.8 15.8 15.8h33.4c2.8 0 5 2.2 5 5s-2.2 5-5 5h-33.4c-14.3 0-25.8-11.6-25.8-25.8v-328.8c0-14.3 11.6-25.8 25.8-25.8h347.7c14.3 0 25.8 11.6 25.8 25.8v328.8c.1 14.2-11.5 25.8-25.8 25.8z"/><path d="m420 93.4h-389.4c-2.8 0-5-2.2-5-5s2.2-5 5-5h389.4c2.8 0 5 2.2 5 5s-2.3 5-5 5z"/><path d="m90.4 71.7c-12.5 0-22.7-10.2-22.7-22.7s10.2-22.7 22.7-22.7 22.7 10.2 22.7 22.7-10.2 22.7-22.7 22.7zm0-35.3c-7 0-12.7 5.7-12.7 12.7s5.7 12.7 12.7 12.7 12.7-5.7 12.7-12.7-5.7-12.7-12.7-12.7z"/><path d="m146.5 71.7c-12.5 0-22.7-10.2-22.7-22.7s10.2-22.7 22.7-22.7 22.7 10.2 22.7 22.7-10.2 22.7-22.7 22.7zm0-35.3c-7 0-12.7 5.7-12.7 12.7s5.7 12.7 12.7 12.7 12.7-5.7 12.7-12.7-5.7-12.7-12.7-12.7z"/><path d="m202.6 71.7c-12.5 0-22.7-10.2-22.7-22.7s10.2-22.7 22.7-22.7 22.7 10.2 22.7 22.7-10.2 22.7-22.7 22.7zm0-35.3c-7 0-12.7 5.7-12.7 12.7s5.7 12.7 12.7 12.7 12.7-5.7 12.7-12.7-5.7-12.7-12.7-12.7z"/><path d="m377.8 54.1h-106.2c-2.8 0-5-2.2-5-5s2.2-5 5-5h106.1c2.8 0 5 2.2 5 5s-2.1 5-4.9 5z"/><path d="m179.7 418.6c-1.1 0-2.2-.4-3.2-1.1l-50.5-41.3c-1.2-.9-1.8-2.4-1.8-3.9s.7-2.9 1.8-3.9l50.5-41.3c2.1-1.8 5.3-1.4 7 .7s1.4 5.3-.7 7l-45.7 37.4 45.7 37.4c2.1 1.7 2.5 4.9.7 7-.9 1.3-2.4 2-3.8 2z"/><path d="m270.8 418.6c-1.4 0-2.9-.6-3.9-1.8-1.7-2.1-1.4-5.3.7-7l45.7-37.4-45.7-37.4c-2.1-1.7-2.5-4.9-.7-7 1.7-2.1 4.9-2.5 7-.7l50.5 41.3c1.2.9 1.8 2.4 1.8 3.9s-.7 2.9-1.8 3.9l-50.4 41c-.9.8-2 1.2-3.2 1.2z"/><path d="m212.4 425.4c-.4 0-.9-.1-1.3-.2-2.7-.7-4.3-3.5-3.5-6.1l25.8-96.2c.7-2.7 3.5-4.2 6.1-3.5 2.7.7 4.3 3.5 3.5 6.1l-25.8 96.2c-.6 2.2-2.6 3.7-4.8 3.7z"/><path d="m335.4 446.7h-220.3c-19.5 0-35.3-15.9-35.3-35.3v-78.3c0-19.5 15.9-35.3 35.3-35.3h220.2c19.5 0 35.3 15.9 35.3 35.3v78.3c.1 19.5-15.7 35.3-35.2 35.3zm-220.3-138.9c-14 0-25.3 11.4-25.3 25.3v78.3c0 14 11.4 25.3 25.3 25.3h220.2c14 0 25.3-11.4 25.3-25.3v-78.3c0-14-11.4-25.3-25.3-25.3z"/><path d="m254.4 307.8c-2.8 0-5-2.2-5-5v-86.2c0-2.8 2.2-5 5-5h12.7c5.3 0 7.9-4.5 8.8-6.4 2-4.4 2.3-11.3-1.8-16l-41.6-47.9c-1.9-2.2-4.5-3.4-7.3-3.4s-5.4 1.2-7.3 3.4l-41.6 47.9c-3.5 4-4.2 10.7-1.7 16.1 1.1 2.4 3.7 6.3 8.7 6.3h12.8c2.8 0 5 2.2 5 5v86.2c0 2.8-2.2 5-5 5s-5-2.2-5-5v-81.2h-7.8c-7.7 0-14.3-4.6-17.8-12.2-4.1-9-2.8-19.8 3.3-26.8l41.6-47.9c3.8-4.3 9.2-6.8 14.9-6.8s11.1 2.5 14.9 6.8l41.6 47.9c6.1 7 7.4 17.8 3.3 26.8-3.5 7.7-10.2 12.3-17.9 12.3h-7.7v81.2c-.1 2.7-2.4 4.9-5.1 4.9z"/><path d="m160 126.4h-96.4c-2.8 0-5-2.2-5-5s2.2-5 5-5h96.4c2.8 0 5 2.2 5 5s-2.2 5-5 5z"/><path d="m160 151.3h-96.4c-2.8 0-5-2.2-5-5s2.2-5 5-5h96.4c2.8 0 5 2.2 5 5s-2.2 5-5 5z"/><path d="m130.3 176.1h-66.7c-2.8 0-5-2.2-5-5s2.2-5 5-5h66.7c2.8 0 5 2.2 5 5s-2.2 5-5 5z"/><path d="m387 126.4h-96.5c-2.8 0-5-2.2-5-5s2.2-5 5-5h96.5c2.8 0 5 2.2 5 5s-2.3 5-5 5z"/><path d="m387 151.3h-96.5c-2.8 0-5-2.2-5-5s2.2-5 5-5h96.5c2.8 0 5 2.2 5 5s-2.3 5-5 5z"/><path d="m387 176.1h-66.7c-2.8 0-5-2.2-5-5s2.2-5 5-5h66.7c2.8 0 5 2.2 5 5s-2.3 5-5 5z"/><path d="m225.3 285.4c-2.8 0-5-2.2-5-5v-54.5c0-2.8 2.2-5 5-5s5 2.2 5 5v54.5c0 2.8-2.3 5-5 5z"/></svg>