<svg height="512" viewBox="0 0 128 128" width="512" xmlns="http://www.w3.org/2000/svg"><g><path d="m117.62 15.278h-44.648a5.831 5.831 0 0 0 -5.823 5.822v64.253h-6.3v-64.253a5.831 5.831 0 0 0 -5.823-5.824h-44.646a5.83 5.83 0 0 0 -5.823 5.824v85.8a5.83 5.83 0 0 0 5.823 5.824h44.648a5.831 5.831 0 0 0 5.823-5.824v-18.047h6.3v18.047a5.831 5.831 0 0 0 5.823 5.824h44.646a5.83 5.83 0 0 0 5.823-5.824v-85.8a5.83 5.83 0 0 0 -5.823-5.822zm-75.12 3.5-1.281 4.457a1.515 1.515 0 0 1 -1.449 1.09h-14.135a1.515 1.515 0 0 1 -1.449-1.09l-1.281-4.457zm12.525 90.444h-44.645a2.326 2.326 0 0 1 -2.323-2.322v-3.223h49.294v3.223a2.326 2.326 0 0 1 -2.323 2.322zm2.323-9.047h-49.291v-79.075a2.326 2.326 0 0 1 2.323-2.324h8.884l1.559 5.424a5.028 5.028 0 0 0 4.812 3.623h14.138a5.028 5.028 0 0 0 4.812-3.623l1.56-5.424h8.883a2.326 2.326 0 0 1 2.323 2.324v64.253h-17.474a7.39 7.39 0 1 0 0 3.5h17.474zm-20.748-13.075a3.891 3.891 0 1 1 -3.9-3.888 3.895 3.895 0 0 1 3.9 3.888zm68.5-68.325-1.282 4.457a1.513 1.513 0 0 1 -1.448 1.09h-14.143a1.515 1.515 0 0 1 -1.449-1.09l-1.278-4.454zm-13.862 75.205a1.749 1.749 0 0 0 2.475 0l5.64-5.64a1.749 1.749 0 0 0 0-2.475l-5.64-5.64a1.75 1.75 0 1 0 -2.475 2.475l2.654 2.654h-23.243v-64.254a2.326 2.326 0 0 1 2.323-2.324h8.883l1.56 5.424a5.028 5.028 0 0 0 4.812 3.623h14.138a5.029 5.029 0 0 0 4.812-3.623l1.559-5.424h8.884a2.326 2.326 0 0 1 2.323 2.324v79.073h-49.294v-11.32h23.243l-2.654 2.653a1.75 1.75 0 0 0 0 2.474zm26.382 15.242h-44.648a2.326 2.326 0 0 1 -2.323-2.324v-3.223h49.294v3.225a2.326 2.326 0 0 1 -2.323 2.322z"/><path d="m15.488 49.749h34.431a1.749 1.749 0 0 0 1.75-1.749v-12.743a1.749 1.749 0 0 0 -1.75-1.75h-34.431a1.749 1.749 0 0 0 -1.75 1.75v12.743a1.749 1.749 0 0 0 1.75 1.749zm1.75-12.742h30.931v9.242h-30.931z"/><path d="m114.262 70.371v-35.114a1.75 1.75 0 0 0 -1.75-1.75h-34.431a1.749 1.749 0 0 0 -1.75 1.75v35.114a1.749 1.749 0 0 0 1.75 1.75h34.431a1.75 1.75 0 0 0 1.75-1.75zm-3.5-1.75h-30.931v-31.614h30.931z"/><path d="m51.669 70.371a1.749 1.749 0 0 0 -1.75-1.75h-34.431a1.75 1.75 0 0 0 0 3.5h34.431a1.749 1.749 0 0 0 1.75-1.75z"/><path d="m15.488 60.935h34.431a1.75 1.75 0 0 0 0-3.5h-34.431a1.75 1.75 0 0 0 0 3.5z"/></g></svg>