<svg width="89" height="89" viewBox="0 0 89 89" fill="none" xmlns="http://www.w3.org/2000/svg">
<path d="M44.204 25.0313C40.3534 25.0313 36.5893 26.1731 33.3877 28.3123C30.1861 30.4516 27.6908 33.4922 26.2172 37.0496C24.7437 40.6071 24.3581 44.5216 25.1093 48.2982C25.8605 52.0747 27.7147 55.5437 30.4375 58.2665C33.1603 60.9892 36.6293 62.8435 40.4058 63.5947C44.1824 64.3459 48.0969 63.9603 51.6544 62.4868C55.2118 61.0132 58.2524 58.5179 60.3917 55.3163C62.5309 52.1146 63.6727 48.3506 63.6727 44.5C63.667 39.3383 61.6139 34.3897 57.9641 30.7399C54.3142 27.0901 49.3656 25.037 44.204 25.0313ZM47.1699 54.3315V60.908C45.2084 61.2809 43.1941 61.2806 41.2326 60.9071V54.3315C41.2327 54.0716 41.1599 53.817 41.0226 53.5964C40.8853 53.3758 40.689 53.1981 40.4558 53.0834C39.1358 52.4411 38.0032 51.4702 37.1668 50.2638C36.3304 49.0575 35.8184 47.6563 35.6798 46.1949C35.5412 44.7335 35.7808 43.261 36.3756 41.9189C36.9704 40.5769 37.9003 39.4104 39.0761 38.5314V45.8906C39.076 46.0733 39.1119 46.2541 39.1818 46.4228C39.2517 46.5916 39.3541 46.7449 39.4833 46.8741C39.6124 47.0032 39.7657 47.1056 39.9345 47.1755C40.1032 47.2454 40.284 47.2813 40.4667 47.2812H47.9345C48.1171 47.2813 48.298 47.2454 48.4667 47.1755C48.6355 47.1056 48.7888 47.0032 48.9179 46.8741C49.0471 46.7449 49.1495 46.5916 49.2194 46.4228C49.2892 46.2541 49.3252 46.0733 49.3251 45.8906V38.5158C50.5051 39.3937 51.4388 40.5608 52.0364 41.9046C52.6339 43.2484 52.875 44.7235 52.7365 46.1876C52.5979 47.6518 52.0844 49.0555 51.2454 50.2633C50.4065 51.4712 49.2704 52.4425 47.9467 53.0834C47.7136 53.1981 47.5172 53.3758 47.3799 53.5964C47.2426 53.817 47.1699 54.0716 47.1699 54.3315ZM49.9512 60.1462V55.1605C51.7793 54.0894 53.2706 52.5273 54.2559 50.6515C55.2411 48.7757 55.6808 46.6613 55.5251 44.5482C55.3695 42.4351 54.6246 40.408 53.375 38.6968C52.1255 36.9857 50.4214 35.659 48.456 34.8674C48.2449 34.7821 48.0161 34.7499 47.7897 34.7736C47.5633 34.7973 47.3461 34.8763 47.1573 35.0035C46.9685 35.1308 46.8139 35.3024 46.7069 35.5034C46.5999 35.7044 46.544 35.9286 46.5439 36.1562V44.5H41.8573V36.1698C41.8572 35.9422 41.8012 35.718 41.6943 35.517C41.5873 35.316 41.4327 35.1444 41.2439 35.0171C41.0551 34.8899 40.8379 34.8109 40.6115 34.7872C40.3851 34.7635 40.1563 34.7957 39.9452 34.8811C37.9834 35.6745 36.283 37.0012 35.0363 38.7111C33.7896 40.421 33.0464 42.4458 32.891 44.5562C32.7355 46.6666 33.1739 48.7784 34.1566 50.6525C35.1393 52.5266 36.627 54.0882 38.4514 55.1605V60.1443C34.7722 58.7932 31.686 56.1901 29.7337 52.7915C27.7815 49.3929 27.0878 45.4156 27.7743 41.5568C28.4608 37.6979 30.4836 34.2039 33.4882 31.687C36.4927 29.1702 40.2873 27.7913 44.2067 27.792C48.1262 27.7926 51.9203 29.1728 54.924 31.6907C57.9277 34.2085 59.9494 37.7033 60.6345 41.5623C61.3197 45.4214 60.6247 49.3985 58.6713 52.7964C56.7179 56.1944 53.6308 58.7964 49.9512 60.1462Z" fill="#ED1C24"/>
<path d="M68.4802 52.2091C68.55 51.9402 68.7049 51.701 68.9217 51.5272C69.1386 51.3535 69.4057 51.2545 69.6834 51.2449H71.4896C71.8122 51.2449 72.1248 51.1327 72.3738 50.9275C72.6227 50.7224 72.7927 50.4371 72.8544 50.1204C73.5914 46.4099 73.5914 42.5906 72.8544 38.88C72.7927 38.5634 72.6227 38.278 72.3738 38.0729C72.1248 37.8678 71.8122 37.7556 71.4896 37.7555H69.6834C69.4058 37.746 69.1387 37.6471 68.9219 37.4734C68.7051 37.2998 68.5502 37.0608 68.4802 36.792C68.041 35.4133 67.4849 34.0747 66.818 32.7906C66.6766 32.5507 66.6168 32.2715 66.6474 31.9947C66.678 31.718 66.7974 31.4586 66.9877 31.2553L68.2724 29.9713C68.5005 29.743 68.6421 29.4426 68.673 29.1214C68.704 28.8002 68.6224 28.4783 68.4422 28.2106C66.3327 25.0709 63.6332 22.3711 60.4936 20.2614C60.2259 20.0817 59.9041 20.0004 59.5831 20.0315C59.2622 20.0626 58.9619 20.2041 58.7336 20.4318L57.4489 21.7165C57.2454 21.9066 56.986 22.0259 56.7091 22.0565C56.4324 22.0871 56.1531 22.0274 55.913 21.8863C54.6292 21.2192 53.2907 20.6631 51.9122 20.224C51.6434 20.1541 51.4044 19.9992 51.2309 19.7823C51.0574 19.5655 50.9586 19.2984 50.9493 19.0208V17.2146C50.9494 16.892 50.8373 16.5794 50.6321 16.3304C50.4269 16.0813 50.1416 15.9115 49.8249 15.8498C46.1135 15.1165 42.2944 15.1165 38.583 15.8498C38.2663 15.9115 37.981 16.0813 37.7758 16.3304C37.5706 16.5794 37.4585 16.892 37.4586 17.2146V19.0208C37.4493 19.2984 37.3505 19.5655 37.177 19.7823C37.0035 19.9992 36.7645 20.1541 36.4957 20.224C35.1172 20.6631 33.7787 21.2192 32.4949 21.8863C32.2548 22.0273 31.9755 22.0869 31.6988 22.0563C31.422 22.0258 31.1625 21.9066 30.959 21.7165L29.6743 20.4318C29.446 20.204 29.1458 20.0625 28.8248 20.0315C28.5038 20.0004 28.182 20.0816 27.9143 20.2614C24.7747 22.3711 22.0751 25.0709 19.9657 28.2106C19.7855 28.4783 19.7039 28.8002 19.7348 29.1214C19.7658 29.4426 19.9074 29.743 20.1355 29.9713L21.4202 31.2546C21.6105 31.4582 21.7299 31.7178 21.7605 31.9948C21.7911 32.2717 21.7312 32.5511 21.5899 32.7913C20.9232 34.075 20.3671 35.4132 19.9277 36.7914C19.8578 37.0603 19.703 37.2995 19.4861 37.4732C19.2693 37.647 19.0022 37.746 18.7245 37.7556H16.9184C16.5958 37.7556 16.2832 37.8678 16.0342 38.0729C15.7852 38.2781 15.6153 38.5634 15.5536 38.88C14.8166 42.5906 14.8166 46.4099 15.5536 50.1205C15.6153 50.4371 15.7852 50.7224 16.0342 50.9276C16.2832 51.1327 16.5958 51.2449 16.9184 51.2449H18.7246C19.0022 51.2545 19.2693 51.3534 19.4861 51.527C19.7029 51.7006 19.8578 51.9396 19.9278 52.2084C20.3669 53.5867 20.923 54.9249 21.59 56.2085C21.7314 56.4487 21.7913 56.7281 21.7607 57.0051C21.7301 57.282 21.6106 57.5417 21.4203 57.7452L20.1356 59.0292C19.9075 59.2575 19.7659 59.5579 19.7349 59.8791C19.704 60.2003 19.7856 60.5222 19.9658 60.7899C22.0753 63.9296 24.7748 66.6294 27.9144 68.7391C28.1819 68.9195 28.5039 69.0011 28.825 68.97C29.1461 68.9389 29.4465 68.797 29.6744 68.5687L30.9591 67.284C31.1628 67.0943 31.4223 66.9753 31.699 66.9448C31.9756 66.9142 32.2548 66.9736 32.495 67.1142C33.7788 67.7813 35.1173 68.3374 36.4959 68.7765C36.7646 68.8464 37.0036 69.0013 37.1771 69.2182C37.3506 69.435 37.4494 69.7021 37.4587 69.9797V71.7859C37.4587 72.1085 37.5709 72.421 37.776 72.67C37.9812 72.919 38.2665 73.0889 38.5832 73.1507C42.2942 73.8876 46.1139 73.8876 49.825 73.1507C50.1416 73.0889 50.4269 72.919 50.6321 72.67C50.8372 72.421 50.9494 72.1085 50.9494 71.7859V69.9796C50.9587 69.7021 51.0575 69.4349 51.231 69.2181C51.4045 69.0013 51.6435 68.8463 51.9123 68.7764C53.2908 68.3373 54.6293 67.7812 55.9131 67.1142C56.1533 66.9735 56.4325 66.914 56.7092 66.9446C56.9859 66.9752 57.2453 67.0942 57.449 67.2839L58.7337 68.5686C58.9619 68.7966 59.2621 68.9383 59.5832 68.9694C59.9042 69.0005 60.2261 68.9191 60.4937 68.7391C63.6333 66.6294 66.3329 63.9296 68.4423 60.7898C68.6225 60.5222 68.7042 60.2002 68.6732 59.879C68.6422 59.5578 68.5006 59.2574 68.2726 59.0291L66.9879 57.7458C66.7974 57.5422 66.678 57.2823 66.6477 57.0052C66.6173 56.728 66.6776 56.4485 66.8195 56.2085C67.4855 54.9249 68.041 53.5869 68.4802 52.2091ZM65.8293 51.3664C65.4387 52.5928 64.9444 53.7838 64.3518 54.9265C63.9374 55.6911 63.7789 56.5684 63.8994 57.4297C64.0199 58.2911 64.413 59.0912 65.0213 59.7128L65.4789 60.1691C63.9033 62.3094 62.0133 64.1994 59.873 65.7751L59.4153 65.3174C58.7942 64.7091 57.9945 64.3158 57.1335 64.195C56.2725 64.0743 55.3955 64.2325 54.631 64.6466C53.4883 65.24 52.2971 65.7347 51.0702 66.1255C50.239 66.375 49.5093 66.8834 48.9873 67.5767C48.4653 68.27 48.1783 69.1118 48.1681 69.9796V70.6165C45.541 71.0225 42.867 71.0225 40.2399 70.6165V69.9796C40.2298 69.1118 39.9428 68.27 39.4207 67.5767C38.8987 66.8834 38.169 66.375 37.3378 66.1255C36.1109 65.7347 34.9197 65.24 33.777 64.6466C33.0125 64.2328 32.1355 64.0747 31.2746 64.1954C30.4136 64.3162 29.614 64.7094 28.9927 65.3174L28.535 65.7744C26.3949 64.1988 24.505 62.3091 22.9291 60.1691L23.3867 59.7122C23.9945 59.0906 24.3876 58.2909 24.5086 57.43C24.6295 56.5691 24.472 55.6921 24.059 54.9271C23.4643 53.7847 22.9691 52.5931 22.5787 51.3657C22.3291 50.5346 21.8206 49.8049 21.1274 49.2829C20.4341 48.7609 19.5923 48.4739 18.7246 48.4636H18.0877C17.6803 45.8371 17.6803 43.1634 18.0877 40.5368H18.7246C19.5924 40.5265 20.4343 40.2394 21.1276 39.7173C21.8208 39.1951 22.3292 38.4653 22.5787 37.634C22.9693 36.4067 23.4646 35.2152 24.059 34.0726C24.4719 33.3076 24.6294 32.4306 24.5085 31.5697C24.3875 30.7088 23.9945 29.9092 23.3867 29.2876L22.9291 28.8313C24.505 26.6914 26.3949 24.8016 28.535 23.226L28.9927 23.683C29.6143 24.2906 30.4139 24.6835 31.2747 24.8042C32.1355 24.9249 33.0123 24.7671 33.777 24.3539C34.9197 23.7605 36.1109 23.2657 37.3378 22.875C38.169 22.6254 38.8987 22.117 39.4207 21.4237C39.9428 20.7305 40.2298 19.8886 40.2399 19.0209V18.384C42.867 17.9779 45.541 17.9779 48.1681 18.384V19.0209C48.1783 19.8886 48.4653 20.7305 48.9873 21.4237C49.5093 22.117 50.239 22.6254 51.0702 22.875C52.2971 23.2657 53.4883 23.7605 54.631 24.3539C55.3956 24.7674 56.2725 24.9253 57.1334 24.8046C57.9943 24.6839 58.7939 24.2909 59.4153 23.683L59.873 23.226C62.0131 24.8016 63.9031 26.6914 65.4789 28.8313L65.0213 29.2883C64.4132 29.9096 64.02 30.7092 63.8993 31.5701C63.7785 32.4311 63.9366 33.308 64.3504 34.0726C64.9438 35.2155 65.4386 36.407 65.8293 37.634C66.0789 38.4651 66.5874 39.1955 67.2806 39.7175C67.9739 40.2395 68.8157 40.5266 69.6834 40.5368H70.3203C70.7277 43.1634 70.7277 45.8371 70.3203 48.4636H69.6834C68.8156 48.4739 67.9737 48.761 67.2805 49.2832C66.5872 49.8053 66.0788 50.5351 65.8293 51.3664Z" fill="#ED1C24"/>
<path d="M80.6563 15.2969C80.6563 13.9217 80.2485 12.5774 79.4844 11.4339C78.7204 10.2905 77.6345 9.39929 76.364 8.87303C75.0935 8.34676 73.6954 8.20907 72.3466 8.47736C70.9979 8.74564 69.7589 9.40786 68.7865 10.3803C67.8141 11.3527 67.1519 12.5916 66.8836 13.9404C66.6153 15.2892 66.753 16.6872 67.2793 17.9577C67.8055 19.2282 68.6967 20.3142 69.8402 21.0782C70.9836 21.8422 72.3279 22.25 73.7031 22.25C75.5465 22.2478 77.3138 21.5146 78.6173 20.2111C79.9208 18.9076 80.6541 17.1403 80.6563 15.2969ZM69.5313 15.2969C69.5313 14.4718 69.7759 13.6652 70.2343 12.9791C70.6928 12.293 71.3443 11.7583 72.1066 11.4426C72.8689 11.1268 73.7078 11.0442 74.517 11.2052C75.3263 11.3661 76.0696 11.7635 76.6531 12.3469C77.2365 12.9304 77.6339 13.6737 77.7948 14.483C77.9558 15.2923 77.8732 16.1311 77.5574 16.8934C77.2417 17.6557 76.707 18.3073 76.0209 18.7657C75.3348 19.2241 74.5282 19.4688 73.7031 19.4688C72.597 19.4675 71.5366 19.0276 70.7545 18.2455C69.9724 17.4634 69.5325 16.403 69.5313 15.2969Z" fill="#ED1C24"/>
<path d="M22.25 73.7031C22.25 72.3279 21.8422 70.9836 21.0782 69.8402C20.3142 68.6967 19.2282 67.8055 17.9577 67.2793C16.6872 66.753 15.2892 66.6153 13.9404 66.8836C12.5916 67.1519 11.3527 67.8141 10.3803 68.7865C9.40786 69.7589 8.74564 70.9979 8.47736 72.3466C8.20907 73.6954 8.34676 75.0935 8.87303 76.364C9.39929 77.6345 10.2905 78.7204 11.4339 79.4844C12.5774 80.2485 13.9217 80.6563 15.2969 80.6563C17.1403 80.6541 18.9076 79.9208 20.2111 78.6173C21.5146 77.3138 22.2478 75.5465 22.25 73.7031ZM11.125 73.7031C11.125 72.878 11.3697 72.0714 11.8281 71.3854C12.2865 70.6993 12.9381 70.1646 13.7004 69.8488C14.4627 69.5331 15.3015 69.4504 16.1108 69.6114C16.92 69.7724 17.6634 70.1697 18.2468 70.7532C18.8303 71.3366 19.2276 72.08 19.3886 72.8892C19.5496 73.6985 19.4669 74.5373 19.1512 75.2996C18.8354 76.0619 18.3007 76.7135 17.6146 77.1719C16.9286 77.6303 16.122 77.875 15.2969 77.875C14.1908 77.8738 13.1304 77.4339 12.3483 76.6518C11.5661 75.8696 11.1262 74.8092 11.125 73.7031Z" fill="#ED1C24"/>
<path d="M9.56602 64.6626C5.13149 56.9731 3.35712 48.0356 4.51792 39.2353C5.67872 30.4349 9.70986 22.2632 15.9866 15.9866C22.2633 9.70991 30.4351 5.67887 39.2354 4.51818C48.0358 3.35749 56.9733 5.13196 64.6627 9.56659L66.0561 7.15888C57.8363 2.41736 48.2819 0.519749 38.8739 1.76019C29.466 3.00063 20.73 7.30985 14.02 14.0199C7.31009 20.7299 3.00097 29.466 1.76062 38.8739C0.520276 48.2818 2.41799 57.8362 7.15959 66.056L9.56602 64.6626Z" fill="#ED1C24"/>
<path d="M79.434 24.3373C83.8669 32.024 85.6416 40.9579 84.4832 49.7553C83.3249 58.5527 79.2981 66.7227 73.0266 73C66.7551 79.2772 58.5889 83.3115 49.7925 84.478C40.9962 85.6445 32.0607 83.8781 24.3699 79.4523L22.9792 81.8615C31.2006 86.5935 40.7528 88.4825 50.1565 87.2358C59.5601 85.9891 68.2902 81.6764 74.9945 74.9657C81.6988 68.2549 86.0032 59.5207 87.2408 50.1159C88.4785 40.7111 86.5803 31.1606 81.8404 22.9438L79.434 24.3373Z" fill="#ED1C24"/>
</svg>
