<svg width="74" height="71" viewBox="0 0 44 44" fill="none" xmlns="http://www.w3.org/2000/svg">
<path d="M24.1692 38.466C24.1692 38.7249 23.9593 38.9347 23.7004 38.9347H20.1695C19.9107 38.9347 19.7008 38.7249 19.7008 38.466C19.7008 38.207 19.9107 37.9972 20.1695 37.9972H23.7004C23.9593 37.9972 24.1692 38.207 24.1692 38.466ZM43.5625 34.9326V40.3218C43.5625 42.1087 42.1087 43.5624 40.3218 43.5624H30.1455C28.9307 43.5624 27.8703 42.8901 27.3156 41.8983H15.6429C13.2891 41.8983 11.3742 39.9834 11.3742 37.6297V24.6321H8.89178C8.63294 24.6321 8.42303 24.4223 8.42303 24.1634V12.6305H3.75991C1.92784 12.6305 0.4375 11.1401 0.4375 9.30813V3.75981C0.4375 1.92784 1.92784 0.4375 3.75981 0.4375H14.0236C15.8555 0.4375 17.346 1.92784 17.346 3.75981V6.55656H28.2269C29.6575 6.55656 30.9899 7.28725 31.7761 8.46147L37.1307 3.10684C37.3138 2.92375 37.6106 2.92375 37.7936 3.10684L39.9042 5.21734C39.9921 5.30528 40.0415 5.42444 40.0415 5.54875C40.0415 5.67306 39.9921 5.79231 39.9043 5.88016L32.4957 13.2888V28.4761H35.2337C35.4925 28.4761 35.7024 28.6859 35.7024 28.9448V31.6922H40.3218C42.1087 31.6921 43.5625 33.1458 43.5625 34.9326ZM32.4957 29.4134V31.6921H34.7649V29.4134H32.4957ZM25.772 15.7912L25.1144 17.8966L27.2197 17.2389L38.91 5.54866L37.4623 4.10116L25.772 15.7912ZM25.8445 18.6507L24.5401 19.0581C24.4941 19.0725 24.4471 19.0795 24.4004 19.0795C24.2779 19.0795 24.1581 19.0314 24.0689 18.9422C23.9456 18.819 23.9009 18.6374 23.9529 18.471L24.4283 16.9491C23.7033 16.4348 22.8296 16.1538 21.935 16.1538C19.7171 16.1538 17.8851 17.8381 17.6507 19.9947H26.2191C26.1682 19.5287 26.0409 19.0744 25.8445 18.6507ZM21.9349 15.2163C22.9632 15.2163 23.7997 14.3798 23.7997 13.3516C23.7997 12.3233 22.9632 11.4868 21.9349 11.4868C20.9068 11.4868 20.0702 12.3233 20.0702 13.3516C20.0702 14.3798 20.9067 15.2163 21.9349 15.2163ZM3.75981 11.693H14.0236C15.3386 11.693 16.4085 10.6232 16.4085 9.30822V3.75981C16.4085 2.44488 15.3386 1.375 14.0236 1.375H3.75981C2.44488 1.375 1.375 2.44488 1.375 3.75981V9.30813C1.375 10.6231 2.44488 11.693 3.75981 11.693ZM11.3742 23.6946V12.6305H9.36053V23.6947H11.3742V23.6946ZM15.5357 25.4113V24.6321H12.3116V35.3308H26.9048V34.9326C26.9048 33.1457 28.3585 31.6921 30.1454 31.6921H31.5581V29.4134H28.3341V30.1925C28.3341 30.4515 28.1242 30.6613 27.8654 30.6613H16.0044C15.7456 30.6613 15.5357 30.4515 15.5357 30.1925V27.6967C15.5357 27.4378 15.7456 27.228 16.0044 27.228H27.8655C28.1243 27.228 28.3342 27.4378 28.3342 27.6967V28.476H31.5582V14.2262L27.8011 17.9834C27.7474 18.037 27.6817 18.0767 27.6093 18.0993L26.7462 18.369C27.032 19.0263 27.182 19.7402 27.182 20.4633C27.182 20.7223 26.9721 20.9321 26.7133 20.9321H17.1566C16.8978 20.9321 16.6878 20.7223 16.6878 20.4633C16.6878 18.1903 18.141 16.251 20.1668 15.5236C19.5362 15.0092 19.1327 14.2267 19.1327 13.3515C19.1327 11.8064 20.3897 10.5492 21.9348 10.5492C23.4799 10.5492 24.7371 11.8063 24.7371 13.3515C24.7371 14.2267 24.3335 15.0093 23.7029 15.5236C24.0577 15.6505 24.399 15.8154 24.7197 16.0159L24.9116 15.4015C24.9342 15.3292 24.974 15.2634 25.0276 15.2099L31.0956 9.14181C30.4989 8.13203 29.4062 7.49387 28.227 7.49387H17.346V9.30803C17.346 11.14 15.8555 12.6303 14.0236 12.6303H12.3116V23.6945H15.5357V22.9153C15.5357 22.6563 15.7456 22.4465 16.0044 22.4465H27.8655C28.1243 22.4465 28.3342 22.6563 28.3342 22.9153V25.4111C28.3342 25.67 28.1243 25.8798 27.8655 25.8798H16.0044C15.7456 25.88 15.5357 25.6701 15.5357 25.4113ZM27.3967 24.9425V23.3842H16.4732V24.9425H27.3967ZM16.4732 28.1655V29.7238H27.3967V28.1655H16.4732ZM26.9685 40.9609C26.9269 40.7542 26.9049 40.5407 26.9049 40.3219V36.2684H12.3117V37.6298C12.3117 39.4667 13.8061 40.9609 15.6429 40.9609H26.9685ZM42.625 34.9326C42.625 33.6627 41.5918 32.6296 40.3218 32.6296H30.1455C28.8755 32.6296 27.8424 33.6628 27.8424 34.9326V40.3218C27.8424 41.5918 28.8756 42.6249 30.1455 42.6249H40.3218C41.5918 42.625 42.625 41.5918 42.625 40.3219V34.9326ZM13.2512 4.34256H4.53241C4.27356 4.34256 4.06366 4.55237 4.06366 4.81131C4.06366 5.07025 4.27356 5.28006 4.53241 5.28006H13.2512C13.51 5.28006 13.7199 5.07025 13.7199 4.81131C13.7199 4.55237 13.51 4.34256 13.2512 4.34256ZM13.2512 7.78788H4.53241C4.27356 7.78788 4.06366 7.99769 4.06366 8.25663C4.06366 8.51556 4.27356 8.72538 4.53241 8.72538H13.2512C13.51 8.72538 13.7199 8.51556 13.7199 8.25663C13.7199 7.99769 13.51 7.78788 13.2512 7.78788ZM39.593 38.8811H30.8743C30.6154 38.8811 30.4055 39.0909 30.4055 39.3498C30.4055 39.6088 30.6154 39.8186 30.8743 39.8186H39.593C39.8519 39.8186 40.0618 39.6088 40.0618 39.3498C40.0618 39.0909 39.8519 38.8811 39.593 38.8811ZM39.593 35.4358H30.8743C30.6154 35.4358 30.4055 35.6456 30.4055 35.9045C30.4055 36.1635 30.6154 36.3733 30.8743 36.3733H39.593C39.8519 36.3733 40.0618 36.1635 40.0618 35.9045C40.0618 35.6456 39.8519 35.4358 39.593 35.4358Z" fill="#ED1C24"/>
</svg>
