<svg width="48" height="48" viewBox="0 0 48 48" fill="none" xmlns="http://www.w3.org/2000/svg">
<path fill-rule="evenodd" clip-rule="evenodd" d="M22.5 30C22.5 28.806 22.026 27.6615 21.1815 26.8185C20.3385 25.974 19.194 25.5 18 25.5C15.021 25.5 10.479 25.5 7.5 25.5C6.306 25.5 5.1615 25.974 4.3185 26.8185C3.474 27.6615 3 28.806 3 30V40.5C3 41.694 3.474 42.8385 4.3185 43.6815C5.1615 44.526 6.306 45 7.5 45H18C19.194 45 20.3385 44.526 21.1815 43.6815C22.026 42.8385 22.5 41.694 22.5 40.5V30ZM45 30C45 28.806 44.526 27.6615 43.6815 26.8185C42.8385 25.974 41.694 25.5 40.5 25.5C37.521 25.5 32.979 25.5 30 25.5C28.806 25.5 27.6615 25.974 26.8185 26.8185C25.974 27.6615 25.5 28.806 25.5 30V40.5C25.5 41.694 25.974 42.8385 26.8185 43.6815C27.6615 44.526 28.806 45 30 45H40.5C41.694 45 42.8385 44.526 43.6815 43.6815C44.526 42.8385 45 41.694 45 40.5V30ZM19.5 30V40.5C19.5 40.8975 19.3425 41.28 19.0605 41.5605C18.78 41.8425 18.3975 42 18 42H7.5C7.1025 42 6.72 41.8425 6.4395 41.5605C6.1575 41.28 6 40.8975 6 40.5V30C6 29.6025 6.1575 29.22 6.4395 28.9395C6.72 28.6575 7.1025 28.5 7.5 28.5H18C18.3975 28.5 18.78 28.6575 19.0605 28.9395C19.3425 29.22 19.5 29.6025 19.5 30ZM42 30V40.5C42 40.8975 41.8425 41.28 41.5605 41.5605C41.28 41.8425 40.8975 42 40.5 42H30C29.6025 42 29.22 41.8425 28.9395 41.5605C28.6575 41.28 28.5 40.8975 28.5 40.5V30C28.5 29.6025 28.6575 29.22 28.9395 28.9395C29.22 28.6575 29.6025 28.5 30 28.5H40.5C40.8975 28.5 41.28 28.6575 41.5605 28.9395C41.8425 29.22 42 29.6025 42 30ZM38.4315 22.1895L44.6895 15.9315C46.446 14.175 46.446 11.325 44.6895 9.56853L38.4315 3.31054C36.675 1.55404 33.825 1.55404 32.0685 3.31054L25.8105 9.56853C24.054 11.325 24.054 14.175 25.8105 15.9315L32.0685 22.1895C33.825 23.946 36.675 23.946 38.4315 22.1895ZM22.5 7.50004C22.5 6.30604 22.026 5.16153 21.1815 4.31853C20.3385 3.47403 19.194 3.00004 18 3.00004C15.021 3.00004 10.479 3.00004 7.5 3.00004C6.306 3.00004 5.1615 3.47403 4.3185 4.31853C3.474 5.16153 3 6.30604 3 7.50004V18C3 19.194 3.474 20.3385 4.3185 21.1815C5.1615 22.026 6.306 22.5 7.5 22.5H18C19.194 22.5 20.3385 22.026 21.1815 21.1815C22.026 20.3385 22.5 19.194 22.5 18V7.50004ZM42.5685 13.8105L36.3105 20.0685C35.7255 20.6535 34.7745 20.6535 34.1895 20.0685L27.9315 13.8105C27.3465 13.2255 27.3465 12.2745 27.9315 11.6895L34.1895 5.43154C34.7745 4.84654 35.7255 4.84654 36.3105 5.43154L42.5685 11.6895C43.1535 12.2745 43.1535 13.2255 42.5685 13.8105ZM19.5 7.50004V18C19.5 18.3975 19.3425 18.78 19.0605 19.0605C18.78 19.3425 18.3975 19.5 18 19.5H7.5C7.1025 19.5 6.72 19.3425 6.4395 19.0605C6.1575 18.78 6 18.3975 6 18V7.50004C6 7.10254 6.1575 6.72004 6.4395 6.43954C6.72 6.15754 7.1025 6.00004 7.5 6.00004H18C18.3975 6.00004 18.78 6.15754 19.0605 6.43954C19.3425 6.72004 19.5 7.10254 19.5 7.50004Z" fill="#ED1C24"/>
</svg>
