<svg xmlns="http://www.w3.org/2000/svg" viewBox="0 0 64 64" id="figma">
  <path fill="#161616" fill-rule="evenodd" d="m60,12c0-4.42-3.58-8-8-8H12c-4.42,0-8,3.58-8,8v40c0,4.42,3.58,8,8,8h40c4.42,0,8-3.58,8-8V12h0Z"></path>
  <path fill="#0cc2ff" fill-rule="evenodd" d="m39.01,25.01c3.87,0,7.01,3.14,7.01,7.01s-3.14,7.01-7.01,7.01-7.01-3.14-7.01-7.01,3.14-7.01,7.01-7.01h0Z"></path>
  <path fill="#ff7568" fill-rule="evenodd" d="m46,18c0-3.87-3.13-7-7-7h-14.02c-3.87,0-7,3.13-7,7s3.13,7,7,7h14.02c3.87,0,7-3.13,7-7h0Z"></path>
  <path fill="#af5bff" fill-rule="evenodd" d="m31.99,25.01h-7.01c-1.86,0-3.64.74-4.95,2.05-1.31,1.31-2.05,3.09-2.05,4.95s.74,3.64,2.05,4.95c1.31,1.31,3.09,2.05,4.95,2.05h7.01v-14h0Z"></path>
  <path fill="#ff4611" fill-rule="evenodd" d="m31.99,11h-7.01c-1.86,0-3.64.74-4.95,2.05-1.31,1.31-2.05,3.09-2.05,4.95s.74,3.64,2.05,4.95c1.31,1.31,3.09,2.05,4.95,2.05h7.01v-14h0Z"></path>
  <path fill="#00e681" fill-rule="evenodd" d="m32,38.99h-7.01c-1.86,0-3.64.74-4.95,2.05-1.31,1.31-2.05,3.09-2.05,4.95s.74,3.64,2.05,4.95c1.31,1.31,3.09,2.05,4.95,2.05h0c1.86,0,3.64-.74,4.95-2.05,1.31-1.31,2.05-3.09,2.05-4.95v-7h0Z"></path>
</svg>