<svg width="48" height="48" viewBox="0 0 48 48" fill="none" xmlns="http://www.w3.org/2000/svg">
<path d="M44.3205 26.8078L41.5371 14.6131C41.921 14.4251 42.2577 14.1533 42.5226 13.8178C42.7874 13.4823 42.9735 13.0916 43.0673 12.6746C43.161 12.2575 43.1599 11.8248 43.0642 11.4082C42.9684 10.9916 42.7803 10.6019 42.5138 10.2677C42.2474 9.93347 41.9093 9.66334 41.5245 9.47719C41.1397 9.29104 40.7181 9.19363 40.2907 9.19214C39.8632 9.19065 39.4409 9.28512 39.0548 9.46857C38.6688 9.65203 38.3288 9.9198 38.06 10.2521L26.7895 4.82458C26.8818 4.40709 26.8793 3.97421 26.782 3.55784C26.6848 3.14147 26.4953 2.75224 26.2276 2.41885C25.9599 2.08546 25.6207 1.81642 25.2352 1.63155C24.8497 1.44668 24.4275 1.35071 24 1.35071C23.5724 1.35071 23.1503 1.44668 22.7647 1.63155C22.3792 1.81642 22.04 2.08546 21.7723 2.41885C21.5046 2.75224 21.3152 3.14147 21.2179 3.55784C21.1206 3.97421 21.1181 4.40709 21.2104 4.82458L9.9399 10.2527C9.67105 9.9206 9.3311 9.65306 8.94511 9.46979C8.55912 9.28653 8.13693 9.19221 7.70964 9.1938C7.28236 9.19539 6.86088 9.29283 6.47626 9.47896C6.09164 9.66508 5.75369 9.93514 5.48731 10.2692C5.22094 10.6033 5.03292 10.9929 4.93713 11.4093C4.84133 11.8257 4.8402 12.2583 4.93381 12.6753C5.02742 13.0922 5.21339 13.4827 5.47801 13.8182C5.74263 14.1537 6.07916 14.4255 6.4628 14.6137L3.67946 26.8078C3.25198 26.8108 2.83062 26.9096 2.44643 27.0971C2.06224 27.2846 1.72503 27.5559 1.45965 27.891C1.19427 28.2262 1.00748 28.6166 0.91307 29.0335C0.818657 29.4504 0.819021 29.8832 0.914136 30.3C1.00925 30.7168 1.19669 31.1069 1.46263 31.4416C1.72858 31.7763 2.06625 32.047 2.45075 32.2338C2.83525 32.4207 3.25678 32.5188 3.68426 32.521C4.11174 32.5233 4.53428 32.4295 4.92071 32.2467L12.7207 42.0274C12.4566 42.3634 12.2713 42.7544 12.1784 43.1715C12.0855 43.5886 12.0874 44.0213 12.184 44.4376C12.2805 44.8539 12.4693 45.2433 12.7364 45.5769C13.0034 45.9106 13.342 46.18 13.727 46.3654C14.1121 46.5508 14.5339 46.6474 14.9612 46.6481C15.3886 46.6488 15.8107 46.5536 16.1963 46.3694C16.582 46.1853 16.9214 45.9169 17.1896 45.5842C17.4577 45.2514 17.6478 44.8627 17.7457 44.4467H30.254C30.3517 44.863 30.5416 45.2521 30.8097 45.5852C31.0779 45.9183 31.4174 46.187 31.8032 46.3713C32.189 46.5557 32.6113 46.6511 33.0389 46.6505C33.4665 46.6499 33.8885 46.5533 34.2738 46.3678C34.6591 46.1823 34.9978 45.9126 35.265 45.5787C35.5322 45.2449 35.7209 44.8553 35.8174 44.4387C35.9139 44.0221 35.9156 43.5891 35.8224 43.1718C35.7292 42.7545 35.5435 42.3634 35.279 42.0274L43.079 32.2467C43.4654 32.4294 43.8879 32.523 44.3153 32.5206C44.7426 32.5183 45.164 32.4201 45.5484 32.2333C45.9328 32.0464 46.2704 31.7757 46.5362 31.4411C46.8021 31.1065 46.9895 30.7164 47.0846 30.2998C47.1797 29.8831 47.18 29.4504 47.0857 29.0336C46.9913 28.6167 46.8046 28.2264 46.5393 27.8913C46.2741 27.5562 45.937 27.2849 45.5529 27.0974C45.1689 26.9098 44.7476 26.8109 44.3203 26.8078H44.3205ZM40.2789 10.5047C40.5843 10.5047 40.8829 10.5953 41.1369 10.765C41.3908 10.9347 41.5887 11.1759 41.7056 11.4581C41.8225 11.7403 41.8531 12.0508 41.7935 12.3504C41.7339 12.65 41.5868 12.9251 41.3708 13.1411C41.1548 13.3571 40.8796 13.5041 40.5801 13.5637C40.2805 13.6233 39.97 13.5927 39.6878 13.4758C39.4056 13.3589 39.1644 13.161 38.9947 12.907C38.825 12.6531 38.7345 12.3545 38.7345 12.049C38.7349 11.6396 38.8978 11.247 39.1873 10.9575C39.4769 10.668 39.8694 10.5051 40.2789 10.5047ZM24 2.66524C24.3054 2.66525 24.604 2.75585 24.8579 2.92556C25.1119 3.09528 25.3098 3.33649 25.4267 3.61869C25.5436 3.9009 25.5741 4.21142 25.5145 4.51099C25.4549 4.81056 25.3078 5.08573 25.0918 5.30169C24.8758 5.51766 24.6006 5.66472 24.301 5.72428C24.0014 5.78384 23.6909 5.75322 23.4087 5.6363C23.1265 5.51938 22.8854 5.32141 22.7157 5.06742C22.546 4.81344 22.4555 4.51484 22.4555 4.20939C22.456 3.79997 22.6189 3.40747 22.9085 3.11798C23.198 2.8285 23.5905 2.66568 24 2.66524ZM21.7811 6.00649C22.0485 6.33747 22.3865 6.60444 22.7704 6.78784C23.1543 6.97125 23.5744 7.06644 23.9999 7.06644C24.4254 7.06644 24.8455 6.97125 25.2294 6.78784C25.6133 6.60444 25.9514 6.33747 26.2187 6.00649L37.4894 11.4346C37.3974 11.8502 37.3996 12.2811 37.4957 12.6958C37.5918 13.1104 37.7794 13.4983 38.0448 13.8311C38.3102 14.1639 38.6466 14.4331 39.0295 14.6191C39.4124 14.805 39.832 14.903 40.2576 14.9058L43.0406 27.1001C42.6584 27.2872 42.3229 27.5575 42.0587 27.8911C41.7945 28.2246 41.6082 28.6131 41.5136 29.028C41.4189 29.4428 41.4183 29.8736 41.5118 30.2888C41.6052 30.7039 41.7903 31.0929 42.0536 31.4273L34.2536 41.2079C33.8689 41.026 33.4484 40.9324 33.0228 40.9339C32.5973 40.9355 32.1775 41.0321 31.7941 41.2168C31.4107 41.4014 31.0735 41.6695 30.807 42.0012C30.5405 42.333 30.3516 42.7202 30.254 43.1344H17.7459C17.6483 42.7201 17.4594 42.3329 17.1929 42.0011C16.9264 41.6692 16.589 41.4012 16.2056 41.2165C15.8221 41.0319 15.4022 40.9353 14.9766 40.9338C14.551 40.9324 14.1305 41.0261 13.7458 41.2081L5.94577 31.4275C6.20908 31.0932 6.39427 30.7042 6.48777 30.289C6.58127 29.8739 6.5807 29.4431 6.48612 29.0282C6.39155 28.6133 6.20534 28.2248 5.94116 27.8912C5.67698 27.5576 5.34151 27.2873 4.95933 27.1001L7.74221 14.9053C8.16786 14.9025 8.58748 14.8045 8.97037 14.6186C9.35326 14.4326 9.68972 14.1634 9.95512 13.8306C10.2205 13.4978 10.4081 13.1099 10.5042 12.6952C10.6003 12.2806 10.6025 11.8497 10.5106 11.434L21.7811 6.00649ZM7.72102 10.5047C8.02647 10.5047 8.32506 10.5952 8.57904 10.7649C8.83302 10.9346 9.03097 11.1758 9.14788 11.458C9.26478 11.7402 9.29537 12.0507 9.2358 12.3503C9.17622 12.6499 9.02914 12.925 8.81316 13.141C8.59719 13.357 8.32201 13.5041 8.02244 13.5637C7.72286 13.6233 7.41234 13.5927 7.13014 13.4758C6.84794 13.359 6.60674 13.161 6.43705 12.907C6.26735 12.6531 6.17677 12.3545 6.17677 12.049C6.17724 11.6396 6.34009 11.2471 6.62959 10.9576C6.91908 10.6681 7.3116 10.5052 7.72102 10.5047ZM2.15621 29.6642C2.15621 29.3588 2.24678 29.0602 2.41648 28.8062C2.58617 28.5522 2.82737 28.3543 3.10956 28.2374C3.39175 28.1205 3.70227 28.0899 4.00184 28.1495C4.30141 28.2091 4.57659 28.3562 4.79257 28.5722C5.00855 28.7882 5.15563 29.0633 5.21522 29.3629C5.27481 29.6625 5.24423 29.973 5.12734 30.2552C5.01045 30.5374 4.81251 30.7786 4.55854 30.9483C4.30458 31.118 4.00599 31.2085 3.70055 31.2085C3.29111 31.2081 2.89858 31.0452 2.60906 30.7557C2.31954 30.4662 2.15668 30.0736 2.15621 29.6642ZM14.9659 45.3348C14.6605 45.3348 14.3619 45.2442 14.1079 45.0745C13.8539 44.9048 13.656 44.6636 13.5391 44.3814C13.4222 44.0992 13.3917 43.7887 13.4513 43.4891C13.5109 43.1895 13.658 42.9143 13.874 42.6984C14.09 42.4824 14.3652 42.3353 14.6648 42.2758C14.9643 42.2162 15.2749 42.2468 15.5571 42.3637C15.8392 42.4806 16.0804 42.6786 16.2501 42.9326C16.4198 43.1866 16.5103 43.4852 16.5103 43.7906C16.5098 44.2001 16.3469 44.5926 16.0574 44.882C15.7679 45.1715 15.3753 45.3344 14.9659 45.3348ZM33.034 45.3348C32.7285 45.3348 32.4299 45.2442 32.176 45.0745C31.922 44.9048 31.7241 44.6636 31.6072 44.3814C31.4903 44.0992 31.4597 43.7887 31.5193 43.4891C31.5789 43.1895 31.726 42.9143 31.942 42.6984C32.158 42.4824 32.4332 42.3353 32.7328 42.2758C33.0324 42.2162 33.3429 42.2468 33.6251 42.3637C33.9073 42.4806 34.1485 42.6786 34.3182 42.9326C34.4878 43.1866 34.5784 43.4852 34.5783 43.7906C34.5778 44.2001 34.415 44.5926 34.1254 44.882C33.8359 45.1715 33.4434 45.3344 33.034 45.3348ZM44.2994 31.2085C43.9939 31.2086 43.6953 31.118 43.4413 30.9483C43.1873 30.7786 42.9893 30.5374 42.8724 30.2552C42.7555 29.973 42.7249 29.6624 42.7845 29.3628C42.8441 29.0632 42.9912 28.788 43.2072 28.572C43.4232 28.356 43.6984 28.2089 43.998 28.1493C44.2976 28.0898 44.6081 28.1203 44.8903 28.2373C45.1726 28.3542 45.4138 28.5521 45.5835 28.8061C45.7532 29.0601 45.8437 29.3587 45.8437 29.6642C45.8433 30.0737 45.6804 30.4662 45.3909 30.7557C45.1014 31.0452 44.7088 31.2081 44.2994 31.2085ZM15.7619 23.6385C16.1154 23.6384 16.4672 23.5884 16.8068 23.4899C16.8099 23.5197 16.8129 23.5494 16.8162 23.5801C16.8278 23.6879 16.8569 23.7931 16.9022 23.8915C16.8326 23.9398 16.773 24.0011 16.7267 24.072C16.5521 24.3417 16.1822 24.5093 15.7619 24.5093C15.3415 24.5093 14.9716 24.3417 14.7969 24.072C14.7419 23.9871 14.6681 23.9161 14.5811 23.8645C14.4942 23.8128 14.3965 23.782 14.2956 23.7744C13.5697 23.7116 12.8385 23.7927 12.1439 24.0129C11.4494 24.2331 10.8051 24.5882 10.2479 25.0577C10.2352 25.068 10.223 25.0788 10.2111 25.09C9.1134 26.1343 8.7159 27.9112 8.99583 30.5221C9.00958 30.6551 9.05006 30.784 9.11486 30.9009C9.17966 31.0179 9.26743 31.1205 9.3729 31.2027C10.9249 32.4215 13.0743 33.0104 15.7617 32.9505C15.8849 32.9532 16.0073 32.9546 16.1287 32.9546C16.418 32.9546 16.7011 32.9462 16.9776 32.9308C16.789 33.8195 16.763 34.8936 16.8997 36.1677C16.9135 36.3007 16.9539 36.4295 17.0187 36.5465C17.0835 36.6634 17.1712 36.766 17.2766 36.8483C18.8287 38.067 20.9791 38.6557 23.6655 38.5961C23.788 38.5988 23.9094 38.6002 24.0296 38.6002C26.5474 38.6002 28.5729 38.0115 30.0543 36.8482C30.1597 36.766 30.2474 36.6634 30.3121 36.5465C30.3769 36.4296 30.4174 36.3008 30.4312 36.1679C30.5705 34.8678 30.5417 33.7748 30.3424 32.8757C30.8508 32.9291 31.3617 32.9554 31.8729 32.9546C31.9936 32.9546 32.1155 32.9533 32.2385 32.9505C34.9251 33.01 37.0753 32.4215 38.6274 31.2026C38.7328 31.1204 38.8205 31.0178 38.8852 30.9009C38.95 30.784 38.9905 30.6552 39.0043 30.5223C39.2842 27.9112 38.8867 26.1343 37.7892 25.09C37.7773 25.0788 37.7651 25.068 37.7524 25.0577C37.1952 24.5882 36.5509 24.2331 35.8564 24.0129C35.1618 23.7927 34.4306 23.7116 33.7047 23.7744C33.6038 23.782 33.5061 23.8128 33.4192 23.8645C33.3322 23.9161 33.2584 23.9871 33.2034 24.072C33.0287 24.3417 32.659 24.5093 32.2385 24.5093C31.8181 24.5093 31.4482 24.3417 31.2736 24.072C31.2186 23.9871 31.1447 23.9161 31.0578 23.8645C30.9708 23.8128 30.8731 23.782 30.7723 23.7744C30.6171 23.7626 30.4638 23.7581 30.3117 23.758C30.329 23.6998 30.3411 23.6402 30.3477 23.5798C30.3634 23.4343 30.3767 23.2911 30.3878 23.1502C31.0364 23.5164 31.779 23.6821 32.5217 23.6264C33.2644 23.5707 33.974 23.2961 34.5607 22.8373C35.1474 22.3785 35.585 21.756 35.8181 21.0486C36.0512 20.3412 36.0694 19.5806 35.8703 18.8629C35.6713 18.1451 35.264 17.5025 34.6999 17.0162C34.1357 16.5299 33.4401 16.2217 32.7009 16.1305C31.9617 16.0394 31.212 16.1694 30.5467 16.5042C29.8814 16.839 29.3302 17.3635 28.9628 18.0114C27.8566 17.1322 26.4556 16.7101 25.0478 16.8319C24.947 16.8395 24.8492 16.8704 24.7623 16.922C24.6753 16.9736 24.6015 17.0447 24.5465 17.1295C24.3719 17.3993 24.002 17.5668 23.5816 17.5668C23.1611 17.5668 22.7913 17.3993 22.6167 17.1295C22.5617 17.0447 22.4879 16.9736 22.4009 16.922C22.3139 16.8704 22.2162 16.8395 22.1154 16.8319C20.9474 16.7289 19.7771 17.0023 18.7757 17.6123C18.3907 17.0982 17.8806 16.6912 17.2939 16.4298C16.7073 16.1684 16.0635 16.0614 15.4238 16.1188C14.7841 16.1763 14.1698 16.3963 13.6391 16.758C13.1084 17.1198 12.679 17.6112 12.3916 18.1856C12.1043 18.76 11.9686 19.3983 11.9974 20.0399C12.0262 20.6815 12.2186 21.3051 12.5562 21.8514C12.8939 22.3978 13.3656 22.8487 13.9266 23.1614C14.4876 23.4741 15.1192 23.6382 15.7615 23.638L15.7619 23.6385ZM22.6125 29.1332C23.5382 29.4039 24.5326 29.3078 25.3893 28.8649C25.3867 29.0402 25.3893 29.2211 25.3949 29.4059C25.3077 29.4088 25.22 29.4132 25.1318 29.42C25.031 29.4276 24.9333 29.4585 24.8464 29.5101C24.7594 29.5617 24.6856 29.6327 24.6306 29.7175C24.4559 29.9873 24.0861 30.1548 23.6656 30.1548C23.2452 30.1548 22.8753 29.9873 22.7007 29.7175C22.6719 29.6734 22.638 29.6328 22.5995 29.5967C22.6067 29.4382 22.6109 29.284 22.6125 29.1332ZM26.1209 25.5162C26.1209 26.0019 25.9769 26.4766 25.7071 26.8804C25.4373 27.2842 25.0539 27.5989 24.6052 27.7847C24.1565 27.9706 23.6629 28.0192 23.1866 27.9245C22.7103 27.8297 22.2728 27.5959 21.9294 27.2525C21.586 26.9091 21.3521 26.4716 21.2574 25.9953C21.1627 25.519 21.2113 25.0253 21.3972 24.5767C21.583 24.128 21.8977 23.7446 22.3015 23.4748C22.7053 23.205 23.18 23.061 23.6656 23.061C24.3166 23.0618 24.9406 23.3207 25.4008 23.781C25.8611 24.2413 26.12 24.8653 26.1207 25.5162H26.1209ZM15.7769 31.6381C15.7669 31.6381 15.7569 31.6381 15.747 31.6381C13.4248 31.6915 11.5912 31.224 10.2873 30.25C10.0839 28.1904 10.3567 26.7805 11.0989 26.0573C11.8856 25.394 12.8883 25.0426 13.9169 25.0697C14.3592 25.5458 15.0245 25.8218 15.7619 25.8218C16.4992 25.8218 17.1629 25.5465 17.6052 25.0718H17.6333C18.4195 25.0718 19.1234 25.315 19.9138 25.8539C19.9586 26.3529 20.1027 26.8379 20.3374 27.2804C20.5722 27.723 20.8929 28.1143 21.2808 28.4313C21.3025 28.7605 21.3066 29.0906 21.2931 29.4203C20.1374 29.5087 19.0386 29.9576 18.1516 30.7037C18.1389 30.714 18.1267 30.7249 18.1149 30.7361C17.8592 30.9818 17.6421 31.2646 17.4707 31.575C16.9079 31.6313 16.3421 31.6524 15.7767 31.6381H15.7769ZM29.14 35.8956C27.8362 36.8697 26.0025 37.3371 23.6806 37.2836C23.6706 37.2836 23.6606 37.2836 23.6506 37.2836C21.3309 37.3371 19.4948 36.8696 18.1912 35.8956C17.9877 33.8361 18.2604 32.4261 19.0026 31.7028C19.7893 31.0396 20.7921 30.6882 21.8206 30.7152C22.263 31.1914 22.9282 31.4673 23.6656 31.4673C24.4031 31.4673 25.0683 31.1914 25.5106 30.7152C26.5392 30.6874 27.5422 31.0389 28.3285 31.7028C29.0705 32.426 29.3437 33.8359 29.1398 35.8956H29.14ZM32.2386 25.8218C32.976 25.8218 33.6412 25.5458 34.0834 25.0697C35.1121 25.0418 36.1151 25.3933 36.9014 26.0572C37.6436 26.7805 37.9164 28.1903 37.713 30.25C36.4091 31.2241 34.5753 31.6915 32.2534 31.6381C32.2436 31.6381 32.2336 31.6381 32.2235 31.6381C31.4137 31.6621 30.6034 31.6082 29.8039 31.477C29.6425 31.2044 29.4448 30.955 29.2163 30.7357C29.2044 30.7244 29.1922 30.7135 29.1796 30.7032C28.4681 30.1079 27.6201 29.6985 26.7115 29.5116C26.6712 28.8537 26.7141 28.1934 26.8391 27.5463C26.8391 27.545 26.8391 27.5437 26.8397 27.5424C27.0778 27.1711 27.2485 26.7608 27.3438 26.3302C27.4132 26.2327 27.4907 26.1414 27.5756 26.0572C28.3623 25.394 29.3651 25.0426 30.3937 25.0697C30.8356 25.5459 31.5011 25.8218 32.2384 25.8218H32.2386ZM32.2386 17.4154C32.7242 17.4154 33.1989 17.5594 33.6027 17.8292C34.0065 18.099 34.3212 18.4824 34.507 18.9311C34.6929 19.3797 34.7415 19.8734 34.6467 20.3497C34.552 20.826 34.3182 21.2635 33.9748 21.6069C33.6314 21.9503 33.1939 22.1841 32.7176 22.2788C32.2413 22.3736 31.7477 22.325 31.299 22.1391C30.8504 21.9533 30.4669 21.6386 30.1971 21.2348C29.9273 20.831 29.7833 20.3563 29.7833 19.8707C29.784 19.2198 30.0429 18.5957 30.5031 18.1354C30.9634 17.6751 31.5874 17.4162 32.2383 17.4154H32.2386ZM21.737 18.1279C22.1793 18.604 22.8447 18.88 23.582 18.88C24.3194 18.88 24.9847 18.6041 25.427 18.128C26.4555 18.1012 27.4581 18.4526 28.2448 19.1156C28.339 19.2076 28.4241 19.3085 28.4988 19.4169C28.3873 20.3185 28.6075 21.23 29.1185 21.9812C29.1218 22.4244 29.101 22.8675 29.0562 23.3085C28.498 23.7215 27.8746 24.0379 27.2117 24.2446C26.9484 23.51 26.4634 22.8752 25.8237 22.4282C25.184 21.9811 24.4213 21.7437 23.6409 21.7489C22.8605 21.754 22.1009 22.0014 21.4672 22.4569C20.8335 22.9124 20.3569 23.5534 20.1032 24.2915C19.3847 24.0851 18.7088 23.7522 18.1073 23.3083C18.0906 23.142 18.0783 22.9924 18.0688 22.8466C18.6707 22.3812 19.1174 21.7442 19.3497 21.0196C19.5821 20.295 19.5892 19.5171 19.3702 18.7884C20.0732 18.332 20.899 18.1015 21.7367 18.1276L21.737 18.1279ZM15.762 17.4154C16.2476 17.4154 16.7223 17.5594 17.1261 17.8292C17.5298 18.099 17.8445 18.4824 18.0304 18.9311C18.2162 19.3797 18.2648 19.8734 18.1701 20.3497C18.0754 20.826 17.8415 21.2635 17.4981 21.6069C17.1547 21.9503 16.7172 22.1841 16.241 22.2788C15.7647 22.3736 15.271 22.325 14.8223 22.1391C14.3737 21.9533 13.9902 21.6386 13.7204 21.2348C13.4506 20.831 13.3066 20.3563 13.3066 19.8707C13.3074 19.2198 13.5662 18.5957 14.0265 18.1354C14.4867 17.6751 15.1108 17.4162 15.7617 17.4154H15.762ZM23.582 16.6965C24.3272 16.6965 25.0557 16.4756 25.6753 16.0616C26.295 15.6476 26.7779 15.0591 27.0631 14.3706C27.3483 13.6822 27.4229 12.9246 27.2775 12.1937C27.1322 11.4628 26.7733 10.7914 26.2464 10.2645C25.7195 9.73754 25.0481 9.37868 24.3172 9.2333C23.5863 9.08791 22.8287 9.16252 22.1403 9.44769C21.4518 9.73286 20.8633 10.2158 20.4493 10.8354C20.0353 11.455 19.8143 12.1835 19.8143 12.9287C19.8153 13.9276 20.2126 14.8854 20.9189 15.5918C21.6251 16.2982 22.5828 16.6957 23.5817 16.6969L23.582 16.6965ZM23.582 10.4734C24.0676 10.4734 24.5424 10.6174 24.9461 10.8871C25.3499 11.1569 25.6646 11.5404 25.8505 11.989C26.0364 12.4377 26.085 12.9314 25.9903 13.4077C25.8955 13.8839 25.6617 14.3214 25.3183 14.6648C24.9749 15.0082 24.5374 15.2421 24.0612 15.3368C23.5849 15.4316 23.0912 15.383 22.6425 15.1971C22.1939 15.0113 21.8104 14.6966 21.5406 14.2928C21.2708 13.889 21.1268 13.4143 21.1268 12.9287C21.1275 12.2778 21.3864 11.6538 21.8466 11.1935C22.3069 10.7332 22.9308 10.4742 23.5817 10.4734H23.582Z" fill="#ED1C24"/>
</svg>
