<svg width="48" height="48" viewBox="0 0 48 48" fill="none" xmlns="http://www.w3.org/2000/svg">
<g clip-path="url(#clip0_612_695)">
<path d="M18.3815 24.7456C18.6281 24.7456 18.8568 24.6164 18.9839 24.4051L20.2524 22.2981L21.9333 24.9692C22.0648 25.1782 22.2945 25.3022 22.5432 25.2977C22.79 25.2925 23.0161 25.1583 23.1387 24.944L25.8448 20.2156L29.4793 26.839C29.6006 27.0601 29.831 27.1993 30.0832 27.2038C30.0873 27.2038 30.0916 27.2039 30.0957 27.2039C30.3431 27.2039 30.5728 27.0737 30.6997 26.8606L32.9641 23.0594H38.4243C38.8126 23.0594 39.1274 22.7446 39.1274 22.3563C39.1274 21.968 38.8126 21.6532 38.4243 21.6532H32.5645C32.3167 21.6532 32.0872 21.7836 31.9605 21.9965L30.1207 25.0848L26.4741 18.4392C26.3517 18.2162 26.1184 18.0767 25.864 18.0743C25.8618 18.0743 25.8598 18.0743 25.8576 18.0743C25.6056 18.0743 25.3728 18.2092 25.2474 18.4282L22.4998 23.2291L20.8342 20.5824C20.7054 20.3778 20.4807 20.2538 20.2391 20.2538C20.2368 20.2538 20.2345 20.2538 20.2322 20.2538C19.988 20.2562 19.7627 20.3851 19.6368 20.5942L17.9841 23.3393H13.988C13.5997 23.3393 13.2849 23.6542 13.2849 24.0425C13.2849 24.4308 13.5997 24.7456 13.988 24.7456H18.3815Z" fill="#ED1C24"/>
<path d="M39.6652 5.23083C39.2769 5.23083 38.9621 5.54565 38.9621 5.93396V8.00809H36.8882C36.4999 8.00809 36.1851 8.3229 36.1851 8.71121C36.1851 9.09952 36.4999 9.41434 36.8882 9.41434H38.9621V11.4886C38.9621 11.8769 39.2769 12.1917 39.6652 12.1917C40.0536 12.1917 40.3684 11.8769 40.3684 11.4886V9.41434H42.4423C42.8306 9.41434 43.1454 9.09952 43.1454 8.71121C43.1454 8.3229 42.8306 8.00809 42.4423 8.00809H40.3684V5.93396C40.3684 5.54565 40.0536 5.23083 39.6652 5.23083Z" fill="#ED1C24"/>
<path d="M42.1462 29.3213C45.5718 25.6591 46.5535 20.1214 44.6706 15.3739C46.6912 13.851 48 11.4313 48 8.71119C48 4.1151 44.2611 0.375977 39.6653 0.375977C37.7774 0.375977 35.9287 1.02388 34.4597 2.20035C34.1566 2.44307 34.1077 2.88557 34.3504 3.18866C34.5931 3.49166 35.0356 3.5407 35.3387 3.29798C36.5769 2.30629 38.073 1.78223 39.6652 1.78223C43.4855 1.78223 46.5937 4.8906 46.5937 8.71119C46.5937 12.5334 43.4856 15.6429 39.6652 15.6429C36.108 15.6429 33.1696 12.9487 32.7794 9.49391C32.7787 9.48594 32.7773 9.47788 32.7763 9.46982C32.749 9.22054 32.7339 8.9676 32.7339 8.71119C32.7339 7.62595 32.9778 6.58813 33.4585 5.62644C33.6322 5.2791 33.4913 4.85676 33.1441 4.68304C32.7965 4.50951 32.3744 4.65023 32.2007 4.99748C31.6214 6.15613 31.3277 7.40563 31.3277 8.7111C31.3277 8.82923 31.3308 8.9466 31.3357 9.0636C29.5602 9.6982 27.903 10.7419 26.5142 12.1078L25.737 12.8718C25.7333 12.8681 25.7304 12.8653 25.7267 12.8615L24.9626 12.1087C22.4904 9.6712 19.2542 8.30901 16.0826 8.37463C13.4436 8.42901 11.1082 9.46307 9.32981 11.3643C9.0645 11.6484 9.0795 12.0937 9.36356 12.359C9.64762 12.6234 10.092 12.6093 10.3573 12.3253C11.8704 10.7071 13.8598 9.82682 16.1117 9.78088C18.9054 9.7237 21.7714 10.9378 23.9754 13.1099L24.7404 13.8637C25.1098 14.2274 25.4248 14.4084 25.7389 14.4084C26.0501 14.4084 26.3604 14.2303 26.7233 13.874L27.5004 13.1099C28.6683 11.9621 30.0457 11.0683 31.5204 10.495C32.3395 14.2382 35.6799 17.049 39.6651 17.049C41.0294 17.049 42.3182 16.7194 43.456 16.1355C45.0141 20.3263 44.1195 25.1474 41.1242 28.3545L31.0303 38.6869L30.195 38.85C29.9925 38.8894 29.8134 38.925 29.6503 38.9578C28.5909 39.1725 28.3378 39.2232 27.0975 39.0319L21.0834 37.9322C20.2641 37.6491 20.3466 36.9966 20.3925 36.8007C20.4647 36.496 20.7478 36.0038 21.3563 36.0957C21.3619 36.0966 21.3675 36.0975 21.3731 36.0985C21.6441 36.1332 21.9347 36.1707 22.2384 36.2091C23.3775 36.3563 24.6675 36.5222 25.8131 36.6394C28.1569 36.8766 29.4825 35.6466 29.7581 34.321C30.0384 32.97 29.2688 31.1738 26.9156 30.4229C26.8875 30.4144 26.8584 30.4069 26.8284 30.4013L22.9556 29.6907C20.8538 29.3054 19.2188 29.6025 16.7438 30.0525C16.0894 30.1716 15.3469 30.3057 14.52 30.4416L12.6844 30.7435L12.1191 30.165L10.3519 28.3557C7.04906 24.8147 6.31687 19.2685 8.57438 14.865C8.75156 14.52 8.61469 14.0963 8.26969 13.9191C7.92375 13.7419 7.5 13.8779 7.32281 14.2238C4.79906 19.1475 5.62406 25.3557 9.33 29.3213C9.33375 29.325 9.3375 29.3288 9.34031 29.3325L10.9903 31.0219L7.91738 31.527V31.4468C7.91738 30.9039 7.43841 30.4622 6.84966 30.4622H1.065C0.47775 30.4622 0 30.9039 0 31.4468V43.8185C0 44.3614 0.47775 44.8031 1.065 44.8031H6.84975C7.4385 44.8031 7.91747 44.3614 7.91747 43.8185V43.7333L14.2406 45.4538L20.0775 47.04C21.4097 47.4535 22.4831 47.6241 23.4628 47.6241C25.0134 47.6241 26.3306 47.1985 28.0706 46.636C28.2253 46.5863 28.3838 46.5347 28.5469 46.4822L40.0491 42.7941C41.3822 42.3666 42.3309 41.4066 42.5859 40.2263C42.7837 39.3113 42.5081 38.4075 41.8481 37.8085C41.3138 37.3238 40.0575 36.6282 37.6359 37.3941L33.4603 38.2107L42.1359 29.3325C42.1397 29.3288 42.1425 29.325 42.1462 29.3213ZM1.40625 43.3968V31.8684H6.51113V32.3515C6.51113 32.353 6.51094 32.3544 6.51094 32.3559V42.8128C6.51094 42.8136 6.51113 42.8144 6.51113 42.8152V43.3968H1.40625ZM38.025 38.746C39.3225 38.3297 40.3716 38.3672 40.9041 38.85C41.1909 39.1107 41.3034 39.5044 41.2116 39.9282C41.0634 40.6116 40.4681 41.1825 39.6197 41.4544L28.1166 45.1435C27.9525 45.196 27.7931 45.2475 27.6375 45.2982C24.8859 46.1869 23.505 46.6341 20.4825 45.6938C20.475 45.691 20.4666 45.6891 20.4581 45.6863L7.91738 42.2758V32.9522L14.7478 31.83C15.5859 31.6922 16.335 31.5554 16.9959 31.4354C19.4006 30.9985 20.8528 30.735 22.7016 31.0744L26.5294 31.7766C28.0219 32.2669 28.5366 33.2879 28.3809 34.035C28.2019 34.8985 27.2494 35.3719 25.9556 35.2407C24.8287 35.1254 23.5481 34.9604 22.4184 34.815C22.1166 34.7757 21.8269 34.7382 21.5578 34.7044C20.2134 34.5057 19.2656 35.446 19.0238 36.48C18.9722 36.7004 18.9516 36.9347 18.9666 37.171C19.0181 38.026 19.5291 38.9129 20.6953 39.285C20.7244 39.2944 21.1125 39.3666 21.1125 39.3666L26.8547 40.4166C26.8603 40.4175 26.8669 40.4185 26.8734 40.4194C28.0584 40.6041 28.5713 40.5882 29.2978 40.4597C29.4881 40.426 30.2644 40.2685 30.4641 40.23L31.7297 39.9825C31.7297 39.9825 37.9987 38.7544 38.025 38.746Z" fill="#ED1C24"/>
</g>
<defs>
<clipPath id="clip0_612_695">
<rect width="48" height="48" fill="white"/>
</clipPath>
</defs>
</svg>
