<svg width="48" height="48" viewBox="0 0 48 48" fill="none" xmlns="http://www.w3.org/2000/svg">
<path d="M35.0303 4.71975C34.8896 4.57909 34.6989 4.50004 34.5 4.5H13.5C12.6684 4.49991 11.8604 4.77623 11.2031 5.28548C10.5457 5.79474 10.0762 6.50805 9.8685 7.31325L11.3205 7.68825C11.4451 7.20498 11.7268 6.77685 12.1214 6.47123C12.516 6.1656 13.0009 5.99983 13.5 6H33.75V9.75C33.75 10.3467 33.9871 10.919 34.409 11.341C34.831 11.7629 35.4033 12 36 12H39.75V42.75C39.75 43.3467 39.5129 43.919 39.091 44.341C38.669 44.7629 38.0967 45 37.5 45H13.5C12.9033 45 12.331 44.7629 11.909 44.341C11.4871 43.919 11.25 43.3467 11.25 42.75V25.5H9.75V42.75C9.75119 43.7442 10.1467 44.6973 10.8497 45.4003C11.5527 46.1033 12.5058 46.4988 13.5 46.5H37.5C38.4942 46.4988 39.4473 46.1033 40.1503 45.4003C40.8533 44.6973 41.2488 43.7442 41.25 42.75V11.25C41.25 11.0511 41.1709 10.8604 41.0303 10.7198L35.0303 4.71975ZM35.25 9.75V7.0605L38.6895 10.5H36C35.8011 10.5 35.6103 10.421 35.4697 10.2803C35.329 10.1397 35.25 9.94891 35.25 9.75Z" fill="#ED1C24"/>
<path d="M40.5 1.5H16.5C15.5865 1.49985 14.7042 1.83322 14.019 2.4375L15.0128 3.5625C15.4232 3.19958 15.9522 2.99948 16.5 3H40.5C41.0968 3 41.6691 3.23705 42.091 3.65901C42.513 4.08097 42.75 4.65326 42.75 5.25V39.75C42.7506 40.2978 42.5505 40.8269 42.1875 41.2373L43.3125 42.231C43.9168 41.5458 44.2502 40.6636 44.25 39.75V5.25C44.2489 4.2558 43.8534 3.30267 43.1504 2.59967C42.4474 1.89666 41.4942 1.50119 40.5 1.5Z" fill="#ED1C24"/>
<path d="M12 21V20.25C12.5967 20.25 13.169 20.0129 13.591 19.591C14.0129 19.169 14.25 18.5967 14.25 18C14.25 17.4033 14.0129 16.831 13.591 16.409C13.169 15.9871 12.5967 15.75 12 15.75H10.5C10.3011 15.75 10.1103 15.671 9.96967 15.5303C9.82902 15.3897 9.75 15.1989 9.75 15C9.75 14.8011 9.82902 14.6103 9.96967 14.4697C10.1103 14.329 10.3011 14.25 10.5 14.25H12C12.1989 14.25 12.3897 14.329 12.5303 14.4697C12.671 14.6103 12.75 14.8011 12.75 15H14.25C14.25 14.4033 14.0129 13.831 13.591 13.409C13.169 12.9871 12.5967 12.75 12 12.75V12H10.5V12.75C9.90326 12.75 9.33097 12.9871 8.90901 13.409C8.48705 13.831 8.25 14.4033 8.25 15C8.25 15.5967 8.48705 16.169 8.90901 16.591C9.33097 17.0129 9.90326 17.25 10.5 17.25H12C12.1989 17.25 12.3897 17.329 12.5303 17.4697C12.671 17.6103 12.75 17.8011 12.75 18C12.75 18.1989 12.671 18.3897 12.5303 18.5303C12.3897 18.671 12.1989 18.75 12 18.75H10.5C10.3011 18.75 10.1103 18.671 9.96967 18.5303C9.82902 18.3897 9.75 18.1989 9.75 18H8.25C8.25 18.5967 8.48705 19.169 8.90901 19.591C9.33097 20.0129 9.90326 20.25 10.5 20.25V21H12Z" fill="#ED1C24"/>
<path d="M18.75 16.5C18.75 15.0166 18.3101 13.5666 17.486 12.3332C16.6619 11.0999 15.4906 10.1386 14.1201 9.57091C12.7497 9.00325 11.2417 8.85472 9.78683 9.14411C8.33197 9.4335 6.9956 10.1478 5.9467 11.1967C4.89781 12.2456 4.1835 13.582 3.89411 15.0368C3.60472 16.4917 3.75325 17.9997 4.32091 19.3701C4.88856 20.7406 5.84986 21.9119 7.08323 22.736C8.3166 23.5601 9.76664 24 11.25 24C13.2385 23.9978 15.1448 23.2069 16.5509 21.8009C17.9569 20.3948 18.7478 18.4885 18.75 16.5ZM5.25 16.5C5.25 15.3133 5.6019 14.1533 6.26119 13.1666C6.92047 12.1799 7.85755 11.4109 8.9539 10.9567C10.0503 10.5026 11.2567 10.3838 12.4205 10.6153C13.5844 10.8468 14.6535 11.4182 15.4926 12.2574C16.3318 13.0965 16.9032 14.1656 17.1347 15.3295C17.3662 16.4933 17.2474 17.6997 16.7933 18.7961C16.3392 19.8925 15.5701 20.8295 14.5834 21.4888C13.5967 22.1481 12.4367 22.5 11.25 22.5C9.65925 22.4982 8.13417 21.8655 7.00934 20.7407C5.8845 19.6158 5.25179 18.0908 5.25 16.5Z" fill="#ED1C24"/>
<path d="M21 12H30V13.5H21V12Z" fill="#ED1C24"/>
<path d="M21 9H22.5V10.5H21V9Z" fill="#ED1C24"/>
<path d="M24 9H30V10.5H24V9Z" fill="#ED1C24"/>
<path d="M18 23.25C17.8011 23.25 17.6103 23.329 17.4697 23.4697C17.329 23.6103 17.25 23.8011 17.25 24V27.75H15.75V29.25H35.25V27.75H33.75V18C33.75 17.8011 33.671 17.6103 33.5303 17.4697C33.3897 17.329 33.1989 17.25 33 17.25H30C29.8011 17.25 29.6103 17.329 29.4697 17.4697C29.329 17.6103 29.25 17.8011 29.25 18V27.75H27.75V21C27.75 20.8011 27.671 20.6103 27.5303 20.4697C27.3897 20.329 27.1989 20.25 27 20.25H24C23.8011 20.25 23.6103 20.329 23.4697 20.4697C23.329 20.6103 23.25 20.8011 23.25 21V27.75H21.75V24C21.75 23.8011 21.671 23.6103 21.5303 23.4697C21.3897 23.329 21.1989 23.25 21 23.25H18ZM30.75 18.75H32.25V27.75H30.75V18.75ZM24.75 21.75H26.25V27.75H24.75V21.75ZM18.75 27.75V24.75H20.25V27.75H18.75Z" fill="#ED1C24"/>
<path d="M16.5 32.25C16.3011 32.25 16.1103 32.329 15.9697 32.4697C15.829 32.6103 15.75 32.8011 15.75 33V40.5C15.75 40.6989 15.829 40.8897 15.9697 41.0303C16.1103 41.171 16.3011 41.25 16.5 41.25H24C24.1989 41.25 24.3897 41.171 24.5303 41.0303C24.671 40.8897 24.75 40.6989 24.75 40.5V33C24.75 32.8011 24.671 32.6103 24.5303 32.4697C24.3897 32.329 24.1989 32.25 24 32.25H16.5ZM23.25 39.75H17.25V33.75H23.25V39.75Z" fill="#ED1C24"/>
<path d="M27.75 32.25H36.75V33.75H27.75V32.25Z" fill="#ED1C24"/>
<path d="M27.75 38.25H36.75V39.75H27.75V38.25Z" fill="#ED1C24"/>
<path d="M27.75 35.25H36.75V36.75H27.75V35.25Z" fill="#ED1C24"/>
</svg>
