<svg width="48" height="48" viewBox="0 0 48 48" fill="none" xmlns="http://www.w3.org/2000/svg">
<g clip-path="url(#clip0_612_622)">
<path d="M11.7907 14.4283C5.30127 14.4283 0.0217285 19.7079 0.0217285 26.1973C0.0217285 30.2264 1.93836 34.5584 5.71846 39.073C6.28012 39.7438 6.8398 40.3654 7.3769 40.9325C4.93621 41.5986 3.4708 42.7956 3.4708 44.1925C3.4708 46.6656 7.75724 48 11.7903 48C15.8234 48 20.1098 46.6655 20.1098 44.1925C20.1098 42.7967 18.6448 41.5995 16.2057 40.933C17.1802 39.9043 18.2287 38.694 19.2235 37.344C19.4542 37.031 19.3874 36.5904 19.0745 36.3598C18.7617 36.1295 18.3209 36.196 18.0903 36.509C16.8892 38.139 15.589 39.5715 14.4546 40.7093C14.3245 40.7757 14.2158 40.8811 14.1476 41.0139C13.1314 42.0126 12.2762 42.7536 11.7909 43.1584C11.311 42.7575 10.4689 42.0266 9.46565 41.0409C9.39365 40.8831 9.26718 40.7594 9.11287 40.6904C5.92471 37.4837 1.42939 31.9434 1.42939 26.1975C1.42939 20.4843 6.07743 15.8363 11.7906 15.8363C17.5037 15.8363 22.1517 20.4843 22.1517 26.1975C22.1517 28.6924 21.3016 31.3868 19.625 34.2058C19.4263 34.54 19.536 34.9719 19.8701 35.1706C20.2043 35.3692 20.6363 35.2595 20.8349 34.9254C22.6428 31.8857 23.5595 28.9492 23.5595 26.1975C23.5596 19.7079 18.28 14.4283 11.7907 14.4283ZM11.3599 44.6224C11.4866 44.7205 11.6387 44.7696 11.7907 44.7696C11.9426 44.7696 12.0946 44.7205 12.2214 44.6224C12.3078 44.5555 13.484 43.6383 15.0518 42.1054C17.4257 42.5895 18.7022 43.5217 18.7022 44.1926C18.7022 44.6937 18.0154 45.2849 16.9098 45.7354C15.5538 46.288 13.7357 46.5924 11.7904 46.5924C7.57106 46.5924 4.87855 45.171 4.87855 44.1926C4.87855 43.5207 6.15543 42.589 8.53068 42.1049C10.1072 43.6469 11.2851 44.5644 11.3599 44.6224Z" fill="#ED1C24"/>
<path d="M11.7908 21.0801C10.6775 21.0801 9.6189 21.4315 8.72939 22.0965C8.41814 22.3293 8.35439 22.7704 8.58708 23.0817C8.81996 23.393 9.26105 23.4566 9.5723 23.2241C10.2165 22.7425 10.9836 22.4878 11.7907 22.4878C13.8361 22.4878 15.5 24.1518 15.5 26.1972C15.5 28.2426 13.8361 29.9066 11.7907 29.9066C9.74537 29.9066 8.08139 28.2425 8.08139 26.1972C8.08139 25.8482 8.12968 25.5031 8.22483 25.1718C8.33208 24.7982 8.11617 24.4084 7.74258 24.3011C7.36908 24.1942 6.97917 24.4098 6.87183 24.7834C6.74049 25.2412 6.67383 25.7168 6.67383 26.1972C6.67383 29.0188 8.9693 31.3143 11.7909 31.3143C14.6124 31.3143 16.908 29.0188 16.908 26.1972C16.9079 23.3756 14.6123 21.0801 11.7908 21.0801Z" fill="#ED1C24"/>
<path d="M42.4649 20.4489C42.8231 20.0646 43.192 19.6506 43.5619 19.2087C46.4924 15.7087 47.9782 12.3441 47.9782 9.20805C47.9782 4.13082 43.8475 0 38.7702 0C35.0611 0 31.7308 2.20744 30.286 5.6237C30.1345 5.98173 30.3021 6.39479 30.66 6.54611C31.018 6.69742 31.4311 6.53007 31.5824 6.17214C32.8066 3.27788 35.6279 1.40766 38.7702 1.40766C43.0713 1.40766 46.5705 4.90698 46.5705 9.20814C46.5705 15.0247 40.4638 20.5973 38.7699 22.0308C38.3966 21.7154 37.8089 21.199 37.12 20.5236C37.0512 20.3874 36.9402 20.2794 36.8069 20.2125C34.3766 17.7656 30.9698 13.5593 30.9698 9.20814C30.9698 8.81936 30.6548 8.50427 30.2659 8.50427C29.8772 8.50427 29.562 8.81936 29.562 9.20814C29.562 12.3441 31.0479 15.7087 33.9784 19.2088C34.3482 19.6504 34.7169 20.0642 35.0748 20.4484C33.2604 20.9936 32.2129 21.9215 32.2129 23.0389C32.2129 23.9813 32.9773 24.8118 34.3656 25.3774C35.5534 25.8615 37.1176 26.1281 38.7701 26.1281C40.4224 26.1281 41.9866 25.8615 43.1745 25.3774C44.5625 24.8117 45.3269 23.9812 45.3269 23.0388C45.3269 21.9235 44.2786 20.9947 42.4649 20.4489ZM38.77 24.7202C35.4382 24.7202 33.6206 23.6095 33.6206 23.0387C33.6206 22.6669 34.4474 21.9865 36.2129 21.6111C37.4008 22.767 38.2826 23.4538 38.3395 23.4979C38.4663 23.5961 38.6183 23.6451 38.7702 23.6451C38.9222 23.6451 39.0741 23.5961 39.201 23.4979C39.2579 23.454 40.1395 22.767 41.3274 21.6113C42.1139 21.779 42.7953 22.0247 43.2721 22.315C43.6774 22.5619 43.9194 22.8325 43.9194 23.0387C43.9192 23.6095 42.1017 24.7202 38.77 24.7202Z" fill="#ED1C24"/>
<path d="M38.7701 5.11243C36.5117 5.11243 34.6743 6.94974 34.6743 9.20828C34.6743 11.4666 36.5116 13.3039 38.7701 13.3039C41.0285 13.3039 42.8658 11.4667 42.8658 9.20828C42.8658 6.94984 41.0285 5.11243 38.7701 5.11243ZM38.7702 11.8962C37.2878 11.8962 36.0821 10.6904 36.0821 9.20818C36.0821 7.72599 37.2879 6.52009 38.7702 6.52009C40.2524 6.52009 41.4583 7.7259 41.4583 9.20818C41.4582 10.6904 40.2524 11.8962 38.7702 11.8962Z" fill="#ED1C24"/>
<path d="M29.6397 22.335H29.3183C29.0843 22.335 28.8492 22.3504 28.6191 22.3811C28.2339 22.4324 27.9631 22.7862 28.0143 23.1717C28.0614 23.5256 28.3637 23.7828 28.7111 23.7828C28.7421 23.7828 28.7734 23.7809 28.8049 23.7767C28.9735 23.7542 29.1463 23.7429 29.3184 23.7429H29.6397V23.7428C30.0285 23.7428 30.3436 23.4278 30.3436 23.0389C30.3436 22.6501 30.0285 22.335 29.6397 22.335Z" fill="#ED1C24"/>
<path d="M27.3128 43.4529C27.3117 43.4529 27.3106 43.4529 27.3095 43.4529L26.3799 43.4571C25.9912 43.4589 25.6775 43.7755 25.6792 44.1642C25.6809 44.5518 25.9958 44.8649 26.383 44.8649C26.3841 44.8649 26.3851 44.8649 26.3863 44.8649L27.3159 44.8606C27.7046 44.8589 28.0183 44.5423 28.0166 44.1536C28.0149 43.7658 27.7001 43.4529 27.3128 43.4529Z" fill="#ED1C24"/>
<path d="M30.4751 31.4521H29.5454C29.1566 31.4521 28.8416 31.7673 28.8416 32.156C28.8416 32.5448 29.1566 32.8599 29.5454 32.8599H30.4751C30.8638 32.8599 31.1789 32.5449 31.1789 32.156C31.1789 31.7673 30.8639 31.4521 30.4751 31.4521Z" fill="#ED1C24"/>
<path d="M26.7454 23.769C26.4819 23.4834 26.0367 23.4654 25.7508 23.7289C25.4884 23.9708 25.2497 24.2406 25.0414 24.5306C24.8146 24.8465 24.8868 25.2862 25.2025 25.513C25.3268 25.6023 25.4704 25.6452 25.6126 25.6452C25.8315 25.6452 26.0473 25.5433 26.1849 25.3519C26.3377 25.1392 26.5128 24.9412 26.7053 24.7636C26.991 24.5001 27.0089 24.0547 26.7454 23.769Z" fill="#ED1C24"/>
<path d="M31.0315 43.4358C31.0303 43.4358 31.0293 43.4358 31.0282 43.4358L30.0986 43.44C29.71 43.4417 29.3963 43.7584 29.398 44.1471C29.3996 44.5347 29.7145 44.8478 30.1017 44.8478C30.1029 44.8478 30.1039 44.8478 30.105 44.8478L31.0346 44.8435C31.4232 44.8419 31.7369 44.5252 31.7352 44.1365C31.7335 43.7488 31.4186 43.4358 31.0315 43.4358Z" fill="#ED1C24"/>
<path d="M23.5943 43.4696C23.5932 43.4696 23.5921 43.4696 23.591 43.4696L22.6614 43.4738C22.2727 43.4756 21.959 43.7922 21.9607 44.1809C21.9625 44.5685 22.2771 44.8816 22.6645 44.8816C22.6656 44.8816 22.6666 44.8816 22.6678 44.8816L23.5974 44.8774C23.9861 44.8756 24.2998 44.559 24.2981 44.1703C24.2964 43.7825 23.9816 43.4696 23.5943 43.4696Z" fill="#ED1C24"/>
<path d="M27.2653 30.8605C27.0441 30.721 26.8361 30.5581 26.6472 30.3765C26.367 30.1069 25.9213 30.1158 25.6519 30.3958C25.3824 30.6759 25.3911 31.1215 25.6712 31.3909C25.9289 31.6387 26.2125 31.8608 26.5141 32.0511C26.6308 32.1247 26.7606 32.1598 26.8891 32.1598C27.1227 32.1598 27.3511 32.0436 27.4851 31.8313C27.6926 31.5026 27.5941 31.0679 27.2653 30.8605Z" fill="#ED1C24"/>
<path d="M25.5349 28.3395C25.4877 28.0969 25.4637 27.8473 25.4637 27.5976L25.4638 27.5585C25.4684 27.1698 25.157 26.851 24.7682 26.8465C24.7655 26.8464 24.7627 26.8464 24.7599 26.8464C24.3749 26.8464 24.0607 27.1562 24.0562 27.5422L24.0559 27.5977C24.0559 27.9376 24.0886 28.2778 24.1531 28.6088C24.2186 28.9449 24.5131 29.1781 24.8432 29.1781C24.8878 29.1781 24.9331 29.1739 24.9785 29.165C25.3602 29.0906 25.6092 28.7211 25.5349 28.3395Z" fill="#ED1C24"/>
<path d="M34.1938 31.4521H33.2642C32.8754 31.4521 32.5603 31.7673 32.5603 32.156C32.5603 32.5448 32.8754 32.8599 33.2642 32.8599H34.1938C34.5826 32.8599 34.8977 32.5449 34.8977 32.156C34.8977 31.7673 34.5826 31.4521 34.1938 31.4521Z" fill="#ED1C24"/>
<path d="M45.4944 32.8853C45.2232 32.6712 44.9333 32.4768 44.6327 32.3076C44.2943 32.1167 43.8649 32.2366 43.674 32.5753C43.4832 32.914 43.603 33.3433 43.9417 33.534C44.1789 33.6678 44.4079 33.8212 44.6219 33.9902C44.7513 34.0923 44.9048 34.1417 45.0577 34.1417C45.2656 34.1417 45.4717 34.0498 45.6106 33.874C45.8515 33.5688 45.7996 33.1261 45.4944 32.8853Z" fill="#ED1C24"/>
<path d="M42.8818 43.9401C42.8283 43.5551 42.4725 43.2856 42.0882 43.3392C41.8577 43.3711 41.6216 43.3879 41.3862 43.3888L41.2545 43.3894C40.8657 43.3914 40.5521 43.7081 40.554 44.0967C40.5559 44.4843 40.8707 44.7972 41.2577 44.7972C41.259 44.7972 41.2601 44.7972 41.2612 44.7972L41.3927 44.7965C41.6899 44.7952 41.9888 44.7741 42.2808 44.7337C42.6661 44.6805 42.935 44.3251 42.8818 43.9401Z" fill="#ED1C24"/>
<path d="M45.9883 41.9608C45.7201 41.6792 45.2745 41.6684 44.9932 41.9366C44.7957 42.1248 44.5819 42.299 44.3578 42.4544C44.0384 42.6758 43.959 43.1144 44.1803 43.434C44.3171 43.6312 44.5364 43.7369 44.7594 43.7369C44.8978 43.7369 45.0375 43.6962 45.1598 43.6115C45.4435 43.4147 45.7142 43.1942 45.9642 42.956C46.2457 42.6877 46.2564 42.2421 45.9883 41.9608Z" fill="#ED1C24"/>
<path d="M47.3582 38.5424C46.9767 38.4705 46.6083 38.7218 46.5363 39.1038C46.4858 39.3716 46.4139 39.6374 46.3225 39.8939C46.192 40.26 46.383 40.6627 46.7492 40.7933C46.8273 40.8211 46.9072 40.8343 46.9856 40.8343C47.2748 40.8343 47.5459 40.6547 47.6486 40.3667C47.7646 40.0414 47.8558 39.7042 47.9199 39.3643C47.9916 38.9823 47.7401 38.6142 47.3582 38.5424Z" fill="#ED1C24"/>
<path d="M47.7763 36.2798C47.6809 35.9475 47.5584 35.6201 47.412 35.3063C47.2476 34.954 46.829 34.8018 46.4765 34.966C46.1242 35.1305 45.9719 35.5492 46.1362 35.9016C46.2515 36.1486 46.3481 36.4066 46.4232 36.6682C46.5118 36.9769 46.7934 37.1781 47.0994 37.1781C47.1638 37.1781 47.2291 37.1692 47.294 37.1506C47.6676 37.0433 47.8835 36.6534 47.7763 36.2798Z" fill="#ED1C24"/>
<path d="M37.9126 31.4521H36.9829C36.5941 31.4521 36.2791 31.7673 36.2791 32.156C36.2791 32.5448 36.5941 32.8599 36.9829 32.8599H37.9126C38.3013 32.8599 38.6164 32.5449 38.6164 32.156C38.6164 31.7673 38.3013 31.4521 37.9126 31.4521Z" fill="#ED1C24"/>
<path d="M34.7503 43.4189C34.7492 43.4189 34.7481 43.4189 34.747 43.4189L33.8174 43.4232C33.4287 43.4248 33.115 43.7415 33.1167 44.1302C33.1185 44.5179 33.4333 44.8309 33.8205 44.8309C33.8216 44.8309 33.8226 44.8309 33.8238 44.8309L34.7534 44.8267C35.1421 44.8249 35.4558 44.5083 35.4541 44.1196C35.4524 43.732 35.1375 43.4189 34.7503 43.4189Z" fill="#ED1C24"/>
<path d="M41.6621 31.4589C41.5625 31.4544 41.4617 31.4523 41.3625 31.4523H40.7014C40.3127 31.4523 39.9976 31.7675 39.9976 32.1561C39.9976 32.5449 40.3126 32.86 40.7014 32.86H41.3625V32.8599C41.4421 32.8599 41.5212 32.8617 41.5998 32.8652C41.6104 32.8657 41.621 32.8659 41.6315 32.8659C42.0059 32.8659 42.3175 32.571 42.3341 32.1933C42.3512 31.8048 42.0504 31.4761 41.6621 31.4589Z" fill="#ED1C24"/>
<path d="M38.4688 43.4021C38.4677 43.4021 38.4667 43.4021 38.4655 43.4021L37.5359 43.4063C37.1472 43.408 36.8335 43.7247 36.8352 44.1134C36.837 44.501 37.1518 44.8141 37.539 44.8141C37.5401 44.8141 37.5412 44.8141 37.5423 44.8141L38.4719 44.8099C38.8606 44.8081 39.1743 44.4915 39.1726 44.1028C39.1709 43.715 38.8561 43.4021 38.4688 43.4021Z" fill="#ED1C24"/>
</g>
<defs>
<clipPath id="clip0_612_622">
<rect width="48" height="48" fill="white"/>
</clipPath>
</defs>
</svg>
