<svg width="48" height="48" viewBox="0 0 48 48" fill="none" xmlns="http://www.w3.org/2000/svg">
<path d="M43.2 22.3499H27.1136C25.4667 22.3499 24.127 21.0102 24.127 19.3632V7.85178C24.127 6.20485 25.4667 4.86511 27.1136 4.86511H43.2C44.847 4.86511 46.1867 6.20485 46.1867 7.85178V19.3632C46.1867 21.0102 44.847 22.3499 43.2 22.3499ZM27.1136 6.57178C26.4075 6.57178 25.8336 7.14565 25.8336 7.85178V19.3632C25.8336 20.0694 26.4075 20.6432 27.1136 20.6432H43.2C43.9062 20.6432 44.48 20.0694 44.48 19.3632V7.85178C44.48 7.14565 43.9062 6.57178 43.2 6.57178H27.1136Z" fill="#ED1C24"/>
<path d="M45.3333 13.233H36.7147C36.2432 13.233 35.8613 12.8512 35.8613 12.3797C35.8613 11.9082 36.2432 11.5264 36.7147 11.5264H45.3333C45.8048 11.5264 46.1867 11.9082 46.1867 12.3797C46.1867 12.8512 45.8048 13.233 45.3333 13.233Z" fill="#ED1C24"/>
<path d="M33.599 13.233H24.9803C24.5088 13.233 24.127 12.8512 24.127 12.3797C24.127 11.9082 24.5088 11.5264 24.9803 11.5264H33.599C34.0704 11.5264 34.4523 11.9082 34.4523 12.3797C34.4523 12.8512 34.0694 13.233 33.599 13.233Z" fill="#ED1C24"/>
<path d="M36.7147 14.7904H33.5989C33.1275 14.7904 32.7456 14.4086 32.7456 13.9371V10.8214C32.7456 10.3499 33.1275 9.96802 33.5989 9.96802H36.7147C37.1861 9.96802 37.568 10.3499 37.568 10.8214V13.9371C37.568 14.4086 37.1861 14.7904 36.7147 14.7904ZM34.4523 13.0838H35.8613V11.6747H34.4523V13.0838Z" fill="#ED1C24"/>
<path d="M38.7221 6.57069C38.2507 6.57069 37.8688 6.18882 37.8688 5.71735V4.24535C37.8688 3.84535 37.5435 3.52002 37.1435 3.52002H33.1691C32.7691 3.52002 32.4437 3.84535 32.4437 4.24535V5.71735C32.4437 6.18882 32.0619 6.57069 31.5904 6.57069C31.1189 6.57069 30.7371 6.18882 30.7371 5.71735V4.24535C30.7371 2.90455 31.8283 1.81335 33.1691 1.81335H37.1435C38.4843 1.81335 39.5755 2.90455 39.5755 4.24535V5.71735C39.5755 6.18882 39.1936 6.57069 38.7221 6.57069Z" fill="#ED1C24"/>
<path d="M20.8863 46.1867H4.7999C3.15297 46.1867 1.81323 44.847 1.81323 43.2V31.6886C1.81323 30.0416 3.15297 28.7019 4.7999 28.7019H20.8863C22.5332 28.7019 23.873 30.0416 23.873 31.6886V43.2C23.873 44.847 22.5332 46.1867 20.8863 46.1867ZM4.7999 30.4086C4.09377 30.4086 3.5199 30.9824 3.5199 31.6886V43.2C3.5199 43.9062 4.09377 44.48 4.7999 44.48H20.8863C21.5924 44.48 22.1663 43.9062 22.1663 43.2V31.6886C22.1663 30.9824 21.5924 30.4086 20.8863 30.4086H4.7999Z" fill="#ED1C24"/>
<path d="M23.0196 37.0699H14.4009C13.9295 37.0699 13.5476 36.6881 13.5476 36.2166C13.5476 35.7451 13.9295 35.3633 14.4009 35.3633H23.0196C23.4911 35.3633 23.8729 35.7451 23.8729 36.2166C23.8729 36.6881 23.4911 37.0699 23.0196 37.0699Z" fill="#ED1C24"/>
<path d="M11.2852 37.0699H2.66657C2.1951 37.0699 1.81323 36.6881 1.81323 36.2166C1.81323 35.7451 2.1951 35.3633 2.66657 35.3633H11.2852C11.7567 35.3633 12.1386 35.7451 12.1386 36.2166C12.1386 36.6881 11.7567 37.0699 11.2852 37.0699Z" fill="#ED1C24"/>
<path d="M14.401 38.6283H11.2852C10.8138 38.6283 10.4319 38.2464 10.4319 37.775V34.6592C10.4319 34.1878 10.8138 33.8059 11.2852 33.8059H14.401C14.8724 33.8059 15.2543 34.1878 15.2543 34.6592V37.775C15.2543 38.2454 14.8724 38.6283 14.401 38.6283ZM12.1386 36.9216H13.5476V35.5126H12.1386V36.9216Z" fill="#ED1C24"/>
<path d="M16.4094 30.4075C15.9379 30.4075 15.556 30.0256 15.556 29.5541V28.0821C15.556 27.6821 15.2307 27.3568 14.8307 27.3568H10.8563C10.4563 27.3568 10.131 27.6821 10.131 28.0821V29.5541C10.131 30.0256 9.74912 30.4075 9.27765 30.4075C8.80618 30.4075 8.42432 30.0256 8.42432 29.5541V28.0821C8.42432 26.7413 9.51552 25.6501 10.8563 25.6501H14.8307C16.1715 25.6501 17.2627 26.7413 17.2627 28.0821V29.5541C17.2627 30.0256 16.8808 30.4075 16.4094 30.4075Z" fill="#ED1C24"/>
<path d="M12.6121 22.4683C12.1407 22.4683 11.7588 22.0864 11.7588 21.615V14.9387C11.7588 13.5552 12.8841 12.4288 14.2687 12.4288H20.2207C20.6921 12.4288 21.074 12.8107 21.074 13.2822C21.074 13.7536 20.6921 14.1355 20.2207 14.1355H14.2687C13.826 14.1355 13.4655 14.496 13.4655 14.9387V21.615C13.4655 22.0854 13.0825 22.4683 12.6121 22.4683Z" fill="#ED1C24"/>
<path d="M12.6122 22.4683C12.37 22.4683 12.1386 22.3648 11.9764 22.1845L9.22978 19.1221C8.91511 18.7712 8.94391 18.2315 9.29485 17.9168C9.64578 17.6021 10.1855 17.6309 10.5002 17.9819L12.6111 20.336L14.722 17.9819C15.0367 17.6309 15.5764 17.6021 15.9274 17.9168C16.2783 18.2315 16.3071 18.7712 15.9924 19.1221L13.2458 22.1845C13.0858 22.3648 12.8543 22.4683 12.6122 22.4683Z" fill="#ED1C24"/>
<path d="M33.7311 35.5713H27.7791C27.3076 35.5713 26.9258 35.1895 26.9258 34.718C26.9258 34.2465 27.3076 33.8647 27.7791 33.8647H33.7311C34.1738 33.8647 34.5343 33.5041 34.5343 33.0615V26.3852C34.5343 25.9137 34.9162 25.5319 35.3876 25.5319C35.8591 25.5319 36.241 25.9137 36.241 26.3852V33.0615C36.241 34.446 35.1157 35.5713 33.7311 35.5713Z" fill="#ED1C24"/>
<path d="M38.1353 30.3009C37.9017 30.3009 37.6681 30.2049 37.4996 30.0172L35.3876 27.663L33.2756 30.0172C32.9609 30.3681 32.4212 30.3969 32.0702 30.0822C31.7193 29.7676 31.6905 29.2278 32.0052 28.8769L34.7518 25.8145C34.914 25.6342 35.1444 25.5308 35.3865 25.5308C35.6286 25.5308 35.8601 25.6342 36.0212 25.8145L38.7678 28.8769C39.0825 29.2278 39.0537 29.7676 38.7028 30.0822C38.5417 30.2294 38.338 30.3009 38.1353 30.3009Z" fill="#ED1C24"/>
</svg>
