<svg width="48" height="48" viewBox="0 0 48 48" fill="none" xmlns="http://www.w3.org/2000/svg">
<path d="M26.7825 38.085C26.565 37.86 26.2275 37.8 25.9425 37.935C24.39 38.64 22.7325 39 21 39C14.385 39 9 33.615 9 27C9 20.385 14.385 15 21 15C21.4125 15 21.75 14.6625 21.75 14.25V8.25C21.75 7.8375 21.4125 7.5 21 7.5C10.245 7.5 1.5 16.245 1.5 27C1.5 37.755 10.245 46.5 21 46.5C24.5625 46.5 28.05 45.5325 31.08 43.7025C31.275 43.5825 31.41 43.38 31.44 43.155C31.47 42.93 31.3875 42.6975 31.2225 42.5325L26.7825 38.0925V38.085ZM21 45C11.0775 45 3 36.9225 3 27C3 17.0775 10.6725 9.4125 20.25 9.015V13.5225C13.155 13.9125 7.5 19.8075 7.5 27C7.5 34.1925 13.5525 40.5 21 40.5C22.7625 40.5 24.4725 40.17 26.0775 39.51L29.46 42.8925C26.865 44.2725 23.9625 45 20.9925 45H21Z" fill="#ED1C24"/>
<path d="M37.4476 7.09505C37.1176 6.84005 36.6451 6.90005 36.3976 7.23005C36.1426 7.56005 36.2026 8.02505 36.5326 8.28005C40.7626 11.5576 43.2676 16.4326 43.4851 21.7501H33.4426C32.0776 18.5101 29.4901 15.9301 26.2501 14.5576V4.51505C28.0351 4.59005 29.7751 4.92005 31.4401 5.50505C31.8301 5.64005 32.2576 5.43755 32.4001 5.04755C32.5351 4.65755 32.3326 4.23005 31.9426 4.08755C29.8876 3.36005 27.7201 2.99255 25.5076 2.99255C25.0951 2.99255 24.7576 3.33005 24.7576 3.74255V15.0601C24.7576 15.3751 24.9526 15.6526 25.2451 15.7651C28.4701 16.9801 31.0201 19.5301 32.2426 22.7626C32.3551 23.0551 32.6326 23.2501 32.9476 23.2501H44.2651C44.6776 23.2501 45.0151 22.9126 45.0151 22.5001C45.0151 16.4251 42.2626 10.8076 37.4626 7.09505H37.4476Z" fill="#ED1C24"/>
<path d="M39.7501 26.2501H33.7501C33.3376 26.2501 33.0001 26.5876 33.0001 27.0001C33.0001 30.2026 31.7551 33.2176 29.4826 35.4826C29.1901 35.7751 29.1901 36.2476 29.4826 36.5401L33.7276 40.7851C33.8776 40.9351 34.0651 41.0026 34.2601 41.0026C34.4551 41.0026 34.6426 40.9276 34.7926 40.7851C38.4751 37.1026 40.5001 32.2051 40.5001 26.9926C40.5001 26.5801 40.1626 26.2426 39.7501 26.2426V26.2501ZM34.2526 39.1876L31.0651 36.0001C33.1201 33.7051 34.3126 30.8251 34.4851 27.7501H38.9926C38.8201 32.0326 37.1551 36.0451 34.2601 39.1876H34.2526Z" fill="#ED1C24"/>
<path d="M31.9651 11.94C32.0626 11.9775 32.1601 12 32.2501 12C32.5426 12 32.8201 11.8275 32.9401 11.535L36.4951 3H38.2426C38.6551 3 38.9926 2.6625 38.9926 2.25C38.9926 1.8375 38.6551 1.5 38.2426 1.5H35.9926C35.6926 1.5 35.4151 1.68 35.3026 1.965L31.5526 10.965C31.3951 11.3475 31.5751 11.79 31.9576 11.9475L31.9651 11.94Z" fill="#ED1C24"/>
<path d="M41.25 3H45.75C46.1625 3 46.5 2.6625 46.5 2.25C46.5 1.8375 46.1625 1.5 45.75 1.5H41.25C40.8375 1.5 40.5 1.8375 40.5 2.25C40.5 2.6625 40.8375 3 41.25 3Z" fill="#ED1C24"/>
<path d="M45.75 4.5H41.25C40.8375 4.5 40.5 4.8375 40.5 5.25C40.5 5.6625 40.8375 6 41.25 6H45.75C46.1625 6 46.5 5.6625 46.5 5.25C46.5 4.8375 46.1625 4.5 45.75 4.5Z" fill="#ED1C24"/>
<path d="M12.135 26.565C11.955 26.82 11.955 27.1725 12.135 27.4275C12.2925 27.6525 16.11 32.9925 21 32.9925C25.89 32.9925 29.7 27.6525 29.865 27.4275C30.045 27.1725 30.045 26.82 29.865 26.565C29.7075 26.34 25.89 21 21 21C16.11 21 12.3 26.34 12.135 26.565ZM28.305 27C27.3375 28.2 24.3825 31.5 21 31.5C17.6175 31.5 14.6625 28.2 13.695 27C14.6625 25.8 17.6175 22.5 21 22.5C24.3825 22.5 27.3375 25.8 28.305 27Z" fill="#ED1C24"/>
<path d="M18 27C18 28.6575 19.3425 30 21 30C22.6575 30 24 28.6575 24 27C24 25.3425 22.6575 24 21 24C19.3425 24 18 25.3425 18 27ZM22.5 27C22.5 27.825 21.825 28.5 21 28.5C20.175 28.5 19.5 27.825 19.5 27C19.5 26.175 20.175 25.5 21 25.5C21.825 25.5 22.5 26.175 22.5 27Z" fill="#ED1C24"/>
</svg>
