<svg width="81" height="81" viewBox="0 0 81 81" fill="none" xmlns="http://www.w3.org/2000/svg">
<path d="M15.9179 47.254C14.0753 46.3676 12.0167 46.0299 9.98743 46.2811C7.9582 46.5323 6.04403 47.3618 4.47314 48.6707C2.90226 49.9795 1.74096 51.7126 1.12771 53.6632C0.514457 55.6138 0.475131 57.6996 1.01442 59.6719C1.55371 61.6442 2.64886 63.4198 4.16929 64.787C5.68972 66.1542 7.57127 67.0552 9.58958 67.3827C11.6079 67.7102 13.6778 67.4503 15.5525 66.6341C17.4273 65.8178 19.0277 64.4796 20.1629 62.779L30.2389 67.823C29.8452 69.5477 29.8867 71.3434 30.3598 73.0481C30.8328 74.7528 31.7226 76.313 32.9488 77.5882C34.1751 78.8634 35.6994 79.8135 37.3843 80.3529C39.0692 80.8922 40.8618 81.0039 42.6007 80.6779C44.3395 80.3519 45.9699 79.5984 47.345 78.4853C48.7201 77.3722 49.7966 75.9344 50.4776 74.3016C51.1587 72.6688 51.4228 70.8923 51.2462 69.132C51.0695 67.3717 50.4578 65.6829 49.4659 64.218L63.6249 49.418C65.2196 50.6036 67.1137 51.3202 69.0938 51.487C71.0739 51.6537 73.0613 51.264 74.8317 50.3618C76.6022 49.4595 78.0854 48.0806 79.1142 46.3806C80.143 44.6805 80.6764 42.7268 80.6542 40.7398C80.6321 38.7528 80.0554 36.8115 78.989 35.1348C77.9226 33.458 76.4091 32.1125 74.6189 31.2499C72.8288 30.3873 70.8333 30.042 68.8574 30.2528C66.8815 30.4636 65.0038 31.2221 63.4359 32.443L49.0479 18.051C50.1567 16.6308 50.8878 14.953 51.1731 13.174C51.4584 11.395 51.2886 9.57271 50.6796 7.87704C50.0705 6.18136 49.042 4.66751 47.69 3.47661C46.338 2.28571 44.7064 1.45654 42.9474 1.0664C41.1884 0.676264 39.3593 0.73786 37.6305 1.24545C35.9017 1.75304 34.3297 2.69009 33.0608 3.96925C31.7919 5.2484 30.8676 6.82802 30.374 8.56082C29.8804 10.2936 29.8336 12.1232 30.2379 13.879L20.7819 17.324C19.8332 15.4694 18.3623 13.9331 16.5508 12.9046C14.7392 11.8761 12.6662 11.4003 10.5874 11.5361C8.5087 11.6718 6.51515 12.4131 4.85273 13.6685C3.19031 14.9239 1.93173 16.6384 1.23224 18.6006C0.532745 20.5628 0.422945 22.6869 0.916382 24.7108C1.40982 26.7347 2.48491 28.5699 4.00903 29.99C5.53314 31.41 7.43963 32.3529 9.49329 32.7023C11.547 33.0517 13.658 32.7922 15.5659 31.956L20.4739 40.216L15.9179 47.254ZM11.2949 64.854C9.71268 64.854 8.16597 64.3848 6.85037 63.5057C5.53478 62.6267 4.5094 61.3773 3.9039 59.9155C3.2984 58.4536 3.13997 56.8451 3.44865 55.2933C3.75733 53.7414 4.51926 52.316 5.63808 51.1971C6.7569 50.0783 8.18236 49.3164 9.73421 49.0077C11.2861 48.699 12.8946 48.8574 14.3564 49.4629C15.8182 50.0684 17.0676 51.0938 17.9467 52.4094C18.8257 53.725 19.2949 55.2717 19.2949 56.854C19.2928 58.9751 18.4493 61.0087 16.9494 62.5085C15.4496 64.0083 13.416 64.8519 11.2949 64.854ZM21.3509 60.389C22.0785 58.3477 22.1625 56.1325 21.5917 54.042C21.021 51.9515 19.8228 50.0863 18.1589 48.698L21.9949 42.779L33.5549 62.23C32.5765 63.0988 31.7658 64.1397 31.1629 65.301L21.3509 60.389ZM40.6319 22.189C42.9992 22.189 45.2984 21.3965 47.1629 19.938L61.5509 34.325C60.677 35.4479 60.0377 36.7351 59.6709 38.11L51.2949 36.958C51.2949 36.923 51.2949 36.889 51.2949 36.858C51.2963 34.5695 50.5613 32.3413 49.1985 30.5027C47.8358 28.6642 45.9176 27.3129 43.7276 26.6487C41.5376 25.9844 39.192 26.0424 37.0376 26.8142C34.8831 27.5859 33.0341 29.0303 31.7639 30.934L30.1729 30.139L36.0099 21.124C37.4506 21.8237 39.0313 22.1872 40.6329 22.187L40.6319 22.189ZM41.9649 59.614V47.427C44.0671 47.1585 46.0419 46.2707 47.638 44.8766C49.234 43.4824 50.3793 41.645 50.9279 39.598L59.3039 40.75C59.3039 40.785 59.2989 40.819 59.2989 40.85C59.297 43.2991 60.1425 45.6734 61.6919 47.57L47.6919 62.209C46.089 60.7856 44.0928 59.8806 41.9659 59.613L41.9649 59.614ZM40.6329 28.854C42.2152 28.854 43.7619 29.3232 45.0775 30.2022C46.3931 31.0813 47.4185 32.3307 48.024 33.7925C48.6295 35.2543 48.7879 36.8629 48.4792 38.4147C48.1705 39.9666 47.4086 41.392 46.2898 42.5108C45.171 43.6297 43.7455 44.3916 42.1937 44.7003C40.6418 45.0089 39.0333 44.8505 37.5715 44.245C36.1097 43.6395 34.8602 42.6141 33.9812 41.2985C33.1021 39.983 32.6329 38.4362 32.6329 36.854C32.6351 34.7329 33.4786 32.6993 34.9784 31.1995C36.4783 29.6996 38.5119 28.8561 40.6329 28.854ZM30.5809 33.319C30.047 34.8189 29.857 36.4196 30.0249 38.0028C30.1927 39.586 30.7142 41.1112 31.5508 42.4658C32.3873 43.8204 33.5176 44.9697 34.858 45.8288C36.1984 46.6878 37.7147 47.2347 39.2949 47.429V59.614C38.058 59.769 36.8582 60.1414 35.7509 60.714L23.6109 40.279L28.7189 32.391L30.5809 33.319ZM40.6329 78.187C39.0507 78.187 37.504 77.7178 36.1884 76.8387C34.8728 75.9597 33.8474 74.7103 33.2419 73.2485C32.6364 71.7867 32.478 70.1781 32.7867 68.6263C33.0953 67.0744 33.8573 65.6489 34.9761 64.5301C36.0949 63.4113 37.5204 62.6494 39.0722 62.3407C40.6241 62.032 42.2326 62.1904 43.6944 62.7959C45.1562 63.4014 46.4056 64.4268 47.2847 65.7424C48.1637 67.058 48.6329 68.6047 48.6329 70.187C48.6308 72.3081 47.7873 74.3417 46.2874 75.8415C44.7876 77.3413 42.754 78.1849 40.6329 78.187ZM69.9659 32.854C71.5482 32.854 73.0949 33.3232 74.4105 34.2022C75.7261 35.0813 76.7515 36.3307 77.357 37.7925C77.9625 39.2543 78.1209 40.8629 77.8122 42.4147C77.5035 43.9666 76.7416 45.392 75.6228 46.5108C74.504 47.6297 73.0785 48.3916 71.5267 48.7003C69.9748 49.0089 68.3663 48.8505 66.9045 48.245C65.4427 47.6395 64.1932 46.6141 63.3142 45.2985C62.4351 43.983 61.9659 42.4362 61.9659 40.854C61.9681 38.7329 62.8116 36.6993 64.3114 35.1995C65.8112 33.6996 67.8449 32.8561 69.9659 32.854ZM40.6329 3.52099C42.2152 3.52099 43.7619 3.99018 45.0775 4.86923C46.3931 5.74828 47.4185 6.99771 48.024 8.45952C48.6295 9.92133 48.7879 11.5299 48.4792 13.0817C48.1705 14.6336 47.4086 16.059 46.2898 17.1778C45.171 18.2967 43.7455 19.0586 42.1937 19.3673C40.6418 19.6759 39.0333 19.5175 37.5715 18.912C36.1097 18.3065 34.8602 17.2811 33.9812 15.9655C33.1021 14.65 32.6329 13.1032 32.6329 11.521C32.6351 9.3999 33.4786 7.3663 34.9784 5.86647C36.4783 4.36664 38.5119 3.5231 40.6329 3.52099ZM31.1499 16.379C31.7976 17.6415 32.6891 18.7631 33.7729 19.679L27.7779 28.938L21.3509 25.725C22.0315 23.8339 22.151 21.7864 21.6949 19.829L31.1499 16.379ZM3.29493 22.187C3.29493 20.6047 3.76413 19.058 4.64318 17.7424C5.52223 16.4268 6.77166 15.4015 8.23347 14.7959C9.69528 14.1904 11.3038 14.032 12.8557 14.3407C14.4075 14.6494 15.833 15.4113 16.9518 16.5301C18.0706 17.649 18.8325 19.0744 19.1412 20.6263C19.4499 22.1781 19.2915 23.7866 18.686 25.2485C18.0805 26.7103 17.0551 27.9597 15.7395 28.8387C14.4239 29.7178 12.8772 30.187 11.2949 30.187C9.17385 30.1849 7.14025 29.3413 5.64042 27.8415C4.14059 26.3417 3.29705 24.3081 3.29493 22.187ZM17.8479 30.587C18.7441 29.8892 19.5241 29.0538 20.1589 28.112L26.3149 31.189L22.0949 37.718L17.8479 30.587Z" fill="#ED1C24"/>
</svg>
