<svg width="23" height="18" viewBox="0 0 23 18" fill="none" xmlns="http://www.w3.org/2000/svg">
<path d="M1.00098 2.65699C1.00098 2.09606 1.22381 1.5581 1.62045 1.16146C2.01709 0.764822 2.55504 0.541992 3.11598 0.541992H20.032C20.5929 0.541992 21.1309 0.764822 21.5275 1.16146C21.9241 1.5581 22.147 2.09606 22.147 2.65699V15.342C22.147 15.9029 21.9241 16.4409 21.5275 16.8375C21.1309 17.2342 20.5929 17.457 20.032 17.457H3.11598C2.55504 17.457 2.01709 17.2342 1.62045 16.8375C1.22381 16.4409 1.00098 15.9029 1.00098 15.342V2.65699Z" stroke="#ED1C24" stroke-linecap="round" stroke-linejoin="round"/>
<path d="M1.00098 4.771L8.93198 11.116C9.68186 11.716 10.6136 12.0428 11.574 12.0428C12.5343 12.0428 13.4661 11.716 14.216 11.116L22.147 4.771" stroke="#ED1C24" stroke-linecap="round" stroke-linejoin="round"/>
</svg>
