<svg width="39" height="43" viewBox="0 0 39 43" fill="none" xmlns="http://www.w3.org/2000/svg">
<path d="M19.591 36.5381C20.1004 36.5385 20.6025 36.6598 21.0559 36.892C21.5093 37.1243 21.9011 37.4609 22.199 37.8741L32.164 32.1191C32.0929 31.9621 32.0347 31.7996 31.99 31.6331C31.7705 30.8116 31.886 29.9366 32.311 29.2001L32.32 29.1841L32.35 29.1341C32.7777 28.4268 33.4631 27.9131 34.262 27.7011C34.4274 27.6562 34.5964 27.6254 34.767 27.6091V16.1001C34.5965 16.0828 34.4276 16.052 34.262 16.0081C33.4572 15.7936 32.7677 15.2738 32.34 14.5591L32.281 14.4591C31.8787 13.7329 31.7743 12.8788 31.99 12.0771C32.0342 11.9098 32.0924 11.7466 32.164 11.5891L28.523 9.4891C28.3671 9.39945 28.2531 9.25153 28.2062 9.07787C28.1593 8.90422 28.1834 8.71904 28.273 8.5631C28.3626 8.40715 28.5106 8.2932 28.6842 8.24632C28.8579 8.19943 29.043 8.22345 29.199 8.3131L32.976 10.4941C33.123 10.3664 33.2809 10.252 33.448 10.1521L33.487 10.1271C34.2198 9.71324 35.0857 9.6036 35.8985 9.82179C36.7113 10.04 37.406 10.5685 37.833 11.2937C38.26 12.0189 38.3853 12.8828 38.1818 13.6994C37.9783 14.516 37.4624 15.2201 36.745 15.6601L36.645 15.7171C36.4807 15.8082 36.3087 15.8849 36.131 15.9461V27.7651C36.3203 27.8301 36.5031 27.9128 36.677 28.0121L36.7 28.0261C37.4332 28.4489 37.9693 29.1445 38.1915 29.9611C38.4137 30.7778 38.3039 31.6491 37.886 32.3851L37.845 32.4581C37.4122 33.179 36.7135 33.701 35.8994 33.9116C35.0854 34.1222 34.2211 34.0046 33.493 33.5841L33.44 33.5541C33.2769 33.4561 33.1226 33.344 32.979 33.2191L22.742 39.1281C22.7827 39.3343 22.8028 39.544 22.802 39.7541C22.802 40.3896 22.6136 41.0108 22.2606 41.5392C21.9075 42.0676 21.4057 42.4795 20.8186 42.7226C20.2315 42.9658 19.5854 43.0295 18.9621 42.9055C18.3389 42.7815 17.7663 42.4755 17.317 42.0261L17.278 41.9831C16.7003 41.3849 16.3776 40.5857 16.378 39.7541C16.378 39.544 16.3981 39.3344 16.438 39.1281L6.199 33.2191C6.05584 33.3446 5.90153 33.4567 5.738 33.5541L5.685 33.5841C4.95703 34.004 4.0933 34.1213 3.27973 33.9107C2.46616 33.7001 1.7678 33.1785 1.335 32.4581L1.299 32.3851C0.881457 31.6488 0.771712 30.7774 0.993658 29.9606C1.2156 29.1438 1.75126 28.4478 2.484 28.0241L2.509 28.0121C2.68284 27.9128 2.86565 27.8301 3.055 27.7651V15.9441C2.87703 15.8836 2.70498 15.807 2.541 15.7151L2.441 15.6581C1.72363 15.2181 1.20768 14.514 1.0042 13.6974C0.800719 12.8808 0.925963 12.0169 1.35298 11.2917C1.77999 10.5665 2.47465 10.038 3.28745 9.81979C4.10024 9.6016 4.96622 9.71124 5.699 10.1251L5.738 10.1501C5.90478 10.2487 6.06211 10.3626 6.208 10.4901L16.436 4.5811C16.3962 4.37547 16.3762 4.16653 16.376 3.9571C16.3759 3.53565 16.4591 3.11834 16.6208 2.72913C16.7824 2.33992 17.0194 1.98648 17.318 1.6891C17.6153 1.39052 17.9687 1.1536 18.3578 0.991946C18.7469 0.830288 19.1641 0.74707 19.5855 0.74707C20.0069 0.74707 20.4241 0.830288 20.8132 0.991946C21.2023 1.1536 21.5557 1.39052 21.853 1.6891C22.151 1.98641 22.3875 2.3396 22.5488 2.72844C22.7101 3.11728 22.7931 3.53413 22.793 3.9551C22.7928 4.16453 22.7728 4.37347 22.733 4.5791L24.15 5.3981C24.2992 5.49157 24.4063 5.63937 24.4486 5.81029C24.491 5.98122 24.4652 6.16191 24.3769 6.31422C24.2885 6.46654 24.1445 6.57858 23.9751 6.62669C23.8057 6.6748 23.6242 6.65523 23.469 6.5721L22.193 5.8381C21.8952 6.2511 21.5036 6.58745 21.0503 6.81943C20.597 7.05141 20.0952 7.17238 19.586 7.17238C19.0768 7.17238 18.5749 7.05141 18.1217 6.81943C17.6684 6.58745 17.2768 6.2511 16.979 5.8381L7.014 11.5881C7.08445 11.7452 7.14197 11.9077 7.186 12.0741C7.40165 12.8758 7.29731 13.7299 6.895 14.4561L6.836 14.5561C6.40832 15.2708 5.71882 15.7906 4.914 16.0051C4.74854 16.0499 4.57961 16.0807 4.409 16.0971V27.6081C4.57949 27.6254 4.74835 27.6562 4.914 27.7001C5.71208 27.9137 6.39697 28.427 6.826 29.1331L6.865 29.1991C7.29012 29.9355 7.40558 30.8106 7.186 31.6321C7.1413 31.7986 7.0831 31.9611 7.012 32.1181L16.977 37.8731C17.2749 37.4602 17.6666 37.1239 18.1198 36.8918C18.573 36.6597 19.0748 36.5385 19.584 36.5381H19.591ZM21.751 22.8051C22.1506 22.233 22.6704 21.7552 23.274 21.4051C23.9931 20.986 24.8106 20.7651 25.643 20.7651H27.843C29.0993 20.7696 30.3028 21.2706 31.1911 22.1589C32.0795 23.0473 32.5805 24.2508 32.585 25.5071V27.0301C32.585 27.2107 32.5133 27.3839 32.3855 27.5116C32.2578 27.6393 32.0846 27.7111 31.904 27.7111H25.436V28.9541C25.436 29.1347 25.3642 29.3079 25.2365 29.4356C25.1088 29.5633 24.9356 29.6351 24.755 29.6351H14.431C14.2504 29.6351 14.0772 29.5633 13.9495 29.4356C13.8217 29.3079 13.75 29.1347 13.75 28.9541V27.4271C13.7528 26.5959 13.9733 25.78 14.3897 25.0606C14.8061 24.3412 15.4037 23.7436 16.123 23.3271C15.8699 23.0286 15.5675 22.7756 15.229 22.5791C14.7161 22.282 14.1337 22.126 13.541 22.1271H11.341C10.4452 22.1292 9.58672 22.486 8.95331 23.1194C8.31989 23.7528 7.96311 24.6113 7.961 25.5071V26.3481H11.886C12.0666 26.3481 12.2398 26.4198 12.3675 26.5476C12.4952 26.6753 12.567 26.8485 12.567 27.0291C12.567 27.2097 12.4952 27.3829 12.3675 27.5106C12.2398 27.6383 12.0666 27.7101 11.886 27.7101H7.276C7.18657 27.7101 7.09801 27.6925 7.01539 27.6583C6.93277 27.624 6.85769 27.5739 6.79446 27.5106C6.73122 27.4474 6.68106 27.3723 6.64683 27.2897C6.61261 27.2071 6.595 27.1185 6.595 27.0291V25.5031C6.59574 24.8813 6.71906 24.2657 6.95791 23.6915C7.19676 23.1174 7.54646 22.596 7.987 22.1571C8.42572 21.7168 8.94701 21.3673 9.52101 21.1288C10.095 20.8903 10.7104 20.7674 11.332 20.7671H13.532C14.3644 20.7671 15.1818 20.988 15.901 21.4071C16.5048 21.7596 17.0245 22.2394 17.424 22.8131C17.7713 22.7331 18.1266 22.6925 18.483 22.6921H20.683C21.0393 22.6918 21.3946 22.7317 21.742 22.8111L21.751 22.8051ZM25.308 26.3451H31.224V25.5031C31.2211 24.6076 30.8641 23.7495 30.2308 23.1163C29.5976 22.483 28.7395 22.126 27.844 22.1231H25.644C25.0513 22.1222 24.469 22.2782 23.956 22.5751C23.615 22.7705 23.3105 23.0236 23.056 23.3231C23.4133 23.5315 23.7423 23.7849 24.035 24.0771C24.6604 24.6996 25.0996 25.4844 25.303 26.3431L25.308 26.3451ZM26.743 13.1131C27.3144 13.1128 27.8771 13.2536 28.3811 13.5229C28.8851 13.7921 29.3149 14.1816 29.6323 14.6567C29.9498 15.1319 30.1451 15.678 30.2009 16.2467C30.2568 16.8154 30.1714 17.3891 29.9525 17.9169C29.7335 18.4447 29.3877 18.9103 28.9457 19.2725C28.5037 19.6347 27.9791 19.8822 27.4186 19.9931C26.858 20.104 26.2787 20.0748 25.7321 19.9082C25.1855 19.7417 24.6884 19.4428 24.285 19.0381L24.246 18.9951C23.7722 18.5046 23.4532 17.8855 23.329 17.2149C23.2047 16.5444 23.2806 15.8521 23.5472 15.2244C23.8138 14.5967 24.2593 14.0614 24.8282 13.6852C25.397 13.309 26.064 13.1087 26.746 13.1091L26.743 13.1131ZM28.236 15.0921C27.841 14.7049 27.3099 14.488 26.7567 14.488C26.2036 14.488 25.6725 14.705 25.2775 15.0922C24.8826 15.4795 24.6552 16.0062 24.6442 16.5592C24.6333 17.1122 24.8397 17.6475 25.219 18.0501L25.251 18.0781C25.65 18.4589 26.1822 18.6684 26.7338 18.662C27.2853 18.6555 27.8124 18.4336 28.2024 18.0435C28.5925 17.6535 28.8144 17.1264 28.8209 16.5749C28.8273 16.0233 28.6168 15.4911 28.236 15.0921ZM12.436 13.1131C13.0076 13.1123 13.5705 13.2527 14.0748 13.5216C14.5791 13.7906 15.0093 14.1798 15.3271 14.6549C15.6449 15.1299 15.8406 15.676 15.8967 16.2448C15.9529 16.8136 15.8678 17.3875 15.649 17.9155C15.4302 18.4435 15.0845 18.9094 14.6425 19.2718C14.2005 19.6342 13.676 19.8819 13.1153 19.9929C12.5546 20.104 11.9752 20.0749 11.4285 19.9084C10.8817 19.7418 10.3845 19.4429 9.981 19.0381L9.942 18.9951C9.4675 18.5047 9.14797 17.8854 9.02333 17.2145C8.89868 16.5436 8.97443 15.8509 9.24111 15.2228C9.5078 14.5947 9.95361 14.059 10.5229 13.6828C11.0921 13.3065 11.7596 13.1063 12.442 13.1071L12.436 13.1131ZM13.927 15.0941C13.5351 14.694 13.0004 14.466 12.4404 14.4602C11.8804 14.4544 11.3411 14.6712 10.941 15.0631C10.5409 15.455 10.3129 15.9897 10.3071 16.5497C10.3013 17.1097 10.5181 17.649 10.91 18.0491L10.942 18.0771C11.1368 18.2784 11.3697 18.439 11.6272 18.5494C11.8847 18.6598 12.1616 18.7178 12.4417 18.7201C12.7218 18.7224 12.9996 18.6689 13.2589 18.5628C13.5181 18.4567 13.7537 18.3 13.9518 18.1019C14.1499 17.9038 14.3066 17.6682 14.4127 17.409C14.5188 17.1497 14.5723 16.8719 14.57 16.5918C14.5677 16.3117 14.5097 16.0348 14.3993 15.7773C14.2889 15.5198 14.1283 15.2869 13.927 15.0921V15.0941ZM20.689 24.0481H18.489C17.5935 24.051 16.7354 24.408 16.1022 25.0413C15.4689 25.6745 15.1119 26.5326 15.109 27.4281V28.2701H24.072V27.4281C24.0701 26.5324 23.7134 25.674 23.0799 25.0408C22.4463 24.4077 21.5877 24.0514 20.692 24.0501L20.689 24.0481ZM19.589 15.0381C20.3933 15.0377 21.1728 15.3162 21.7947 15.8261C22.4167 16.3361 22.8426 17.0459 22.9998 17.8347C23.157 18.6234 23.0358 19.4423 22.6569 20.1517C22.278 20.8611 21.6648 21.4172 20.9218 21.7252C20.1788 22.0331 19.352 22.0739 18.5823 21.8406C17.8127 21.6073 17.1477 21.1142 16.7008 20.4455C16.2539 19.7769 16.0527 18.9739 16.1315 18.1735C16.2103 17.3731 16.5643 16.6248 17.133 16.0561C17.4553 15.7332 17.8381 15.4771 18.2596 15.3024C18.681 15.1277 19.1328 15.0379 19.589 15.0381ZM21.08 17.0191C20.7347 16.6744 20.2805 16.4601 19.7949 16.4127C19.3093 16.3652 18.8223 16.4877 18.4168 16.7591C18.0114 17.0305 17.7126 17.4341 17.5713 17.9011C17.4301 18.3681 17.4551 18.8697 17.6422 19.3203C17.8293 19.7709 18.1668 20.1428 18.5973 20.3724C19.0278 20.6021 19.5246 20.6754 20.003 20.5798C20.4815 20.4843 20.9121 20.2258 21.2213 19.8484C21.5305 19.471 21.6994 18.998 21.699 18.5101C21.6984 17.9518 21.4761 17.4166 21.081 17.0221L21.08 17.0191ZM25.966 8.0101C25.8832 7.96879 25.8098 7.91097 25.7502 7.84021C25.6906 7.76945 25.6461 7.68725 25.6194 7.59865C25.5928 7.51005 25.5846 7.41694 25.5953 7.32505C25.606 7.23315 25.6354 7.14442 25.6816 7.06431C25.7279 6.9842 25.7901 6.91441 25.8644 6.85923C25.9386 6.80405 26.0234 6.76465 26.1134 6.74346C26.2035 6.72227 26.2969 6.71974 26.388 6.73601C26.4791 6.75229 26.5659 6.78703 26.643 6.8381L26.71 6.8771C26.7872 6.92148 26.8549 6.98065 26.9093 7.0512C26.9636 7.12176 27.0036 7.20233 27.0268 7.28832C27.05 7.37431 27.056 7.46403 27.0446 7.55235C27.0331 7.64068 27.0044 7.72588 26.96 7.8031C26.9156 7.88031 26.8564 7.94803 26.7859 8.00239C26.7153 8.05674 26.6348 8.09666 26.5488 8.11988C26.4628 8.14309 26.3731 8.14914 26.2847 8.13769C26.1964 8.12623 26.1112 8.09748 26.034 8.0531L25.966 8.0101ZM20.899 2.6481C20.5961 2.34576 20.1978 2.15777 19.7719 2.11616C19.346 2.07455 18.9188 2.18188 18.5631 2.41989C18.2075 2.65789 17.9453 3.01184 17.8213 3.42144C17.6974 3.83104 17.7192 4.27095 17.8832 4.66624C18.0472 5.06153 18.3431 5.38775 18.7206 5.58932C19.0981 5.79089 19.5338 5.85535 19.9535 5.77172C20.3732 5.68809 20.751 5.46154 21.0224 5.13066C21.2938 4.79979 21.4421 4.38505 21.442 3.9571C21.4422 3.71389 21.3944 3.47303 21.3012 3.24838C21.208 3.02373 21.0713 2.81973 20.899 2.6481ZM36.699 11.9821C36.4536 11.5568 36.0494 11.2463 35.5753 11.1186C35.1012 10.991 34.5958 11.0566 34.17 11.3011L34.136 11.3191C33.7226 11.5707 33.4238 11.9737 33.3032 12.4423C33.1825 12.911 33.2495 13.4082 33.49 13.8281L33.499 13.8441C33.7472 14.264 34.1509 14.5693 34.6225 14.6937C35.0942 14.8182 35.5959 14.7519 36.019 14.5091L36.033 14.5021C36.4536 14.254 36.7595 13.8501 36.8843 13.378C37.0092 12.906 36.9429 12.4037 36.7 11.9801L36.699 11.9821ZM5.665 29.8301C5.41036 29.4215 5.0066 29.1281 4.5393 29.0121C4.07201 28.8961 3.57792 28.9667 3.16177 29.2088C2.74561 29.451 2.44012 29.8457 2.31005 30.3092C2.17998 30.7728 2.23556 31.2688 2.465 31.6921L2.509 31.7661C2.75661 32.172 3.15079 32.4672 3.60999 32.5906C4.06919 32.7141 4.55825 32.6562 4.976 32.4291L5.052 32.3831C5.45807 32.1351 5.75333 31.7406 5.87672 31.281C6.00012 30.8215 5.94222 30.3321 5.715 29.9141L5.664 29.8251L5.665 29.8301ZM3.609 11.1181C3.25691 11.2132 2.94072 11.4101 2.70004 11.6841C2.45936 11.9582 2.3049 12.2971 2.25599 12.6585C2.20709 13.0199 2.26593 13.3877 2.42514 13.7159C2.58435 14.044 2.83685 14.3178 3.151 14.5031L3.165 14.5101C3.5881 14.7529 4.0898 14.8192 4.56146 14.6947C5.03311 14.5703 5.43676 14.265 5.685 13.8451L5.694 13.8291C5.93445 13.4092 6.00148 12.912 5.88082 12.4433C5.76017 11.9747 5.46135 11.5717 5.048 11.3201L5.014 11.3021C4.80422 11.1808 4.57254 11.1022 4.33227 11.0708C4.092 11.0394 3.8479 11.0558 3.614 11.1191L3.609 11.1181ZM34.609 29.0181C34.1518 29.1377 33.758 29.4284 33.509 29.8301L33.459 29.9171C33.2308 30.3347 33.1722 30.8242 33.2953 31.2839C33.4184 31.7436 33.7137 32.1383 34.12 32.3861L34.194 32.4291C34.6116 32.6579 35.1012 32.717 35.5612 32.594C36.0213 32.4711 36.4162 32.1757 36.664 31.7691L36.707 31.6951C36.8812 31.3769 36.9582 31.0144 36.9282 30.6528C36.8983 30.2913 36.7628 29.9464 36.5386 29.6612C36.3144 29.3759 36.0113 29.1628 35.667 29.0483C35.3227 28.9338 34.9524 28.9229 34.602 29.0171L34.609 29.0181ZM20.899 38.4451C20.5551 38.0937 20.0858 37.8933 19.5942 37.8879C19.1025 37.8826 18.6289 38.0727 18.2775 38.4166C17.9261 38.7605 17.7257 39.2298 17.7203 39.7214C17.715 40.2131 17.9051 40.6867 18.249 41.0381L18.281 41.0661C18.6286 41.4133 19.0998 41.6081 19.5911 41.6079C20.0823 41.6076 20.5533 41.4122 20.9005 41.0646C21.2477 40.717 21.4425 40.2458 21.4423 39.7545C21.442 39.2633 21.2466 38.7923 20.899 38.4451Z" fill="#ED1C24"/>
</svg>
