<svg width="80" height="80" viewBox="0 0 80 80" fill="none" xmlns="http://www.w3.org/2000/svg">
<mask id="mask0_4_505" style="mask-type:luminance" maskUnits="userSpaceOnUse" x="-1" y="0" width="81" height="80">
<path d="M79.9989 0H-0.00109863V80H79.9989V0Z" fill="white"/>
</mask>
<g mask="url(#mask0_4_505)">
<path d="M25.9649 65.922H28.4569V68.414H25.9649V65.922Z" fill="#ED1C24"/>
<path d="M25.9649 70.907H28.4569V73.399H25.9649V70.907Z" fill="#ED1C24"/>
<path d="M54.6829 40.996C55.2392 40.9969 55.7887 40.875 56.2924 40.6391C56.7961 40.4031 57.2416 40.0589 57.5969 39.631L62.6919 33.518H72.0779C73.7299 33.5162 75.3137 32.8591 76.4819 31.691C77.65 30.5228 78.3071 28.939 78.3089 27.287V14.825C78.3071 13.173 77.65 11.5892 76.4819 10.4211C75.3137 9.25294 73.7299 8.59587 72.0779 8.59402H65.8459C65.8574 7.60478 65.6724 6.62311 65.3018 5.70586C64.9311 4.78862 64.3821 3.95403 63.6866 3.25046C62.9912 2.54688 62.163 1.9883 61.2501 1.60707C60.3372 1.22584 59.3577 1.02954 58.3684 1.02954C57.3791 1.02954 56.3997 1.22584 55.4868 1.60707C54.5739 1.9883 53.7457 2.54688 53.0502 3.25046C52.3547 3.95403 51.8057 4.78862 51.4351 5.70586C51.0644 6.62311 50.8795 7.60478 50.8909 8.59402H44.6589C43.0069 8.59587 41.4231 9.25294 40.255 10.4211C39.0868 11.5892 38.4298 13.173 38.4279 14.825V21.706C35.9754 19.6717 32.8883 18.5598 29.7019 18.563H28.4579C26.4106 18.5681 24.3902 19.0292 22.5435 19.913C20.6968 20.7967 19.0702 22.0808 17.7819 23.672C15.8541 24.1419 14.1393 25.2444 12.9117 26.8033C11.6842 28.3623 11.0145 30.2877 11.0099 32.272C11.01 34.3871 11.4605 36.4779 12.3316 38.4053C13.2027 40.3327 14.4744 42.0524 16.0619 43.45C16.2675 45.3201 16.9397 47.1085 18.0167 48.6511C19.0938 50.1936 20.5412 51.4408 22.2259 52.278V54.967L13.5259 57.013C9.96763 57.8397 6.79508 59.8491 4.52702 62.7128C2.25896 65.5765 1.02959 69.125 1.03992 72.778V78.378H53.3829V72.778C53.3841 70.4083 52.8663 68.0672 51.8659 65.919H56.5369L61.6319 72.031C62.1306 72.6299 62.8018 73.0606 63.554 73.2645C64.3062 73.4684 65.103 73.4355 65.8359 73.1704C66.5688 72.9052 67.2022 72.4207 67.6499 71.7828C68.0976 71.1448 68.3378 70.3844 68.3379 69.605V65.922H72.0769C73.7289 65.9202 75.3127 65.2631 76.4809 64.095C77.649 62.9268 78.3061 61.343 78.3079 59.691V49.721C78.3061 48.069 77.649 46.4852 76.4809 45.3171C75.3127 44.1489 73.7289 43.4919 72.0769 43.49H47.1519C45.4999 43.4919 43.9161 44.1489 42.748 45.3171C41.5798 46.4852 40.9228 48.069 40.9209 49.721V57.021C40.9109 57.021 40.9019 57.015 40.8939 57.014L32.1939 54.968V52.278C33.8782 51.4409 35.3252 50.1941 36.4022 48.6522C37.4792 47.1103 38.1517 45.3225 38.3579 43.453C41.2398 40.9104 43.0258 37.3512 43.3419 33.521H50.8879V37.206C50.8906 38.2112 51.2914 39.1745 52.0027 39.8848C52.7139 40.5951 53.6777 40.9947 54.6829 40.996ZM58.3679 3.60802C59.3539 3.60802 60.3177 3.90038 61.1374 4.44814C61.9572 4.9959 62.5962 5.77445 62.9735 6.68534C63.3508 7.59623 63.4495 8.59855 63.2571 9.56554C63.0648 10.5325 62.59 11.4208 61.8928 12.1179C61.1957 12.8151 60.3074 13.2899 59.3404 13.4822C58.3735 13.6746 57.3711 13.5759 56.4602 13.1986C55.5494 12.8213 54.7708 12.1823 54.223 11.3625C53.6753 10.5428 53.3829 9.57895 53.3829 8.59301C53.3842 7.27132 53.9099 6.00413 54.8445 5.06955C55.779 4.13497 57.0462 3.60934 58.3679 3.60802ZM22.9679 57.351L25.6559 60.937L22.7559 64.807L20.2459 57.992L22.9679 57.351ZM27.2139 63.013L30.6489 67.592L27.5919 75.892H26.8379L23.7809 67.592L27.2139 63.013ZM3.53192 72.778C3.52303 69.6859 4.56378 66.6824 6.4839 64.2587C8.40401 61.835 11.0898 60.1348 14.1019 59.436L17.7949 58.567L24.1779 75.891H13.5019V68.414H11.0099V75.892H3.53192V72.778ZM43.4129 49.72C43.4132 48.7282 43.8071 47.777 44.5082 47.0754C45.2092 46.3738 46.1601 45.9791 47.1519 45.978H72.0769C73.0682 45.9791 74.0187 46.3733 74.7196 47.0743C75.4206 47.7753 75.8149 48.7257 75.8159 49.717V59.687C75.8149 60.6783 75.4206 61.6287 74.7196 62.3297C74.0187 63.0307 73.0682 63.425 72.0769 63.426H65.8459V69.604C65.8462 69.8715 65.764 70.1325 65.6105 70.3515C65.457 70.5705 65.2396 70.7368 64.9881 70.8278C64.7366 70.9188 64.4632 70.93 64.2051 70.8599C63.947 70.7898 63.7168 70.6418 63.5459 70.436L57.7019 63.429H50.4119C48.6558 60.9373 46.2284 58.9953 43.4119 57.829L43.4129 49.72ZM50.8899 72.778V75.889H43.4129V68.414H40.9199V75.892H30.2449L36.6269 58.568L40.3199 59.437C43.3317 60.136 46.0172 61.8363 47.9372 64.2597C49.8572 66.6831 50.8982 69.6862 50.8899 72.778ZM34.1829 57.993L31.6729 64.808L28.7729 60.937L31.4609 57.351L34.1829 57.993ZM29.7019 55.537L27.2089 58.861L24.7159 55.537V53.17C26.3552 53.5555 28.0616 53.5555 29.7009 53.17L29.7019 55.537ZM35.9329 42.243C35.9329 44.5568 35.0138 46.7757 33.3777 48.4118C31.7417 50.0479 29.5227 50.967 27.2089 50.967C24.8952 50.967 22.6762 50.0479 21.0401 48.4118C19.4041 46.7757 18.4849 44.5568 18.4849 42.243V36.389C18.4847 36.0947 18.5644 35.806 18.7156 35.5535C18.8668 35.301 19.0837 35.0944 19.3432 34.9556C19.6028 34.8169 19.8951 34.7513 20.189 34.7658C20.4829 34.7803 20.7673 34.8744 21.0119 35.038L24.3409 37.258H32.1959C33.1872 37.2591 34.1377 37.6533 34.8386 38.3543C35.5396 39.0553 35.9339 40.0057 35.9349 40.997L35.9329 42.243ZM38.3149 39.895C38.0565 38.4587 37.3023 37.1586 36.1838 36.2211C35.0653 35.2837 33.6533 34.7684 32.1939 34.765H25.0939L22.3939 32.965C21.774 32.5515 21.0535 32.3141 20.3092 32.278C19.5649 32.2419 18.8248 32.4086 18.1678 32.7601C17.5108 33.1117 16.9616 33.6351 16.5788 34.2744C16.1959 34.9136 15.9938 35.6449 15.9939 36.39V39.735C14.3758 37.5835 13.5012 34.9641 13.5019 32.272C13.5053 30.8037 14.0157 29.3815 14.9469 28.2462C15.878 27.1108 17.1727 26.3318 18.6119 26.041L19.1999 25.923L19.4839 25.543C20.5317 24.1532 21.887 23.0248 23.4438 22.2463C25.0005 21.4679 26.7164 21.0605 28.4569 21.056H29.7019C32.6759 21.0589 35.5272 22.2415 37.6303 24.3442C39.7334 26.4469 40.9165 29.2981 40.9199 32.272C40.9233 35.0316 40.0074 37.7138 38.3169 39.895H38.3149ZM43.3469 31.026C43.1309 28.6475 42.2932 26.3676 40.9179 24.415V14.825C40.919 13.8337 41.3132 12.8833 42.0142 12.1823C42.7152 11.4813 43.6656 11.0871 44.6569 11.086H51.3249C51.8001 12.4222 52.6445 13.5963 53.7599 14.472C51.444 15.3944 49.4576 16.9895 48.057 19.0516C46.6563 21.1137 45.9057 23.5482 45.9019 26.041V28.534H70.8309V26.041C70.8272 23.5483 70.0768 21.1139 68.6763 19.0518C67.2758 16.9897 65.2896 15.3945 62.9739 14.472C64.0894 13.5963 64.9337 12.4222 65.4089 11.086H72.0769C73.0682 11.0871 74.0187 11.4813 74.7196 12.1823C75.4206 12.8833 75.8149 13.8337 75.8159 14.825V27.287C75.8149 28.2783 75.4206 29.2287 74.7196 29.9297C74.0187 30.6307 73.0682 31.025 72.0769 31.026H61.5219L55.6789 38.036C55.508 38.2417 55.2778 38.3898 55.0197 38.4599C54.7617 38.53 54.4882 38.5188 54.2367 38.4278C53.9852 38.3369 53.7679 38.1705 53.6144 37.9515C53.4609 37.7325 53.3786 37.4715 53.3789 37.204V31.026H43.3469ZM58.3679 16.071C61.0112 16.0742 63.5452 17.1256 65.4143 18.9947C67.2833 20.8637 68.3347 23.3978 68.3379 26.041H48.4019C48.4051 23.3985 49.456 20.865 51.3242 18.9961C53.1923 17.1271 55.7254 16.0752 58.3679 16.071Z" fill="#ED1C24"/>
<path d="M45.9059 48.474H73.3239V50.967H45.9059V48.474Z" fill="#F21515"/>
<path d="M45.9059 53.459H73.3239V55.952H45.9059V53.459Z" fill="#ED1C24"/>
<path d="M50.8909 58.444H68.3379V60.937H50.8909V58.444Z" fill="#ED1C24"/>
<path d="M70.8309 58.444H73.3229V60.937H70.8309V58.444Z" fill="#ED1C24"/>
</g>
</svg>
