<svg width="78" height="78" viewBox="0 0 78 78" fill="none" xmlns="http://www.w3.org/2000/svg">
<path d="M53.6829 39.996C54.2392 39.9969 54.7887 39.875 55.2924 39.6391C55.7961 39.4031 56.2416 39.0589 56.5969 38.631L61.6919 32.518H71.0779C72.7299 32.5162 74.3137 31.8591 75.4819 30.691C76.65 29.5228 77.3071 27.939 77.3089 26.287V13.825C77.3071 12.173 76.65 10.5892 75.4819 9.42108C74.3137 8.25294 72.7299 7.59587 71.0779 7.59402H64.8459C64.8574 6.60478 64.6724 5.62311 64.3018 4.70586C63.9311 3.78862 63.3821 2.95403 62.6866 2.25046C61.9912 1.54688 61.163 0.988302 60.2501 0.607072C59.3372 0.225842 58.3577 0.029541 57.3684 0.029541C56.3791 0.029541 55.3997 0.225842 54.4868 0.607072C53.5739 0.988302 52.7457 1.54688 52.0502 2.25046C51.3547 2.95403 50.8057 3.78862 50.4351 4.70586C50.0644 5.62311 49.8795 6.60478 49.8909 7.59402H43.6589C42.0069 7.59587 40.4231 8.25294 39.255 9.42108C38.0868 10.5892 37.4298 12.173 37.4279 13.825V20.706C34.9754 18.6717 31.8883 17.5598 28.7019 17.563H27.4579C25.4106 17.5681 23.3902 18.0292 21.5435 18.913C19.6968 19.7967 18.0702 21.0808 16.7819 22.672C14.8541 23.1419 13.1393 24.2444 11.9117 25.8033C10.6842 27.3623 10.0145 29.2877 10.0099 31.272C10.01 33.3871 10.4605 35.4779 11.3316 37.4053C12.2027 39.3327 13.4744 41.0524 15.0619 42.45C15.2675 44.3201 15.9397 46.1085 17.0167 47.6511C18.0938 49.1936 19.5412 50.4408 21.2259 51.278V53.967L12.5259 56.013C8.96763 56.8397 5.79508 58.8491 3.52702 61.7128C1.25896 64.5765 0.0295903 68.125 0.0399205 71.778V77.378H52.3829V71.778C52.3841 69.4083 51.8663 67.0672 50.8659 64.919H55.5369L60.6319 71.031C61.1306 71.6299 61.8018 72.0606 62.554 72.2645C63.3062 72.4684 64.103 72.4355 64.8359 72.1704C65.5688 71.9052 66.2022 71.4207 66.6499 70.7828C67.0976 70.1448 67.3378 69.3844 67.3379 68.605V64.922H71.0769C72.7289 64.9202 74.3127 64.2631 75.4809 63.095C76.649 61.9268 77.3061 60.343 77.3079 58.691V48.721C77.3061 47.069 76.649 45.4852 75.4809 44.3171C74.3127 43.1489 72.7289 42.4919 71.0769 42.49H46.1519C44.4999 42.4919 42.9161 43.1489 41.748 44.3171C40.5798 45.4852 39.9228 47.069 39.9209 48.721V56.021C39.9109 56.021 39.9019 56.015 39.8939 56.014L31.1939 53.968V51.278C32.8782 50.4409 34.3252 49.1941 35.4022 47.6522C36.4792 46.1103 37.1517 44.3225 37.3579 42.453C40.2398 39.9104 42.0258 36.3512 42.3419 32.521H49.8879V36.206C49.8906 37.2112 50.2914 38.1745 51.0027 38.8848C51.7139 39.5951 52.6777 39.9947 53.6829 39.996ZM57.3679 2.60802C58.3539 2.60802 59.3177 2.90038 60.1374 3.44814C60.9572 3.9959 61.5962 4.77445 61.9735 5.68534C62.3508 6.59623 62.4495 7.59855 62.2571 8.56554C62.0648 9.53254 61.59 10.4208 60.8928 11.1179C60.1957 11.8151 59.3074 12.2899 58.3404 12.4822C57.3735 12.6746 56.3711 12.5759 55.4602 12.1986C54.5494 11.8213 53.7708 11.1823 53.223 10.3625C52.6753 9.54275 52.3829 8.57895 52.3829 7.59301C52.3842 6.27132 52.9099 5.00413 53.8445 4.06955C54.779 3.13497 56.0462 2.60934 57.3679 2.60802ZM21.9679 56.351L24.6559 59.937L21.7559 63.807L19.2459 56.992L21.9679 56.351ZM26.2139 62.013L29.6489 66.592L26.5919 74.892H25.8379L22.7809 66.592L26.2139 62.013ZM2.53192 71.778C2.52303 68.6859 3.56378 65.6824 5.4839 63.2587C7.40401 60.835 10.0898 59.1348 13.1019 58.436L16.7949 57.567L23.1779 74.891H12.5019V67.414H10.0099V74.892H2.53192V71.778ZM42.4129 48.72C42.4132 47.7282 42.8071 46.777 43.5082 46.0754C44.2092 45.3738 45.1601 44.9791 46.1519 44.978H71.0769C72.0682 44.9791 73.0187 45.3733 73.7196 46.0743C74.4206 46.7753 74.8149 47.7257 74.8159 48.717V58.687C74.8149 59.6783 74.4206 60.6287 73.7196 61.3297C73.0187 62.0307 72.0682 62.425 71.0769 62.426H64.8459V68.604C64.8462 68.8715 64.764 69.1325 64.6105 69.3515C64.457 69.5705 64.2396 69.7368 63.9881 69.8278C63.7366 69.9188 63.4632 69.93 63.2051 69.8599C62.947 69.7898 62.7168 69.6418 62.5459 69.436L56.7019 62.429H49.4119C47.6558 59.9373 45.2284 57.9953 42.4119 56.829L42.4129 48.72ZM49.8899 71.778V74.889H42.4129V67.414H39.9199V74.892H29.2449L35.6269 57.568L39.3199 58.437C42.3317 59.136 45.0172 60.8363 46.9372 63.2597C48.8572 65.6831 49.8982 68.6862 49.8899 71.778ZM33.1829 56.993L30.6729 63.808L27.7729 59.937L30.4609 56.351L33.1829 56.993ZM28.7019 54.537L26.2089 57.861L23.7159 54.537V52.17C25.3552 52.5555 27.0616 52.5555 28.7009 52.17L28.7019 54.537ZM34.9329 41.243C34.9329 43.5568 34.0138 45.7757 32.3777 47.4118C30.7417 49.0479 28.5227 49.967 26.2089 49.967C23.8952 49.967 21.6762 49.0479 20.0401 47.4118C18.4041 45.7757 17.4849 43.5568 17.4849 41.243V35.389C17.4847 35.0947 17.5644 34.806 17.7156 34.5535C17.8668 34.301 18.0837 34.0944 18.3432 33.9556C18.6028 33.8169 18.8951 33.7513 19.189 33.7658C19.4829 33.7803 19.7673 33.8744 20.0119 34.038L23.3409 36.258H31.1959C32.1872 36.2591 33.1377 36.6533 33.8386 37.3543C34.5396 38.0553 34.9339 39.0057 34.9349 39.997L34.9329 41.243ZM37.3149 38.895C37.0565 37.4587 36.3023 36.1586 35.1838 35.2211C34.0653 34.2837 32.6533 33.7684 31.1939 33.765H24.0939L21.3939 31.965C20.774 31.5515 20.0535 31.3141 19.3092 31.278C18.5649 31.2419 17.8248 31.4086 17.1678 31.7601C16.5108 32.1117 15.9616 32.6351 15.5788 33.2744C15.1959 33.9136 14.9938 34.6449 14.9939 35.39V38.735C13.3758 36.5835 12.5012 33.9641 12.5019 31.272C12.5053 29.8037 13.0157 28.3815 13.9469 27.2462C14.878 26.1108 16.1727 25.3318 17.6119 25.041L18.1999 24.923L18.4839 24.543C19.5317 23.1532 20.887 22.0248 22.4438 21.2463C24.0005 20.4679 25.7164 20.0605 27.4569 20.056H28.7019C31.6759 20.0589 34.5272 21.2415 36.6303 23.3442C38.7334 25.4469 39.9165 28.2981 39.9199 31.272C39.9233 34.0316 39.0074 36.7138 37.3169 38.895H37.3149ZM42.3469 30.026C42.1309 27.6475 41.2932 25.3676 39.9179 23.415V13.825C39.919 12.8337 40.3132 11.8833 41.0142 11.1823C41.7152 10.4813 42.6656 10.0871 43.6569 10.086H50.3249C50.8001 11.4222 51.6445 12.5963 52.7599 13.472C50.444 14.3944 48.4576 15.9895 47.057 18.0516C45.6563 20.1137 44.9057 22.5482 44.9019 25.041V27.534H69.8309V25.041C69.8272 22.5483 69.0768 20.1139 67.6763 18.0518C66.2758 15.9897 64.2896 14.3945 61.9739 13.472C63.0894 12.5963 63.9337 11.4222 64.4089 10.086H71.0769C72.0682 10.0871 73.0187 10.4813 73.7196 11.1823C74.4206 11.8833 74.8149 12.8337 74.8159 13.825V26.287C74.8149 27.2783 74.4206 28.2287 73.7196 28.9297C73.0187 29.6307 72.0682 30.025 71.0769 30.026H60.5219L54.6789 37.036C54.508 37.2417 54.2778 37.3898 54.0197 37.4599C53.7617 37.53 53.4882 37.5188 53.2367 37.4278C52.9852 37.3369 52.7679 37.1705 52.6144 36.9515C52.4609 36.7325 52.3786 36.4715 52.3789 36.204V30.026H42.3469ZM57.3679 15.071C60.0112 15.0742 62.5452 16.1256 64.4143 17.9947C66.2833 19.8637 67.3347 22.3978 67.3379 25.041H47.4019C47.4051 22.3985 48.456 19.865 50.3242 17.9961C52.1923 16.1271 54.7254 15.0752 57.3679 15.071Z" fill="white"/>
</svg>
