<svg width="81" height="81" viewBox="0 0 81 81" fill="none" xmlns="http://www.w3.org/2000/svg">
<path d="M75.167 55.159C73.9849 55.1604 72.8366 55.5539 71.902 56.2777C70.9673 57.0015 70.2991 58.0148 70.002 59.159H55.167V53.826C56.2279 53.826 57.2453 53.4046 57.9954 52.6544C58.7456 51.9043 59.167 50.8869 59.167 49.826V45.826H67.167C69.0091 45.8248 70.831 45.4419 72.5177 44.7014C74.2044 43.961 75.7194 42.879 76.9671 41.5239C78.2148 40.1687 79.1682 38.5696 79.767 36.8276C80.3659 35.0856 80.5973 33.2383 80.4466 31.4024C80.2959 29.5665 79.7665 27.7817 78.8916 26.1606C78.0167 24.5396 76.8154 23.1174 75.3634 21.9837C73.9114 20.8501 72.2403 20.0297 70.4554 19.5741C68.6706 19.1186 66.8106 19.0379 64.993 19.337C63.6886 14.4167 60.9325 10.0032 57.0837 6.67176C53.235 3.34029 48.4721 1.24522 43.4156 0.659523C38.3591 0.0738246 33.2434 1.02465 28.735 3.38812C24.2267 5.75159 20.5346 9.41812 18.14 13.91C17.5951 13.8546 17.0477 13.8269 16.5 13.827C12.2565 13.827 8.18687 15.5127 5.18629 18.5133C2.18571 21.5139 0.5 25.5835 0.5 29.827C0.5 34.0705 2.18571 38.1401 5.18629 41.1407C8.18687 44.1413 12.2565 45.827 16.5 45.827H21.833V49.827C21.833 50.8879 22.2544 51.9053 23.0046 52.6554C23.7547 53.4056 24.7721 53.827 25.833 53.827V59.16H10.998C10.6734 57.9032 9.90168 56.808 8.82736 56.0795C7.75305 55.3511 6.44995 55.0394 5.1623 55.203C3.87466 55.3666 2.69087 55.9942 1.83283 56.9681C0.974794 57.9421 0.50141 59.1955 0.50141 60.4935C0.50141 61.7915 0.974794 63.0449 1.83283 64.0189C2.69087 64.9928 3.87466 65.6204 5.1623 65.784C6.44995 65.9476 7.75305 65.6359 8.82736 64.9075C9.90168 64.179 10.6734 63.0838 10.998 61.827H27.167C27.5205 61.827 27.8596 61.6866 28.1096 61.4366C28.3596 61.1866 28.5 60.8475 28.5 60.494V53.826H31.167V64.492H20.5C20.1465 64.492 19.8074 64.6325 19.5574 64.8824C19.3074 65.1324 19.167 65.4715 19.167 65.825V69.994C17.9102 70.3186 16.815 71.0903 16.0865 72.1646C15.3581 73.239 15.0464 74.5421 15.21 75.8297C15.3736 77.1174 16.0012 78.3011 16.9751 79.1592C17.9491 80.0172 19.2025 80.4906 20.5005 80.4906C21.7985 80.4906 23.0519 80.0172 24.0259 79.1592C24.9998 78.3011 25.6274 77.1174 25.791 75.8297C25.9546 74.5421 25.6429 73.239 24.9145 72.1646C24.186 71.0903 23.0908 70.3186 21.834 69.994V67.159H32.5C32.8535 67.159 33.1926 67.0186 33.4426 66.7686C33.6926 66.5186 33.833 66.1795 33.833 65.826V53.826H39.166V67.326C37.9092 67.6506 36.814 68.4223 36.0855 69.4967C35.3571 70.571 35.0454 71.8741 35.209 73.1617C35.3726 74.4494 36.0002 75.6331 36.9741 76.4912C37.9481 77.3492 39.2015 77.8226 40.4995 77.8226C41.7975 77.8226 43.0509 77.3492 44.0249 76.4912C44.9988 75.6331 45.6264 74.4494 45.79 73.1617C45.9536 71.8741 45.6419 70.571 44.9135 69.4967C44.185 68.4223 43.0898 67.6506 41.833 67.326V53.826H47.166V65.826C47.166 66.1795 47.3064 66.5186 47.5564 66.7686C47.8064 67.0186 48.1455 67.159 48.499 67.159H59.167V69.994C57.9102 70.3186 56.815 71.0903 56.0865 72.1646C55.3581 73.239 55.0464 74.5421 55.21 75.8297C55.3736 77.1174 56.0012 78.3011 56.9751 79.1592C57.9491 80.0172 59.2025 80.4906 60.5005 80.4906C61.7985 80.4906 63.0519 80.0172 64.0259 79.1592C64.9998 78.3011 65.6274 77.1174 65.791 75.8297C65.9546 74.5421 65.6429 73.239 64.9145 72.1646C64.186 71.0903 63.0908 70.3186 61.834 69.994V65.826C61.834 65.4725 61.6936 65.1334 61.4436 64.8834C61.1936 64.6335 60.8545 64.493 60.501 64.493H49.834V53.826H52.501V60.493C52.501 60.8465 52.6414 61.1856 52.8914 61.4356C53.1414 61.6856 53.4805 61.826 53.834 61.826H70.003C70.2525 62.7917 70.7677 63.668 71.4903 64.3555C72.2128 65.043 73.1136 65.5141 74.0905 65.7153C75.0673 65.9166 76.081 65.8398 77.0164 65.4939C77.9519 65.1479 78.7715 64.5465 79.3823 63.7581C79.9931 62.9697 80.3706 62.0257 80.4719 61.0336C80.5732 60.0414 80.3942 59.0406 79.9553 58.1451C79.5163 57.2495 78.8351 56.4949 77.9889 55.9671C77.1426 55.4393 76.1644 55.1593 75.167 55.159ZM5.833 63.159C5.21515 63.1597 4.61619 62.9461 4.13821 62.5546C3.66023 62.1631 3.33282 61.6179 3.21178 61.0121C3.09075 60.4062 3.18358 59.7771 3.47446 59.232C3.76533 58.6869 4.23625 58.2596 4.80694 58.0228C5.37762 57.7861 6.01275 57.7546 6.60407 57.9337C7.19538 58.1128 7.70628 58.4914 8.04968 59.005C8.39307 59.5187 8.54771 60.1355 8.48722 60.7504C8.42674 61.3653 8.15489 61.9401 7.718 62.377C7.21819 62.8773 6.54016 63.1586 5.833 63.159ZM23.166 75.159C23.1667 75.7769 22.9531 76.3758 22.5616 76.8538C22.1701 77.3318 21.6249 77.6592 21.0191 77.7802C20.4132 77.9013 19.7841 77.8084 19.239 77.5176C18.6939 77.2267 18.2666 76.7558 18.0298 76.1851C17.7931 75.6144 17.7615 74.9793 17.9407 74.3879C18.1198 73.7966 18.4984 73.2857 19.012 72.9423C19.5257 72.5989 20.1425 72.4443 20.7574 72.5048C21.3722 72.5653 21.9471 72.8371 22.384 73.274C22.8846 73.7737 23.1653 74.4517 23.166 75.159ZM43.166 72.492C43.1667 73.1099 42.9531 73.7088 42.5616 74.1868C42.1701 74.6648 41.6249 74.9922 41.0191 75.1132C40.4132 75.2343 39.7841 75.1414 39.239 74.8506C38.6939 74.5597 38.2666 74.0888 38.0298 73.5181C37.793 72.9474 37.7615 72.3123 37.9407 71.7209C38.1198 71.1296 38.4984 70.6187 39.012 70.2753C39.5257 69.9319 40.1425 69.7773 40.7574 69.8378C41.3722 69.8983 41.9471 70.1701 42.384 70.607C42.8846 71.1067 43.1653 71.7847 43.166 72.492ZM63.166 75.159C63.1667 75.7769 62.9531 76.3758 62.5616 76.8538C62.1701 77.3318 61.6249 77.6592 61.0191 77.7802C60.4132 77.9013 59.7841 77.8084 59.239 77.5176C58.6939 77.2267 58.2666 76.7558 58.0298 76.1851C57.793 75.6144 57.7615 74.9793 57.9407 74.3879C58.1198 73.7966 58.4984 73.2857 59.012 72.9423C59.5257 72.5989 60.1425 72.4443 60.7574 72.5048C61.3722 72.5653 61.9471 72.8371 62.384 73.274C62.8846 73.7737 63.1653 74.4517 63.166 75.159ZM24.5 28.493V23.16C24.5005 22.8066 24.6411 22.4679 24.891 22.218C25.1409 21.9682 25.4796 21.8275 25.833 21.827H55.167C55.5204 21.8275 55.8591 21.9682 56.109 22.218C56.3589 22.4679 56.4995 22.8066 56.5 23.16V28.493C56.4995 28.8464 56.3589 29.1851 56.109 29.435C55.8591 29.6849 55.5204 29.8255 55.167 29.826H25.834C25.4806 29.8255 25.1419 29.6849 24.892 29.435C24.6421 29.1851 24.5005 28.8464 24.5 28.493ZM24.5 39.159V33.826C24.5005 33.4726 24.6411 33.1339 24.891 32.884C25.1409 32.6342 25.4796 32.4935 25.833 32.493H55.167C55.5204 32.4935 55.8591 32.6342 56.109 32.884C56.3589 33.1339 56.4995 33.4726 56.5 33.826V39.159C56.4995 39.5124 56.3589 39.8511 56.109 40.101C55.8591 40.3509 55.5204 40.4915 55.167 40.492H25.834C25.4806 40.4915 25.1419 40.3509 24.892 40.101C24.6421 39.8511 24.5005 39.5124 24.5 39.159ZM3.167 29.826C3.17097 26.2911 4.57697 22.9021 7.07653 20.4025C9.57609 17.903 12.9651 16.497 16.5 16.493C17.2313 16.4928 17.9613 16.552 18.683 16.67C18.9667 16.717 19.2579 16.671 19.5133 16.5389C19.7686 16.4068 19.9744 16.1957 20.1 15.937C22.1647 11.6806 25.5091 8.17661 29.6648 5.91591C33.8204 3.6552 38.5792 2.751 43.2744 3.32996C47.9696 3.90893 52.3661 5.94205 55.8481 9.14456C59.3301 12.3471 61.7231 16.5585 62.692 21.189C62.7291 21.3675 62.8023 21.5365 62.9073 21.6856C63.0123 21.8347 63.1467 21.9606 63.3023 22.0557C63.4579 22.1507 63.6313 22.2128 63.8119 22.2382C63.9924 22.2635 64.1763 22.2515 64.352 22.203C65.8184 21.803 67.3533 21.721 68.8539 21.9625C70.3546 22.2041 71.7862 22.7635 73.053 23.6035C74.3198 24.4434 75.3925 25.5443 76.1991 26.8326C77.0057 28.1208 77.5277 29.5666 77.7301 31.073C77.9324 32.5794 77.8105 34.1117 77.3724 35.5671C76.9343 37.0226 76.1903 38.3676 75.19 39.512C74.1898 40.6565 72.9565 41.5739 71.5728 42.2029C70.1891 42.8319 68.6869 43.1579 67.167 43.159H58.938C58.7635 42.6673 58.4944 42.2144 58.146 41.826C58.8047 41.0939 59.1687 40.1438 59.168 39.159V33.826C59.1687 32.8412 58.8047 31.8911 58.146 31.159C58.8047 30.4269 59.1687 29.4768 59.168 28.492V23.16C59.168 22.0991 58.7466 21.0817 57.9964 20.3316C57.2463 19.5814 56.2289 19.16 55.168 19.16H25.834C24.7731 19.16 23.7557 19.5814 23.0056 20.3316C22.2554 21.0817 21.834 22.0991 21.834 23.16V28.493C21.8333 29.4778 22.1973 30.4279 22.856 31.16C22.1973 31.8921 21.8333 32.8422 21.834 33.827V39.16C21.8333 40.1448 22.1973 41.0949 22.856 41.827C22.5076 42.2154 22.2385 42.6683 22.064 43.16H16.5C12.9649 43.156 9.57577 41.7499 7.07618 39.2501C4.57659 36.7503 3.17071 33.3611 3.167 29.826ZM24.5 49.826V44.493C24.5005 44.1396 24.6411 43.8009 24.891 43.551C25.1409 43.3012 25.4796 43.1605 25.833 43.16H55.167C55.5204 43.1605 55.8591 43.3012 56.109 43.551C56.3589 43.8009 56.4995 44.1396 56.5 44.493V49.826C56.4995 50.1794 56.3589 50.5181 56.109 50.768C55.8591 51.0179 55.5204 51.1585 55.167 51.159H25.834C25.4806 51.1585 25.1419 51.0179 24.892 50.768C24.6421 50.5181 24.5005 50.1794 24.5 49.826ZM75.167 63.159C74.5492 63.1597 73.9502 62.9461 73.4722 62.5546C72.9942 62.1631 72.6668 61.6179 72.5458 61.0121C72.4248 60.4062 72.5176 59.7771 72.8085 59.232C73.0993 58.6869 73.5703 58.2596 74.1409 58.0228C74.7116 57.7861 75.3468 57.7546 75.9381 57.9337C76.5294 58.1128 77.0403 58.4914 77.3837 59.005C77.7271 59.5187 77.8817 60.1355 77.8212 60.7504C77.7607 61.3653 77.4889 61.9401 77.052 62.377C76.5522 62.8773 75.8742 63.1586 75.167 63.159Z" fill="#ED1C24"/>
</svg>
