<svg width="20" height="17" viewBox="0 0 20 17" fill="none" xmlns="http://www.w3.org/2000/svg">
<path d="M0.993896 3.077C0.993896 2.59961 1.18354 2.14177 1.5211 1.80421C1.85867 1.46664 2.31651 1.277 2.7939 1.277H17.1939C17.6713 1.277 18.1291 1.46664 18.4667 1.80421C18.8043 2.14177 18.9939 2.59961 18.9939 3.077V13.877C18.9939 14.3544 18.8043 14.8122 18.4667 15.1498C18.1291 15.4874 17.6713 15.677 17.1939 15.677H2.7939C2.31651 15.677 1.85867 15.4874 1.5211 15.1498C1.18354 14.8122 0.993896 14.3544 0.993896 13.877V3.077Z" stroke="#ED1C24" stroke-linecap="round" stroke-linejoin="round"/>
<path d="M0.993896 4.877L7.7459 10.277C8.3844 10.7882 9.17796 11.0668 9.9959 11.0668C10.8138 11.0668 11.6074 10.7882 12.2459 10.277L18.9939 4.877" stroke="#ED1C24" stroke-linecap="round" stroke-linejoin="round"/>
</svg>
