<svg width="20" height="20" viewBox="0 0 20 20" fill="none" xmlns="http://www.w3.org/2000/svg">
<path d="M18.605 14.229V16.884C18.606 17.1306 18.5555 17.3746 18.4567 17.6005C18.3579 17.8264 18.213 18.0291 18.0313 18.1958C17.8496 18.3624 17.6351 18.4892 17.4016 18.5682C17.168 18.6471 16.9205 18.6763 16.675 18.654C13.9503 18.359 11.3328 17.4287 9.03298 15.938C6.89491 14.5775 5.08267 12.7629 3.72498 10.623C2.22982 8.31508 1.29905 5.68753 1.00798 2.95304C0.985762 2.70826 1.01477 2.46154 1.09314 2.22859C1.17152 1.99564 1.29756 1.78157 1.46322 1.60001C1.62888 1.41845 1.83054 1.27338 2.05535 1.17404C2.28016 1.07471 2.5232 1.02328 2.76898 1.02304H5.42498C5.85445 1.0188 6.2708 1.17087 6.59645 1.45089C6.9221 1.73091 7.13482 2.11978 7.19498 2.54504C7.30721 3.39476 7.51519 4.22907 7.81498 5.03204C7.93397 5.34905 7.95953 5.69353 7.88863 6.02463C7.81773 6.35573 7.65334 6.65955 7.41498 6.90004L6.29198 8.02304C7.55204 10.2391 9.3869 12.074 11.603 13.334L12.727 12.21C12.9675 11.9717 13.2713 11.8073 13.6024 11.7364C13.9335 11.6655 14.278 11.691 14.595 11.81C15.3979 12.1098 16.2323 12.3178 17.082 12.43C17.5125 12.4905 17.9056 12.7074 18.1865 13.0391C18.4674 13.3709 18.6163 13.7945 18.605 14.229Z" stroke="#ED1C24" stroke-width="1.5" stroke-linecap="round" stroke-linejoin="round"/>
</svg>
