<svg width="22" height="25" viewBox="0 0 22 25" fill="none" xmlns="http://www.w3.org/2000/svg">
<path d="M20.366 10.7798C20.366 17.9798 10.683 24.1518 10.683 24.1518C10.683 24.1518 1.00098 17.9798 1.00098 10.7798C1.05868 8.26861 2.11096 5.88303 3.92661 4.14727C5.74225 2.4115 8.17272 1.46754 10.684 1.5228C13.1952 1.46754 15.6257 2.4115 17.4413 4.14727C19.257 5.88303 20.3083 8.26861 20.366 10.7798Z" stroke="#ED1C24" stroke-width="1.5" stroke-linecap="round" stroke-linejoin="round"/>
<path d="M14.42 10.943C14.42 11.6819 14.2009 12.4042 13.7904 13.0185C13.38 13.6329 12.7965 14.1118 12.1139 14.3946C11.4313 14.6773 10.6802 14.7514 9.95551 14.6073C9.23082 14.4632 8.56513 14.1075 8.0426 13.5851C7.52007 13.0627 7.16418 12.3971 7.01991 11.6725C6.87564 10.9479 6.94948 10.1967 7.2321 9.51402C7.51471 8.83134 7.99341 8.24778 8.60766 7.83715C9.22191 7.42651 9.94413 7.20723 10.683 7.20703C11.1737 7.2069 11.6596 7.30344 12.113 7.49113C12.5664 7.67882 12.9784 7.95399 13.3254 8.30093C13.6724 8.64786 13.9477 9.05976 14.1355 9.5131C14.3233 9.96643 14.42 10.4523 14.42 10.943Z" stroke="#ED1C24" stroke-width="1.5" stroke-linecap="round" stroke-linejoin="round"/>
</svg>
