<svg width="40" height="40" viewBox="0 0 40 40" fill="none" xmlns="http://www.w3.org/2000/svg">
<path d="M25.263 39.517C25.4162 39.5979 25.5885 39.6356 25.7615 39.6261C25.9345 39.6166 26.1016 39.5602 26.245 39.463L28.095 38.209L29.945 39.463C30.0885 39.5606 30.2558 39.6172 30.4291 39.6266C30.6023 39.6361 30.7749 39.598 30.9281 39.5166C31.0813 39.4352 31.2094 39.3136 31.2986 39.1647C31.3877 39.0159 31.4346 38.8455 31.434 38.672V34.214C31.6178 34.2527 31.8081 34.248 31.9898 34.2005C32.1715 34.1529 32.3397 34.0637 32.481 33.94C32.5071 33.9107 32.5312 33.8796 32.553 33.847H38.592C38.6546 33.8471 38.7167 33.8349 38.7746 33.8111C38.8325 33.7872 38.8852 33.7522 38.9296 33.708C38.974 33.6638 39.0092 33.6113 39.0333 33.5535C39.0574 33.4956 39.0699 33.4336 39.07 33.371V0.923999C39.0699 0.861358 39.0574 0.799357 39.0333 0.741535C39.0092 0.683713 38.974 0.631202 38.9296 0.587001C38.8852 0.542801 38.8325 0.507776 38.7746 0.483925C38.7167 0.460075 38.6546 0.447868 38.592 0.447999H11.872C11.8094 0.447868 11.7473 0.460075 11.6894 0.483925C11.6315 0.507776 11.5788 0.542801 11.5344 0.587001C11.49 0.631202 11.4548 0.683713 11.4307 0.741535C11.4066 0.799357 11.3941 0.861358 11.394 0.923999V12.655C11.3956 12.7243 11.4119 12.7925 11.442 12.855H7.10001C6.088 12.8561 5.11775 13.2585 4.40215 13.9741C3.68655 14.6897 3.28407 15.66 3.28301 16.672V20.966C3.28344 22.0739 3.58042 23.1614 4.14314 24.1158C4.70585 25.0701 5.51377 25.8564 6.48301 26.393C4.89784 26.7502 3.48116 27.6356 2.46542 28.9039C1.44968 30.1722 0.895218 31.7481 0.893006 33.373V37.19C0.892875 37.2526 0.905083 37.3147 0.928933 37.3726C0.952783 37.4305 0.987808 37.4832 1.03201 37.5276C1.07621 37.572 1.12872 37.6072 1.18654 37.6313C1.24436 37.6554 1.30637 37.6679 1.36901 37.668H11.869C11.9958 37.668 12.1174 37.6176 12.207 37.528C12.2966 37.4384 12.347 37.3168 12.347 37.19C12.347 37.0632 12.2966 36.9416 12.207 36.852C12.1174 36.7624 11.9958 36.712 11.869 36.712H1.85201V33.371C1.85435 31.9759 2.32644 30.6223 3.19217 29.5283C4.0579 28.4344 5.26681 27.6639 6.62401 27.341V27.641C6.63916 28.5167 6.99766 29.3514 7.62229 29.9653C8.24692 30.5792 9.08769 30.9232 9.96351 30.9232C10.8393 30.9232 11.6801 30.5792 12.3047 29.9653C12.9293 29.3514 13.2879 28.5167 13.303 27.641V27.341C14.6601 27.664 15.8689 28.4346 16.7346 29.5285C17.6003 30.6224 18.0725 31.976 18.075 33.371V36.712H15.213C15.0862 36.712 14.9647 36.7624 14.875 36.852C14.7854 36.9416 14.735 37.0632 14.735 37.19C14.735 37.3168 14.7854 37.4384 14.875 37.528C14.9647 37.6176 15.0862 37.668 15.213 37.668H18.552C18.6148 37.6681 18.677 37.6559 18.7351 37.6319C18.7931 37.6079 18.8459 37.5727 18.8903 37.5283C18.9347 37.4839 18.9699 37.4311 18.9939 37.3731C19.0179 37.315 19.0301 37.2528 19.03 37.19V33.847H21.063C21.1895 33.847 21.3108 33.7967 21.4003 33.7073C21.4898 33.6178 21.54 33.4965 21.54 33.37C21.54 33.2435 21.4898 33.1222 21.4003 33.0327C21.3108 32.9433 21.1895 32.893 21.063 32.893H19.005C18.9004 31.3547 18.3021 29.8911 17.2991 28.7201C16.2961 27.549 14.942 26.7328 13.438 26.393C14.4088 25.8577 15.2183 25.0718 15.7821 24.1173C16.346 23.1628 16.6436 22.0746 16.644 20.966V16.669C16.6416 15.6575 16.2385 14.6882 15.5229 13.9733C14.8073 13.2584 13.8375 12.8563 12.826 12.855H12.305C12.3351 12.7925 12.3515 12.7243 12.353 12.655V1.402H38.116V32.893H32.755C32.7258 32.6688 32.6841 32.4465 32.63 32.227C32.545 31.9559 32.5111 31.6714 32.53 31.388C32.7132 31.1899 32.9294 31.0251 33.169 30.901C33.699 30.57 34.3 30.194 34.3 29.552C34.3 28.91 33.7 28.534 33.167 28.205C32.9274 28.0805 32.7112 27.9154 32.528 27.717C32.5092 27.4342 32.5431 27.1504 32.628 26.88C32.764 26.28 32.918 25.608 32.479 25.168C32.04 24.728 31.364 24.884 30.767 25.019C30.4966 25.1039 30.2128 25.1378 29.93 25.119C29.7316 24.9358 29.5665 24.7196 29.442 24.48C29.111 23.95 28.742 23.349 28.095 23.349C27.448 23.349 27.077 23.949 26.748 24.482C26.624 24.7216 26.4592 24.9378 26.261 25.121C25.9776 25.1399 25.6931 25.106 25.422 25.021C24.822 24.885 24.15 24.731 23.71 25.17C23.27 25.609 23.426 26.285 23.561 26.882C23.6467 27.1522 23.6807 27.4362 23.661 27.719C23.4782 27.9169 23.2627 28.082 23.024 28.207C22.493 28.538 21.891 28.912 21.891 29.554C21.891 30.196 22.491 30.572 23.024 30.901C23.2627 31.0256 23.4782 31.1903 23.661 31.388C23.6808 31.6715 23.6469 31.9561 23.561 32.227C23.425 32.827 23.271 33.499 23.71 33.939C23.8513 34.0627 24.0195 34.1519 24.2012 34.1995C24.3829 34.247 24.5732 34.2517 24.757 34.213V38.672C24.7568 38.8457 24.804 39.0162 24.8935 39.1651C24.983 39.314 25.1115 39.4357 25.265 39.517H25.263ZM12.35 27.645C12.35 28.2778 12.0986 28.8847 11.6512 29.3322C11.2037 29.7796 10.5968 30.031 9.96401 30.031C9.3312 30.031 8.72431 29.7796 8.27685 29.3322C7.82939 28.8847 7.57801 28.2778 7.57801 27.645V27.192C7.73501 27.179 7.89501 27.167 8.05601 27.167H11.873C12.034 27.167 12.191 27.18 12.351 27.192L12.35 27.645ZM15.689 16.669V20.963C15.6879 22.3547 15.1348 23.6892 14.1509 24.6734C13.167 25.6577 11.8327 26.2114 10.441 26.213H9.48701C8.09503 26.2117 6.76044 25.6581 5.77616 24.6738C4.79188 23.6896 4.23833 22.355 4.23701 20.963V20.247H7.10001C7.20022 20.2473 7.29796 20.2159 7.3793 20.1574C7.46064 20.0988 7.52143 20.0161 7.55301 19.921L8.26301 17.79L10.58 20.107C10.6244 20.1514 10.6771 20.1866 10.7351 20.2106C10.7931 20.2346 10.8552 20.247 10.918 20.247H14.257C14.3835 20.247 14.5048 20.1967 14.5943 20.1073C14.6838 20.0178 14.734 19.8965 14.734 19.77C14.734 19.6435 14.6838 19.5222 14.5943 19.4327C14.5048 19.3433 14.3835 19.293 14.257 19.293H11.115L8.39201 16.57C8.33469 16.5129 8.26375 16.4713 8.18591 16.4492C8.10806 16.4272 8.02587 16.4253 7.9471 16.4438C7.86833 16.4623 7.79558 16.5006 7.73572 16.5551C7.67586 16.6095 7.63088 16.6783 7.60501 16.755L6.75901 19.292H4.23701V16.67C4.23806 15.911 4.54004 15.1834 5.07673 14.6467C5.61342 14.11 6.34102 13.8081 7.10001 13.807H12.826C13.5849 13.8081 14.3124 14.1101 14.8489 14.6468C15.3855 15.1835 15.6872 15.9111 15.688 16.67L15.689 16.669ZM28.362 37.238C28.283 37.1846 28.1898 37.1561 28.0945 37.1561C27.9992 37.1561 27.906 37.1846 27.827 37.238L25.705 38.673V34.026C25.8836 33.9729 26.0717 33.9596 26.256 33.987C26.4537 34.1698 26.6184 34.3853 26.743 34.624C27.074 35.155 27.45 35.757 28.092 35.757C28.734 35.757 29.11 35.157 29.439 34.624C29.564 34.3853 29.7291 34.1698 29.927 33.987C30.1107 33.9596 30.2981 33.973 30.476 34.026V38.673L28.362 37.238ZM24.39 33.271C24.3712 32.9905 24.4051 32.709 24.49 32.441C24.6489 31.9846 24.6677 31.4911 24.544 31.024C24.3062 30.619 23.9527 30.2945 23.529 30.092C23.314 29.96 22.871 29.682 22.845 29.555C22.868 29.426 23.314 29.149 23.529 29.016C23.9533 28.8134 24.3069 28.488 24.544 28.082C24.6677 27.6155 24.6489 27.1227 24.49 26.667C24.4095 26.4013 24.3714 26.1246 24.377 25.847C24.6575 25.8291 24.9388 25.863 25.207 25.947C25.6634 26.1059 26.1569 26.1247 26.624 26.001C27.0286 25.7627 27.353 25.4094 27.556 24.986C27.688 24.771 27.966 24.328 28.093 24.302C28.222 24.325 28.499 24.771 28.632 24.986C28.8352 25.4099 29.1604 25.7634 29.566 26.001C30.0325 26.1247 30.5253 26.1059 30.981 25.947C31.247 25.8676 31.5234 25.8288 31.801 25.832C31.8198 26.1131 31.7859 26.3953 31.701 26.664C31.5421 27.1197 31.5233 27.6125 31.647 28.079C31.8847 28.4845 32.2381 28.8098 32.662 29.013C32.875 29.145 33.317 29.421 33.346 29.552C33.319 29.683 32.875 29.958 32.662 30.091C32.2386 30.294 31.8853 30.6184 31.647 31.023C31.5233 31.4901 31.5421 31.9836 31.701 32.44C31.7766 32.7 31.8157 32.9692 31.817 33.24L31.812 33.263C31.5322 33.2799 31.2517 33.246 30.984 33.163C30.5283 33.0041 30.0355 32.9853 29.569 33.109C29.1631 33.3462 28.8377 33.6998 28.635 34.124C28.503 34.339 28.225 34.782 28.098 34.808C27.969 34.785 27.692 34.339 27.559 34.124C27.3565 33.7003 27.032 33.3468 26.627 33.109C26.468 33.046 26.298 33.0158 26.127 33.02C25.8157 33.0317 25.5066 33.077 25.205 33.155C24.9402 33.2363 24.664 33.2745 24.387 33.268L24.39 33.271Z" fill="#ED1C24"/>
<path d="M21.414 16.6699C21.2872 16.6699 21.1657 16.7203 21.076 16.8099C20.9864 16.8996 20.936 17.0211 20.936 17.1479C20.936 17.2747 20.9864 17.3963 21.076 17.4859C21.1657 17.5756 21.2872 17.6259 21.414 17.6259H33.821C33.9478 17.6259 34.0694 17.5756 34.159 17.4859C34.2486 17.3963 34.299 17.2747 34.299 17.1479C34.299 17.0211 34.2486 16.8996 34.159 16.8099C34.0694 16.7203 33.9478 16.6699 33.821 16.6699H21.414Z" fill="#ED1C24"/>
<path d="M21.414 21.445H33.821C33.9475 21.445 34.0688 21.3947 34.1583 21.3053C34.2478 21.2158 34.298 21.0945 34.298 20.968C34.298 20.8415 34.2478 20.7201 34.1583 20.6307C34.0688 20.5412 33.9475 20.491 33.821 20.491H21.414C21.2875 20.491 21.1662 20.5412 21.0767 20.6307C20.9873 20.7201 20.937 20.8415 20.937 20.968C20.937 21.0945 20.9873 21.2158 21.0767 21.3053C21.1662 21.3947 21.2875 21.445 21.414 21.445Z" fill="#ED1C24"/>
<path d="M34.775 13.3309V5.21794C34.7749 5.1553 34.7624 5.0933 34.7383 5.03548C34.7142 4.97766 34.679 4.92515 34.6346 4.88095C34.5902 4.83675 34.5375 4.80172 34.4796 4.77787C34.4217 4.75402 34.3596 4.74181 34.297 4.74194H16.166C16.1034 4.74181 16.0413 4.75402 15.9834 4.77787C15.9255 4.80172 15.8728 4.83675 15.8284 4.88095C15.784 4.92515 15.7488 4.97766 15.7247 5.03548C15.7006 5.0933 15.6881 5.1553 15.688 5.21794V13.3309C15.6881 13.3936 15.7006 13.4556 15.7247 13.5134C15.7488 13.5712 15.784 13.6237 15.8284 13.6679C15.8728 13.7121 15.9255 13.7472 15.9834 13.771C16.0413 13.7949 16.1034 13.8071 16.166 13.8069H34.297C34.3596 13.8071 34.4217 13.7949 34.4796 13.771C34.5375 13.7472 34.5902 13.7121 34.6346 13.6679C34.679 13.6237 34.7142 13.5712 34.7383 13.5134C34.7624 13.4556 34.7749 13.3936 34.775 13.3309ZM33.821 12.8529H16.644V5.69594H33.821V12.8529Z" fill="#ED1C24"/>
</svg>
