<svg width="21" height="25" viewBox="0 0 21 25" fill="none" xmlns="http://www.w3.org/2000/svg">
<path d="M10.636 22.243C9.26804 21.5553 8.04569 20.61 7.03596 19.459C5.35362 17.49 4.23788 15.1009 3.80796 12.547C3.73945 12.2366 3.55269 11.9652 3.28732 11.7902C3.02195 11.6153 2.69886 11.5506 2.38659 11.6099C2.07433 11.6692 1.79747 11.8479 1.61476 12.108C1.43205 12.3681 1.35787 12.6891 1.40796 13.003C1.91159 15.9775 3.21869 18.7576 5.18796 21.043C6.56046 22.5818 8.24616 23.8092 10.132 24.643C10.2867 24.7126 10.4544 24.7485 10.624 24.7485C10.7936 24.7485 10.9613 24.7126 11.116 24.643C13.0043 23.8136 14.6909 22.5855 16.06 21.043C20.624 15.894 20.324 8.87502 20.124 6.84602C20.1058 6.6596 20.0442 6.48002 19.9442 6.32165C19.8442 6.16329 19.7085 6.03054 19.548 5.93402L11.248 0.942019C11.0655 0.836697 10.8586 0.78125 10.648 0.78125C10.4373 0.78125 10.2304 0.836697 10.048 0.942019L1.70796 5.93402C1.54936 5.9994 1.40661 6.09802 1.28935 6.22324C1.17209 6.34846 1.08305 6.49737 1.02822 6.65992C0.973385 6.82247 0.954044 6.99489 0.971498 7.16556C0.988952 7.33622 1.04279 7.50115 1.1294 7.64924C1.216 7.79733 1.33334 7.92513 1.47352 8.02402C1.6137 8.12291 1.77346 8.1906 1.94201 8.22251C2.11057 8.25443 2.28401 8.24984 2.45064 8.20904C2.61727 8.16824 2.77322 8.0922 2.90796 7.98602L10.636 3.37502L17.836 7.67502C17.968 9.97502 17.836 15.439 14.308 19.459C13.277 20.6174 12.0297 21.5631 10.636 22.243Z" fill="#ED1C24"/>
</svg>
