<svg width="19" height="20" viewBox="0 0 19 20" fill="none" xmlns="http://www.w3.org/2000/svg">
<path d="M13.977 19.379C12.907 19.3817 11.8659 19.0324 11.014 18.385C9.72883 18.5837 8.41492 18.4767 7.17888 18.0725C5.94284 17.6684 4.81948 16.9786 3.89993 16.059C2.98039 15.1395 2.29057 14.0161 1.88645 12.7801C1.48232 11.5441 1.37527 10.2302 1.57398 8.945C0.763706 8.00871 0.337942 6.80038 0.382298 5.56296C0.426655 4.32553 0.937842 3.15079 1.81308 2.27492C2.68831 1.39905 3.86269 0.887014 5.10008 0.841762C6.33747 0.79651 7.54611 1.2214 8.48298 2.031C9.77118 1.83201 11.0882 1.94024 12.3266 2.34684C13.565 2.75345 14.6899 3.44693 15.6094 4.37077C16.529 5.2946 17.2172 6.42265 17.618 7.66296C18.0189 8.90327 18.121 10.2207 17.916 11.508C18.472 12.2371 18.8122 13.1076 18.8981 14.0205C18.9839 14.9334 18.8118 15.8521 18.4015 16.6721C17.9911 17.4921 17.3589 18.1805 16.5768 18.659C15.7946 19.1375 14.8939 19.387 13.977 19.379ZM11.36 17.06L11.588 17.26C12.2883 17.8712 13.1946 18.1937 14.1236 18.1622C15.0526 18.1307 15.935 17.7475 16.5922 17.0902C17.2495 16.433 17.6326 15.5506 17.6642 14.6216C17.6957 13.6926 17.3732 12.7863 16.762 12.086L16.562 11.858L16.618 11.558C16.8322 10.4332 16.7687 9.27303 16.433 8.17828C16.0973 7.08353 15.4996 6.08721 14.6917 5.27576C13.8838 4.46431 12.8901 3.86224 11.7969 3.52177C10.7036 3.18131 9.54376 3.11273 8.41798 3.322L8.10298 3.384L7.87798 3.16C7.53978 2.80907 7.13501 2.52909 6.68734 2.3364C6.23968 2.14372 5.75809 2.04221 5.27074 2.03781C4.78339 2.0334 4.30005 2.12619 3.84897 2.31075C3.39789 2.49531 2.98813 2.76794 2.64364 3.1127C2.29915 3.45746 2.02684 3.86743 1.84263 4.31864C1.65842 4.76986 1.566 5.25327 1.57078 5.74062C1.57556 6.22797 1.67744 6.70948 1.87047 7.157C2.0635 7.60452 2.3438 8.00907 2.69498 8.347L2.92398 8.581L2.86798 8.881C2.65337 10.0084 2.71769 11.1711 3.05534 12.2679C3.39299 13.3647 3.99373 14.3623 4.8052 15.1738C5.61668 15.9853 6.61428 16.586 7.71109 16.9236C8.80789 17.2613 9.97063 17.3256 11.098 17.111L11.36 17.06Z" fill="#ED1C24"/>
<path d="M12.532 14.311C11.7613 14.8931 10.8106 15.1858 9.84599 15.138C9.06789 15.1366 8.29635 14.9957 7.56799 14.722C6.8323 14.4503 6.15395 14.0433 5.56799 13.522L6.87699 11.972C7.31752 12.3417 7.80803 12.6474 8.33399 12.88C8.82549 13.0908 9.35519 13.1981 9.88999 13.195C10.2629 13.2149 10.6337 13.1271 10.958 12.942C11.0793 12.8706 11.1794 12.768 11.2478 12.6449C11.3162 12.5219 11.3504 12.3828 11.347 12.242C11.3528 12.0605 11.2968 11.8824 11.188 11.737C11.0175 11.5599 10.8054 11.4283 10.571 11.354C10.1559 11.194 9.73101 11.0604 9.29899 10.954C8.66514 10.8017 8.04553 10.5953 7.44699 10.337C7.00608 10.1406 6.62788 9.82643 6.35399 9.429C6.05767 8.95018 5.91786 8.39094 5.95399 7.829C5.94297 7.26647 6.10114 6.71359 6.40799 6.242C6.71422 5.77973 7.14139 5.41033 7.64299 5.174C8.22296 4.90652 8.85651 4.7755 9.49499 4.791C10.8558 4.76681 12.182 5.22125 13.242 6.075L12.088 7.748C11.3407 7.1464 10.427 6.78832 9.46999 6.722C9.13299 6.70203 8.79823 6.78843 8.51299 6.969C8.40994 7.03594 8.325 7.12728 8.26569 7.2349C8.20638 7.34253 8.17454 7.46312 8.17299 7.586C8.16374 7.78287 8.22748 7.97623 8.35199 8.129C8.52499 8.30301 8.73628 8.43417 8.96899 8.512C9.41785 8.67182 9.87562 8.80538 10.34 8.912C11.2144 9.11439 12.0337 9.50628 12.74 10.06C13.0072 10.2982 13.2177 10.5932 13.3561 10.9234C13.4946 11.2535 13.5574 11.6104 13.54 11.968C13.5695 12.4105 13.4935 12.8536 13.3183 13.2609C13.143 13.6683 12.8735 14.0282 12.532 14.311Z" fill="#ED1C24"/>
<path d="M9.84003 15.447C9.02602 15.4457 8.21874 15.2994 7.45603 15.015C6.68564 14.7368 5.97358 14.3181 5.35603 13.78L5.13403 13.58L6.83403 11.543L7.06903 11.734C7.48926 12.082 7.95612 12.3694 8.45603 12.588C8.90853 12.7815 9.3959 12.8802 9.88803 12.878C10.2009 12.8976 10.5129 12.8283 10.788 12.678C10.8655 12.6348 10.9296 12.571 10.9732 12.4938C11.0168 12.4165 11.0382 12.3287 11.035 12.24C11.0451 12.1174 11.0122 11.9951 10.942 11.894C10.8099 11.7618 10.6481 11.663 10.47 11.606C10.0668 11.4526 9.65432 11.3247 9.23503 11.223C8.58531 11.0717 7.94967 10.8653 7.33503 10.606C6.83803 10.3888 6.41066 10.0386 6.10003 9.594C5.78039 9.07822 5.62325 8.47824 5.64903 7.872C5.63407 7.2376 5.81076 6.61343 6.15603 6.081C6.49804 5.57074 6.97369 5.16428 7.53103 4.906C8.14404 4.62293 8.8129 4.48143 9.48803 4.492C10.9142 4.45362 12.3091 4.9133 13.433 5.792L13.655 5.971L12.161 8.132L11.908 7.953C11.1996 7.39639 10.3383 7.06916 9.43903 7.015C9.16688 6.99565 8.89535 7.06022 8.66103 7.2C8.59606 7.2404 8.54259 7.29687 8.50581 7.36396C8.46902 7.43105 8.45016 7.50649 8.45103 7.583C8.43866 7.71249 8.47424 7.84201 8.55103 7.947C8.69394 8.08516 8.86724 8.18791 9.05703 8.247C9.49382 8.40229 9.93923 8.53218 10.391 8.636C11.3182 8.83391 12.1905 9.23335 12.946 9.806C13.2509 10.0754 13.4909 10.4103 13.6481 10.7856C13.8053 11.1608 13.8757 11.5667 13.854 11.973C13.8828 12.46 13.7973 12.9471 13.6044 13.3952C13.4115 13.8433 13.1166 14.2401 12.743 14.554C11.9105 15.1838 10.8826 15.4999 9.84003 15.447ZM5.99403 13.49C6.49873 13.8955 7.06572 14.2167 7.67303 14.441C8.36657 14.6982 9.10034 14.8299 9.84003 14.83C10.726 14.8697 11.5984 14.6015 12.309 14.071C12.6108 13.8238 12.8497 13.5085 13.0061 13.1512C13.1626 12.7938 13.2321 12.4044 13.209 12.015C13.2339 11.6967 13.1863 11.3769 13.0697 11.0797C12.9531 10.7824 12.7707 10.5155 12.536 10.299C11.8641 9.79303 11.0914 9.43733 10.27 9.256C9.79561 9.14573 9.32812 9.00749 8.87003 8.842C8.5869 8.74811 8.33063 8.58721 8.12303 8.373C7.95231 8.17152 7.86031 7.91505 7.86403 7.651C7.85896 7.47214 7.89866 7.29485 7.97952 7.13523C8.06037 6.97561 8.17983 6.83872 8.32703 6.737C8.6641 6.51176 9.06398 6.39936 9.46903 6.416C10.3836 6.45824 11.2667 6.76268 12.013 7.293L12.828 6.114C11.8613 5.41958 10.6972 5.05396 9.50703 5.071C8.92062 5.06062 8.33945 5.183 7.80703 5.429C7.34798 5.6477 6.9588 5.98978 6.68303 6.417C6.41098 6.83981 6.27167 7.33435 6.28303 7.837C6.25647 8.3277 6.37694 8.81516 6.62903 9.237C6.87256 9.58748 7.20778 9.86424 7.59803 10.037C8.17929 10.2937 8.7815 10.5002 9.39803 10.654C9.84461 10.7614 10.2838 10.8974 10.713 11.061C10.9898 11.1561 11.2381 11.3195 11.435 11.536C11.587 11.737 11.6654 11.9841 11.657 12.236C11.6641 12.433 11.6187 12.6283 11.5254 12.8019C11.4321 12.9756 11.2942 13.1212 11.126 13.224C10.7517 13.4404 10.323 13.5446 9.89103 13.524C9.31398 13.5269 8.74248 13.4112 8.21203 13.184C7.75274 12.9816 7.3196 12.7244 6.92203 12.418L5.99403 13.49Z" fill="#ED1C24"/>
</svg>
