<svg width="82" height="58" viewBox="0 0 82 58" fill="none" xmlns="http://www.w3.org/2000/svg">
<path d="M31.387 52.043C31.3851 51.9399 31.404 51.8375 31.4425 51.7419C31.4811 51.6463 31.5386 51.5594 31.6115 51.4865C31.6844 51.4136 31.7712 51.3562 31.8668 51.3176C31.9625 51.279 32.0649 51.2601 32.168 51.262H49.875C50.0822 51.262 50.281 51.3443 50.4276 51.4909C50.5741 51.6375 50.6565 51.8362 50.6565 52.0435C50.6565 52.2508 50.5741 52.4495 50.4276 52.5961C50.281 52.7427 50.0822 52.825 49.875 52.825H32.168C32.0653 52.825 31.9637 52.8048 31.8688 52.7655C31.774 52.7261 31.6879 52.6685 31.6153 52.5959C31.5428 52.5233 31.4853 52.437 31.4461 52.3422C31.4069 52.2473 31.3868 52.1456 31.387 52.043ZM74.7 4.625V46.293H75.833C76.5934 46.293 77.3465 46.4428 78.0491 46.7338C78.7517 47.0248 79.3901 47.4514 79.9278 47.9891C80.4656 48.5269 80.8921 49.1653 81.1831 49.8679C81.4742 50.5705 81.624 51.3235 81.624 52.084C81.624 52.8445 81.4742 53.5975 81.1831 54.3001C80.8921 55.0027 80.4656 55.6411 79.9278 56.1789C79.3901 56.7166 78.7517 57.1432 78.0491 57.4342C77.3465 57.7252 76.5934 57.875 75.833 57.875H6.16795C5.40747 57.875 4.65443 57.7252 3.95183 57.4342C3.24924 57.1432 2.61084 56.7166 2.0731 56.1789C1.53535 55.6411 1.10879 55.0027 0.817767 54.3001C0.526742 53.5975 0.376953 52.8445 0.376953 52.084C0.376953 51.3235 0.526742 50.5705 0.817767 49.8679C1.10879 49.1653 1.53535 48.5269 2.0731 47.9891C2.61084 47.4514 3.24924 47.0248 3.95183 46.7338C4.65443 46.4428 5.40747 46.293 6.16795 46.293H7.29995V4.625C7.30075 3.39862 7.78828 2.22269 8.65546 1.35551C9.52264 0.488325 10.6986 0.000794826 11.925 1.0812e-07H70.074C70.6814 -0.000131232 71.2829 0.119399 71.8442 0.351769C72.4054 0.584138 72.9154 0.924793 73.345 1.35428C73.7746 1.78376 74.1153 2.29366 74.3478 2.85486C74.5803 3.41605 74.7 4.01755 74.7 4.625ZM8.86695 46.293H73.137V4.625C73.1359 3.81297 72.8129 3.0345 72.2387 2.4603C71.6645 1.88611 70.886 1.56306 70.074 1.562H11.926C11.5238 1.562 11.1255 1.64123 10.7539 1.79518C10.3824 1.94912 10.0448 2.17475 9.76044 2.45919C9.47609 2.74363 9.25057 3.0813 9.09675 3.45292C8.94293 3.82453 8.86382 4.22281 8.86395 4.625L8.86695 46.293ZM6.16695 47.856C5.60619 47.8474 5.04931 47.9504 4.52872 48.159C4.00814 48.3676 3.53426 48.6777 3.13465 49.0712C2.73504 49.4648 2.4177 49.9338 2.20109 50.4511C1.98448 50.9684 1.87292 51.5237 1.87292 52.0845C1.87292 52.6453 1.98448 53.2006 2.20109 53.7179C2.4177 54.2352 2.73504 54.7042 3.13465 55.0978C3.53426 55.4913 4.00814 55.8014 4.52872 56.01C5.04931 56.2186 5.60619 56.3216 6.16695 56.313H75.832C76.3927 56.3216 76.9496 56.2186 77.4702 56.01C77.9908 55.8014 78.4647 55.4913 78.8643 55.0978C79.2639 54.7042 79.5812 54.2352 79.7978 53.7179C80.0144 53.2006 80.126 52.6453 80.126 52.0845C80.126 51.5237 80.0144 50.9684 79.7978 50.4511C79.5812 49.9338 79.2639 49.4648 78.8643 49.0712C78.4647 48.6777 77.9908 48.3676 77.4702 48.159C76.9496 47.9504 76.3927 47.8474 75.832 47.856H6.16695ZM70.437 5.356V43.2C70.4362 43.4069 70.3536 43.6051 70.2073 43.7514C70.061 43.8977 69.8628 43.9802 69.656 43.981H12.364C12.1571 43.9802 11.9589 43.8977 11.8126 43.7514C11.6663 43.6051 11.5837 43.4069 11.583 43.2V5.313C11.5863 5.10691 11.6697 4.9102 11.8154 4.76445C11.9612 4.61871 12.1579 4.53535 12.364 4.532H69.657C69.8633 4.53459 70.0604 4.61771 70.2063 4.76361C70.3522 4.90952 70.4354 5.10667 70.438 5.313L70.437 5.356ZM40.23 6.137H13.149V42.461H40.227V6.242C40.2279 6.19206 40.2346 6.14239 40.247 6.094L40.23 6.137ZM68.855 6.137H41.77C41.7778 6.18501 41.7778 6.23399 41.77 6.282V42.462H68.852L68.855 6.137ZM21.708 25.086C21.8584 25.2279 22.0562 25.3089 22.263 25.313C22.4693 25.3125 22.6671 25.231 22.814 25.086C22.888 25.0143 22.9469 24.9284 22.9871 24.8335C23.0273 24.7386 23.0481 24.6366 23.0481 24.5335C23.0481 24.4304 23.0273 24.3284 22.9871 24.2335C22.9469 24.1386 22.888 24.0527 22.814 23.981L18.939 20.106L22.814 16.231C22.888 16.1593 22.9469 16.0734 22.9871 15.9785C23.0273 15.8836 23.0481 15.7816 23.0481 15.6785C23.0481 15.5754 23.0273 15.4734 22.9871 15.3785C22.9469 15.2836 22.888 15.1977 22.814 15.126C22.6672 14.9799 22.4685 14.8978 22.2615 14.8978C22.0544 14.8978 21.8557 14.9799 21.709 15.126L17.283 19.544C17.1368 19.6907 17.0548 19.8894 17.0548 20.0965C17.0548 20.3036 17.1368 20.5023 17.283 20.649L21.708 25.086ZM30.759 25.086C30.9078 25.2278 31.1044 25.3088 31.31 25.313C31.5164 25.3132 31.7146 25.2316 31.861 25.086L36.291 20.656C36.4368 20.5101 36.5187 20.3123 36.5187 20.106C36.5187 19.8997 36.4368 19.7019 36.291 19.556L31.861 15.126C31.7117 14.9943 31.5179 14.9246 31.319 14.931C31.1201 14.9375 30.9311 15.0196 30.7907 15.1606C30.6503 15.3017 30.5691 15.491 30.5635 15.6899C30.558 15.8888 30.6286 16.0824 30.761 16.231L34.636 20.106L30.761 23.981C30.6148 24.1277 30.5328 24.3264 30.5328 24.5335C30.5328 24.7406 30.6148 24.9393 30.761 25.086H30.759ZM24.864 27.668C24.9301 27.6798 24.9978 27.6798 25.064 27.668C25.2372 27.6663 25.4049 27.607 25.5407 27.4995C25.6765 27.3919 25.7727 27.2422 25.814 27.074L29.27 13.449C29.2965 13.3495 29.303 13.2457 29.2889 13.1437C29.2748 13.0417 29.2405 12.9436 29.188 12.855C29.1087 12.723 28.9922 12.6173 28.8531 12.5513C28.714 12.4852 28.5585 12.4618 28.4061 12.4839C28.2537 12.5061 28.1112 12.5727 27.9966 12.6756C27.882 12.7784 27.8004 12.9129 27.762 13.062L24.333 26.718C24.2818 26.9141 24.3085 27.1225 24.4075 27.2993C24.5065 27.4762 24.67 27.609 24.864 27.668ZM32.575 32.043H21.013C20.8057 32.043 20.6069 32.1253 20.4604 32.2719C20.3138 32.4185 20.2315 32.6172 20.2315 32.8245C20.2315 33.0318 20.3138 33.2305 20.4604 33.3771C20.6069 33.5237 20.8057 33.606 21.013 33.606H32.575C32.7821 33.606 32.9807 33.5237 33.1272 33.3773C33.2737 33.2308 33.356 33.0321 33.356 32.825C33.356 32.6179 33.2737 32.4192 33.1272 32.2727C32.9807 32.1263 32.7821 32.043 32.575 32.043ZM32.575 35.574H21.013C20.8057 35.574 20.6069 35.6563 20.4604 35.8029C20.3138 35.9495 20.2315 36.1482 20.2315 36.3555C20.2315 36.5628 20.3138 36.7615 20.4604 36.9081C20.6069 37.0547 20.8057 37.137 21.013 37.137H32.575C32.7821 37.137 32.9807 37.0547 33.1272 36.9082C33.2737 36.7618 33.356 36.5631 33.356 36.356C33.356 36.1489 33.2737 35.9502 33.1272 35.8037C32.9807 35.6573 32.7821 35.575 32.575 35.575V35.574ZM46.208 34.012H64.544C64.7511 34.012 64.9497 33.9297 65.0962 33.7832C65.2427 33.6368 65.325 33.4381 65.325 33.231C65.325 33.0239 65.2427 32.8252 65.0962 32.6787C64.9497 32.5323 64.7511 32.45 64.544 32.45H46.208C46.0007 32.45 45.8019 32.5323 45.6553 32.6789C45.5088 32.8255 45.4265 33.0242 45.4265 33.2315C45.4265 33.4388 45.5088 33.6375 45.6553 33.7841C45.8019 33.9307 46.0007 34.012 46.208 34.012ZM46.208 37.543H64.544C64.7511 37.543 64.9497 37.4607 65.0962 37.3143C65.2427 37.1678 65.325 36.9691 65.325 36.762C65.325 36.5549 65.2427 36.3562 65.0962 36.2097C64.9497 36.0633 64.7511 35.981 64.544 35.981H46.208C46.0007 35.981 45.8019 36.0633 45.6553 36.2099C45.5088 36.3565 45.4265 36.5552 45.4265 36.7625C45.4265 36.9698 45.5088 37.1685 45.6553 37.3151C45.8019 37.4617 46.0007 37.543 46.208 37.543ZM45.427 16.711V10.398C45.427 10.1909 45.5092 9.99222 45.6557 9.84575C45.8022 9.69928 46.0008 9.617 46.208 9.617H64.544C64.7511 9.617 64.9497 9.69928 65.0962 9.84575C65.2427 9.99222 65.325 10.1909 65.325 10.398V16.73C65.3242 16.9369 65.2416 17.1351 65.0953 17.2814C64.949 17.4277 64.7508 17.5102 64.544 17.511H46.208C46.0027 17.5081 45.8069 17.4246 45.6628 17.2784C45.5187 17.1322 45.4379 16.9352 45.438 16.73L45.427 16.711ZM46.99 15.93H63.76V11.211H47L46.99 15.93ZM45.438 27.874V21.554C45.438 21.3469 45.5202 21.1482 45.6667 21.0017C45.8132 20.8553 46.0118 20.773 46.219 20.773H52.551C52.7574 20.7751 52.9549 20.858 53.1009 21.0041C53.2469 21.1501 53.3299 21.3475 53.332 21.554V27.874C53.3299 28.0805 53.2469 28.2779 53.1009 28.4239C52.9549 28.57 52.7574 28.6529 52.551 28.655H46.208C46.0026 28.6526 45.8064 28.5692 45.6622 28.423C45.518 28.2767 45.4374 28.0794 45.438 27.874ZM47 27.093H51.77V22.335H47V27.093ZM65.332 21.542V27.874C65.3322 27.9766 65.3122 28.0783 65.273 28.1732C65.2339 28.2681 65.1764 28.3543 65.1038 28.4268C65.0312 28.4994 64.945 28.5569 64.8501 28.5961C64.7553 28.6352 64.6536 28.6553 64.551 28.655H58.22C58.0135 28.6529 57.816 28.57 57.67 28.4239C57.524 28.2779 57.441 28.0805 57.439 27.874V21.554C57.441 21.3475 57.524 21.1501 57.67 21.0041C57.816 20.858 58.0135 20.7751 58.22 20.773H64.552C64.6546 20.7727 64.7563 20.7928 64.8511 20.8319C64.946 20.8711 65.0322 20.9286 65.1048 21.0012C65.1774 21.0737 65.2349 21.1599 65.274 21.2548C65.3132 21.3497 65.3332 21.4514 65.333 21.554L65.332 21.542ZM63.77 22.323H59V27.093H63.77V22.323Z" fill="#ED1C24"/>
</svg>
