<?xml version="1.0" standalone="no"?>
<!DOCTYPE svg PUBLIC "-//W3C//DTD SVG 20010904//EN"
 "http://www.w3.org/TR/2001/REC-SVG-20010904/DTD/svg10.dtd">
<svg version="1.0" xmlns="http://www.w3.org/2000/svg"
 width="1051.000000pt" height="601.000000pt" viewBox="0 0 1051.000000 601.000000"
 preserveAspectRatio="xMidYMid meet">

<g transform="translate(0.000000,601.000000) scale(0.100000,-0.100000)"
fill="#000000" stroke="none">
<path d="M8 6003 c-2 -5 -3 -1356 -3 -3003 l0 -2995 600 -3 c330 -2 2694 0
5252 4 l4653 6 0 1744 c0 959 -2 1744 -4 1744 -2 0 -205 -71 -452 -159 -428
-151 -527 -185 -479 -161 11 5 73 30 138 55 65 26 162 67 215 92 54 26 105 46
115 45 9 0 17 4 17 9 0 5 6 9 13 8 6 -1 19 1 27 4 31 13 232 77 248 80 9 1 22
5 27 8 6 3 31 12 58 19 26 7 47 17 47 21 0 5 7 9 15 9 13 0 15 144 15 1240 l0
1240 -5249 0 c-2888 0 -5251 -3 -5253 -7z m7312 -2022 c0 -4 -44 -14 -97 -20
-146 -18 -156 -20 -183 -26 -14 -3 -41 -8 -60 -11 -19 -3 -42 -9 -50 -13 -8
-4 -30 -8 -49 -10 -19 -1 -54 -10 -79 -21 -24 -11 -48 -18 -52 -15 -5 3 -33
-6 -64 -19 -30 -13 -57 -22 -60 -18 -3 3 -6 0 -6 -7 0 -7 -4 -10 -10 -6 -5 3
-42 -11 -82 -32 -40 -21 -82 -40 -93 -43 -11 -3 -21 -11 -21 -18 -3 -23 -4
-24 -18 -13 -11 9 -17 9 -27 -2 -8 -7 -22 -16 -31 -20 -10 -3 -18 -11 -18 -17
0 -6 13 -2 29 9 33 24 49 27 32 8 -6 -8 -8 -16 -5 -19 3 -3 -1 -5 -8 -5 -7 1
-29 -6 -48 -15 -19 -9 -75 -32 -123 -52 -49 -20 -131 -65 -183 -101 -52 -36
-94 -61 -94 -56 0 5 7 14 15 21 28 23 7 23 -30 0 -20 -12 -38 -20 -41 -17 -3
3 50 33 118 67 68 35 174 94 236 132 301 186 579 278 1022 337 36 5 68 9 73
10 4 0 7 -3 7 -8z m108 2 c-16 -2 -40 -2 -55 0 -16 2 -3 4 27 4 30 0 43 -2 28
-4z m199 -9 c-3 -3 -12 -4 -19 -1 -8 3 -5 6 6 6 11 1 17 -2 13 -5z m-270 -20
c-3 -3 -12 -4 -19 -1 -8 3 -5 6 6 6 11 1 17 -2 13 -5z m400 0 c-3 -3 -12 -4
-19 -1 -8 3 -5 6 6 6 11 1 17 -2 13 -5z m40 -10 c-3 -3 -12 -4 -19 -1 -8 3 -5
6 6 6 11 1 17 -2 13 -5z m-164 -21 c-7 -2 -19 -2 -25 0 -7 3 -2 5 12 5 14 0
19 -2 13 -5z m70 0 c-7 -2 -21 -2 -30 0 -10 3 -4 5 12 5 17 0 24 -2 18 -5z
m54 1 c-3 -3 -12 -4 -19 -1 -8 3 -5 6 6 6 11 1 17 -2 13 -5z m261 -39 c63 -20
112 -38 110 -40 -2 -3 -40 6 -84 20 -43 13 -121 31 -171 40 -51 10 -93 19 -93
22 0 15 138 -9 238 -42z m-481 29 c-3 -3 -12 -4 -19 -1 -8 3 -5 6 6 6 11 1 17
-2 13 -5z m-50 -10 c-3 -3 -12 -4 -19 -1 -8 3 -5 6 6 6 11 1 17 -2 13 -5z
m-40 -10 c-3 -3 -12 -4 -19 -1 -8 3 -5 6 6 6 11 1 17 -2 13 -5z m-997 -209
c-7 -8 -17 -15 -23 -15 -6 0 -2 7 9 15 25 19 30 19 14 0z m-640 -269 c0 -2
-16 -13 -35 -25 -19 -11 -35 -18 -35 -16 0 5 61 45 68 45 1 0 2 -2 2 -4z
m-140 -80 c0 -2 -12 -11 -27 -20 l-28 -17 24 20 c23 21 31 25 31 17z m-285
-176 c-3 -5 -16 -15 -28 -21 -21 -10 -21 -9 2 10 25 23 36 27 26 11z m-146
-93 c-2 -1 -13 -9 -24 -17 -19 -14 -19 -14 -6 3 7 9 18 17 24 17 6 0 8 -1 6
-3z"/>
</g>
</svg>
