<svg width="20" height="20" viewBox="0 0 20 20" fill="none" xmlns="http://www.w3.org/2000/svg">
<path d="M9.569 4.66001C8.59987 4.66001 7.6525 4.94739 6.8467 5.48581C6.0409 6.02423 5.41286 6.7895 5.04199 7.68486C4.67112 8.58022 4.57408 9.56545 4.76315 10.516C4.95222 11.4665 5.4189 12.3396 6.10417 13.0248C6.78945 13.7101 7.66255 14.1768 8.61305 14.3659C9.56356 14.5549 10.5488 14.4579 11.4441 14.087C12.3395 13.7162 13.1048 13.0881 13.6432 12.2823C14.1816 11.4765 14.469 10.5291 14.469 9.56001C14.469 8.26045 13.9527 7.01412 13.0338 6.09519C12.1149 5.17626 10.8686 4.66001 9.569 4.66001ZM9.569 12.753C8.93827 12.753 8.32171 12.566 7.79728 12.2156C7.27285 11.8652 6.86411 11.3671 6.62274 10.7844C6.38138 10.2017 6.31822 9.56047 6.44127 8.94187C6.56432 8.32326 6.86804 7.75504 7.31403 7.30905C7.76002 6.86306 8.32825 6.55934 8.94685 6.43629C9.56546 6.31324 10.2067 6.37639 10.7894 6.61776C11.3721 6.85913 11.8701 7.26787 12.2206 7.7923C12.571 8.31673 12.758 8.93329 12.758 9.56401C12.7567 10.4094 12.4203 11.2197 11.8225 11.8175C11.2247 12.4153 10.4144 12.7517 9.569 12.753ZM15.818 4.45901C15.8182 4.68536 15.7512 4.90668 15.6256 5.09496C15.5 5.28324 15.3213 5.43003 15.1122 5.51674C14.9032 5.60345 14.6731 5.62619 14.4511 5.58208C14.2291 5.53797 14.0251 5.42899 13.8651 5.26894C13.705 5.10889 13.596 4.90496 13.5519 4.68295C13.5078 4.46094 13.5306 4.23084 13.6173 4.02176C13.704 3.81268 13.8508 3.63402 14.039 3.50839C14.2273 3.38277 14.4486 3.31581 14.675 3.31601C14.8253 3.31561 14.9743 3.34494 15.1133 3.40229C15.2522 3.45964 15.3785 3.54389 15.4848 3.6502C15.5911 3.75651 15.6754 3.88278 15.7327 4.02175C15.7901 4.16073 15.8194 4.30967 15.819 4.46001L15.818 4.45901ZM19.066 5.62001C19.0975 4.13292 18.5425 2.69316 17.521 1.61201C16.4376 0.594056 14.9994 0.0396466 13.513 0.0670117C11.934 -0.0229883 7.2 -0.0229883 5.62 0.0670117C4.13401 0.0375012 2.69546 0.590595 1.612 1.60801C0.591959 2.69051 0.0372301 4.12994 0.0669965 5.61701C-0.0230035 7.19601 -0.0230035 11.93 0.0669965 13.51C0.0354463 14.9971 0.590445 16.4369 1.612 17.518C2.69575 18.5354 4.13375 19.0897 5.62 19.063C7.199 19.153 11.933 19.153 13.513 19.063C15.0001 19.0946 16.4399 18.5396 17.521 17.518C18.539 16.4346 19.0934 14.9964 19.066 13.51C19.157 11.93 19.157 7.20001 19.067 5.62101L19.066 5.62001ZM17.026 15.203C16.8637 15.6144 16.6185 15.9881 16.3058 16.3008C15.9931 16.6136 15.6194 16.8587 15.208 17.021C13.949 17.521 10.961 17.405 9.569 17.405C8.177 17.405 5.185 17.516 3.93 17.021C3.51859 16.8587 3.14492 16.6136 2.83219 16.3008C2.51945 15.9881 2.27432 15.6144 2.112 15.203C1.612 13.944 1.728 10.956 1.728 9.56401C1.728 8.17201 1.617 5.18001 2.112 3.92501C2.27432 3.5136 2.51945 3.13994 2.83219 2.8272C3.14492 2.51447 3.51859 2.26933 3.93 2.10701C5.189 1.60701 8.177 1.72301 9.569 1.72301C10.961 1.72301 13.953 1.61201 15.208 2.10701C15.6194 2.26933 15.9931 2.51447 16.3058 2.8272C16.6185 3.13994 16.8637 3.5136 17.026 3.92501C17.526 5.18401 17.41 8.17201 17.41 9.56401C17.41 10.956 17.526 13.949 17.027 15.204L17.026 15.203Z" fill="white"/>
</svg>
