<svg width="74" height="71" viewBox="0 0 74 71" fill="none" xmlns="http://www.w3.org/2000/svg">
<path d="M9.91093 9.53906C10.4575 9.53946 10.9919 9.37774 11.4465 9.07438C11.9012 8.77102 12.2556 8.33964 12.465 7.8348C12.6745 7.32996 12.7295 6.77435 12.6231 6.23825C12.5167 5.70215 12.2537 5.20965 11.8674 4.82303C11.481 4.43642 10.9887 4.17307 10.4527 4.0663C9.91668 3.95952 9.36103 4.01412 8.85604 4.22319C8.35105 4.43226 7.91941 4.7864 7.61572 5.24081C7.31203 5.69523 7.14993 6.22951 7.14993 6.77606C7.15073 7.50826 7.44181 8.21028 7.95937 8.72821C8.47692 9.24615 9.17873 9.53774 9.91093 9.53906ZM9.91093 6.28906C10.0082 6.28847 10.1034 6.31676 10.1845 6.37035C10.2657 6.42394 10.3291 6.50041 10.3667 6.59008C10.4043 6.67974 10.4145 6.77856 10.3959 6.874C10.3773 6.96944 10.3307 7.05721 10.2622 7.12618C10.1936 7.19514 10.1062 7.24221 10.0108 7.26139C9.91551 7.28058 9.81663 7.27104 9.72674 7.23397C9.63684 7.19689 9.55998 7.13396 9.50589 7.05315C9.45181 6.97235 9.42293 6.8773 9.42293 6.78006C9.42319 6.65044 9.4746 6.52615 9.56597 6.43422C9.65735 6.34228 9.78131 6.29011 9.91093 6.28906ZM16.2109 9.53906C16.7572 9.53926 17.2913 9.37746 17.7456 9.07413C18.1999 8.77081 18.5541 8.33957 18.7633 7.83496C18.9725 7.33034 19.0274 6.77502 18.9211 6.2392C18.8147 5.70339 18.5518 5.21115 18.1657 4.82474C17.7795 4.43833 17.2875 4.17509 16.7518 4.06833C16.216 3.96156 15.6607 4.01606 15.1559 4.22492C14.6511 4.43379 14.2196 4.78765 13.916 5.24174C13.6123 5.69584 13.4501 6.22979 13.4499 6.77606C13.4507 7.50809 13.7417 8.20996 14.259 8.72786C14.7764 9.24577 15.4779 9.53747 16.2099 9.53906H16.2109ZM16.2109 6.28906C16.308 6.28906 16.403 6.31786 16.4837 6.37181C16.5645 6.42576 16.6274 6.50244 16.6646 6.59216C16.7017 6.68188 16.7114 6.78061 16.6925 6.87585C16.6736 6.9711 16.6268 7.05858 16.5581 7.12725C16.4895 7.19592 16.402 7.24268 16.3067 7.26163C16.2115 7.28057 16.1128 7.27085 16.023 7.23369C15.9333 7.19652 15.8566 7.13359 15.8027 7.05285C15.7487 6.9721 15.7199 6.87717 15.7199 6.78006C15.7202 6.65009 15.7719 6.52551 15.8637 6.43352C15.9555 6.34152 16.08 6.28959 16.2099 6.28906H16.2109ZM22.5109 9.53906C23.0572 9.53926 23.5913 9.37746 24.0456 9.07413C24.4999 8.77081 24.8541 8.33957 25.0633 7.83496C25.2725 7.33034 25.3274 6.77502 25.2211 6.2392C25.1147 5.70339 24.8518 5.21115 24.4657 4.82474C24.0795 4.43833 23.5875 4.17509 23.0518 4.06833C22.516 3.96156 21.9606 4.01606 21.4559 4.22492C20.9511 4.43379 20.5196 4.78765 20.216 5.24174C19.9123 5.69584 19.7501 6.22979 19.7499 6.77606C19.7507 7.50844 20.0419 8.2106 20.5597 8.72857C21.0775 9.24653 21.7786 9.538 22.5109 9.53906ZM22.5109 6.28906C22.608 6.28906 22.703 6.31786 22.7837 6.37181C22.8645 6.42576 22.9274 6.50244 22.9646 6.59216C23.0017 6.68188 23.0114 6.78061 22.9925 6.87585C22.9736 6.9711 22.9268 7.05858 22.8581 7.12725C22.7895 7.19592 22.702 7.24268 22.6067 7.26163C22.5115 7.28057 22.4128 7.27085 22.323 7.23369C22.2333 7.19652 22.1566 7.13359 22.1027 7.05285C22.0487 6.9721 22.0199 6.87717 22.0199 6.78006C22.0198 6.71563 22.0324 6.6518 22.0569 6.59224C22.0815 6.53267 22.1176 6.47854 22.1631 6.43293C22.2086 6.38732 22.2627 6.35114 22.3222 6.32645C22.3817 6.30177 22.4465 6.28906 22.5109 6.28906ZM28.3519 6.78006C28.3517 6.63093 28.3808 6.4832 28.4377 6.34533C28.4945 6.20746 28.578 6.08215 28.6833 5.97655C28.7886 5.87096 28.9137 5.78716 29.0514 5.72994C29.1892 5.67271 29.3368 5.64319 29.4859 5.64306H57.5859C57.8872 5.64306 58.1762 5.76275 58.3892 5.97579C58.6022 6.18883 58.7219 6.47778 58.7219 6.77906C58.7219 7.08035 58.6022 7.36929 58.3892 7.58233C58.1762 7.79538 57.8872 7.91506 57.5859 7.91506H29.4859C29.3367 7.91519 29.1889 7.8859 29.051 7.82886C28.9132 7.77181 28.7879 7.68814 28.6824 7.58263C28.5769 7.47711 28.4932 7.35183 28.4361 7.21394C28.3791 7.07606 28.3498 6.92828 28.3499 6.77906L28.3519 6.78006ZM17.7389 16.6731H9.41993C9.27071 16.6729 9.12293 16.7022 8.98505 16.7593C8.84716 16.8163 8.72188 16.9 8.61637 17.0055C8.51085 17.111 8.42718 17.2363 8.37014 17.3742C8.3131 17.5121 8.2838 17.6598 8.28393 17.8091V26.1231C8.28341 26.2725 8.31241 26.4206 8.36927 26.5589C8.42614 26.6971 8.50975 26.8227 8.6153 26.9286C8.72085 27.0344 8.84627 27.1183 8.98435 27.1756C9.12244 27.2328 9.27046 27.2622 9.41993 27.2621H17.7389C17.8884 27.2622 18.0364 27.2328 18.1745 27.1756C18.3126 27.1183 18.438 27.0344 18.5436 26.9286C18.6491 26.8227 18.7327 26.6971 18.7896 26.5589C18.8465 26.4206 18.8755 26.2725 18.8749 26.1231V17.8091C18.8751 17.6598 18.8458 17.5121 18.7887 17.3742C18.7317 17.2363 18.648 17.111 18.5425 17.0055C18.437 16.9 18.3117 16.8163 18.1738 16.7593C18.0359 16.7022 17.8882 16.6729 17.7389 16.6731ZM16.6059 24.9891H10.5559V18.9451H16.6059V24.9891ZM11.1349 22.3671C10.9401 22.1504 10.8361 21.8671 10.8442 21.5758C10.8524 21.2846 10.9722 21.0076 11.1788 20.8021C11.3854 20.5967 11.663 20.4785 11.9543 20.4719C12.2457 20.4654 12.5283 20.5711 12.7439 20.7671L13.2979 21.3241L14.4139 20.2081C14.6287 20.0042 14.9147 19.8922 15.2108 19.8961C15.5069 19.9 15.7898 20.0193 15.9993 20.2287C16.2087 20.4382 16.328 20.7211 16.3319 21.0172C16.3357 21.3133 16.2238 21.5993 16.0199 21.8141L14.1009 23.7331C13.9954 23.8386 13.8702 23.9224 13.7323 23.9795C13.5944 24.0366 13.4467 24.066 13.2974 24.066C13.1482 24.066 13.0004 24.0366 12.8626 23.9795C12.7247 23.9224 12.5994 23.8386 12.4939 23.7331L11.1349 22.3671ZM23.9989 19.4231C23.9988 19.2738 24.0281 19.1261 24.0851 18.9882C24.1422 18.8503 24.2259 18.725 24.3314 18.6195C24.4369 18.514 24.5622 18.4303 24.7 18.3733C24.8379 18.3162 24.9857 18.2869 25.1349 18.2871H56.4499C56.7512 18.2871 57.0402 18.4067 57.2532 18.6198C57.4662 18.8328 57.5859 19.1218 57.5859 19.4231C57.5859 19.7243 57.4662 20.0133 57.2532 20.2263C57.0402 20.4394 56.7512 20.5591 56.4499 20.5591H25.1349C24.9857 20.5592 24.8379 20.5299 24.7 20.4729C24.5622 20.4158 24.4369 20.3321 24.3314 20.2266C24.2259 20.1211 24.1422 19.9958 24.0851 19.8579C24.0281 19.7201 23.9988 19.5723 23.9989 19.4231ZM23.9989 24.5031C23.9988 24.3538 24.0281 24.2061 24.0851 24.0682C24.1422 23.9303 24.2259 23.805 24.3314 23.6995C24.4369 23.594 24.5622 23.5103 24.7 23.4533C24.8379 23.3962 24.9857 23.3669 25.1349 23.3671H43.0899C43.3912 23.3671 43.6802 23.4867 43.8932 23.6998C44.1063 23.9128 44.2259 24.2018 44.2259 24.5031C44.2259 24.8043 44.1063 25.0933 43.8932 25.3063C43.6802 25.5194 43.3912 25.6391 43.0899 25.6391H25.1349C24.9857 25.6392 24.8379 25.6099 24.7 25.5529C24.5622 25.4958 24.4369 25.4121 24.3314 25.3066C24.2259 25.2011 24.1422 25.0758 24.0851 24.9379C24.0281 24.8001 23.9988 24.6523 23.9989 24.5031ZM17.7399 30.6131H9.42093C9.27171 30.6129 9.12393 30.6422 8.98605 30.6993C8.84816 30.7563 8.72288 30.84 8.61737 30.9455C8.51185 31.051 8.42818 31.1763 8.37114 31.3142C8.3141 31.4521 8.2848 31.5998 8.28493 31.7491V40.0651C8.28454 40.2144 8.31364 40.3624 8.37056 40.5006C8.42749 40.6387 8.51112 40.7642 8.61666 40.8699C8.7222 40.9756 8.84757 41.0595 8.98559 41.1167C9.1236 41.1738 9.27155 41.2032 9.42093 41.2031H17.7399C17.8892 41.2032 18.0369 41.1739 18.1748 41.1169C18.3127 41.0598 18.438 40.9761 18.5435 40.8706C18.649 40.7651 18.7327 40.6398 18.7897 40.5019C18.8468 40.3641 18.8761 40.2163 18.8759 40.0671V31.7511C18.8761 31.6018 18.8468 31.4541 18.7897 31.3162C18.7327 31.1783 18.649 31.053 18.5435 30.9475C18.438 30.842 18.3127 30.7583 18.1748 30.7013C18.0369 30.6442 17.8892 30.6149 17.7399 30.6151V30.6131ZM16.6069 38.9291H10.5569V32.8871H16.6069V38.9291ZM11.1389 36.3101C10.9262 36.0964 10.8071 35.807 10.8078 35.5056C10.8084 35.2041 10.9288 34.9153 11.1424 34.7026C11.3561 34.4899 11.6454 34.3707 11.9469 34.3714C12.2484 34.372 12.5372 34.4924 12.7499 34.7061L13.3039 35.2601L14.4229 34.1441C14.5265 34.0301 14.6522 33.9384 14.7923 33.8745C14.9325 33.8107 15.0841 33.7759 15.2381 33.7725C15.392 33.769 15.5451 33.7969 15.6879 33.8545C15.8308 33.912 15.9605 33.998 16.069 34.1072C16.1776 34.2164 16.2629 34.3465 16.3196 34.4897C16.3764 34.6329 16.4034 34.7861 16.3991 34.94C16.3948 35.094 16.3592 35.2454 16.2945 35.3852C16.2299 35.5249 16.1375 35.6501 16.0229 35.7531L14.1039 37.6691C13.9984 37.7746 13.8732 37.8583 13.7353 37.9155C13.5974 37.9726 13.4497 38.002 13.3004 38.002C13.1512 38.002 13.0034 37.9726 12.8656 37.9155C12.7277 37.8583 12.6024 37.7746 12.4969 37.6691L11.1389 36.3101ZM23.9989 33.3671C23.9988 33.2178 24.0281 33.0701 24.0851 32.9322C24.1422 32.7943 24.2259 32.669 24.3314 32.5635C24.4369 32.458 24.5622 32.3743 24.7 32.3173C24.8379 32.2602 24.9857 32.2309 25.1349 32.2311H56.4499C56.7512 32.2311 57.0402 32.3507 57.2532 32.5638C57.4662 32.7768 57.5859 33.0658 57.5859 33.3671C57.5859 33.6683 57.4662 33.9573 57.2532 34.1703C57.0402 34.3834 56.7512 34.5031 56.4499 34.5031H25.1349C24.9857 34.5032 24.8379 34.4739 24.7 34.4169C24.5622 34.3598 24.4369 34.2761 24.3314 34.1706C24.2259 34.0651 24.1422 33.9398 24.0851 33.8019C24.0281 33.6641 23.9988 33.5163 23.9989 33.3671ZM23.9989 38.4471C23.9988 38.2978 24.0281 38.1501 24.0851 38.0122C24.1422 37.8743 24.2259 37.749 24.3314 37.6435C24.4369 37.538 24.5622 37.4543 24.7 37.3973C24.8379 37.3402 24.9857 37.3109 25.1349 37.3111H43.0899C43.3912 37.3111 43.6802 37.4307 43.8932 37.6438C44.1063 37.8568 44.2259 38.1458 44.2259 38.4471C44.2259 38.7483 44.1063 39.0373 43.8932 39.2503C43.6802 39.4634 43.3912 39.5831 43.0899 39.5831H25.1349C24.9859 39.5833 24.8383 39.5542 24.7006 39.4974C24.5628 39.4406 24.4376 39.3572 24.3321 39.252C24.2266 39.1468 24.1429 39.0218 24.0857 38.8842C24.0286 38.7466 23.9991 38.5991 23.9989 38.4501V38.4471ZM17.7399 44.5471H9.42093C9.27171 44.5469 9.12393 44.5762 8.98605 44.6333C8.84816 44.6903 8.72288 44.774 8.61737 44.8795C8.51185 44.985 8.42818 45.1103 8.37114 45.2482C8.3141 45.3861 8.2848 45.5338 8.28493 45.6831V54.0021C8.2848 54.1513 8.3141 54.2991 8.37114 54.4369C8.42818 54.5748 8.51185 54.7001 8.61737 54.8056C8.72288 54.9111 8.84816 54.9948 8.98605 55.0519C9.12393 55.1089 9.27171 55.1382 9.42093 55.1381H17.7399C17.8892 55.1382 18.0369 55.1089 18.1748 55.0519C18.3127 54.9948 18.438 54.9111 18.5435 54.8056C18.649 54.7001 18.7327 54.5748 18.7897 54.4369C18.8468 54.2991 18.8761 54.1513 18.8759 54.0021V45.6901C18.8761 45.5408 18.8468 45.3931 18.7897 45.2552C18.7327 45.1173 18.649 44.992 18.5435 44.8865C18.438 44.781 18.3127 44.6973 18.1748 44.6403C18.0369 44.5832 17.8892 44.5539 17.7399 44.5541V44.5471ZM16.6069 52.8691H10.5569V46.8231H16.6069V52.8691ZM23.9989 47.3041C23.9988 47.1548 24.0281 47.0071 24.0851 46.8692C24.1422 46.7313 24.2259 46.606 24.3314 46.5005C24.4369 46.395 24.5622 46.3113 24.7 46.2543C24.8379 46.1972 24.9857 46.1679 25.1349 46.1681H41.8819C42.1832 46.1681 42.4722 46.2877 42.6852 46.5008C42.8983 46.7138 43.0179 47.0028 43.0179 47.3041C43.0179 47.6053 42.8983 47.8943 42.6852 48.1073C42.4722 48.3204 42.1832 48.4401 41.8819 48.4401H25.1349C24.8346 48.4403 24.5464 48.3216 24.3335 48.1097C24.1206 47.8979 24.0003 47.6104 23.9989 47.3101V47.3041ZM39.3989 52.3821C39.3997 52.5313 39.3711 52.6792 39.3146 52.8173C39.2582 52.9555 39.1751 53.0811 39.07 53.1871C38.965 53.2931 38.8401 53.3773 38.7024 53.4349C38.5648 53.4926 38.4172 53.5225 38.2679 53.5231H25.1349C24.8336 53.5231 24.5447 53.4034 24.3317 53.1903C24.1186 52.9773 23.9989 52.6883 23.9989 52.3871C23.9989 52.0858 24.1186 51.7968 24.3317 51.5838C24.5447 51.3707 24.8336 51.2511 25.1349 51.2511H38.2679C38.4172 51.2509 38.5651 51.2803 38.703 51.3374C38.841 51.3945 38.9663 51.4782 39.0719 51.5838C39.1774 51.6895 39.261 51.8149 39.318 51.9529C39.375 52.0909 39.4042 52.2388 39.4039 52.3881L39.3989 52.3821ZM72.0499 51.1321L70.3599 50.5871C70.0719 49.5621 69.6627 48.5751 69.1409 47.6471L69.9409 46.0721C70.1267 45.7171 70.1939 45.3119 70.1325 44.9159C70.0712 44.52 69.8845 44.1541 69.5999 43.8721L67.7999 42.0791C67.52 41.7959 67.157 41.6096 66.7638 41.5472C66.3706 41.4848 65.9678 41.5495 65.6139 41.7321L65.2239 41.9321V5.83906C65.2231 4.38723 64.6463 2.99505 63.6199 1.96817C62.5936 0.941296 61.2018 0.36365 59.7499 0.362061H6.12693C4.67511 0.362854 3.28292 0.939737 2.25605 1.96605C1.22917 2.99237 0.651522 4.38423 0.649933 5.83606V55.4121C0.651785 56.863 1.229 58.254 2.25498 59.28C3.28097 60.306 4.67197 60.8832 6.12293 60.8851H45.7429L45.0119 62.3231C44.8255 62.6779 44.758 63.0832 44.8194 63.4793C44.8808 63.8754 45.0678 64.2413 45.3529 64.5231L47.1529 66.3231C47.4328 66.6062 47.7958 66.7925 48.189 66.8549C48.5822 66.9174 48.9851 66.8526 49.3389 66.6701L50.9219 65.8641C51.8494 66.3871 52.8365 66.7964 53.8619 67.0831L54.4099 68.7701C54.5316 69.1493 54.7711 69.4799 55.0936 69.7136C55.416 69.9474 55.8046 70.0723 56.2029 70.0701H58.7449C59.1431 70.0717 59.5314 69.9466 59.8537 69.7129C60.1761 69.4792 60.4157 69.149 60.5379 68.7701L61.0889 67.0771C62.1139 66.7891 63.1009 66.3798 64.0289 65.8581L65.6039 66.6581C65.9582 66.8435 66.3625 66.9104 66.7576 66.849C67.1527 66.7877 67.5177 66.6012 67.7989 66.3171L69.5989 64.5171C69.8821 64.2372 70.0684 63.8742 70.1308 63.4809C70.1932 63.0877 70.1285 62.6849 69.9459 62.3311L69.1399 60.7481C69.6629 59.8206 70.0722 58.8335 70.3589 57.8081L72.0459 57.2601C72.4252 57.1384 72.7557 56.8989 72.9895 56.5764C73.2233 56.254 73.3482 55.8653 73.3459 55.4671V52.9231C73.3492 52.5237 73.2249 52.1337 72.991 51.8099C72.7572 51.4862 72.4261 51.2455 72.0459 51.1231L72.0499 51.1321ZM6.12693 2.63406H59.7499C60.598 2.63617 61.4107 2.97399 62.0103 3.57365C62.61 4.17331 62.9478 4.98602 62.9499 5.83406V10.9231H2.91793V5.83606C2.91978 4.98794 3.25752 4.17508 3.85723 3.57536C4.45695 2.97565 5.26981 2.63791 6.11793 2.63606L6.12693 2.63406ZM2.92693 55.4141V13.1971H62.9499V41.9971C62.3459 41.7255 61.7225 41.4992 61.0849 41.3201L60.5369 39.6331C60.417 39.2531 60.1791 38.9212 59.8578 38.6857C59.5364 38.4501 59.1484 38.3231 58.7499 38.3231H56.2049C55.8068 38.3214 55.4185 38.4465 55.0961 38.6802C54.7738 38.914 54.5342 39.2441 54.4119 39.6231L53.8609 41.3161C52.836 41.6041 51.849 42.0133 50.9209 42.5351L49.3459 41.7351C48.9919 41.549 48.5875 41.4815 48.1923 41.5423C47.797 41.6032 47.4316 41.7892 47.1499 42.0731L45.3499 43.8731C45.066 44.1537 44.8792 44.5178 44.8168 44.9121C44.7544 45.3065 44.8196 45.7104 45.0029 46.0651L45.8089 47.6481C45.2859 48.5755 44.8766 49.5626 44.5899 50.5881L42.8899 51.1361C42.5156 51.262 42.1902 51.5021 41.9595 51.8227C41.7288 52.1433 41.6044 52.5281 41.6039 52.9231V55.4631C41.6023 55.8612 41.7274 56.2495 41.9611 56.5719C42.1948 56.8942 42.525 57.1338 42.9039 57.2561L44.5969 57.8071C44.6739 58.0801 44.7609 58.3491 44.8519 58.6161H6.12793C5.27989 58.6139 4.46718 58.2761 3.86752 57.6765C3.26787 57.0768 2.93005 56.2641 2.92793 55.4161L2.92693 55.4141ZM71.0859 55.1871L69.4649 55.7151C69.1638 55.8109 68.8921 55.9818 68.6754 56.2117C68.4586 56.4416 68.3039 56.7229 68.2259 57.0291C67.9709 57.9957 67.5857 58.9231 67.0809 59.7861C66.9189 60.0577 66.8288 60.3662 66.8191 60.6824C66.8095 60.9986 66.8807 61.312 67.0259 61.5931L67.8009 63.1131L66.4009 64.5131L64.8859 63.7411C64.6046 63.594 64.2904 63.5213 63.9731 63.5299C63.6558 63.5385 63.3459 63.628 63.0729 63.7901C62.2123 64.2929 61.288 64.678 60.3249 64.9351C60.0174 65.0121 59.7346 65.1663 59.5033 65.3831C59.2719 65.5999 59.0997 65.8722 59.0029 66.1741L58.4749 67.7981H56.4919L55.9639 66.1771C55.8685 65.8757 55.6978 65.6038 55.4678 65.387C55.2378 65.1701 54.9563 65.0156 54.6499 64.9381C53.6833 64.683 52.7558 64.2978 51.8929 63.7931C51.6213 63.631 51.3128 63.5409 50.9966 63.5313C50.6804 63.5216 50.367 63.5928 50.0859 63.7381L48.5659 64.5131L47.1659 63.1131L47.9379 61.5981C48.0842 61.3165 48.1565 61.0024 48.1479 60.6852C48.1394 60.3681 48.0502 60.0583 47.8889 59.7851C47.3861 58.9244 47.001 58.0001 46.7439 57.0371C46.6665 56.7297 46.5121 56.4471 46.2953 56.2159C46.0786 55.9846 45.8066 55.8123 45.5049 55.7151L43.8809 55.1871V53.2031L45.5019 52.6781C45.803 52.5822 46.0747 52.4113 46.2915 52.1814C46.5083 51.9515 46.6629 51.6702 46.7409 51.3641C46.996 50.3975 47.3812 49.47 47.8859 48.6071C48.048 48.3354 48.1381 48.0269 48.1477 47.7107C48.1574 47.3945 48.0862 47.0811 47.9409 46.8001L47.1639 45.2771L48.5639 43.8771L50.0929 44.6541C50.3736 44.7963 50.6855 44.8659 51 44.8562C51.3144 44.8466 51.6215 44.7582 51.8929 44.5991C52.7562 44.0952 53.6836 43.7104 54.6499 43.4551C54.9565 43.3771 55.2382 43.2225 55.4685 43.0057C55.6989 42.789 55.8704 42.5173 55.9669 42.2161L56.4949 40.5921H58.4739L59.0019 42.2131C59.0973 42.5144 59.2681 42.7863 59.4981 43.0032C59.728 43.22 60.0095 43.3745 60.3159 43.4521C61.2825 43.7071 62.21 44.0923 63.0729 44.5971C63.3452 44.7573 63.6536 44.8464 63.9694 44.856C64.2852 44.8656 64.5984 44.7955 64.8799 44.6521L66.4029 43.8771L67.8029 45.2771L67.0309 46.7951C66.8846 47.0761 66.8123 47.3897 66.8209 47.7064C66.8295 48.0231 66.9186 48.3324 67.0799 48.6051C67.5833 49.4655 67.9684 50.3898 68.2249 51.3531C68.3029 51.661 68.4578 51.944 68.675 52.1758C68.8922 52.4075 69.1647 52.5803 69.4669 52.6781L71.0879 53.2031L71.0859 55.1871ZM57.4859 46.4381C55.9514 46.4377 54.4512 46.8924 53.1751 47.7447C51.899 48.597 50.9043 49.8086 50.3169 51.2263C49.7294 52.6439 49.5756 54.204 49.8749 55.7091C50.1742 57.2142 50.9131 58.5967 51.9982 59.6818C53.0833 60.7669 54.4658 61.5058 55.9709 61.8051C57.476 62.1044 59.036 61.9506 60.4537 61.3631C61.8714 60.7757 63.083 59.781 63.9353 58.5049C64.7876 57.2288 65.2423 55.7286 65.2419 54.1941C65.2393 52.1366 64.4203 50.1643 62.9649 48.7102C61.5094 47.256 59.5364 46.4389 57.4789 46.4381H57.4859ZM57.4859 59.6851C56.4006 59.6851 55.3397 59.3633 54.4373 58.7604C53.5348 58.1575 52.8314 57.3005 52.416 56.2979C52.0005 55.2953 51.8917 54.192 52.1032 53.1275C52.3147 52.063 52.8371 51.0851 53.6043 50.3175C54.3715 49.5499 55.3491 49.027 56.4134 48.8149C57.4778 48.6028 58.5812 48.711 59.584 49.1259C60.5869 49.5409 61.4442 50.2438 62.0476 51.1459C62.651 52.048 62.9733 53.1088 62.9739 54.1941C62.9718 55.6505 62.3921 57.0466 61.362 58.0762C60.3318 59.1058 58.9354 59.6847 57.4789 59.6861L57.4859 59.6851Z" fill="#ED1C24"/>
</svg>
