<svg width="31" height="40" viewBox="0 0 31 40" fill="none" xmlns="http://www.w3.org/2000/svg">
<path fill-rule="evenodd" clip-rule="evenodd" d="M16.937 19.5439C16.9253 19.4348 16.8874 19.3301 16.8265 19.2389C16.7655 19.1476 16.6833 19.0725 16.587 19.0199C16.2603 18.8291 15.8888 18.7285 15.5105 18.7285C15.1322 18.7285 14.7606 18.8291 14.434 19.0199C14.3374 19.0724 14.2549 19.1474 14.1936 19.2387C14.1323 19.3299 14.094 19.4347 14.082 19.5439C14.0892 19.648 14.1223 19.7487 14.1782 19.8369C14.234 19.925 14.3109 19.9979 14.402 20.0489C14.7355 20.2526 15.1187 20.3603 15.5095 20.3603C15.9003 20.3603 16.2835 20.2526 16.617 20.0489C16.7085 19.9984 16.7857 19.9257 16.8416 19.8374C16.8976 19.7491 16.9304 19.6482 16.937 19.5439ZM14.112 8.51393L13.212 9.02893L13.374 9.44393C13.405 9.52332 13.412 9.61005 13.3943 9.69341C13.3765 9.77676 13.3347 9.85308 13.274 9.91293C12.966 10.247 12.7394 10.6478 12.612 11.0839C12.5889 11.1634 12.5438 11.2347 12.4818 11.2895C12.4199 11.3444 12.3437 11.3806 12.262 11.3939L11.832 11.4669V12.4609L12.292 12.5379C12.3715 12.5515 12.4457 12.5867 12.5065 12.6396C12.5674 12.6925 12.6125 12.7611 12.637 12.8379C12.7726 13.256 13.0002 13.6384 13.303 13.9569C13.3609 14.0171 13.4003 14.0926 13.4166 14.1745C13.4329 14.2563 13.4254 14.3412 13.395 14.4189L13.207 14.9009L14.107 15.4159L14.449 14.9859C14.4991 14.9227 14.5656 14.8745 14.6413 14.8467C14.717 14.8188 14.7989 14.8123 14.878 14.8279C15.2873 14.9112 15.7095 14.9067 16.117 14.8149C16.2015 14.7959 16.2897 14.8024 16.3705 14.8336C16.4513 14.8647 16.5211 14.9191 16.571 14.9899L16.906 15.4139L17.76 14.9069L17.56 14.3869C17.5293 14.3088 17.5218 14.2235 17.5382 14.1412C17.5547 14.059 17.5946 13.9832 17.653 13.9229C17.9343 13.6154 18.1473 13.2517 18.278 12.8559C18.3044 12.7757 18.3533 12.7047 18.4189 12.6515C18.4845 12.5983 18.564 12.5651 18.648 12.5559L19.183 12.4659V11.4659L18.654 11.3779C18.5703 11.3638 18.4925 11.3259 18.4298 11.2688C18.367 11.2118 18.322 11.1379 18.3 11.0559C18.1739 10.6395 17.9574 10.256 17.666 9.93293C17.6103 9.87074 17.5734 9.79404 17.5596 9.71173C17.5458 9.62941 17.5557 9.54487 17.588 9.46793L17.761 9.02593L16.907 8.51893L16.62 8.88293C16.5679 8.94905 16.4978 8.99868 16.4181 9.02583C16.3384 9.05298 16.2526 9.05649 16.171 9.03593C15.7285 8.92904 15.2675 8.92459 14.823 9.02293C14.7354 9.0422 14.6439 9.03434 14.5609 9.0004C14.4778 8.96646 14.4071 8.90805 14.358 8.83293L14.112 8.51393ZM12.452 8.45893L13.996 7.56993C14.0865 7.51485 14.194 7.49462 14.2983 7.51303C14.4027 7.53143 14.4968 7.58721 14.563 7.66993L14.91 8.10993C15.3054 8.05417 15.7069 8.05856 16.101 8.12293L16.438 7.69593C16.5009 7.60369 16.5965 7.53878 16.7055 7.51428C16.8144 7.48978 16.9286 7.50752 17.025 7.56393L18.525 8.45593C18.6146 8.50886 18.6824 8.59198 18.7163 8.69038C18.7502 8.78878 18.748 8.89603 18.71 8.99293L18.492 9.55193C18.7282 9.85498 18.917 10.1922 19.052 10.5519L19.661 10.6519C19.7704 10.6621 19.872 10.7128 19.946 10.794C20.0199 10.8752 20.061 10.9811 20.061 11.0909V12.8289C20.0599 12.933 20.0225 13.0334 19.955 13.1127C19.8876 13.192 19.7945 13.2452 19.692 13.2629L19.012 13.3809C18.874 13.7127 18.6906 14.0237 18.467 14.3049L18.707 14.9199C18.7471 15.0176 18.7507 15.1265 18.7171 15.2265C18.6835 15.3266 18.6149 15.4113 18.524 15.4649L17.024 16.3569C16.9327 16.4108 16.825 16.4299 16.7208 16.4106C16.6166 16.3913 16.5229 16.3349 16.457 16.2519L16.033 15.7129C15.6822 15.7648 15.326 15.7691 14.974 15.7259L14.56 16.2499C14.4952 16.3328 14.4028 16.3896 14.2995 16.4098C14.1963 16.43 14.0892 16.4123 13.998 16.3599L12.475 15.4829C12.3758 15.4345 12.2984 15.3506 12.2582 15.2478C12.218 15.1449 12.2179 15.0308 12.258 14.9279L12.485 14.3459C12.2432 14.0494 12.0464 13.7188 11.901 13.3649L11.352 13.2729C11.2425 13.2629 11.1408 13.2123 11.0668 13.1311C10.9927 13.0498 10.9518 12.9438 10.952 12.8339V11.0929C10.9522 10.9889 10.9891 10.8883 11.0562 10.8089C11.1234 10.7295 11.2165 10.6764 11.319 10.6589L11.858 10.5689C12.0008 10.1886 12.2034 9.83348 12.458 9.51693L12.258 8.99693C12.2199 8.89922 12.2181 8.79108 12.253 8.69217C12.2878 8.59326 12.357 8.51014 12.448 8.45793L12.452 8.45893ZM19.452 20.0179C18.9522 20.5749 18.3461 21.0264 17.6693 21.3459C16.9925 21.6653 16.2587 21.8462 15.511 21.8779C14.5644 21.8779 13.64 21.5917 12.859 21.0569C11.3922 20.0501 10.1929 18.701 9.36488 17.1264C8.53687 15.5517 8.10511 13.799 8.10699 12.0199C8.10699 10.0563 8.88705 8.17303 10.2756 6.78451C11.6641 5.39599 13.5473 4.61593 15.511 4.61593C17.4747 4.61593 19.3579 5.39599 20.7464 6.78451C22.1349 8.17303 22.915 10.0563 22.915 12.0199C22.9221 14.6311 21.9909 17.1579 20.291 19.1399H17.753C17.6286 18.7886 17.3894 18.4895 17.074 18.2909C16.6035 18.0014 16.0619 17.8481 15.5095 17.8481C14.9571 17.8481 14.4155 18.0014 13.945 18.2909C13.7266 18.4213 13.5444 18.6043 13.4148 18.8231C13.2852 19.042 13.2124 19.2898 13.203 19.5439C13.2062 19.7932 13.2732 20.0375 13.3977 20.2536C13.5222 20.4696 13.6999 20.6501 13.914 20.7779C14.3914 21.0802 14.9449 21.2406 15.51 21.2406C16.0751 21.2406 16.6285 21.0802 17.106 20.7779C17.392 20.5977 17.6134 20.3312 17.738 20.0169L19.452 20.0179ZM22.441 17.5179C22.143 18.0848 21.7995 18.6266 21.414 19.1379H22.233C22.5058 19.1626 22.7808 19.1307 23.0408 19.0444C23.3008 18.958 23.5402 18.819 23.7441 18.6361C23.948 18.4531 24.112 18.2301 24.2258 17.9809C24.3397 17.7318 24.4011 17.4618 24.406 17.1879V14.5439H23.527C23.3017 15.5813 22.937 16.5834 22.443 17.5229L22.441 17.5179ZM20.685 20.0179C20.0836 20.6742 19.4108 21.2612 18.679 21.7679L18.659 21.7829C18.0266 22.2162 17.3117 22.5148 16.559 22.6599C19.7462 22.8672 22.7925 24.0504 25.284 26.0489C28.0446 28.2614 29.9592 31.3569 30.706 34.8149C30.8151 35.3498 30.8064 35.9021 30.6806 36.4333C30.5548 36.9645 30.3148 37.462 29.9774 37.8911C29.64 38.3203 29.2132 38.6708 28.7267 38.9184C28.2401 39.166 27.7055 39.3047 27.16 39.3249H3.86599C3.31369 39.317 2.76997 39.1871 2.27373 38.9446C1.77748 38.702 1.34098 38.3528 0.995466 37.9218C0.649948 37.4909 0.403951 36.9889 0.275076 36.4518C0.146201 35.9147 0.137634 35.3557 0.249988 34.8149C1.00215 31.3541 2.92711 28.2595 5.69899 26.0549C8.2056 24.0523 11.2656 22.8658 14.467 22.6549C13.7142 22.5098 12.9994 22.2113 12.367 21.7779C10.7797 20.6852 9.48145 19.2233 8.58399 17.5179C8.08918 16.5787 7.7245 15.5765 7.49999 14.5389H6.24099C5.89186 14.5328 5.55878 14.3913 5.31196 14.1443C5.06515 13.8973 4.9239 13.5641 4.91799 13.2149V10.5719C4.92146 10.2984 5.01376 10.0335 5.18097 9.81702C5.34818 9.60057 5.58123 9.44435 5.84499 9.37193C6.16188 7.02514 7.31917 4.87293 9.10218 3.31451C10.8852 1.75608 13.1729 0.897217 15.541 0.897217C17.9091 0.897217 20.1968 1.75608 21.9798 3.31451C23.7628 4.87293 24.9201 7.02514 25.237 9.37193C25.501 9.44413 25.7344 9.60023 25.902 9.81669C26.0696 10.0331 26.1622 10.2982 26.166 10.5719V13.2189C26.1614 13.4909 26.0748 13.7551 25.9174 13.9769C25.76 14.1987 25.5392 14.3678 25.284 14.4619V17.1929C25.2788 17.5823 25.1945 17.9665 25.0363 18.3223C24.8781 18.6781 24.6493 18.998 24.3637 19.2626C24.0781 19.5273 23.7417 19.7312 23.3749 19.8619C23.0081 19.9925 22.6186 20.0473 22.23 20.0229L20.685 20.0179ZM7.33799 13.6629C7.1577 12.511 7.19433 11.3354 7.44599 10.1969H6.24099C6.13299 10.1889 6.02615 10.2235 5.94348 10.2935C5.8608 10.3635 5.80892 10.4631 5.79899 10.5709V13.2179C5.80473 13.3336 5.85306 13.443 5.93466 13.5252C6.01626 13.6073 6.12538 13.6564 6.24099 13.6629H7.33799ZM7.70699 9.31793H6.74499C7.06337 7.21197 8.12644 5.29003 9.74114 3.90109C11.3558 2.51216 13.4151 1.74834 15.545 1.74834C17.6749 1.74834 19.7341 2.51216 21.3488 3.90109C22.9635 5.29003 24.0266 7.21197 24.345 9.31793H23.312C22.7368 7.70984 21.6786 6.31884 20.2823 5.33537C18.886 4.3519 17.2199 3.82403 15.512 3.82403C13.8041 3.82403 12.138 4.3519 10.7417 5.33537C9.3454 6.31884 8.28721 7.70984 7.71199 9.31793H7.70699ZM23.57 10.1969C23.8223 11.3346 23.8596 12.5095 23.68 13.6609H24.846C24.9613 13.6551 25.0704 13.6067 25.1521 13.525C25.2338 13.4434 25.2822 13.3343 25.288 13.2189V10.5719C25.2783 10.4639 25.2265 10.364 25.1438 10.2939C25.0611 10.2237 24.9541 10.1889 24.846 10.1969H23.57ZM22.503 38.4459V32.8459C22.5084 32.7327 22.5571 32.626 22.6392 32.5478C22.7212 32.4695 22.8302 32.4259 22.9435 32.4259C23.0568 32.4259 23.1658 32.4695 23.2478 32.5478C23.3298 32.626 23.3786 32.7327 23.384 32.8459V38.4459H27.153C27.5677 38.427 27.9734 38.3186 28.3422 38.1281C28.7111 37.9377 29.0344 37.6696 29.2899 37.3425C29.5455 37.0153 29.7272 36.6368 29.8227 36.2327C29.9181 35.8287 29.9251 35.4089 29.843 35.0019C29.1376 31.7405 27.3315 28.8211 24.728 26.7339C22.1014 24.6427 18.8427 23.5048 15.4852 23.5066C12.1278 23.5085 8.87034 24.6498 6.24599 26.7439C3.63387 28.822 1.82018 31.739 1.11199 35.0009C1.02716 35.4135 1.03426 35.8396 1.13279 36.2491C1.23132 36.6586 1.41885 37.0413 1.68205 37.3701C1.94526 37.6989 2.27767 37.9656 2.65565 38.1514C3.03363 38.3372 3.44789 38.4374 3.86899 38.4449H7.70699V32.8449C7.71238 32.732 7.76103 32.6255 7.84287 32.5474C7.9247 32.4694 8.03342 32.4259 8.14649 32.4259C8.25955 32.4259 8.36828 32.4694 8.45011 32.5474C8.53194 32.6255 8.5806 32.732 8.58599 32.8449V38.4449L22.503 38.4459ZM16.674 11.9629C16.6734 12.2317 16.5796 12.4919 16.4087 12.6993C16.2378 12.9067 16.0003 13.0484 15.7366 13.1003C15.4729 13.1523 15.1994 13.1112 14.9626 12.9842C14.7258 12.8571 14.5403 12.6519 14.4378 12.4035C14.3353 12.155 14.3221 11.8788 14.4004 11.6217C14.4787 11.3646 14.6437 11.1426 14.8673 10.9935C15.0909 10.8444 15.3592 10.7774 15.6266 10.8039C15.8941 10.8304 16.144 10.9488 16.334 11.1389C16.5521 11.3577 16.6744 11.654 16.674 11.9629ZM17.555 11.9629C17.5552 12.3673 17.4354 12.7626 17.2109 13.0989C16.9864 13.4352 16.6672 13.6973 16.2937 13.8521C15.9201 14.007 15.5091 14.0475 15.1125 13.9687C14.7159 13.8899 14.3516 13.6952 14.0657 13.4093C13.7797 13.1233 13.5851 12.759 13.5062 12.3624C13.4274 11.9659 13.4679 11.5548 13.6228 11.1813C13.7776 10.8077 14.0397 10.4885 14.376 10.264C14.7123 10.0395 15.1076 9.91973 15.512 9.91993C15.7803 9.9198 16.046 9.97255 16.294 10.0752C16.5419 10.1778 16.7672 10.3283 16.9569 10.518C17.1466 10.7078 17.2971 10.933 17.3997 11.1809C17.5024 11.4289 17.5551 11.6946 17.555 11.9629Z" fill="#ED1C24"/>
</svg>
