<svg width="62" height="59" viewBox="0 0 62 59" fill="none" xmlns="http://www.w3.org/2000/svg">
<path d="M56.076 26.3941H54.657C54.3691 26.3853 54.0824 26.4344 53.8139 26.5385C53.5454 26.6426 53.3005 26.7996 53.0938 27.0001C52.887 27.2006 52.7227 27.4406 52.6105 27.7058C52.4982 27.971 52.4404 28.2561 52.4404 28.5441C52.4404 28.8321 52.4982 29.1171 52.6105 29.3823C52.7227 29.6476 52.887 29.8876 53.0938 30.0881C53.3005 30.2886 53.5454 30.4455 53.8139 30.5496C54.0824 30.6537 54.3691 30.7028 54.657 30.6941H56.076C56.2698 30.6941 56.4558 30.7711 56.5929 30.9082C56.7299 31.0453 56.807 31.2312 56.807 31.4251V53.6201C56.807 53.8139 56.7299 53.9999 56.5929 54.137C56.4558 54.274 56.2698 54.3511 56.076 54.3511H5.92397C5.73009 54.3511 5.54416 54.274 5.40707 54.137C5.26998 53.9999 5.19297 53.8139 5.19297 53.6201V31.4261C5.19297 31.2322 5.26998 31.0463 5.40707 30.9092C5.54416 30.7721 5.73009 30.6951 5.92397 30.6951H26.699C26.9868 30.7038 27.2735 30.6547 27.542 30.5506C27.8106 30.4465 28.0554 30.2896 28.2622 30.0891C28.4689 29.8886 28.6332 29.6486 28.7455 29.3833C28.8577 29.1181 28.9156 28.8331 28.9156 28.5451C28.9156 28.2571 28.8577 27.972 28.7455 27.7068C28.6332 27.4416 28.4689 27.2016 28.2622 27.0011C28.0554 26.8006 27.8106 26.6436 27.542 26.5395C27.2735 26.4354 26.9868 26.3863 26.699 26.3951H5.92397C4.58957 26.3951 3.30981 26.9251 2.36616 27.8686C1.42251 28.812 0.892233 30.0917 0.891968 31.4261V53.6201C0.891968 54.9546 1.42212 56.2345 2.36581 57.1782C3.30949 58.1219 4.5894 58.6521 5.92397 58.6521H56.076C57.4105 58.6521 58.6904 58.1219 59.6341 57.1782C60.5778 56.2345 61.108 54.9546 61.108 53.6201V31.4261C61.108 30.0915 60.5778 28.8116 59.6341 27.8679C58.6904 26.9242 57.4105 26.3941 56.076 26.3941Z" fill="#EF233C"/>
<path d="M33.796 39.5551C34.0994 39.7189 34.4403 39.8006 34.785 39.7921C35.1452 39.7939 35.5 39.7052 35.817 39.5341L42.591 35.7491C42.9682 35.5439 43.2754 35.2304 43.473 34.8491L55.259 11.9031L56.227 12.3981C56.4746 12.5269 56.6625 12.747 56.7508 13.0118C56.839 13.2767 56.8208 13.5654 56.7 13.8171L53.238 20.5481C53.0017 21.0529 52.9707 21.6297 53.1515 22.1569C53.3324 22.6842 53.7108 23.1206 54.2072 23.3741C54.7035 23.6277 55.2789 23.6786 55.8121 23.5161C56.3452 23.3536 56.7945 22.9904 57.065 22.5031L60.506 15.7931C61.1555 14.5292 61.2781 13.0595 60.8471 11.7055C60.4161 10.3514 59.4665 9.22304 58.206 8.56708L56.806 7.90308C57.0234 6.40377 56.7011 4.87598 55.8965 3.5923C55.0919 2.30862 53.8574 1.35257 52.4132 0.894727C50.9691 0.436888 49.4092 0.507048 48.012 1.09269C46.6148 1.67833 45.4711 2.74135 44.785 4.09208L31.989 28.9531C31.7981 29.3316 31.7233 29.7582 31.774 30.1791L32.634 37.9001C32.6769 38.2501 32.8053 38.5843 33.0077 38.873C33.2102 39.1618 33.4805 39.3964 33.795 39.5561L33.796 39.5551ZM48.596 6.04908C48.8721 5.55498 49.3286 5.18679 49.87 5.02152C50.4113 4.85624 50.9956 4.90668 51.5007 5.16229C52.0057 5.41791 52.3923 5.85889 52.5797 6.393C52.767 6.92711 52.7406 7.51298 52.506 8.02808L40.033 32.3031L36.633 34.1961L36.203 30.3461L48.596 6.04908Z" fill="#EF233C"/>
<path d="M11.645 41.4471H26.694C27.2529 41.4301 27.7831 41.1961 28.1724 40.7947C28.5617 40.3934 28.7794 39.8562 28.7794 39.2971C28.7794 38.738 28.5617 38.2008 28.1724 37.7995C27.7831 37.3982 27.2529 37.1642 26.694 37.1471H11.645C11.3571 37.1383 11.0704 37.1875 10.8019 37.2915C10.5334 37.3956 10.2885 37.5526 10.0818 37.7531C9.87506 37.9536 9.71071 38.1936 9.59847 38.4588C9.48624 38.7241 9.42841 39.0091 9.42841 39.2971C9.42841 39.5851 9.48624 39.8702 9.59847 40.1354C9.71071 40.4006 9.87506 40.6406 10.0818 40.8411C10.2885 41.0416 10.5334 41.1986 10.8019 41.3027C11.0704 41.4068 11.3571 41.4559 11.645 41.4471Z" fill="#EF233C"/>
<path d="M11.645 47.898H46.054C46.3419 47.9068 46.6285 47.8577 46.8971 47.7536C47.1656 47.6495 47.4105 47.4926 47.6172 47.292C47.8239 47.0915 47.9883 46.8515 48.1005 46.5863C48.2127 46.3211 48.2706 46.036 48.2706 45.748C48.2706 45.4601 48.2127 45.175 48.1005 44.9098C47.9883 44.6445 47.8239 44.4046 47.6172 44.204C47.4105 44.0035 47.1656 43.8466 46.8971 43.7425C46.6285 43.6384 46.3419 43.5893 46.054 43.598H11.645C11.3571 43.5893 11.0704 43.6384 10.8019 43.7425C10.5334 43.8466 10.2885 44.0035 10.0818 44.204C9.87506 44.4046 9.71071 44.6445 9.59847 44.9098C9.48624 45.175 9.42841 45.4601 9.42841 45.748C9.42841 46.036 9.48624 46.3211 9.59847 46.5863C9.71071 46.8515 9.87506 47.0915 10.0818 47.292C10.2885 47.4926 10.5334 47.6495 10.8019 47.7536C11.0704 47.8577 11.3571 47.9068 11.645 47.898Z" fill="#EF233C"/>
</svg>
