<svg version="1.1" id="icons" xmlns="http://www.w3.org/2000/svg" x="0" y="0" viewBox="0 0 64 64" style="enable-background:new 0 0 64 64" xml:space="preserve"><style>.st0{display:none}.st1,.st2{display:inline;fill:#d1d3d4}.st2{fill:#fff}.st3{fill:#f1f2f2}.st3,.st4,.st5{display:inline}.st4{fill:none;stroke:#414042;stroke-miterlimit:10}.st5{fill:#414042}.st6{fill:none;stroke:#f5ab35;stroke-miterlimit:10}.st6,.st7{display:inline}.st8{fill:#36d7b7}.st9{fill:#86e7d4}.st10{fill:#5edfc5}.st12,.st13,.st14{display:inline;fill:#bcbec0}.st13,.st14{fill:#f5ab35}.st14{fill:#36d7b7}.st15{fill:#f1f2f2}.st16{fill:#d1d3d4}.st17{fill:none;stroke:#414042;stroke-miterlimit:10}.st18{fill:#fff}.st19{fill:#f5ab35}.st20{fill:#29a189}.st21,.st22{display:inline}.st21{fill:none;stroke:#414042;stroke-miterlimit:10;stroke-dasharray:1}.st22{fill:#e6e7e8}.st23{fill:#f9cd86}.st24{display:inline;fill:#29a189}.st25,.st26,.st27{display:inline;fill:#f9cd86}.st26,.st27{fill:#5edfc5}.st27{fill:#f7bc5d}.st28{fill:#bcbec0}.st29{fill:#e6e7e8}.st30{fill:#939598}.st31{display:inline;fill:#a7a9ac}.st32{fill:#58595b}.st33{fill:#414042}.st36{fill:#a7a9ac}.st40{display:inline;fill:#b88028}</style><g id="XMLID_125_"><path id="XMLID_135_" class="st15" d="M26.1 45.1h11.4v6.7H26.1z"/><path id="XMLID_134_" class="st16" d="M26.1 45.1h11.4v3.4H26.1z"/><path id="XMLID_133_" class="st17" d="M26.1 45.1h11.4v6.7H26.1z"/><path id="XMLID_132_" class="st16" d="M12.9 19.2h37.7v22.4H12.9z"/><path id="XMLID_131_" class="st18" d="M14.9 21.4h33.7v17.7H14.9z"/><path id="XMLID_103_" class="st10" d="M14.9 21.4h15.6v8.9H14.9z"/><path id="XMLID_124_" class="st18" d="M14.9 21.4h15.6v1.3H14.9z"/><path id="XMLID_113_" class="st19" d="M14.9 34.8h15.6v4.3H14.9z"/><path id="XMLID_130_" class="st18" d="M12.9 40.8h37.7v5.1H12.9z"/><path id="XMLID_129_" class="st17" d="M13.3 40.8h37v5.1h-37z"/><path id="XMLID_127_" class="st17" d="M23.9 51.9h15.9"/><path id="XMLID_102_" class="st17" d="M31.4 22.1V20l6.2-.1 4.9 10h3.1"/><g id="XMLID_100_"><path id="XMLID_99_" class="st8" d="M29.3 21.8h4.1v16.8h-4.1z"/><path id="XMLID_101_" class="st20" d="M29.3 21.8h1.3v16.8h-1.3z"/><path id="XMLID_105_" class="st17" d="M29.3 21.8h4.1v16.8h-4.1z"/></g><path id="XMLID_104_" class="st19" d="m52.5 31.4-8.5-.2c-.3 0-.4-2.3-.1-2.3l8.6-.4c.6 0 1.1.3 1.1.8v1.4c0 .4-.5.7-1.1.7z"/><path id="XMLID_106_" class="st17" d="M43.8 27.8V32"/><g id="XMLID_849_"><path id="XMLID_851_" class="st17" d="m22.8 24.9 1.8 1.8"/><path id="XMLID_850_" class="st17" d="m22.8 26.7 1.8-1.8"/></g><g id="XMLID_117_"><path id="XMLID_120_" class="st17" d="m10.4 31.6 1.8 1.8"/><path id="XMLID_118_" class="st17" d="m10.4 33.4 1.8-1.8"/></g><g id="XMLID_114_"><path id="XMLID_116_" class="st17" d="m28.3 14.9 1.8 1.8"/><path id="XMLID_115_" class="st17" d="m28.3 16.7 1.8-1.8"/></g><g id="XMLID_107_"><path id="XMLID_109_" class="st17" d="m14.6 22.9 2.9 2.9"/><path id="XMLID_108_" class="st17" d="m14.6 25.8 2.9-2.9"/></g><g id="XMLID_121_"><path id="XMLID_123_" class="st17" d="m17.9 33.7 2.9 2.9"/><path id="XMLID_122_" class="st17" d="m17.9 36.6 2.9-2.9"/></g><g id="XMLID_110_"><path id="XMLID_112_" class="st17" d="m16.1 12.1 3.7 3.7"/><path id="XMLID_111_" class="st17" d="m16.1 15.8 3.7-3.7"/></g></g></svg>