<svg width="45" height="45" viewBox="0 0 45 45" fill="none" xmlns="http://www.w3.org/2000/svg">
<path d="M3.51386 1.40259C2.35744 1.40259 1.40723 2.35962 1.40723 3.51605V41.4834C1.40723 42.6399 2.35742 43.5901 3.51386 43.5901H30.234C31.3904 43.5901 32.342 42.6399 32.342 41.4834V37.9692C32.342 37.0308 30.9344 37.0308 30.9344 37.9692V41.4834C30.9344 41.8851 30.6356 42.1838 30.234 42.1838H3.51386C3.11216 42.1838 2.81347 41.8851 2.81348 41.4834V3.51605C2.81348 3.11435 3.11214 2.81024 3.51386 2.81024H25.3135V6.32859C25.3135 7.48502 26.265 8.43662 27.4215 8.43662H30.9344V22.4963C30.9344 23.4347 32.342 23.4347 32.342 22.4963V7.73624C32.3427 7.54969 32.2699 7.37036 32.1387 7.23772L26.5124 1.61134C26.3804 1.47873 26.201 1.40405 26.0139 1.40405L3.51386 1.40259ZM26.7211 3.80858L29.9401 7.03035H27.4215C27.0198 7.03035 26.7211 6.73032 26.7211 6.32859V3.80858ZM11.2482 7.03035C10.2903 7.00909 10.2903 8.4573 11.2482 8.43662H21.7951C22.7531 8.45788 22.7531 7.00968 21.7951 7.03035H11.2482ZM6.32773 12.6554H21.7951C22.7531 12.6766 22.7531 11.2284 21.7951 11.2491H6.29408C5.34417 11.3129 5.40956 12.6792 6.32773 12.6554ZM24.6076 12.6554H27.4215C28.3794 12.6766 28.3794 11.2284 27.4215 11.2491H24.574C23.624 11.3129 23.6894 12.6792 24.6076 12.6554ZM6.32773 16.8755H27.4215C28.3794 16.8967 28.3794 15.4485 27.4215 15.4692H6.29408C5.34417 15.5332 5.40956 16.8993 6.32773 16.8755ZM40.4073 18.2831C39.59 18.2831 38.7755 18.5911 38.1551 19.2115L24.1091 33.252C24.0254 33.3375 23.9649 33.4428 23.9333 33.5582L22.5271 38.4787C22.3795 39.0065 22.8658 39.4928 23.3936 39.3452L28.3196 37.939C28.4331 37.906 28.5366 37.8452 28.6203 37.7618L42.665 23.7212C43.9057 22.4805 43.9057 20.452 42.665 19.2113C42.0447 18.591 41.2246 18.2831 40.4073 18.2831ZM40.4073 19.6728C40.8612 19.6728 41.3159 19.8496 41.6694 20.203C42.3764 20.91 42.3764 22.0187 41.6694 22.7257L41.1324 23.2626L38.6097 20.7399L39.1466 20.203C39.5001 19.8495 39.9534 19.6728 40.4073 19.6728ZM6.29408 19.6888C5.39788 19.7959 5.45886 21.0656 6.3277 21.0896H9.1402C10.1043 21.1741 10.186 19.7093 9.17937 19.6874L6.29408 19.6888ZM11.9541 21.0896H27.4215C28.3872 21.1749 28.4676 19.7067 27.4984 19.6861C27.4726 19.6856 27.447 19.6865 27.4215 19.6887H11.9177C11.0166 19.7974 11.0828 21.0712 11.9541 21.0896ZM37.6154 21.7337L38.3803 22.4985L26.3682 34.5121L25.6046 33.7499L37.6154 21.7337ZM39.3746 23.4928L40.1382 24.2577L28.1273 36.2713L27.3624 35.5064L39.3746 23.4928ZM6.32773 23.9034C5.36977 23.8822 5.36977 25.3304 6.32773 25.3097H27.4215C28.3794 25.3309 28.3794 23.8827 27.4215 23.9034H6.32773ZM6.32773 28.1236C5.36977 28.1024 5.36977 29.5505 6.32773 29.5298H18.9812C19.9392 29.5511 19.9392 28.1029 18.9812 28.1236H6.32773ZM21.7951 28.1236C20.8371 28.1024 20.8371 29.5505 21.7951 29.5298H24.6076C25.5656 29.5511 25.5656 28.1029 24.6076 28.1236H21.7951ZM6.32773 33.7486H20.3875C21.3454 33.7699 21.3454 32.3217 20.3875 32.3423H6.29408C5.34417 32.4061 5.40956 33.7725 6.32773 33.7486ZM24.955 35.0916L26.7843 36.9182L24.2286 37.6473L24.955 35.0916ZM6.32773 37.9687H9.14023C10.0982 37.99 10.0982 36.5418 9.14023 36.5625H6.29408C5.34417 36.6265 5.40956 37.9926 6.32773 37.9687ZM11.9541 37.9687H18.9812C19.9392 37.99 19.9392 36.5418 18.9812 36.5625H11.9177C10.9646 36.6294 11.0354 37.9966 11.9541 37.9687Z" fill="#ED1C24"/>
</svg>
