<svg width="278" height="166" viewBox="0 0 278 166" fill="none" xmlns="http://www.w3.org/2000/svg">
<rect width="278" height="166" fill="white"/>
<path d="M18.6574 132.146C18.4654 131.922 18.2094 131.706 17.8894 131.498C17.5694 131.29 17.2094 131.106 16.8094 130.946C16.4094 130.77 15.9694 130.634 15.4894 130.538C15.0254 130.426 14.5374 130.37 14.0254 130.37C12.7134 130.37 11.7454 130.618 11.1214 131.114C10.4974 131.61 10.1854 132.29 10.1854 133.154C10.1854 133.762 10.3454 134.242 10.6654 134.594C10.9854 134.946 11.4734 135.234 12.1294 135.458C12.8014 135.682 13.6494 135.914 14.6734 136.154C15.8574 136.41 16.8814 136.722 17.7454 137.09C18.6094 137.458 19.2734 137.954 19.7374 138.578C20.2014 139.186 20.4334 140.002 20.4334 141.026C20.4334 141.842 20.2734 142.554 19.9534 143.162C19.6494 143.754 19.2174 144.25 18.6574 144.65C18.0974 145.034 17.4414 145.322 16.6894 145.514C15.9374 145.69 15.1214 145.778 14.2414 145.778C13.3774 145.778 12.5294 145.69 11.6974 145.514C10.8814 145.322 10.1054 145.05 9.36941 144.698C8.63341 144.346 7.94541 143.906 7.30541 143.378L8.33741 141.554C8.59341 141.826 8.92141 142.098 9.32141 142.37C9.73741 142.626 10.2014 142.866 10.7134 143.09C11.2414 143.314 11.8094 143.498 12.4174 143.642C13.0254 143.77 13.6494 143.834 14.2894 143.834C15.5054 143.834 16.4494 143.618 17.1214 143.186C17.7934 142.738 18.1294 142.09 18.1294 141.242C18.1294 140.602 17.9374 140.09 17.5534 139.706C17.1854 139.322 16.6334 139.002 15.8974 138.746C15.1614 138.49 14.2654 138.234 13.2094 137.978C12.0574 137.69 11.0894 137.378 10.3054 137.042C9.52141 136.69 8.92941 136.234 8.52941 135.674C8.14541 135.114 7.95341 134.386 7.95341 133.49C7.95341 132.402 8.21741 131.482 8.74541 130.73C9.27341 129.978 10.0014 129.41 10.9294 129.026C11.8574 128.642 12.9054 128.45 14.0734 128.45C14.8414 128.45 15.5534 128.53 16.2094 128.69C16.8814 128.85 17.5054 129.074 18.0814 129.362C18.6574 129.65 19.1854 129.994 19.6654 130.394L18.6574 132.146ZM22.8184 140.594V133.082H24.9304V140.186C24.9304 141.466 25.1544 142.426 25.6024 143.066C26.0504 143.706 26.7144 144.026 27.5944 144.026C28.1704 144.026 28.7224 143.906 29.2504 143.666C29.7944 143.41 30.2824 143.05 30.7144 142.586C31.1464 142.122 31.4824 141.57 31.7224 140.93V133.082H33.8344V143.21C33.8344 143.466 33.8824 143.658 33.9784 143.786C34.0904 143.898 34.2664 143.962 34.5064 143.978V145.61C34.2664 145.642 34.0744 145.658 33.9304 145.658C33.8024 145.674 33.6744 145.682 33.5464 145.682C33.1464 145.682 32.8024 145.562 32.5144 145.322C32.2264 145.066 32.0744 144.754 32.0584 144.386L32.0104 142.922C31.4664 143.85 30.7304 144.57 29.8024 145.082C28.8904 145.594 27.8904 145.85 26.8024 145.85C25.4904 145.85 24.4984 145.41 23.8264 144.53C23.1544 143.634 22.8184 142.322 22.8184 140.594ZM44.0965 145.85C43.0725 145.85 42.1605 145.594 41.3605 145.082C40.5605 144.57 39.9285 143.922 39.4645 143.138V150.722H37.3525V133.082H39.2245V135.434C39.7205 134.666 40.3685 134.05 41.1685 133.586C41.9685 133.106 42.8405 132.866 43.7845 132.866C44.6485 132.866 45.4405 133.042 46.1605 133.394C46.8805 133.746 47.5045 134.226 48.0325 134.834C48.5605 135.442 48.9685 136.138 49.2565 136.922C49.5605 137.69 49.7125 138.498 49.7125 139.346C49.7125 140.53 49.4725 141.618 48.9925 142.61C48.5285 143.602 47.8725 144.394 47.0245 144.986C46.1765 145.562 45.2005 145.85 44.0965 145.85ZM43.4485 144.026C44.0725 144.026 44.6325 143.898 45.1285 143.642C45.6405 143.37 46.0725 143.018 46.4245 142.586C46.7925 142.138 47.0725 141.634 47.2645 141.074C47.4565 140.514 47.5525 139.938 47.5525 139.346C47.5525 138.722 47.4405 138.13 47.2165 137.57C47.0085 137.01 46.7045 136.514 46.3045 136.082C45.9205 135.65 45.4645 135.314 44.9365 135.074C44.4245 134.818 43.8645 134.69 43.2565 134.69C42.8725 134.69 42.4725 134.762 42.0565 134.906C41.6565 135.05 41.2725 135.258 40.9045 135.53C40.5365 135.786 40.2245 136.082 39.9685 136.418C39.7125 136.754 39.5445 137.114 39.4645 137.498V141.074C39.7045 141.618 40.0245 142.114 40.4245 142.562C40.8245 143.01 41.2885 143.37 41.8165 143.642C42.3445 143.898 42.8885 144.026 43.4485 144.026ZM59.0496 145.85C58.0256 145.85 57.1136 145.594 56.3136 145.082C55.5136 144.57 54.8816 143.922 54.4176 143.138V150.722H52.3056V133.082H54.1776V135.434C54.6736 134.666 55.3216 134.05 56.1216 133.586C56.9216 133.106 57.7936 132.866 58.7376 132.866C59.6016 132.866 60.3936 133.042 61.1136 133.394C61.8336 133.746 62.4576 134.226 62.9856 134.834C63.5136 135.442 63.9216 136.138 64.2096 136.922C64.5136 137.69 64.6656 138.498 64.6656 139.346C64.6656 140.53 64.4256 141.618 63.9456 142.61C63.4816 143.602 62.8256 144.394 61.9776 144.986C61.1296 145.562 60.1536 145.85 59.0496 145.85ZM58.4016 144.026C59.0256 144.026 59.5856 143.898 60.0816 143.642C60.5936 143.37 61.0256 143.018 61.3776 142.586C61.7456 142.138 62.0256 141.634 62.2176 141.074C62.4096 140.514 62.5056 139.938 62.5056 139.346C62.5056 138.722 62.3936 138.13 62.1696 137.57C61.9616 137.01 61.6576 136.514 61.2576 136.082C60.8736 135.65 60.4176 135.314 59.8896 135.074C59.3776 134.818 58.8176 134.69 58.2096 134.69C57.8256 134.69 57.4256 134.762 57.0096 134.906C56.6096 135.05 56.2256 135.258 55.8576 135.53C55.4896 135.786 55.1776 136.082 54.9216 136.418C54.6656 136.754 54.4976 137.114 54.4176 137.498V141.074C54.6576 141.618 54.9776 142.114 55.3776 142.562C55.7776 143.01 56.2416 143.37 56.7696 143.642C57.2976 143.898 57.8416 144.026 58.4016 144.026ZM72.7307 145.85C71.7867 145.85 70.9307 145.682 70.1627 145.346C69.3947 144.994 68.7307 144.522 68.1707 143.93C67.6107 143.322 67.1787 142.626 66.8747 141.842C66.5707 141.058 66.4187 140.234 66.4187 139.37C66.4187 138.49 66.5707 137.658 66.8747 136.874C67.1787 136.09 67.6107 135.402 68.1707 134.81C68.7307 134.202 69.3947 133.73 70.1627 133.394C70.9467 133.042 71.8027 132.866 72.7307 132.866C73.6747 132.866 74.5307 133.042 75.2987 133.394C76.0667 133.73 76.7307 134.202 77.2907 134.81C77.8667 135.402 78.3067 136.09 78.6107 136.874C78.9147 137.658 79.0667 138.49 79.0667 139.37C79.0667 140.234 78.9147 141.058 78.6107 141.842C78.3067 142.626 77.8747 143.322 77.3147 143.93C76.7547 144.522 76.0827 144.994 75.2987 145.346C74.5307 145.682 73.6747 145.85 72.7307 145.85ZM68.5787 139.394C68.5787 140.258 68.7627 141.042 69.1307 141.746C69.5147 142.45 70.0187 143.01 70.6427 143.426C71.2667 143.826 71.9627 144.026 72.7307 144.026C73.4987 144.026 74.1947 143.818 74.8187 143.402C75.4587 142.986 75.9627 142.426 76.3307 141.722C76.7147 141.002 76.9067 140.21 76.9067 139.346C76.9067 138.482 76.7147 137.698 76.3307 136.994C75.9627 136.29 75.4587 135.73 74.8187 135.314C74.1947 134.898 73.4987 134.69 72.7307 134.69C71.9627 134.69 71.2667 134.906 70.6427 135.338C70.0187 135.754 69.5147 136.314 69.1307 137.018C68.7627 137.722 68.5787 138.514 68.5787 139.394ZM88.2499 134.93C87.1939 134.946 86.2579 135.218 85.4419 135.746C84.6419 136.258 84.0739 136.97 83.7379 137.882V145.61H81.6259V133.082H83.5939V135.986C84.0259 135.122 84.5939 134.426 85.2979 133.898C86.0179 133.354 86.7699 133.05 87.5539 132.986C87.7139 132.986 87.8499 132.986 87.9619 132.986C88.0739 132.986 88.1699 132.994 88.2499 133.01V134.93ZM96.8247 144.986C96.6487 145.066 96.4087 145.17 96.1047 145.298C95.8007 145.426 95.4487 145.538 95.0487 145.634C94.6487 145.73 94.2247 145.778 93.7767 145.778C93.2647 145.778 92.7927 145.69 92.3607 145.514C91.9287 145.322 91.5847 145.034 91.3287 144.65C91.0727 144.25 90.9447 143.754 90.9447 143.162V134.738H89.2407V133.082H90.9447V128.906H93.0567V133.082H95.8647V134.738H93.0567V142.514C93.0887 142.962 93.2407 143.298 93.5127 143.522C93.7847 143.73 94.1047 143.834 94.4727 143.834C94.8887 143.834 95.2727 143.762 95.6247 143.618C95.9767 143.474 96.2087 143.37 96.3207 143.306L96.8247 144.986ZM116.588 145.61L108.236 136.802C107.548 136.066 106.996 135.442 106.58 134.93C106.18 134.402 105.892 133.93 105.716 133.514C105.54 133.082 105.452 132.642 105.452 132.194C105.452 131.458 105.644 130.802 106.028 130.226C106.412 129.65 106.932 129.194 107.588 128.858C108.26 128.522 109.012 128.354 109.844 128.354C110.612 128.354 111.308 128.498 111.932 128.786C112.556 129.058 113.052 129.458 113.42 129.986C113.804 130.498 113.996 131.114 113.996 131.834C113.996 132.57 113.796 133.226 113.396 133.802C112.996 134.362 112.468 134.89 111.812 135.386C111.172 135.866 110.46 136.354 109.676 136.85C109.036 137.266 108.452 137.69 107.924 138.122C107.412 138.554 107.004 139.018 106.7 139.514C106.412 139.994 106.268 140.53 106.268 141.122C106.268 141.762 106.444 142.314 106.796 142.778C107.148 143.226 107.604 143.57 108.164 143.81C108.74 144.05 109.34 144.17 109.964 144.17C110.78 144.17 111.54 143.986 112.244 143.618C112.948 143.234 113.564 142.706 114.092 142.034C114.636 141.362 115.052 140.586 115.34 139.706C115.644 138.81 115.796 137.85 115.796 136.826H117.548C117.548 138.138 117.34 139.346 116.924 140.45C116.524 141.538 115.964 142.49 115.244 143.306C114.54 144.106 113.716 144.73 112.772 145.178C111.828 145.626 110.82 145.85 109.748 145.85C108.708 145.85 107.764 145.642 106.916 145.226C106.084 144.81 105.428 144.25 104.948 143.546C104.468 142.826 104.228 142.01 104.228 141.098C104.228 140.218 104.428 139.45 104.828 138.794C105.244 138.122 105.772 137.53 106.412 137.018C107.068 136.49 107.74 136.01 108.428 135.578C109.132 135.13 109.756 134.722 110.3 134.354C110.844 133.97 111.268 133.578 111.572 133.178C111.892 132.778 112.052 132.346 112.052 131.882C112.052 131.322 111.844 130.866 111.428 130.514C111.012 130.146 110.484 129.962 109.844 129.962C109.364 129.962 108.94 130.066 108.572 130.274C108.204 130.466 107.916 130.73 107.708 131.066C107.5 131.386 107.396 131.746 107.396 132.146C107.396 132.402 107.46 132.666 107.588 132.938C107.716 133.21 107.956 133.554 108.308 133.97C108.676 134.386 109.188 134.946 109.844 135.65L119.372 145.61H116.588ZM142.331 145.61V132.602L136.715 142.61H135.395L129.755 132.602V145.61H127.595V128.57H129.875L136.043 139.634L142.235 128.57H144.491V145.61H142.331ZM147.134 141.986C147.134 141.186 147.358 140.498 147.806 139.922C148.27 139.33 148.902 138.874 149.702 138.554C150.502 138.234 151.43 138.074 152.486 138.074C153.046 138.074 153.638 138.122 154.262 138.218C154.886 138.298 155.438 138.426 155.918 138.602V137.69C155.918 136.73 155.63 135.978 155.054 135.434C154.478 134.874 153.662 134.594 152.606 134.594C151.918 134.594 151.254 134.722 150.614 134.978C149.99 135.218 149.326 135.57 148.622 136.034L147.854 134.546C148.67 133.986 149.486 133.57 150.302 133.298C151.118 133.01 151.966 132.866 152.846 132.866C154.446 132.866 155.71 133.314 156.638 134.21C157.566 135.09 158.03 136.322 158.03 137.906V143.21C158.03 143.466 158.078 143.658 158.174 143.786C158.286 143.898 158.462 143.962 158.702 143.978V145.61C158.494 145.642 158.31 145.666 158.15 145.682C158.006 145.698 157.886 145.706 157.79 145.706C157.294 145.706 156.918 145.57 156.662 145.298C156.422 145.026 156.286 144.738 156.254 144.434L156.206 143.642C155.662 144.346 154.95 144.89 154.07 145.274C153.19 145.658 152.318 145.85 151.454 145.85C150.622 145.85 149.878 145.682 149.222 145.346C148.566 144.994 148.054 144.53 147.686 143.954C147.318 143.362 147.134 142.706 147.134 141.986ZM155.294 142.874C155.486 142.65 155.638 142.426 155.75 142.202C155.862 141.962 155.918 141.762 155.918 141.602V140.042C155.422 139.85 154.902 139.706 154.358 139.61C153.814 139.498 153.278 139.442 152.75 139.442C151.678 139.442 150.806 139.658 150.134 140.09C149.478 140.506 149.15 141.082 149.15 141.818C149.15 142.218 149.254 142.61 149.462 142.994C149.686 143.362 150.006 143.666 150.422 143.906C150.854 144.146 151.382 144.266 152.006 144.266C152.662 144.266 153.286 144.138 153.878 143.882C154.47 143.61 154.942 143.274 155.294 142.874ZM161.407 145.61V133.082H163.519V145.61H161.407ZM161.407 130.73V128.09H163.519V130.73H161.407ZM177.81 145.61H175.698V138.602C175.698 137.274 175.49 136.306 175.074 135.698C174.674 135.074 174.058 134.762 173.226 134.762C172.65 134.762 172.074 134.906 171.498 135.194C170.938 135.482 170.434 135.874 169.986 136.37C169.554 136.85 169.242 137.41 169.05 138.05V145.61H166.938V133.082H168.858V135.77C169.194 135.178 169.626 134.666 170.154 134.234C170.682 133.802 171.282 133.466 171.954 133.226C172.626 132.986 173.33 132.866 174.066 132.866C174.786 132.866 175.386 133.002 175.866 133.274C176.362 133.53 176.746 133.898 177.018 134.378C177.306 134.842 177.506 135.394 177.618 136.034C177.746 136.674 177.81 137.37 177.81 138.122V145.61ZM187.457 144.986C187.281 145.066 187.041 145.17 186.737 145.298C186.433 145.426 186.081 145.538 185.681 145.634C185.281 145.73 184.857 145.778 184.409 145.778C183.897 145.778 183.425 145.69 182.993 145.514C182.561 145.322 182.217 145.034 181.961 144.65C181.705 144.25 181.577 143.754 181.577 143.162V134.738H179.873V133.082H181.577V128.906H183.689V133.082H186.497V134.738H183.689V142.514C183.721 142.962 183.873 143.298 184.145 143.522C184.417 143.73 184.737 143.834 185.105 143.834C185.521 143.834 185.905 143.762 186.257 143.618C186.609 143.474 186.841 143.37 186.953 143.306L187.457 144.986ZM194.795 145.85C193.851 145.85 192.987 145.682 192.203 145.346C191.435 144.994 190.763 144.522 190.187 143.93C189.627 143.322 189.187 142.626 188.867 141.842C188.563 141.058 188.411 140.226 188.411 139.346C188.411 138.162 188.683 137.082 189.227 136.106C189.771 135.13 190.523 134.346 191.483 133.754C192.459 133.162 193.571 132.866 194.819 132.866C196.083 132.866 197.179 133.17 198.107 133.778C199.051 134.37 199.779 135.154 200.291 136.13C200.819 137.09 201.083 138.13 201.083 139.25C201.083 139.41 201.075 139.57 201.059 139.73C201.059 139.874 201.051 139.986 201.035 140.066H190.643C190.707 140.882 190.931 141.61 191.315 142.25C191.715 142.874 192.227 143.37 192.851 143.738C193.475 144.09 194.147 144.266 194.867 144.266C195.635 144.266 196.355 144.074 197.027 143.69C197.715 143.306 198.187 142.802 198.443 142.178L200.267 142.682C199.995 143.29 199.587 143.834 199.043 144.314C198.515 144.794 197.883 145.17 197.147 145.442C196.427 145.714 195.643 145.85 194.795 145.85ZM190.571 138.602H199.115C199.051 137.786 198.819 137.066 198.419 136.442C198.019 135.818 197.507 135.33 196.883 134.978C196.259 134.626 195.571 134.45 194.819 134.45C194.083 134.45 193.403 134.626 192.779 134.978C192.155 135.33 191.643 135.818 191.243 136.442C190.859 137.066 190.635 137.786 190.571 138.602ZM214.303 145.61H212.191V138.602C212.191 137.274 211.983 136.306 211.567 135.698C211.167 135.074 210.551 134.762 209.719 134.762C209.143 134.762 208.567 134.906 207.991 135.194C207.431 135.482 206.927 135.874 206.479 136.37C206.047 136.85 205.735 137.41 205.543 138.05V145.61H203.431V133.082H205.351V135.77C205.687 135.178 206.119 134.666 206.647 134.234C207.175 133.802 207.775 133.466 208.447 133.226C209.119 132.986 209.823 132.866 210.559 132.866C211.279 132.866 211.879 133.002 212.359 133.274C212.855 133.53 213.239 133.898 213.511 134.378C213.799 134.842 213.999 135.394 214.111 136.034C214.239 136.674 214.303 137.37 214.303 138.122V145.61ZM216.603 141.986C216.603 141.186 216.827 140.498 217.275 139.922C217.739 139.33 218.371 138.874 219.171 138.554C219.971 138.234 220.899 138.074 221.955 138.074C222.515 138.074 223.107 138.122 223.731 138.218C224.355 138.298 224.907 138.426 225.387 138.602V137.69C225.387 136.73 225.099 135.978 224.523 135.434C223.947 134.874 223.131 134.594 222.075 134.594C221.387 134.594 220.723 134.722 220.083 134.978C219.459 135.218 218.795 135.57 218.091 136.034L217.323 134.546C218.139 133.986 218.955 133.57 219.771 133.298C220.587 133.01 221.435 132.866 222.315 132.866C223.915 132.866 225.179 133.314 226.107 134.21C227.035 135.09 227.499 136.322 227.499 137.906V143.21C227.499 143.466 227.547 143.658 227.643 143.786C227.755 143.898 227.931 143.962 228.171 143.978V145.61C227.963 145.642 227.779 145.666 227.619 145.682C227.475 145.698 227.355 145.706 227.259 145.706C226.763 145.706 226.387 145.57 226.131 145.298C225.891 145.026 225.755 144.738 225.723 144.434L225.675 143.642C225.131 144.346 224.419 144.89 223.539 145.274C222.659 145.658 221.787 145.85 220.923 145.85C220.091 145.85 219.347 145.682 218.691 145.346C218.035 144.994 217.523 144.53 217.155 143.954C216.787 143.362 216.603 142.706 216.603 141.986ZM224.763 142.874C224.955 142.65 225.107 142.426 225.219 142.202C225.331 141.962 225.387 141.762 225.387 141.602V140.042C224.891 139.85 224.371 139.706 223.827 139.61C223.283 139.498 222.747 139.442 222.219 139.442C221.147 139.442 220.275 139.658 219.603 140.09C218.947 140.506 218.619 141.082 218.619 141.818C218.619 142.218 218.723 142.61 218.931 142.994C219.155 143.362 219.475 143.666 219.891 143.906C220.323 144.146 220.851 144.266 221.475 144.266C222.131 144.266 222.755 144.138 223.347 143.882C223.939 143.61 224.411 143.274 224.763 142.874ZM241.748 145.61H239.636V138.602C239.636 137.274 239.428 136.306 239.012 135.698C238.612 135.074 237.996 134.762 237.164 134.762C236.588 134.762 236.012 134.906 235.436 135.194C234.876 135.482 234.372 135.874 233.924 136.37C233.492 136.85 233.18 137.41 232.988 138.05V145.61H230.876V133.082H232.796V135.77C233.132 135.178 233.564 134.666 234.092 134.234C234.62 133.802 235.22 133.466 235.892 133.226C236.564 132.986 237.268 132.866 238.004 132.866C238.724 132.866 239.324 133.002 239.804 133.274C240.3 133.53 240.684 133.898 240.956 134.378C241.244 134.842 241.444 135.394 241.556 136.034C241.684 136.674 241.748 137.37 241.748 138.122V145.61ZM250.576 145.85C249.632 145.85 248.768 145.682 247.984 145.346C247.216 144.994 246.544 144.514 245.968 143.906C245.408 143.298 244.968 142.602 244.648 141.818C244.344 141.034 244.192 140.202 244.192 139.322C244.192 138.138 244.456 137.058 244.984 136.082C245.512 135.106 246.256 134.33 247.216 133.754C248.176 133.162 249.288 132.866 250.552 132.866C251.784 132.866 252.856 133.146 253.768 133.706C254.696 134.25 255.384 134.986 255.832 135.914L253.768 136.562C253.448 135.97 253 135.514 252.424 135.194C251.848 134.858 251.208 134.69 250.504 134.69C249.736 134.69 249.032 134.89 248.392 135.29C247.768 135.69 247.272 136.242 246.904 136.946C246.536 137.634 246.352 138.426 246.352 139.322C246.352 140.202 246.536 141.002 246.904 141.722C247.288 142.426 247.792 142.986 248.416 143.402C249.056 143.818 249.76 144.026 250.528 144.026C251.024 144.026 251.496 143.938 251.944 143.762C252.408 143.586 252.808 143.354 253.144 143.066C253.496 142.762 253.736 142.434 253.864 142.082L255.928 142.706C255.672 143.314 255.28 143.858 254.752 144.338C254.24 144.802 253.624 145.17 252.904 145.442C252.2 145.714 251.424 145.85 250.576 145.85ZM263.748 145.85C262.804 145.85 261.94 145.682 261.156 145.346C260.388 144.994 259.716 144.522 259.14 143.93C258.58 143.322 258.14 142.626 257.82 141.842C257.516 141.058 257.364 140.226 257.364 139.346C257.364 138.162 257.636 137.082 258.18 136.106C258.724 135.13 259.476 134.346 260.436 133.754C261.412 133.162 262.524 132.866 263.772 132.866C265.036 132.866 266.132 133.17 267.06 133.778C268.004 134.37 268.732 135.154 269.244 136.13C269.772 137.09 270.036 138.13 270.036 139.25C270.036 139.41 270.028 139.57 270.012 139.73C270.012 139.874 270.004 139.986 269.988 140.066H259.596C259.66 140.882 259.884 141.61 260.268 142.25C260.668 142.874 261.18 143.37 261.804 143.738C262.428 144.09 263.1 144.266 263.82 144.266C264.588 144.266 265.308 144.074 265.98 143.69C266.668 143.306 267.14 142.802 267.396 142.178L269.22 142.682C268.948 143.29 268.54 143.834 267.996 144.314C267.468 144.794 266.836 145.17 266.1 145.442C265.38 145.714 264.596 145.85 263.748 145.85ZM259.524 138.602H268.068C268.004 137.786 267.772 137.066 267.372 136.442C266.972 135.818 266.46 135.33 265.836 134.978C265.212 134.626 264.524 134.45 263.772 134.45C263.036 134.45 262.356 134.626 261.732 134.978C261.108 135.33 260.596 135.818 260.196 136.442C259.812 137.066 259.588 137.786 259.524 138.602Z" fill="#ED1C24"/>
<path d="M137.813 36.6411C133.963 36.6411 130.199 37.7829 126.997 39.9222C123.795 42.0614 121.3 45.102 119.827 48.6595C118.353 52.2169 117.967 56.1315 118.719 59.908C119.47 63.6846 121.324 67.1536 124.047 69.8763C126.77 72.5991 130.239 74.4533 134.015 75.2045C137.792 75.9557 141.706 75.5702 145.264 74.0966C148.821 72.6231 151.862 70.1277 154.001 66.9261C156.14 63.7245 157.282 59.9604 157.282 56.1099C157.276 50.9482 155.223 45.9996 151.573 42.3498C147.924 38.6999 142.975 36.6469 137.813 36.6411ZM140.779 65.9413V72.5178C138.818 72.8908 136.803 72.8905 134.842 72.517V65.9413C134.842 65.6815 134.769 65.4269 134.632 65.2063C134.495 64.9857 134.298 64.808 134.065 64.6933C132.745 64.051 131.613 63.08 130.776 61.8737C129.94 60.6673 129.428 59.2661 129.289 57.8047C129.151 56.3433 129.39 54.8709 129.985 53.5288C130.58 52.1868 131.51 51.0202 132.685 50.1413V57.5005C132.685 57.6831 132.721 57.864 132.791 58.0327C132.861 58.2015 132.963 58.3548 133.093 58.4839C133.222 58.6131 133.375 58.7155 133.544 58.7854C133.713 58.8552 133.893 58.8912 134.076 58.8911H141.544C141.727 58.8912 141.907 58.8552 142.076 58.7854C142.245 58.7155 142.398 58.6131 142.527 58.4839C142.656 58.3548 142.759 58.2015 142.829 58.0327C142.899 57.864 142.935 57.6831 142.935 57.5005V50.1257C144.114 51.0035 145.048 52.1707 145.646 53.5145C146.243 54.8583 146.484 56.3334 146.346 57.7975C146.207 59.2616 145.694 60.6653 144.855 61.8732C144.016 63.0811 142.88 64.0523 141.556 64.6933C141.323 64.808 141.127 64.9857 140.989 65.2063C140.852 65.4269 140.779 65.6815 140.779 65.9413ZM143.561 71.7561V66.7704C145.389 65.6993 146.88 64.1372 147.865 62.2614C148.85 60.3856 149.29 58.2712 149.135 56.1581C148.979 54.045 148.234 52.0179 146.984 50.3067C145.735 48.5956 144.031 47.2689 142.065 46.4773C141.854 46.392 141.626 46.3597 141.399 46.3835C141.173 46.4072 140.955 46.4861 140.767 46.6134C140.578 46.7406 140.423 46.9123 140.316 47.1133C140.209 47.3143 140.153 47.5384 140.153 47.7661V56.1099H135.467V47.7797C135.467 47.552 135.411 47.3279 135.304 47.1269C135.197 46.9259 135.042 46.7542 134.853 46.627C134.664 46.4997 134.447 46.4208 134.221 46.3971C133.994 46.3733 133.766 46.4056 133.555 46.4909C131.593 47.2843 129.892 48.6111 128.646 50.321C127.399 52.0309 126.656 54.0556 126.5 56.1661C126.345 58.2765 126.783 60.3883 127.766 62.2624C128.749 64.1365 130.236 65.6981 132.061 66.7704V71.7541C128.382 70.403 125.295 67.8 123.343 64.4014C121.391 61.0028 120.697 57.0255 121.384 53.1666C122.07 49.3078 124.093 45.8137 127.098 43.2969C130.102 40.7801 133.897 39.4012 137.816 39.4018C141.736 39.4025 145.53 40.7827 148.533 43.3005C151.537 45.8184 153.559 49.3131 154.244 53.1722C154.929 57.0312 154.234 61.0083 152.281 64.4063C150.327 67.8042 147.24 70.4062 143.561 71.7561Z" fill="#ED1C24"/>
<path d="M162.09 63.819C162.159 63.55 162.314 63.3109 162.531 63.1371C162.748 62.9634 163.015 62.8643 163.293 62.8548H165.099C165.422 62.8547 165.734 62.7425 165.983 62.5374C166.232 62.3323 166.402 62.0469 166.464 61.7303C167.201 58.0197 167.201 54.2004 166.464 50.4899C166.402 50.1732 166.232 49.8879 165.983 49.6828C165.734 49.4776 165.422 49.3654 165.099 49.3654H163.293C163.015 49.3559 162.748 49.2569 162.531 49.0833C162.314 48.9097 162.16 48.6707 162.09 48.4019C161.65 47.0232 161.094 45.6845 160.427 44.4004C160.286 44.1605 160.226 43.8813 160.257 43.6046C160.287 43.3278 160.407 43.0684 160.597 42.8652L161.882 41.5812C162.11 41.3529 162.251 41.0525 162.282 40.7313C162.313 40.4101 162.232 40.0881 162.052 39.8205C159.942 36.6808 157.243 33.9809 154.103 31.8712C153.835 31.6915 153.513 31.6103 153.192 31.6414C152.872 31.6724 152.571 31.8139 152.343 32.0417L151.058 33.3264C150.855 33.5165 150.595 33.6358 150.319 33.6664C150.042 33.6969 149.762 33.6372 149.522 33.4961C148.239 32.8291 146.9 32.273 145.522 31.8339C145.253 31.764 145.014 31.609 144.84 31.3922C144.667 31.1754 144.568 30.9082 144.559 30.6307V28.8245C144.559 28.5019 144.447 28.1892 144.241 27.9402C144.036 27.6912 143.751 27.5213 143.434 27.4597C139.723 26.7263 135.904 26.7263 132.192 27.4597C131.876 27.5213 131.59 27.6912 131.385 27.9402C131.18 28.1892 131.068 28.5019 131.068 28.8245V30.6307C131.059 30.9082 130.96 31.1754 130.786 31.3922C130.613 31.609 130.374 31.764 130.105 31.8339C128.727 32.273 127.388 32.8291 126.104 33.4961C125.864 33.6371 125.585 33.6968 125.308 33.6662C125.031 33.6356 124.772 33.5164 124.568 33.3264L123.284 32.0417C123.055 31.8139 122.755 31.6724 122.434 31.6413C122.113 31.6102 121.791 31.6915 121.524 31.8712C118.384 33.9809 115.684 36.6807 113.575 39.8205C113.395 40.0881 113.313 40.4101 113.344 40.7313C113.375 41.0525 113.517 41.3529 113.745 41.5812L115.03 42.8645C115.22 43.068 115.339 43.3277 115.37 43.6046C115.4 43.8816 115.341 44.161 115.199 44.4012C114.533 45.6849 113.976 47.0231 113.537 48.4012C113.467 48.6702 113.312 48.9093 113.095 49.0831C112.879 49.2568 112.612 49.3559 112.334 49.3654H110.528C110.205 49.3655 109.893 49.4776 109.644 49.6828C109.395 49.8879 109.225 50.1732 109.163 50.4899C108.426 54.2005 108.426 58.0197 109.163 61.7303C109.225 62.047 109.395 62.3323 109.644 62.5374C109.893 62.7426 110.205 62.8548 110.528 62.8548H112.334C112.612 62.8643 112.879 62.9633 113.095 63.1369C113.312 63.3105 113.467 63.5495 113.537 63.8183C113.976 65.1966 114.532 66.5348 115.199 67.8184C115.341 68.0585 115.401 68.338 115.37 68.6149C115.339 68.8919 115.22 69.1515 115.03 69.355L113.745 70.639C113.517 70.8673 113.375 71.1678 113.344 71.4889C113.313 71.8101 113.395 72.1321 113.575 72.3997C115.685 75.5395 118.384 78.2393 121.524 80.349C121.791 80.5294 122.113 80.611 122.434 80.5799C122.756 80.5488 123.056 80.4069 123.284 80.1785L124.568 78.8938C124.772 78.7042 125.032 78.5852 125.308 78.5546C125.585 78.524 125.864 78.5835 126.104 78.7241C127.388 79.3911 128.727 79.9472 130.105 80.3863C130.374 80.4562 130.613 80.6112 130.786 80.828C130.96 81.0449 131.059 81.312 131.068 81.5895V83.3957C131.068 83.7183 131.18 84.0309 131.385 84.2799C131.591 84.5289 131.876 84.6988 132.193 84.7605C135.904 85.4975 139.723 85.4975 143.434 84.7605C143.751 84.6988 144.036 84.5289 144.241 84.2799C144.447 84.0309 144.559 83.7183 144.559 83.3957V81.5895C144.568 81.3119 144.667 81.0448 144.84 80.828C145.014 80.6111 145.253 80.4562 145.522 80.3863C146.9 79.9472 148.239 79.3911 149.522 78.724C149.763 78.5834 150.042 78.5239 150.319 78.5545C150.595 78.5851 150.855 78.7041 151.058 78.8938L152.343 80.1785C152.571 80.4065 152.871 80.5482 153.193 80.5792C153.514 80.6103 153.835 80.5289 154.103 80.3489C157.243 78.2392 159.942 75.5394 162.052 72.3997C162.232 72.132 162.314 71.8101 162.283 71.4889C162.252 71.1677 162.11 70.8673 161.882 70.639L160.597 69.3556C160.407 69.152 160.287 68.8922 160.257 68.615C160.227 68.3379 160.287 68.0584 160.429 67.8183C161.095 66.5347 161.65 65.1968 162.09 63.819ZM159.439 62.9762C159.048 64.2027 158.554 65.3937 157.961 66.5363C157.547 67.301 157.388 68.1783 157.509 69.0396C157.629 69.9009 158.022 70.7011 158.631 71.3227L159.088 71.779C157.513 73.9193 155.623 75.8093 153.482 77.385L153.025 76.9273C152.404 76.319 151.604 75.9256 150.743 75.8049C149.882 75.6842 149.005 75.8424 148.24 76.2564C147.098 76.8498 145.906 77.3446 144.68 77.7353C143.848 77.9849 143.119 78.4933 142.597 79.1866C142.075 79.8798 141.788 80.7217 141.777 81.5894V82.2263C139.15 82.6324 136.476 82.6324 133.849 82.2263V81.5894C133.839 80.7217 133.552 79.8798 133.03 79.1866C132.508 78.4933 131.778 77.9849 130.947 77.7353C129.72 77.3446 128.529 76.8498 127.386 76.2564C126.622 75.8427 125.745 75.6846 124.884 75.8053C124.023 75.926 123.223 76.3192 122.602 76.9273L122.144 77.3843C120.004 75.8087 118.114 73.9189 116.538 71.779L116.996 71.322C117.604 70.7004 117.997 69.9008 118.118 69.0399C118.239 68.179 118.081 67.302 117.668 66.537C117.074 65.3945 116.578 64.203 116.188 62.9756C115.938 62.1445 115.43 61.4148 114.737 60.8928C114.043 60.3708 113.202 60.0838 112.334 60.0735H111.697C111.29 57.4469 111.29 54.7732 111.697 52.1467H112.334C113.202 52.1364 114.044 51.8493 114.737 51.3271C115.43 50.805 115.939 50.0751 116.188 49.2439C116.579 48.0166 117.074 46.8251 117.668 45.6825C118.081 44.9175 118.239 44.0405 118.118 43.1796C117.997 42.3187 117.604 41.5191 116.996 40.8975L116.538 40.4412C118.114 38.3012 120.004 36.4115 122.144 34.8359L122.602 35.2929C123.224 35.9005 124.023 36.2933 124.884 36.4141C125.745 36.5348 126.622 36.377 127.386 35.9637C128.529 35.3703 129.72 34.8756 130.947 34.4848C131.778 34.2353 132.508 33.7268 133.03 33.0336C133.552 32.3403 133.839 31.4985 133.849 30.6307V29.9938C136.476 29.5878 139.15 29.5878 141.777 29.9938V30.6307C141.788 31.4985 142.075 32.3403 142.597 33.0336C143.119 33.7268 143.848 34.2353 144.68 34.4848C145.906 34.8756 147.098 35.3703 148.24 35.9637C149.005 36.3772 149.882 36.5352 150.743 36.4145C151.604 36.2938 152.403 35.9007 153.025 35.2929L153.482 34.8359C155.622 36.4115 157.512 38.3012 159.088 40.4412L158.631 40.8981C158.023 41.5194 157.629 42.3191 157.509 43.18C157.388 44.0409 157.546 44.9179 157.96 45.6825C158.553 46.8254 159.048 48.0168 159.439 49.2439C159.688 50.075 160.197 50.8054 160.89 51.3274C161.583 51.8494 162.425 52.1364 163.293 52.1467H163.93C164.337 54.7732 164.337 57.4469 163.93 60.0735H163.293C162.425 60.0838 161.583 60.3709 160.89 60.893C160.197 61.4152 159.688 62.145 159.439 62.9762Z" fill="#ED1C24"/>
<path d="M174.266 26.9067C174.266 25.5315 173.858 24.1872 173.094 23.0438C172.33 21.9004 171.244 21.0092 169.973 20.4829C168.703 19.9566 167.305 19.8189 165.956 20.0872C164.607 20.3555 163.368 21.0177 162.396 21.9901C161.424 22.9626 160.761 24.2015 160.493 25.5503C160.225 26.899 160.362 28.2971 160.889 29.5676C161.415 30.8381 162.306 31.924 163.45 32.6881C164.593 33.4521 165.937 33.8599 167.313 33.8599C169.156 33.8577 170.923 33.1244 172.227 31.821C173.53 30.5175 174.263 28.7502 174.266 26.9067ZM163.141 26.9067C163.141 26.0816 163.385 25.275 163.844 24.589C164.302 23.9029 164.954 23.3682 165.716 23.0524C166.478 22.7367 167.317 22.6541 168.126 22.815C168.936 22.976 169.679 23.3733 170.262 23.9568C170.846 24.5402 171.243 25.2836 171.404 26.0928C171.565 26.9021 171.483 27.7409 171.167 28.5032C170.851 29.2656 170.316 29.9171 169.63 30.3755C168.944 30.8339 168.138 31.0786 167.313 31.0786C166.206 31.0774 165.146 30.6375 164.364 29.8554C163.582 29.0733 163.142 28.0128 163.141 26.9067Z" fill="#ED1C24"/>
<path d="M115.859 85.313C115.859 83.9378 115.452 82.5935 114.688 81.45C113.924 80.3066 112.838 79.4154 111.567 78.8891C110.297 78.3629 108.899 78.2252 107.55 78.4935C106.201 78.7618 104.962 79.424 103.99 80.3964C103.017 81.3688 102.355 82.6077 102.087 83.9565C101.818 85.3053 101.956 86.7033 102.482 87.9738C103.009 89.2444 103.9 90.3303 105.043 91.0943C106.187 91.8583 107.531 92.2661 108.906 92.2661C110.75 92.264 112.517 91.5307 113.821 90.2272C115.124 88.9237 115.857 87.1564 115.859 85.313ZM104.734 85.313C104.734 84.4879 104.979 83.6813 105.438 82.9952C105.896 82.3092 106.547 81.7744 107.31 81.4587C108.072 81.1429 108.911 81.0603 109.72 81.2213C110.529 81.3822 111.273 81.7796 111.856 82.363C112.44 82.9465 112.837 83.6898 112.998 84.4991C113.159 85.3084 113.076 86.1472 112.761 86.9095C112.445 87.6718 111.91 88.3234 111.224 88.7818C110.538 89.2402 109.731 89.4849 108.906 89.4849C107.8 89.4837 106.74 89.0437 105.958 88.2616C105.176 87.4795 104.736 86.4191 104.734 85.313Z" fill="#ED1C24"/>
<path d="M103.175 76.2725C98.7409 68.583 96.9665 59.6455 98.1273 50.8451C99.2881 42.0448 103.319 33.8731 109.596 27.5964C115.873 21.3198 124.044 17.2887 132.845 16.128C141.645 14.9674 150.583 16.7418 158.272 21.1765L159.665 18.7687C151.446 14.0272 141.891 12.1296 132.483 13.3701C123.075 14.6105 114.339 18.9197 107.629 25.6297C100.919 32.3398 96.6103 41.0758 95.37 50.4838C94.1297 59.8917 96.0274 69.4461 100.769 77.6659L103.175 76.2725Z" fill="#ED1C24"/>
<path d="M173.043 35.9471C177.476 43.6338 179.251 52.5677 178.093 61.3651C176.934 70.1625 172.908 78.3325 166.636 84.6098C160.365 90.8871 152.198 94.9214 143.402 96.0879C134.606 97.2544 125.67 95.4879 117.979 91.0622L116.589 93.4713C124.81 98.2033 134.362 100.092 143.766 98.8457C153.169 97.599 161.9 93.2863 168.604 86.5755C175.308 79.8648 179.613 71.1306 180.85 61.7258C182.088 52.321 180.19 42.7705 175.45 34.5537L173.043 35.9471Z" fill="#ED1C24"/>
</svg>
