<svg width="45" height="45" viewBox="0 0 45 45" fill="none" xmlns="http://www.w3.org/2000/svg">
<path d="M22.5 45.0037C10.0931 45.0037 0 34.9106 0 22.5037C0 10.0968 10.0931 0.00372314 22.5 0.00372314C34.9069 0.00372314 45 10.0968 45 22.5037C45 34.9106 34.9069 45.0037 22.5 45.0037ZM22.5 1.87872C11.1281 1.87872 1.875 11.1318 1.875 22.5037C1.875 33.8756 11.1281 43.1287 22.5 43.1287C33.8719 43.1287 43.125 33.8756 43.125 22.5037C43.125 11.1318 33.8719 1.87872 22.5 1.87872Z" fill="#ED1C24"/>
<path d="M22.4589 13.5994C22.2826 13.5994 22.1139 13.5994 21.9527 13.5994H21.5627H21.1727C19.607 13.605 17.2333 13.6125 15.6414 13.08C15.1502 12.9169 14.8839 12.3863 15.0489 11.895C15.212 11.4038 15.7408 11.1375 16.2339 11.3025C17.5352 11.7356 19.8133 11.7244 21.167 11.7244H21.5608H21.9545C23.3195 11.7244 25.5883 11.7356 26.8877 11.3025C27.3808 11.1375 27.9095 11.4038 28.0727 11.895C28.2358 12.3863 27.9714 12.9169 27.4802 13.08C26.0552 13.5581 23.9983 13.5994 22.4589 13.5994Z" fill="#ED1C24"/>
<path d="M29.0621 43.1287C28.6758 43.1287 28.3158 42.8887 28.1789 42.5044L17.8664 13.4419C17.6939 12.9544 17.9489 12.4181 18.4364 12.2456C18.9183 12.0712 19.4602 12.3262 19.6327 12.8156L29.9452 41.8781C30.1177 42.3656 29.8627 42.9019 29.3752 43.0744C29.2721 43.1119 29.1671 43.1287 29.0621 43.1287Z" fill="#ED1C24"/>
<path d="M32.8122 37.5037C32.4147 37.5037 32.0472 37.2506 31.9197 36.8512L24.4197 13.4137C24.2622 12.9206 24.5341 12.3937 25.0272 12.2362C25.5241 12.0787 26.0472 12.3506 26.2047 12.8437L33.7047 36.2812C33.8622 36.7744 33.5903 37.3012 33.0972 37.4587C33.0035 37.4887 32.906 37.5037 32.8122 37.5037Z" fill="#ED1C24"/>
<path d="M7.45695 13.5994C7.27883 13.5994 7.1082 13.5994 6.94695 13.5994H6.56258C4.47946 13.5994 3.42946 13.0837 3.31696 13.0237C2.85758 12.7837 2.68133 12.2175 2.91946 11.7581C3.15946 11.3006 3.72196 11.1206 4.18508 11.3606C4.64821 11.6006 4.95945 11.7225 6.56445 11.7225H6.95445C8.31946 11.7394 10.592 11.7337 11.8913 11.3006C12.3863 11.1375 12.9132 11.4037 13.0763 11.895C13.2413 12.3862 12.9751 12.9169 12.4838 13.08C11.0551 13.5562 9.00008 13.5994 7.45695 13.5994Z" fill="#ED1C24"/>
<path d="M14.0621 43.1287C13.6758 43.1287 13.3158 42.8887 13.1789 42.5044L2.86643 13.4419C2.69393 12.9544 2.94893 12.4181 3.43643 12.2456C3.92018 12.0712 4.4583 12.3262 4.63268 12.8156L14.9452 41.8781C15.1177 42.3656 14.8627 42.9019 14.3752 43.0744C14.2721 43.1119 14.1671 43.1287 14.0621 43.1287Z" fill="#ED1C24"/>
<path d="M17.8121 37.5037C17.4146 37.5037 17.0471 37.2506 16.9196 36.8512L9.41961 13.4137C9.26023 12.9206 9.53211 12.3937 10.0271 12.2362C10.5221 12.0787 11.0471 12.3506 11.2046 12.8437L18.7046 36.2812C18.8621 36.7744 18.5902 37.3012 18.0971 37.4587C18.0034 37.4887 17.9059 37.5037 17.8121 37.5037Z" fill="#ED1C24"/>
<path d="M32.7693 41.5387L30.9824 40.9687C30.9824 40.9687 34.3668 30.36 36.5643 23.4412C36.5643 23.3531 36.5774 23.2631 36.6037 23.1731C37.2974 20.8462 35.4449 17.7 33.9562 15.1687C32.8387 13.275 31.8749 11.6381 31.8749 10.3162C31.8749 6.2381 34.2243 5.62872 35.6249 5.62872C37.5112 5.62872 39.0524 6.74435 40.2055 8.94372C41.3943 11.2106 41.0924 15.3506 39.3318 20.9118C37.378 27.0843 32.7693 41.5387 32.7693 41.5387ZM35.6249 7.50372C34.9687 7.50372 33.7499 7.50372 33.7499 10.3162C33.7499 11.1262 34.6762 12.6993 35.5705 14.22C36.4143 15.6525 37.363 17.2631 37.9762 18.9075C39.6505 12.9693 38.9512 10.59 38.5462 9.8156C37.4605 7.74372 36.358 7.50372 35.6249 7.50372Z" fill="#ED1C24"/>
<path d="M15.9377 43.1287C15.8346 43.1287 15.7315 43.1118 15.6284 43.0762C15.139 42.9056 14.8821 42.3712 15.0527 41.8818L21.6152 23.1318C21.7877 22.6443 22.3221 22.3875 22.8096 22.5562C23.299 22.7268 23.5559 23.2612 23.3852 23.7506L16.8227 42.5006C16.6877 42.8868 16.3259 43.1287 15.9377 43.1287Z" fill="#ED1C24"/>
</svg>
