<svg width="45" height="37" viewBox="0 0 45 37" fill="none" xmlns="http://www.w3.org/2000/svg">
<path d="M4.43849 25.3117C4.07444 25.3117 3.7793 25.6069 3.7793 25.9709C3.7793 26.335 4.07444 26.6301 4.43849 26.6301H10.1955C10.5595 26.6301 10.8547 26.335 10.8547 25.9709C10.8547 25.6069 10.5595 25.3117 10.1955 25.3117H4.43849Z" fill="#ED1C24"/>
<path d="M44.2604 30.135L41.4848 27.3594L41.4854 5.05496C41.4854 4.4492 40.9926 3.9563 40.3868 3.9563L34.0419 3.95586C31.5439 1.56482 28.034 0.16249 24.5434 0.174268C20.8734 0.174268 17.5333 1.61255 15.0561 3.95454L8.92394 3.95392C8.55989 3.95392 8.26465 4.24898 8.26465 4.61303C8.26465 4.97717 8.55971 5.27223 8.92376 5.27232L13.8311 5.27284C13.4669 5.71925 13.1303 6.18886 12.8233 6.67887L1.31892 6.67816V5.27205L5.84751 5.27232C6.21156 5.27232 6.50671 4.97726 6.50671 4.61312C6.50671 4.24898 6.21165 3.95392 5.84751 3.95392L1.0991 3.95366C0.493255 3.95366 0.000439464 4.44648 0.000439464 5.05232L0 29.6603C0 30.2661 0.492815 30.759 1.09866 30.759L10.031 30.7596C10.3951 30.7596 10.6902 30.4645 10.6902 30.1004C10.6902 29.7362 10.3952 29.4412 10.031 29.4412L1.31839 29.4406L1.31892 7.99656L12.0934 7.99726C11.6699 8.87276 11.3369 9.79959 11.1048 10.7654H4.48254C4.11848 10.7654 3.82334 11.0605 3.82334 11.4246V16.6981C3.82334 17.0622 4.11848 17.3573 4.48254 17.3573H11.1374C11.2926 17.9754 11.4894 18.577 11.7247 19.1591H4.43859C4.07454 19.1591 3.77939 19.4543 3.77939 19.8183C3.77939 20.1824 4.07454 20.4775 4.43859 20.4775H12.3409C12.6689 21.0924 13.0415 21.6801 13.4553 22.2354H4.43859C4.07454 22.2354 3.77939 22.5305 3.77939 22.8946C3.77939 23.2586 4.07454 23.5538 4.43859 23.5538H14.5713C17.0884 26.1786 20.6283 27.8153 24.5435 27.8153C26.9609 27.8153 29.3007 27.1902 31.3614 26.0196L32.6794 27.3376C32.9258 27.584 33.2494 27.7072 33.5731 27.7072C33.8619 27.7072 34.1502 27.6084 34.3841 27.4123L36.4147 29.4429L13.1073 29.4413C12.7432 29.4413 12.4481 29.7363 12.4481 30.1005C12.4481 30.4646 12.7431 30.7597 13.1073 30.7597L15.9837 30.7598L15.4057 32.8684L14.2659 32.8681C12.6272 32.8681 11.2941 34.2012 11.2941 35.8398V36.1639C11.2941 36.528 11.5892 36.8231 11.9533 36.8231L29.5316 36.8257H29.5317C29.7065 36.8257 29.8741 36.7562 29.9977 36.6327C30.1214 36.509 30.1908 36.3414 30.1908 36.1665V35.8423C30.1908 34.2037 28.8578 32.8707 27.2192 32.8707L26.0795 32.8704L25.5011 30.7605L37.7333 30.7613L40.6837 33.7118C41.1615 34.1895 41.7966 34.4526 42.472 34.4526C43.1476 34.4526 43.7827 34.1895 44.2605 33.7118C45.2465 32.7257 45.2465 31.1212 44.2604 30.135ZM28.8382 35.5072L12.6466 35.5048C12.8019 34.7533 13.4688 34.1865 14.2656 34.1865L27.2189 34.1891C28.0159 34.1891 28.6829 34.7557 28.8382 35.5072ZM24.7122 32.8702L16.7726 32.8687L17.3507 30.7599L24.1339 30.7605L24.7122 32.8702ZM40.167 6.68071L36.2696 6.68045C35.9648 6.19238 35.6297 5.7225 35.2652 5.27434L40.167 5.27469V6.68071ZM5.14173 16.039V12.0838H10.8556C10.7688 12.7088 10.7229 13.3465 10.7229 13.9949C10.7229 14.6893 10.775 15.3718 10.8744 16.039H5.14173ZM12.0413 13.9949C12.0413 7.10119 17.6498 1.49275 24.5435 1.49275C30.7485 1.49275 35.9437 5.93521 36.8963 12.056C36.9523 12.4157 37.2893 12.6623 37.649 12.6059C38.0087 12.5499 38.255 12.213 38.1989 11.8532C37.9897 10.5086 37.5811 9.21088 36.9965 7.99893L40.167 7.99919L40.1665 26.0412L37.961 23.8356C38.1519 23.6085 38.2564 23.3246 38.2564 23.0245C38.2564 22.687 38.1249 22.3696 37.8863 22.1309L36.5688 20.8134C37.5651 19.0595 38.1702 17.0965 38.3245 15.0467C38.3519 14.6837 38.0798 14.3672 37.7167 14.3399C37.3538 14.3132 37.0373 14.5847 37.0098 14.9477C36.5221 21.4239 31.0462 26.4969 24.5435 26.4969C17.6498 26.497 12.0413 20.8886 12.0413 13.9949ZM32.5015 25.2953C33.0112 24.9356 33.4994 24.5402 33.962 24.1092C34.6685 23.451 35.2978 22.7282 35.8446 21.9537L36.9154 23.0245L33.5731 26.3668L32.5015 25.2953ZM43.3282 32.7795C43.0995 33.0082 42.7954 33.1342 42.472 33.1342C42.1487 33.1342 41.8446 33.0082 41.6159 32.7795L35.3203 26.4839L37.0325 24.7716L43.3281 31.0672C43.8002 31.5394 43.8002 32.3075 43.3282 32.7795Z" fill="#ED1C24"/>
<path d="M24.5437 2.80664C18.3745 2.80664 13.3555 7.82567 13.3555 13.9949C13.3555 17.558 15.0767 20.94 17.9596 23.0415C18.2537 23.2561 18.6661 23.1913 18.8806 22.8971C19.095 22.6029 19.0304 22.1905 18.7362 21.9761C16.1926 20.1218 14.6739 17.1381 14.6739 13.9948C14.6739 8.55255 19.1015 4.12495 24.5437 4.12495C29.9859 4.12495 34.4135 8.55255 34.4135 13.9948C34.4135 19.437 29.9859 23.8646 24.5437 23.8646C23.4228 23.8646 22.3234 23.6784 21.2759 23.3111C20.9323 23.1904 20.5562 23.3715 20.4358 23.7149C20.3153 24.0585 20.4961 24.4346 20.8396 24.5551C22.0276 24.9718 23.2737 25.183 24.5437 25.183C30.7129 25.183 35.7319 20.164 35.7319 13.9948C35.7319 7.82559 30.713 2.80664 24.5437 2.80664Z" fill="#ED1C24"/>
<path d="M24.8567 12.2921C25.2208 12.2921 25.5159 11.9969 25.5159 11.6329C25.5159 11.2688 25.2208 10.9737 24.8567 10.9737H22.8662C22.5022 10.9737 22.207 11.2688 22.207 11.6329V16.3569C22.207 16.7209 22.5022 17.0161 22.8662 17.0161H24.8567C25.2208 17.0161 25.5159 16.7209 25.5159 16.3569C25.5159 15.9928 25.2208 15.6977 24.8567 15.6977H23.5254V14.6541H24.71C25.074 14.6541 25.3692 14.359 25.3692 13.9949C25.3692 13.6309 25.074 13.3357 24.71 13.3357H23.5254V12.2921H24.8567Z" fill="#ED1C24"/>
<path d="M18.5403 15.7195C18.0841 15.7195 17.6456 15.5362 17.3674 15.2293C17.123 14.9596 16.7061 14.9391 16.4363 15.1835C16.1664 15.4279 16.146 15.8448 16.3905 16.1146C16.9222 16.7013 17.7058 17.0379 18.5402 17.0379C19.5756 17.0379 20.4455 16.3748 20.6086 15.4612C20.7318 14.7713 20.4219 13.8712 19.1823 13.414C18.7841 13.269 18.1308 13.0308 17.8825 12.8912C17.8131 12.8534 17.7831 12.7856 17.793 12.6895C17.8068 12.5565 17.9059 12.3888 18.1431 12.3173C18.7808 12.1253 19.378 12.5941 19.3969 12.6091C19.6756 12.8399 20.0887 12.8031 20.3218 12.5254C20.5561 12.2468 20.52 11.831 20.2413 11.5967C20.1953 11.558 19.0975 10.6528 17.7627 11.0549C17.0565 11.2676 16.5537 11.856 16.4814 12.5538C16.4165 13.1819 16.7116 13.7549 17.2519 14.0491C17.5235 14.2057 18.1464 14.4418 18.726 14.6509C18.8774 14.7068 19.3671 14.9136 19.3106 15.2295C19.2679 15.4704 18.9679 15.7195 18.5403 15.7195Z" fill="#ED1C24"/>
<path d="M33.0683 13.9949C33.0683 12.317 31.7032 10.952 30.0254 10.952C28.3475 10.952 26.9824 12.317 26.9824 13.9949C26.9824 15.6728 28.3475 17.0378 30.0254 17.0378C31.7032 17.0378 33.0683 15.6728 33.0683 13.9949ZM28.3008 13.9949C28.3008 13.044 29.0744 12.2704 30.0254 12.2704C30.9763 12.2704 31.7499 13.044 31.7499 13.9949C31.7499 14.9458 30.9763 15.7194 30.0254 15.7194C29.0744 15.7194 28.3008 14.9458 28.3008 13.9949Z" fill="#ED1C24"/>
</svg>
