<svg width="44" height="40" viewBox="0 0 44 40" fill="none" xmlns="http://www.w3.org/2000/svg">
<path d="M42.3 31.3889H15.84L14.85 27.7739H36.54C36.9 27.7739 37.26 27.5094 37.35 27.2448L43.2 12.873C43.29 12.6085 43.29 12.2558 43.11 12.0794C42.93 11.8149 42.66 11.7267 42.39 11.7267H38.34C37.8 5.37843 32.49 0.440855 26.01 0.440855C19.53 0.440855 26.01 0.440855 25.92 0.440855C19.62 0.440855 14.13 5.20209 13.68 11.7267H10.35L7.29 0.705368C7.2 0.264513 6.84 0 6.39 0H0.9C0.36 0 0 0.352684 0 0.88171C0 1.41074 0.36 1.76342 0.9 1.76342H5.76L14.31 32.4469C14.4 32.7996 14.76 33.0641 15.21 33.0641H17.01C16.56 33.6813 16.29 34.4749 16.29 35.3566C16.29 37.5609 18.18 39.4124 20.43 39.4124C22.68 39.4124 24.57 37.5609 24.57 35.3566C24.57 34.4749 24.3 33.7695 23.85 33.0641H33.66C33.21 33.6813 32.94 34.4749 32.94 35.3566C32.94 37.5609 34.83 39.4124 37.08 39.4124C39.33 39.4124 41.22 37.5609 41.22 35.3566C41.22 34.4749 40.95 33.7695 40.5 33.0641H42.3C42.84 33.0641 43.2 32.7114 43.2 32.1824C43.2 31.6534 42.75 31.3889 42.3 31.3889ZM36.45 11.6386H32.67C32.67 10.7569 32.58 9.78698 32.4 8.99344H35.82C36.18 9.78698 36.36 10.7569 36.45 11.6386ZM32.4 16.0471C32.58 15.1654 32.67 14.2837 32.67 13.402H36.45C36.36 14.3719 36.18 15.2536 35.82 16.0471H32.4ZM35.01 17.8105C33.93 19.6621 32.22 21.0729 30.24 21.9546C31.05 20.8084 31.68 19.3976 32.04 17.8105H35.01ZM35.01 7.23002H32.04C31.59 5.55477 30.96 4.14404 30.24 3.08599C32.22 3.87952 33.93 5.37843 35.01 7.23002ZM26.91 2.38062C28.26 2.90964 29.52 4.67306 30.24 7.23002H26.91V2.38062ZM26.91 8.99344H30.6C30.78 9.78698 30.87 10.6687 30.87 11.6386H26.82V8.99344H26.91ZM26.91 13.402H30.96C30.96 14.3719 30.78 15.2536 30.69 16.0471H27V13.402H26.91ZM26.91 17.8105H30.24C29.52 20.3675 28.26 22.1309 26.91 22.6599V17.8105ZM25.11 2.38062V7.23002H21.78C22.5 4.67306 23.76 2.90964 25.11 2.38062ZM21.33 16.0471C21.15 15.2536 21.06 14.2837 21.06 13.402H25.11V16.0471H21.33ZM25.11 17.8105V22.6599C23.76 22.1309 22.5 20.3675 21.78 17.8105H25.11ZM19.89 17.8105C20.34 19.4858 20.97 20.8965 21.69 21.9546C19.71 21.0729 18 19.574 16.92 17.8105H19.89ZM16.11 16.0471C15.84 15.1654 15.57 14.2837 15.48 13.402H19.26C19.26 14.2837 19.35 15.2536 19.53 16.0471H16.11ZM21.06 11.6386C21.06 10.6687 21.24 9.78698 21.33 8.99344H25.02V11.6386H21.06ZM21.69 2.99781C20.88 4.14404 20.25 5.55477 19.89 7.14185H16.92C18 5.37843 19.71 3.87952 21.69 2.99781ZM16.11 8.99344H19.53C19.35 9.87515 19.35 10.7569 19.26 11.6386H15.48C15.57 10.7569 15.75 9.78698 16.11 8.99344ZM14.31 26.0104L10.8 13.402H13.68C14.13 19.8385 19.62 24.5997 25.92 24.6879H26.01C32.31 24.6879 37.8 19.8385 38.25 13.402H40.95L35.82 26.0104H14.31ZM20.34 37.7372C19.08 37.7372 18 36.6791 18 35.4447C18 34.2104 19.08 33.1523 20.34 33.1523C21.6 33.1523 22.68 34.2104 22.68 35.4447C22.68 36.6791 21.6 37.7372 20.34 37.7372ZM36.9 37.7372C35.64 37.7372 34.56 36.6791 34.56 35.4447C34.56 34.2104 35.64 33.1523 36.9 33.1523C38.16 33.1523 39.24 34.2104 39.24 35.4447C39.24 36.6791 38.25 37.7372 36.9 37.7372Z" fill="#ED1C24"/>
</svg>
