<svg width="41" height="41" viewBox="0 0 41 41" fill="none" xmlns="http://www.w3.org/2000/svg">
<path d="M40.7499 9.83498C40.7499 4.56998 36.4299 0.294983 31.1649 0.294983C25.8999 0.294983 21.5799 4.56998 21.5799 9.83498C21.5799 10.105 21.5799 10.42 21.6249 10.69C18.7899 10.78 16.0449 11.905 14.0649 13.93C11.2299 16.765 10.1499 20.95 11.2299 24.775C10.3299 24.46 9.38492 24.235 8.39492 24.235C3.93992 24.235 0.294922 27.88 0.294922 32.335C0.294922 36.79 3.93992 40.435 8.39492 40.435C12.8499 40.435 16.4949 36.79 16.4949 32.335C16.4949 32.02 16.4949 31.705 16.4499 31.435C18.1599 32.38 20.0499 32.92 21.9849 32.92C23.0199 32.92 24.0549 32.785 25.0899 32.47L26.4399 36.925C26.5299 37.195 26.7549 37.375 27.0699 37.42H27.1149C27.3849 37.42 27.6099 37.24 27.7449 37.015L29.3649 33.235L31.8399 35.71C32.1099 35.98 32.5149 35.98 32.7849 35.71L35.9349 32.605C36.0699 32.47 36.1149 32.29 36.1149 32.11C36.1149 31.93 36.0249 31.75 35.9349 31.615L33.4599 29.14L37.2399 27.52C37.5099 27.43 37.6449 27.16 37.6449 26.845C37.6449 26.575 37.4199 26.305 37.1499 26.215L32.6499 24.865C33.1899 23.02 33.2349 21.085 32.7849 19.24C37.2849 18.52 40.7499 14.605 40.7499 9.83498ZM27.0249 18.475C28.0149 19.96 28.2849 21.76 27.7899 23.47L25.5849 22.795C25.9449 21.49 25.5849 20.095 24.5949 19.15C23.1099 17.665 20.6799 17.665 19.1949 19.15C18.4749 19.87 18.0699 20.815 18.0699 21.85C18.0699 22.885 18.4749 23.83 19.1949 24.55C19.9149 25.27 20.9049 25.675 21.8949 25.675C22.2099 25.675 22.5249 25.63 22.8849 25.54L23.5599 27.745C21.4449 28.33 19.1499 27.745 17.5749 26.17C16.4049 25 15.7749 23.47 15.7749 21.85C15.7749 20.23 16.4049 18.7 17.5749 17.53C19.1949 15.91 21.6699 15.325 23.8299 16.045C24.7299 17.035 25.8099 17.89 27.0249 18.475ZM22.9299 21.94C22.7049 21.85 22.4349 21.94 22.2549 22.12C22.0749 22.3 22.0299 22.57 22.0749 22.795L22.4799 24.19C21.6699 24.37 20.7699 24.145 20.1849 23.56C19.7349 23.11 19.4649 22.48 19.4649 21.805C19.4649 21.13 19.7349 20.545 20.1849 20.095C21.1299 19.15 22.7049 19.15 23.6499 20.095C24.2799 20.725 24.5049 21.58 24.2799 22.39L22.9299 21.94ZM8.34992 39.085C4.61492 39.085 1.59992 36.07 1.59992 32.335C1.59992 28.6 4.61492 25.585 8.34992 25.585C12.0849 25.585 15.0999 28.6 15.0999 32.335C15.0999 36.07 12.0849 39.085 8.34992 39.085ZM15.9549 29.5C15.3699 27.97 14.3349 26.62 12.9849 25.675C11.4099 22.03 12.1749 17.71 15.0099 14.875C16.8099 13.075 19.2849 12.04 21.8499 12.04C22.0299 12.85 22.3449 13.66 22.7499 14.38C20.5449 14.155 18.2499 14.92 16.6299 16.495C15.2349 17.89 14.4249 19.78 14.4249 21.76C14.4249 23.74 15.1899 25.63 16.6299 27.025C18.0699 28.465 19.9599 29.23 21.8949 29.23C22.5699 29.23 23.2449 29.14 23.9199 28.96L24.5949 31.165C21.6699 32.02 18.3849 31.435 15.9549 29.5ZM31.9299 28.33C31.7049 28.42 31.5699 28.6 31.5249 28.825C31.4799 29.05 31.5699 29.275 31.7049 29.41L34.4049 32.11L32.2449 34.27L29.5449 31.57C29.3649 31.39 29.1399 31.345 28.9599 31.39C28.7349 31.435 28.5549 31.57 28.4649 31.795L27.1599 34.765L26.1249 31.39L23.7399 23.605L24.5499 23.83L31.5249 25.945L34.8999 26.98L31.9299 28.33ZM31.2999 24.505L29.0949 23.83C29.5449 22.255 29.4549 20.59 28.8699 19.105C29.5899 19.285 30.3549 19.375 31.1199 19.375H31.3449C31.8399 21.085 31.7949 22.84 31.2999 24.505ZM31.1649 18.07C26.6199 18.07 22.9299 14.38 22.9299 9.87998C22.9299 5.33498 26.6199 1.68998 31.1649 1.68998C35.7099 1.64498 39.3999 5.33498 39.3999 9.83498C39.3999 14.38 35.7099 18.07 31.1649 18.07Z" fill="#ED1C24"/>
<path d="M31.3447 9.16H30.9847C30.3997 9.16 29.9047 8.665 29.9047 8.08C29.9047 7.81 30.0397 7.54 30.2197 7.315C30.4447 7.09 30.7147 7 30.9847 7H31.2097H33.0547C33.4147 7 33.7297 6.685 33.7297 6.325C33.7297 5.965 33.4147 5.65 33.0097 5.65H31.8847V4.615C31.8847 4.255 31.5697 3.94 31.2097 3.94C30.8497 3.94 30.5347 4.255 30.5347 4.615V5.695C30.0397 5.785 29.6347 6.01 29.2747 6.37C28.8247 6.82 28.5547 7.45 28.5547 8.08C28.5547 9.43 29.6347 10.51 30.9847 10.51H31.3447C31.9297 10.51 32.4247 11.005 32.4247 11.59C32.4247 12.175 31.9297 12.67 31.3447 12.67H29.2297C28.8697 12.67 28.5547 12.985 28.5547 13.345C28.5547 13.705 28.8697 14.02 29.2297 14.02H30.5347V15.1C30.5347 15.46 30.8497 15.775 31.2097 15.775C31.5697 15.775 31.8847 15.46 31.8847 15.1V14.02C32.9647 13.795 33.7747 12.805 33.7747 11.635C33.7747 10.285 32.6947 9.16 31.3447 9.16Z" fill="#ED1C24"/>
<path d="M14.5598 9.20498C16.8098 9.20498 18.6098 7.40498 18.6098 5.15498C18.6098 2.90498 16.8098 1.10498 14.5598 1.10498C12.3098 1.10498 10.5098 2.90498 10.5098 5.15498C10.5098 7.40498 12.3098 9.20498 14.5598 9.20498ZM14.5598 2.45498C16.0448 2.45498 17.2598 3.66998 17.2598 5.15498C17.2598 6.63998 16.0448 7.85498 14.5598 7.85498C13.0748 7.85498 11.8598 6.63998 11.8598 5.15498C11.8598 3.66998 13.0298 2.45498 14.5598 2.45498Z" fill="#ED1C24"/>
<path d="M5.15465 19.015C6.81965 19.015 8.16965 17.665 8.16965 16C8.16965 14.335 6.81965 12.985 5.15465 12.985C3.48965 12.985 2.13965 14.335 2.13965 16C2.18465 17.665 3.48965 19.015 5.15465 19.015ZM5.15465 14.335C6.05465 14.335 6.81965 15.055 6.81965 16C6.81965 16.9 6.09965 17.665 5.15465 17.665C4.20965 17.665 3.53465 16.9 3.53465 16C3.53465 15.1 4.25465 14.335 5.15465 14.335Z" fill="#ED1C24"/>
<path d="M8.52969 31.66H8.21469C7.76469 31.66 7.40469 31.3 7.40469 30.85C7.40469 30.4 7.76469 30.04 8.21469 30.04H8.39469H9.92469C10.2847 30.04 10.5997 29.725 10.5997 29.365C10.5997 29.005 10.2847 28.69 9.92469 28.69H9.06969V27.925C9.06969 27.565 8.75469 27.25 8.39469 27.25C8.03469 27.25 7.71969 27.565 7.71969 27.925V28.735C6.77469 28.96 6.05469 29.815 6.05469 30.805C6.05469 31.975 6.99969 32.965 8.21469 32.965H8.52969C8.97969 32.965 9.33969 33.325 9.33969 33.775C9.33969 34.225 8.97969 34.585 8.52969 34.585H6.77469C6.41469 34.585 6.09969 34.9 6.09969 35.26C6.09969 35.62 6.41469 35.935 6.77469 35.935H7.76469V36.7C7.76469 37.06 8.07969 37.375 8.43969 37.375C8.79969 37.375 9.11469 37.06 9.11469 36.7V35.89C10.0147 35.62 10.6897 34.81 10.6897 33.82C10.6447 32.65 9.69969 31.66 8.52969 31.66Z" fill="#ED1C24"/>
<path d="M20.9502 35.08C19.3752 35.08 18.1152 36.34 18.1152 37.915C18.1152 39.49 19.3752 40.75 20.9502 40.75C22.5252 40.75 23.7852 39.49 23.7852 37.915C23.7852 36.34 22.4802 35.08 20.9502 35.08ZM20.9502 39.355C20.1402 39.355 19.4652 38.68 19.4652 37.87C19.4652 37.06 20.1402 36.385 20.9502 36.385C21.7602 36.385 22.4352 37.06 22.4352 37.87C22.4352 38.68 21.7602 39.355 20.9502 39.355Z" fill="#ED1C24"/>
</svg>
