<svg width="45" height="45" viewBox="0 0 45 45" fill="none" xmlns="http://www.w3.org/2000/svg">
<g clip-path="url(#clip0_968_170)">
<path d="M32.168 0.158691H12.832C11.0146 0.158691 9.53613 1.60714 9.53613 3.38761V41.0153C9.53613 42.7957 11.0146 44.2442 12.832 44.2442H32.168C33.9854 44.2442 35.4639 42.7957 35.4639 41.0153V3.38761C35.4639 1.60714 33.9854 0.158691 32.168 0.158691ZM34.1455 35.2032H15.4688C15.1047 35.2032 14.8096 35.4924 14.8096 35.849C14.8096 36.2057 15.1047 36.4948 15.4688 36.4948H34.1455V41.0153C34.1455 42.0836 33.2584 42.9526 32.168 42.9526H12.832C11.7416 42.9526 10.8545 42.0836 10.8545 41.0153V36.4948H12.832C13.1961 36.4948 13.4912 36.2057 13.4912 35.849C13.4912 35.4924 13.1961 35.2032 12.832 35.2032H10.8545V6.61653H34.1455V35.2032ZM34.1455 5.32496H10.8545V3.38761C10.8545 2.31931 11.7416 1.45026 12.832 1.45026H32.168C33.2584 1.45026 34.1455 2.31931 34.1455 3.38761V5.32496Z" fill="#ED1C24"/>
<path d="M25.1367 2.74182H22.5C22.136 2.74182 21.8408 3.03096 21.8408 3.38761C21.8408 3.74425 22.136 4.03339 22.5 4.03339H25.1367C25.5008 4.03339 25.7959 3.74425 25.7959 3.38761C25.7959 3.03096 25.5008 2.74182 25.1367 2.74182Z" fill="#ED1C24"/>
<path d="M22.5 37.7864C21.4095 37.7864 20.5225 38.6554 20.5225 39.7237C20.5225 40.792 21.4095 41.6611 22.5 41.6611C23.5905 41.6611 24.4775 40.792 24.4775 39.7237C24.4775 38.6554 23.5905 37.7864 22.5 37.7864ZM22.5 40.3695C22.1365 40.3695 21.8408 40.0799 21.8408 39.7237C21.8408 39.3676 22.1365 39.0779 22.5 39.0779C22.8635 39.0779 23.1592 39.3676 23.1592 39.7237C23.1592 40.0799 22.8635 40.3695 22.5 40.3695Z" fill="#ED1C24"/>
<path d="M19.8633 4.03339C20.2273 4.03339 20.5225 3.74426 20.5225 3.38761C20.5225 3.03095 20.2273 2.74182 19.8633 2.74182C19.4992 2.74182 19.2041 3.03095 19.2041 3.38761C19.2041 3.74426 19.4992 4.03339 19.8633 4.03339Z" fill="#ED1C24"/>
</g>
<defs>
<clipPath id="clip0_968_170">
<rect width="45" height="44.0855" fill="white" transform="translate(0 0.158691)"/>
</clipPath>
</defs>
</svg>
