<svg width="45" height="45" viewBox="0 0 45 45" fill="none" xmlns="http://www.w3.org/2000/svg">
<path d="M39.802 10.4924H37.2084V5.50811C37.2084 5.26025 37.0774 5.02998 36.8639 4.90342C31.2503 1.57324 26.8206 0.0878906 22.4999 0.0878906C18.1801 0.0878906 13.7495 1.57324 8.13682 4.90342C7.92324 5.02998 7.79229 5.26025 7.79229 5.50811V10.4924H5.19775C3.69746 10.4924 2.47754 11.7123 2.47754 13.2126V37.4941C2.47754 38.9944 3.69746 40.2144 5.19775 40.2144H13.9956L12.149 43.3837C11.9636 43.7019 11.9609 44.0815 12.1429 44.3979C12.3248 44.7152 12.6641 44.9121 13.0271 44.9121H31.9719C32.3349 44.9121 32.6741 44.7152 32.8561 44.3979C33.038 44.0815 33.0362 43.7019 32.8499 43.3837L31.0033 40.2144H39.8012C41.3015 40.2144 42.5214 38.9944 42.5214 37.4941V13.2126C42.5223 11.7123 41.3015 10.4924 39.802 10.4924ZM9.19854 5.90977C19.2181 0.0518551 25.7817 0.0518551 35.8021 5.90977V17.5957C35.8021 21.4286 34.1568 24.6375 31.0437 26.8752L22.4999 33.0152L13.9561 26.8743C10.8438 24.6375 9.19854 21.4286 9.19854 17.5948V5.90977ZM5.19775 11.8986H7.79141V17.5957C7.79141 21.9006 9.63887 25.505 13.1343 28.0169L22.0886 34.4522C22.2107 34.5401 22.3549 34.5841 22.499 34.5841C22.6432 34.5841 22.7864 34.5401 22.9095 34.4522L31.8638 28.0169C35.3601 25.5041 37.2075 21.9006 37.2075 17.5957V11.8986H39.8012C40.5254 11.8986 41.1151 12.4884 41.1151 13.2126V35.4305H3.88379V13.2126C3.88379 12.4875 4.47354 11.8986 5.19775 11.8986ZM31.2942 43.5059H13.7056L15.6233 40.2144H29.3765L31.2942 43.5059ZM39.802 38.8081H5.19775C4.47354 38.8081 3.88379 38.2184 3.88379 37.4941V36.8367H41.116V37.4941C41.116 38.2184 40.5263 38.8081 39.802 38.8081ZM14.6038 25.9743L22.0895 31.355C22.2116 31.4429 22.3558 31.4868 22.4999 31.4868C22.644 31.4868 22.7873 31.4429 22.9104 31.355L30.396 25.9743C33.2067 23.9546 34.6921 21.0568 34.6921 17.5957V6.96006C34.6921 6.70605 34.555 6.47139 34.3335 6.34658C29.7254 3.76084 26.0762 2.60771 22.4999 2.60771C18.9236 2.60771 15.2735 3.76084 10.6663 6.34658C10.4448 6.47139 10.3077 6.70518 10.3077 6.96006V17.5957C10.3077 21.0568 11.7931 23.9546 14.6038 25.9743ZM22.4999 29.918L18.6397 27.1441C19.6118 26.0323 21.011 25.3846 22.4999 25.3846C23.9879 25.3846 25.388 26.0323 26.3592 27.1433L22.4999 29.918ZM22.4999 23.6733C21.1481 23.6733 20.0486 22.5738 20.0486 21.2221C20.0486 19.8703 21.1481 18.7708 22.4999 18.7708C23.8517 18.7708 24.9512 19.8703 24.9512 21.2221C24.9512 22.5738 23.8517 23.6733 22.4999 23.6733ZM11.714 7.37314C19.8271 2.90479 25.1727 2.90479 33.2867 7.37314V17.5957C33.2867 20.6279 32.0378 23.0625 29.576 24.8326L27.5062 26.3206C26.7582 25.4285 25.7976 24.7605 24.7262 24.3712C25.7132 23.6716 26.3583 22.522 26.3583 21.2229C26.3583 19.096 24.6277 17.3654 22.5008 17.3654C20.3738 17.3654 18.6433 19.096 18.6433 21.2229C18.6433 22.522 19.2893 23.6716 20.2754 24.3712C19.204 24.7605 18.2434 25.4294 17.4954 26.3206L15.4256 24.8326C12.9638 23.0634 11.7148 20.6279 11.7148 17.5957V7.37314H11.714ZM20.2218 10.4396L19.7744 12.3486C19.7094 12.6246 19.8166 12.912 20.046 13.0781C20.2754 13.2442 20.5812 13.2574 20.8238 13.1106L22.4999 12.0955L24.1769 13.1115C24.2894 13.1792 24.415 13.2135 24.5407 13.2135C24.6866 13.2135 24.8316 13.1687 24.9538 13.079C25.1832 12.9129 25.2896 12.6255 25.2254 12.3495L24.778 10.4405L26.2625 9.15908C26.477 8.97451 26.5596 8.6792 26.4717 8.40938C26.3838 8.14043 26.1438 7.94971 25.8617 7.92598L23.9079 7.76162L23.1485 5.95371C23.0387 5.69268 22.7838 5.52305 22.4999 5.52305C22.216 5.52305 21.9611 5.69268 21.8513 5.95371L21.0919 7.76162L19.1381 7.92598C18.856 7.94971 18.616 8.14043 18.5281 8.40938C18.4402 8.67832 18.5229 8.97363 18.7373 9.15908L20.2218 10.4396ZM21.6342 9.12744C21.8952 9.10547 22.122 8.94024 22.2239 8.69941L22.5008 8.04111L22.7776 8.69941C22.8787 8.94111 23.1063 9.10547 23.3674 9.12744L24.0784 9.18721L23.5379 9.65391C23.3401 9.82529 23.2531 10.0916 23.3129 10.3465L23.4764 11.0417L22.8655 10.6717C22.7539 10.604 22.6273 10.5697 22.5017 10.5697C22.376 10.5697 22.2494 10.604 22.1378 10.6717L21.527 11.0417L21.6904 10.3465C21.7502 10.0916 21.6632 9.82441 21.4654 9.65391L20.9249 9.18721L21.6342 9.12744ZM24.7253 13.8375C24.6374 14.1064 24.72 14.4018 24.9345 14.5872L26.4189 15.8687L25.9716 17.7776C25.9065 18.0536 26.0138 18.341 26.2432 18.5071C26.4726 18.6732 26.7784 18.6864 27.021 18.5396L28.6979 17.5236L30.3749 18.5396C30.4874 18.6073 30.6131 18.6416 30.7388 18.6416C30.8847 18.6416 31.0297 18.5968 31.1519 18.5071C31.3813 18.341 31.4876 18.0536 31.4234 17.7776L30.9761 15.8687L32.4605 14.5872C32.675 14.4026 32.7576 14.1073 32.6697 13.8375C32.5818 13.5686 32.3419 13.3778 32.0598 13.3541L30.106 13.1897L29.3466 11.3818C29.2367 11.1208 28.9818 10.9512 28.6979 10.9512C28.4141 10.9512 28.1592 11.1208 28.0493 11.3818L27.2899 13.1897L25.3361 13.3541C25.0531 13.3778 24.8123 13.5677 24.7253 13.8375ZM27.8305 14.5556C28.0915 14.5336 28.3183 14.3684 28.4202 14.1275L28.6971 13.4692L28.9739 14.1275C29.075 14.3692 29.3026 14.5336 29.5637 14.5556L30.2747 14.6153L29.7342 15.082C29.5364 15.2534 29.4494 15.5197 29.5092 15.7746L29.6727 16.4698L29.0618 16.0998C28.9502 16.0321 28.8236 15.9979 28.6979 15.9979C28.5723 15.9979 28.4457 16.0321 28.3341 16.0998L27.7232 16.4698L27.8867 15.7746C27.9465 15.5197 27.8595 15.2525 27.6617 15.082L27.1212 14.6153L27.8305 14.5556ZM14.6258 18.5388L16.3027 17.5228L17.9797 18.5388C18.0922 18.6064 18.2179 18.6407 18.3436 18.6407C18.4895 18.6407 18.6345 18.5959 18.7566 18.5063C18.986 18.3401 19.0924 18.0527 19.0282 17.7768L18.5809 15.8678L20.0653 14.5863C20.2798 14.4018 20.3624 14.1064 20.2745 13.8366C20.1866 13.5677 19.9467 13.377 19.6646 13.3532L17.7107 13.1889L16.9514 11.381C16.8415 11.1199 16.5866 10.9503 16.3027 10.9503C16.0188 10.9503 15.764 11.1199 15.6541 11.381L14.8947 13.1889L12.9409 13.3532C12.6588 13.377 12.4188 13.5677 12.331 13.8366C12.2431 14.1056 12.3257 14.4009 12.5401 14.5863L14.0246 15.8678L13.5772 17.7768C13.5122 18.0527 13.6194 18.3401 13.8488 18.5063C14.0773 18.6724 14.3841 18.6855 14.6258 18.5388ZM15.437 14.5556C15.698 14.5336 15.9248 14.3684 16.0268 14.1275L16.3036 13.4692L16.5805 14.1275C16.6815 14.3692 16.9092 14.5336 17.1702 14.5556L17.8812 14.6153L17.3407 15.082C17.143 15.2534 17.056 15.5197 17.1157 15.7746L17.2792 16.4698L16.6684 16.0998C16.5567 16.0321 16.4302 15.9979 16.3045 15.9979C16.1788 15.9979 16.0522 16.0321 15.9406 16.0998L15.3298 16.4698L15.4933 15.7746C15.553 15.5197 15.466 15.2525 15.2683 15.082L14.7277 14.6153L15.437 14.5556Z" fill="#ED1C24"/>
</svg>
