<svg width="1500" height="294" viewBox="0 0 1500 294" fill="none" xmlns="http://www.w3.org/2000/svg">
<g clip-path="url(#clip0_642_8050)">
<rect width="1500" height="294" fill="#890E0E"/>
<rect x="983.182" y="69.9348" width="155" height="147" transform="rotate(-50.6356 983.182 69.9348)" fill="url(#paint0_linear_642_8050)"/>
<rect x="1161" y="98.394" width="155" height="147" transform="rotate(-49.8033 1161 98.394)" fill="url(#paint1_linear_642_8050)"/>
<rect x="1280" y="199.394" width="155" height="147" transform="rotate(-49.8033 1280 199.394)" fill="url(#paint2_linear_642_8050)"/>
<rect x="1056" y="227.394" width="155" height="147" transform="rotate(-49.8033 1056 227.394)" fill="url(#paint3_linear_642_8050)"/>
<rect x="1386" y="74.394" width="155" height="147" transform="rotate(-49.8033 1386 74.394)" fill="url(#paint4_linear_642_8050)"/>
<rect x="1173" y="329.459" width="160.322" height="151.548" transform="rotate(-49.8033 1173 329.459)" fill="url(#paint5_linear_642_8050)"/>
<rect x="1395" y="306.459" width="160.322" height="151.548" transform="rotate(-49.8033 1395 306.459)" fill="url(#paint6_linear_642_8050)"/>
<ellipse cx="385" cy="243" rx="413" ry="128" transform="rotate(-6.32021 385 243)" fill="url(#paint7_linear_642_8050)"/>
</g>
<defs>
<linearGradient id="paint0_linear_642_8050" x1="1138.18" y1="143.435" x2="983.182" y2="143.435" gradientUnits="userSpaceOnUse">
<stop stop-color="#263238"/>
<stop offset="1" stop-color="#ED1C24"/>
</linearGradient>
<linearGradient id="paint1_linear_642_8050" x1="1316" y1="171.894" x2="1167.27" y2="174.923" gradientUnits="userSpaceOnUse">
<stop stop-color="#D9D9D9"/>
<stop offset="1" stop-color="#ED1C24"/>
</linearGradient>
<linearGradient id="paint2_linear_642_8050" x1="1435" y1="272.894" x2="1280" y2="272.894" gradientUnits="userSpaceOnUse">
<stop stop-color="#263238"/>
<stop offset="1" stop-color="#ED1C24"/>
</linearGradient>
<linearGradient id="paint3_linear_642_8050" x1="1211" y1="300.894" x2="1056" y2="300.894" gradientUnits="userSpaceOnUse">
<stop stop-color="#291E1E"/>
<stop offset="1" stop-color="#ED1C24"/>
</linearGradient>
<linearGradient id="paint4_linear_642_8050" x1="1541" y1="147.894" x2="1386" y2="147.894" gradientUnits="userSpaceOnUse">
<stop stop-color="#291E1E"/>
<stop offset="1" stop-color="#ED1C24"/>
</linearGradient>
<linearGradient id="paint5_linear_642_8050" x1="1333.32" y1="405.233" x2="1173" y2="405.233" gradientUnits="userSpaceOnUse">
<stop stop-color="#ED1C24"/>
<stop offset="1" stop-color="#737373"/>
</linearGradient>
<linearGradient id="paint6_linear_642_8050" x1="1555.32" y1="382.233" x2="1395" y2="382.233" gradientUnits="userSpaceOnUse">
<stop stop-color="#D9D9D9"/>
<stop offset="1" stop-color="#ED1C24"/>
</linearGradient>
<linearGradient id="paint7_linear_642_8050" x1="169.5" y1="223.169" x2="857.516" y2="220.95" gradientUnits="userSpaceOnUse">
<stop stop-color="#ED1C24"/>
<stop offset="1" stop-color="#263238"/>
</linearGradient>
<clipPath id="clip0_642_8050">
<rect width="1500" height="294" fill="white"/>
</clipPath>
</defs>
</svg>
