<svg width="45" height="45" viewBox="0 0 45 45" fill="none" xmlns="http://www.w3.org/2000/svg">
<path d="M42.7499 11.835C42.7499 6.56998 38.4299 2.29498 33.1649 2.29498C27.8999 2.29498 23.5799 6.56998 23.5799 11.835C23.5799 12.105 23.5799 12.42 23.6249 12.69C20.7899 12.78 18.0449 13.905 16.0649 15.93C13.2299 18.765 12.1499 22.95 13.2299 26.775C12.3299 26.46 11.3849 26.235 10.3949 26.235C5.93992 26.235 2.29492 29.88 2.29492 34.335C2.29492 38.79 5.93992 42.435 10.3949 42.435C14.8499 42.435 18.4949 38.79 18.4949 34.335C18.4949 34.02 18.4949 33.705 18.4499 33.435C20.1599 34.38 22.0499 34.92 23.9849 34.92C25.0199 34.92 26.0549 34.785 27.0899 34.47L28.4399 38.925C28.5299 39.195 28.7549 39.375 29.0699 39.42H29.1149C29.3849 39.42 29.6099 39.24 29.7449 39.015L31.3649 35.235L33.8399 37.71C34.1099 37.98 34.5149 37.98 34.7849 37.71L37.9349 34.605C38.0699 34.47 38.1149 34.29 38.1149 34.11C38.1149 33.93 38.0249 33.75 37.9349 33.615L35.4599 31.14L39.2399 29.52C39.5099 29.43 39.6449 29.16 39.6449 28.845C39.6449 28.575 39.4199 28.305 39.1499 28.215L34.6499 26.865C35.1899 25.02 35.2349 23.085 34.7849 21.24C39.2849 20.52 42.7499 16.605 42.7499 11.835ZM29.0249 20.475C30.0149 21.96 30.2849 23.76 29.7899 25.47L27.5849 24.795C27.9449 23.49 27.5849 22.095 26.5949 21.15C25.1099 19.665 22.6799 19.665 21.1949 21.15C20.4749 21.87 20.0699 22.815 20.0699 23.85C20.0699 24.885 20.4749 25.83 21.1949 26.55C21.9149 27.27 22.9049 27.675 23.8949 27.675C24.2099 27.675 24.5249 27.63 24.8849 27.54L25.5599 29.745C23.4449 30.33 21.1499 29.745 19.5749 28.17C18.4049 27 17.7749 25.47 17.7749 23.85C17.7749 22.23 18.4049 20.7 19.5749 19.53C21.1949 17.91 23.6699 17.325 25.8299 18.045C26.7299 19.035 27.8099 19.89 29.0249 20.475ZM24.9299 23.94C24.7049 23.85 24.4349 23.94 24.2549 24.12C24.0749 24.3 24.0299 24.57 24.0749 24.795L24.4799 26.19C23.6699 26.37 22.7699 26.145 22.1849 25.56C21.7349 25.11 21.4649 24.48 21.4649 23.805C21.4649 23.13 21.7349 22.545 22.1849 22.095C23.1299 21.15 24.7049 21.15 25.6499 22.095C26.2799 22.725 26.5049 23.58 26.2799 24.39L24.9299 23.94ZM10.3499 41.085C6.61492 41.085 3.59992 38.07 3.59992 34.335C3.59992 30.6 6.61492 27.585 10.3499 27.585C14.0849 27.585 17.0999 30.6 17.0999 34.335C17.0999 38.07 14.0849 41.085 10.3499 41.085ZM17.9549 31.5C17.3699 29.97 16.3349 28.62 14.9849 27.675C13.4099 24.03 14.1749 19.71 17.0099 16.875C18.8099 15.075 21.2849 14.04 23.8499 14.04C24.0299 14.85 24.3449 15.66 24.7499 16.38C22.5449 16.155 20.2499 16.92 18.6299 18.495C17.2349 19.89 16.4249 21.78 16.4249 23.76C16.4249 25.74 17.1899 27.63 18.6299 29.025C20.0699 30.465 21.9599 31.23 23.8949 31.23C24.5699 31.23 25.2449 31.14 25.9199 30.96L26.5949 33.165C23.6699 34.02 20.3849 33.435 17.9549 31.5ZM33.9299 30.33C33.7049 30.42 33.5699 30.6 33.5249 30.825C33.4799 31.05 33.5699 31.275 33.7049 31.41L36.4049 34.11L34.2449 36.27L31.5449 33.57C31.3649 33.39 31.1399 33.345 30.9599 33.39C30.7349 33.435 30.5549 33.57 30.4649 33.795L29.1599 36.765L28.1249 33.39L25.7399 25.605L26.5499 25.83L33.5249 27.945L36.8999 28.98L33.9299 30.33ZM33.2999 26.505L31.0949 25.83C31.5449 24.255 31.4549 22.59 30.8699 21.105C31.5899 21.285 32.3549 21.375 33.1199 21.375H33.3449C33.8399 23.085 33.7949 24.84 33.2999 26.505ZM33.1649 20.07C28.6199 20.07 24.9299 16.38 24.9299 11.88C24.9299 7.33498 28.6199 3.68998 33.1649 3.68998C37.7099 3.64498 41.3999 7.33498 41.3999 11.835C41.3999 16.38 37.7099 20.07 33.1649 20.07Z" fill="#ED1C24"/>
<path d="M33.3447 11.16H32.9847C32.3997 11.16 31.9047 10.665 31.9047 10.08C31.9047 9.81 32.0397 9.54 32.2197 9.315C32.4447 9.09 32.7147 9 32.9847 9H33.2097H35.0547C35.4147 9 35.7297 8.685 35.7297 8.325C35.7297 7.965 35.4147 7.65 35.0097 7.65H33.8847V6.615C33.8847 6.255 33.5697 5.94 33.2097 5.94C32.8497 5.94 32.5347 6.255 32.5347 6.615V7.695C32.0397 7.785 31.6347 8.01 31.2747 8.37C30.8247 8.82 30.5547 9.45 30.5547 10.08C30.5547 11.43 31.6347 12.51 32.9847 12.51H33.3447C33.9297 12.51 34.4247 13.005 34.4247 13.59C34.4247 14.175 33.9297 14.67 33.3447 14.67H31.2297C30.8697 14.67 30.5547 14.985 30.5547 15.345C30.5547 15.705 30.8697 16.02 31.2297 16.02H32.5347V17.1C32.5347 17.46 32.8497 17.775 33.2097 17.775C33.5697 17.775 33.8847 17.46 33.8847 17.1V16.02C34.9647 15.795 35.7747 14.805 35.7747 13.635C35.7747 12.285 34.6947 11.16 33.3447 11.16Z" fill="#ED1C24"/>
<path d="M16.5598 11.205C18.8098 11.205 20.6098 9.40498 20.6098 7.15498C20.6098 4.90498 18.8098 3.10498 16.5598 3.10498C14.3098 3.10498 12.5098 4.90498 12.5098 7.15498C12.5098 9.40498 14.3098 11.205 16.5598 11.205ZM16.5598 4.45498C18.0448 4.45498 19.2598 5.66998 19.2598 7.15498C19.2598 8.63998 18.0448 9.85498 16.5598 9.85498C15.0748 9.85498 13.8598 8.63998 13.8598 7.15498C13.8598 5.66998 15.0298 4.45498 16.5598 4.45498Z" fill="#ED1C24"/>
<path d="M7.15465 21.015C8.81965 21.015 10.1696 19.665 10.1696 18C10.1696 16.335 8.81965 14.985 7.15465 14.985C5.48965 14.985 4.13965 16.335 4.13965 18C4.18465 19.665 5.48965 21.015 7.15465 21.015ZM7.15465 16.335C8.05465 16.335 8.81965 17.055 8.81965 18C8.81965 18.9 8.09965 19.665 7.15465 19.665C6.20965 19.665 5.53465 18.9 5.53465 18C5.53465 17.1 6.25465 16.335 7.15465 16.335Z" fill="#ED1C24"/>
<path d="M10.5297 33.66H10.2147C9.76469 33.66 9.40469 33.3 9.40469 32.85C9.40469 32.4 9.76469 32.04 10.2147 32.04H10.3947H11.9247C12.2847 32.04 12.5997 31.725 12.5997 31.365C12.5997 31.005 12.2847 30.69 11.9247 30.69H11.0697V29.925C11.0697 29.565 10.7547 29.25 10.3947 29.25C10.0347 29.25 9.71969 29.565 9.71969 29.925V30.735C8.77469 30.96 8.05469 31.815 8.05469 32.805C8.05469 33.975 8.99969 34.965 10.2147 34.965H10.5297C10.9797 34.965 11.3397 35.325 11.3397 35.775C11.3397 36.225 10.9797 36.585 10.5297 36.585H8.77469C8.41469 36.585 8.09969 36.9 8.09969 37.26C8.09969 37.62 8.41469 37.935 8.77469 37.935H9.76469V38.7C9.76469 39.06 10.0797 39.375 10.4397 39.375C10.7997 39.375 11.1147 39.06 11.1147 38.7V37.89C12.0147 37.62 12.6897 36.81 12.6897 35.82C12.6447 34.65 11.6997 33.66 10.5297 33.66Z" fill="#ED1C24"/>
<path d="M22.9502 37.08C21.3752 37.08 20.1152 38.34 20.1152 39.915C20.1152 41.49 21.3752 42.75 22.9502 42.75C24.5252 42.75 25.7852 41.49 25.7852 39.915C25.7852 38.34 24.4802 37.08 22.9502 37.08ZM22.9502 41.355C22.1402 41.355 21.4652 40.68 21.4652 39.87C21.4652 39.06 22.1402 38.385 22.9502 38.385C23.7602 38.385 24.4352 39.06 24.4352 39.87C24.4352 40.68 23.7602 41.355 22.9502 41.355Z" fill="#ED1C24"/>
</svg>
