<svg width="45" height="45" viewBox="0 0 45 45" fill="none" xmlns="http://www.w3.org/2000/svg">
<path d="M34.3167 15.1877H39.4635C40.9388 15.1877 42.139 13.9874 42.139 12.5121V5.68072C42.139 4.20539 40.9388 3.00516 39.4635 3.00516H33.0759C32.5214 1.62879 31.1828 0.703125 29.6699 0.703125H12.8656C10.8407 0.703125 9.1934 2.35046 9.1934 4.37528V17.8338H5.53592C4.06059 17.8338 2.86035 19.034 2.86035 20.5094V27.3408C2.86035 28.8161 4.06059 30.0163 5.53592 30.0163H9.1934V40.6246C9.1934 42.6495 10.8407 44.2968 12.8656 44.2968H29.6699C31.6947 44.2968 33.342 42.6495 33.342 40.6246V39.4287H35.253C35.5433 39.4287 35.794 39.2258 35.8547 38.9419L36.121 37.6938L37.0178 37.3232L38.0894 38.019C38.3332 38.1773 38.6544 38.1435 38.8598 37.9377L40.6461 36.1489C40.8512 35.9435 40.8849 35.6226 40.7268 35.3791L40.0311 34.3077L40.4013 33.4133L41.6519 33.1469C41.9359 33.0864 42.1389 32.8355 42.1389 32.5451V30.0189C42.1389 29.7285 41.9358 29.4776 41.6518 29.4171L40.4014 29.1508L40.0308 28.2541L40.7267 27.1825C40.8849 26.9388 40.8512 26.6177 40.6458 26.4123L38.8595 24.626C38.654 24.4206 38.3328 24.387 38.0893 24.545L37.0177 25.241L36.1211 24.8703L35.8547 23.6198C35.7942 23.3358 35.5433 23.1328 35.2529 23.1328H33.3419V16.2161L34.3167 15.1877ZM40.9086 5.68072V12.5121C40.9086 13.3089 40.2603 13.9572 39.4635 13.9572H34.0522C33.8833 13.9572 33.7218 14.0266 33.6056 14.1492L32.4078 15.4132V14.5725C32.4078 14.2327 32.1323 13.9573 31.7925 13.9573H30.9181C30.1213 13.9573 29.473 13.309 29.473 12.5122V5.68072C29.473 4.88391 30.1213 4.23563 30.9181 4.23563H39.4635C40.2603 4.23563 40.9086 4.88391 40.9086 5.68072ZM17.0658 1.93359H25.4695V3.06729C25.4695 3.2335 25.3291 3.37386 25.1629 3.37386H17.3725C17.2063 3.37386 17.0659 3.23341 17.0659 3.06729L17.0658 1.93359ZM4.09082 27.3408V20.5094C4.09082 19.7125 4.7391 19.0643 5.53592 19.0643H10.9795C11.2381 20.27 12.3125 21.177 13.5955 21.177H15.5264V27.3408C15.5264 28.1376 14.8782 28.7859 14.0813 28.7859H13.2069C12.8671 28.7859 12.5917 29.0613 12.5917 29.4011V30.2418L11.3937 28.9778C11.2775 28.8552 11.1161 28.7858 10.9472 28.7858H5.53592C4.7391 28.7859 4.09082 28.1377 4.09082 27.3408ZM13.5955 19.9465C12.7987 19.9465 12.1504 19.2994 12.1504 18.5039V11.67C12.1504 10.8732 12.7987 10.2249 13.5955 10.2249H22.1409C22.9377 10.2249 23.586 10.8732 23.586 11.67V18.5039C23.586 19.2994 22.9377 19.9465 22.1409 19.9465H21.2665C20.9267 19.9465 20.6513 20.222 20.6513 20.5617V21.4025L19.4533 20.1386C19.3371 20.0159 19.1757 19.9465 19.0067 19.9465H13.5955ZM10.6826 30.0164L12.7604 32.2086C12.8788 32.3336 13.0413 32.4006 13.207 32.4006C13.2836 32.4006 13.3608 32.3864 13.4346 32.3569C13.6686 32.2636 13.8221 32.0372 13.8221 31.7854V30.0164H14.0813C15.5566 30.0164 16.7568 28.8162 16.7568 27.3408V21.1771H18.7421L20.8198 23.3693C20.9383 23.4944 21.1008 23.5614 21.2665 23.5614C21.343 23.5614 21.4203 23.5471 21.4941 23.5177C21.7281 23.4243 21.8816 23.1979 21.8816 22.9461V21.1772H22.1407C23.6161 21.1772 24.8163 19.978 24.8163 18.5041V11.6702C24.8163 10.1949 23.6161 8.99464 22.1407 8.99464H13.5955C12.1202 8.99464 10.9199 10.1949 10.9199 11.6702V17.834H10.4239V4.37528C10.4239 3.02897 11.5192 1.93359 12.8656 1.93359H15.8355V3.06729C15.8355 3.91482 16.525 4.60433 17.3725 4.60433H25.1629C26.0106 4.60433 26.7 3.91482 26.7 3.06729V1.93359H29.6699C30.4957 1.93359 31.243 2.34949 31.6885 3.00516H30.918C29.4427 3.00516 28.2425 4.20539 28.2425 5.68072V12.5121C28.2425 13.9874 29.4427 15.1877 30.918 15.1877H31.1772V16.9566C31.1772 17.2085 31.3307 17.4349 31.5646 17.5281C31.6386 17.5576 31.7158 17.5719 31.7923 17.5719C31.9045 17.5719 32.0149 17.5404 32.1115 17.4818V38.1783H10.4239V30.0164H10.6826ZM33.342 28.7472C33.5531 28.6932 33.7698 28.666 33.9899 28.666C35.4324 28.666 36.606 29.8396 36.606 31.2821C36.606 32.7246 35.4324 33.8982 33.9899 33.8982C33.7698 33.8982 33.5531 33.8709 33.342 33.817V28.7472ZM29.6699 43.0664H12.8656C11.5192 43.0664 10.4239 41.971 10.4239 40.6247V39.4088H32.1115V40.6247C32.1115 41.971 31.0162 43.0664 29.6699 43.0664ZM34.755 24.3634L34.9851 25.4435C35.0273 25.6416 35.1645 25.8064 35.3518 25.8838L36.8467 26.5017C37.0337 26.5789 37.2469 26.5593 37.4167 26.4491L38.3417 25.8484L39.4235 26.9301L38.8228 27.8552C38.7126 28.0251 38.6929 28.2381 38.7702 28.4252L39.388 29.9201C39.4655 30.1075 39.6302 30.2446 39.8285 30.2868L40.9085 30.5169V32.0471L39.8284 32.2772C39.6303 32.3194 39.4657 32.4565 39.3881 32.6436L38.7704 34.1359C38.6928 34.3231 38.7125 34.5364 38.8228 34.7063L39.4236 35.6316L38.3414 36.7153L37.4167 36.1149C37.2469 36.0047 37.0339 35.9851 36.8467 36.0622L35.3518 36.68C35.1646 36.7574 35.0275 36.9221 34.9852 37.1203L34.7552 38.1981H33.342V35.0738C33.5549 35.1101 33.7713 35.1284 33.9899 35.1284C36.1109 35.1284 37.8364 33.4028 37.8364 31.2819C37.8364 29.1608 36.1109 27.4352 33.9899 27.4352C33.7713 27.4352 33.5549 27.4535 33.342 27.4898V24.3631H34.755V24.3634ZM11.7917 27.5922C11.9194 27.5922 12.0464 27.5525 12.1535 27.4747C12.3382 27.3405 12.4334 27.1149 12.4007 26.8889L12.1277 25.0014L13.4585 23.6341C13.6177 23.4705 13.6733 23.2322 13.6028 23.015C13.5323 22.7979 13.3474 22.6375 13.1224 22.5988L11.2432 22.2741L10.3529 20.5861C10.2465 20.3842 10.037 20.2578 9.80872 20.2578C9.58047 20.2578 9.37103 20.3842 9.2645 20.5861L8.37426 22.2741L6.49507 22.5988C6.27007 22.6375 6.08515 22.7979 6.01466 23.015C5.94417 23.2322 5.99972 23.4705 6.15897 23.6341L7.48973 25.0014L7.21674 26.8889C7.18404 27.1149 7.27923 27.3405 7.46389 27.4747C7.64881 27.6089 7.89253 27.63 8.0974 27.5288L9.80872 26.6861L11.52 27.5288C11.6061 27.5714 11.6991 27.5922 11.7917 27.5922ZM10.8665 24.8776L11.0156 25.909L10.0804 25.4485C9.9947 25.4063 9.90162 25.3851 9.80854 25.3851C9.71547 25.3851 9.62239 25.4062 9.5367 25.4485L8.60154 25.9089L8.75069 24.8776C8.77811 24.6886 8.71598 24.4974 8.58265 24.3604L7.85482 23.6126L8.88183 23.4351C9.06991 23.4026 9.23225 23.2847 9.32128 23.1158L9.80846 22.1919L10.2956 23.1158C10.3847 23.2847 10.547 23.4026 10.7351 23.4351L11.7622 23.6126L11.0344 24.3604C10.9012 24.4974 10.8391 24.6884 10.8665 24.8776ZM34.9082 12.3436C34.9969 12.3894 35.0937 12.4124 35.1907 12.4124C35.2878 12.4124 35.3847 12.3894 35.4733 12.3436C38.6237 10.715 38.9769 8.9637 38.9071 8.06476C38.8302 7.07414 38.1576 6.2013 37.2332 5.8928C36.4821 5.64187 35.73 5.80799 35.1908 6.33612C34.6521 5.80816 33.8997 5.64196 33.1483 5.8928C32.224 6.2013 31.5514 7.07414 31.4745 8.06476C31.4046 8.9637 31.7579 10.715 34.9082 12.3436ZM32.7012 8.16003C32.7464 7.57793 33.1539 7.18805 33.5379 7.0599C33.6131 7.03477 33.7152 7.01051 33.8289 7.01051C34.0021 7.01051 34.2021 7.06685 34.3745 7.26223L34.728 7.66564C34.8448 7.79897 35.0135 7.87535 35.1907 7.87535C35.368 7.87535 35.5366 7.79889 35.6534 7.66564L36.0064 7.26302C36.2923 6.93817 36.6539 6.99636 36.8437 7.05981C37.2276 7.18796 37.6352 7.57784 37.6804 8.15994C37.755 9.11944 36.8515 10.1813 35.1908 11.0994C33.53 10.1813 32.6267 9.11962 32.7012 8.16003ZM18.2046 33.5965C18.2046 33.2577 18.4811 32.9811 18.82 32.9811C19.1589 32.9811 19.4354 33.2576 19.4354 33.5965C19.4354 33.9354 19.1589 34.2119 18.82 34.2119C18.4811 34.2119 18.2046 33.9354 18.2046 33.5965ZM20.6511 33.5965C20.6511 33.2577 20.9276 32.9811 21.2665 32.9811C21.6053 32.9811 21.8819 33.2576 21.8819 33.5965C21.8819 33.9354 21.6054 34.2119 21.2665 34.2119C20.9277 34.212 20.6511 33.9354 20.6511 33.5965ZM23.1001 33.5965C23.1001 33.2577 23.3766 32.9811 23.7155 32.9811C24.0544 32.9811 24.3309 33.2576 24.3309 33.5965C24.3309 33.9354 24.0544 34.2119 23.7155 34.2119C23.3766 34.2119 23.1001 33.9354 23.1001 33.5965ZM20.7795 18.095L21.6465 14.8582C21.7153 14.6009 21.6616 14.3311 21.4996 14.1179C21.3365 13.9033 21.0881 13.7803 20.818 13.7803H18.9966V12.3003C18.9966 11.8278 18.6122 11.4434 18.1397 11.4434H18.0351C17.7211 11.4434 17.4414 11.6072 17.2853 11.8847L16.3167 13.6303C16.2323 13.6033 16.1426 13.5883 16.0494 13.5883H14.9383C14.4548 13.5883 14.0614 13.9817 14.0614 14.4652V17.704C14.0614 18.1875 14.4548 18.5808 14.9383 18.5808H16.0494C16.2452 18.5808 16.4256 18.5155 16.5716 18.4066L16.9903 18.6479C17.0837 18.7018 17.1897 18.7302 17.2976 18.7302H19.9509C20.3344 18.7304 20.6744 18.4717 20.7795 18.095ZM15.6959 17.3505H15.292V14.819H15.6959V17.3505ZM17.4624 17.4999L16.9264 17.1909V15.0681L17.7662 13.5543V14.3955C17.7662 14.7353 18.0417 15.0108 18.3815 15.0108H20.3319L19.6651 17.4999H17.4624ZM23.5883 41.2376C23.5883 41.5774 23.3128 41.8528 22.9731 41.8528H19.5624C19.2226 41.8528 18.9471 41.5774 18.9471 41.2376C18.9471 40.8978 19.2226 40.6223 19.5624 40.6223H22.9731C23.3128 40.6223 23.5883 40.8978 23.5883 41.2376Z" fill="#ED1C24"/>
</svg>
