<svg width="45" height="45" viewBox="0 0 45 45" fill="none" xmlns="http://www.w3.org/2000/svg">
<path d="M38.3937 38.5515H6.44824V6.60602H7.79824V37.2015H38.3937V38.5515Z" fill="#ED1C24"/>
<path d="M10.9531 22.5H12.3031V37.8765H10.9531V22.5Z" fill="#ED1C24"/>
<path d="M16.3525 26.991H17.7025V37.602H16.3525V26.991Z" fill="#ED1C24"/>
<path d="M21.7529 23.769H23.1029V37.7415H21.7529V23.769Z" fill="#ED1C24"/>
<path d="M27.1533 28.6515H28.5033V37.881H27.1533V28.6515Z" fill="#ED1C24"/>
<path d="M32.5576 25.812H33.9076V37.8765H32.5576V25.812Z" fill="#ED1C24"/>
<path d="M27.7158 24.0255L22.4328 19.1655L16.9968 22.3785L11.1963 17.5815L12.0558 16.542L17.1273 20.736L22.6083 17.496L27.9408 22.401L33.1563 19.773L33.7638 20.979L27.7158 24.0255Z" fill="#ED1C24"/>
</svg>
