<?xml version="1.0" encoding="UTF-8"?>
<svg xmlns="http://www.w3.org/2000/svg" id="Layer_1" data-name="Layer 1" viewBox="0 0 64 64" width="512" height="512"><path d="M31.78711,18a14,14,0,1,0,14,14A14.01572,14.01572,0,0,0,31.78711,18Zm2.13281,21.06982V43.799a11.42041,11.42041,0,0,1-4.26953-.00061V39.06982a1,1,0,0,0-.55859-.89746A6.155,6.155,0,0,1,28.09961,27.708V33a.99974.99974,0,0,0,1,1h5.37012a.99974.99974,0,0,0,1-1V27.69678a6.15366,6.15366,0,0,1-.99121,10.47558A1,1,0,0,0,33.91992,39.06982Zm2,4.1814V39.666a8.15056,8.15056,0,0,0-1.07519-14.59278A1.00008,1.00008,0,0,0,33.46973,26v6H30.09961V26.00977a1.00007,1.00007,0,0,0-1.375-.92676,8.15079,8.15079,0,0,0-1.07422,14.583v3.5838a12.00006,12.00006,0,1,1,8.26953.0014Z"/><path d="M49.24414,37.54346a.92691.92691,0,0,1,.86524-.69336H51.4082a1,1,0,0,0,.98145-.8086,20.74636,20.74636,0,0,0,0-8.083,1,1,0,0,0-.98145-.8086H50.10938a.927.927,0,0,1-.86524-.69287,18.28165,18.28165,0,0,0-1.19531-2.87744.9268.9268,0,0,1,.12207-1.104l.92383-.92334a1.00066,1.00066,0,0,0,.12207-1.26612A20.99036,20.99036,0,0,0,43.501,14.56982a1.00166,1.00166,0,0,0-1.26563.12256l-.92383.92383a.92857.92857,0,0,1-1.10449.12207,18.25843,18.25843,0,0,0-2.877-1.19531.92609.92609,0,0,1-.69238-.86524V12.37891a.9996.9996,0,0,0-.8086-.98145,20.852,20.852,0,0,0-8.084,0,.9996.9996,0,0,0-.8086.98145v1.29882a.92609.92609,0,0,1-.69238.86524,18.25843,18.25843,0,0,0-2.877,1.19531.929.929,0,0,1-1.10449-.12207l-.92383-.92383a1.00154,1.00154,0,0,0-1.26563-.12256,20.99022,20.99022,0,0,0-5.71582,5.71631,1.00066,1.00066,0,0,0,.12207,1.26612l.92383.92285a.92837.92837,0,0,1,.12207,1.105,18.30226,18.30226,0,0,0-1.19531,2.87646.92691.92691,0,0,1-.86524.69336H12.166a1,1,0,0,0-.98145.8086,20.74636,20.74636,0,0,0,0,8.083,1,1,0,0,0,.98145.8086h1.29882a.927.927,0,0,1,.86524.69287,18.26363,18.26363,0,0,0,1.19531,2.87646.92817.92817,0,0,1-.12207,1.105l-.92383.92334a1.00066,1.00066,0,0,0-.12207,1.26612,20.99022,20.99022,0,0,0,5.71582,5.71631.99906.99906,0,0,0,1.26563-.12256l.92383-.92383a.93077.93077,0,0,1,1.10449-.12207,18.25843,18.25843,0,0,0,2.877,1.19531.92609.92609,0,0,1,.69238.86524v1.29882a1,1,0,0,0,.8086.98145,20.75134,20.75134,0,0,0,8.084,0,1,1,0,0,0,.8086-.98145V50.32227a.92609.92609,0,0,1,.69238-.86524,18.25843,18.25843,0,0,0,2.877-1.19531.93057.93057,0,0,1,1.10449.12207l.92383.92383a1.00055,1.00055,0,0,0,1.26563.12256,20.99022,20.99022,0,0,0,5.71582-5.71631,1.00066,1.00066,0,0,0-.12207-1.26612l-.92383-.92285a.92737.92737,0,0,1-.1211-1.10547A18.33417,18.33417,0,0,0,49.24414,37.54346Zm-1.90625-.606a16.31563,16.31563,0,0,1-1.0625,2.56006,2.92735,2.92735,0,0,0,.48145,3.44189l.3291.32813a18.97635,18.97635,0,0,1-4.03125,4.03125l-.3291-.3291a2.92577,2.92577,0,0,0-3.44043-.48243,16.26562,16.26562,0,0,1-2.56055,1.06348,2.92947,2.92947,0,0,0-2.08691,2.77149v.458a18.6617,18.6617,0,0,1-5.70118,0v-.458a2.92947,2.92947,0,0,0-2.08691-2.77149,16.26562,16.26562,0,0,1-2.56055-1.06348,2.927,2.927,0,0,0-3.44043.48243l-.3291.32861a18.98539,18.98539,0,0,1-4.03125-4.03076l.3291-.32862a2.9304,2.9304,0,0,0,.4834-3.44091,16.14742,16.14742,0,0,1-1.06445-2.561,2.92993,2.92993,0,0,0-2.77149-2.08691h-.458a18.59407,18.59407,0,0,1,0-5.7002h.458a2.92977,2.92977,0,0,0,2.77149-2.0874,16.18553,16.18553,0,0,1,1.06445-2.561,2.93062,2.93062,0,0,0-.4834-3.44091l-.3291-.32813a18.98539,18.98539,0,0,1,4.03125-4.03076l.3291.32861a2.92942,2.92942,0,0,0,3.44043.48243,16.26562,16.26562,0,0,1,2.56055-1.06348,2.92947,2.92947,0,0,0,2.08691-2.77149v-.458a18.6617,18.6617,0,0,1,5.70118,0v.458a2.92947,2.92947,0,0,0,2.08691,2.77149,16.26562,16.26562,0,0,1,2.56055,1.06348,2.92814,2.92814,0,0,0,3.44043-.48243l.3291-.32861a18.98539,18.98539,0,0,1,4.03125,4.03076l-.3291.32862a2.92693,2.92693,0,0,0-.48243,3.44042,16.27632,16.27632,0,0,1,1.06348,2.561V27.063a2.92993,2.92993,0,0,0,2.77149,2.08691h.458a18.59407,18.59407,0,0,1,0,5.7002h-.458A2.92977,2.92977,0,0,0,47.33789,36.9375Z"/><path d="M58,11a5,5,0,1,0-5,5A5.00588,5.00588,0,0,0,58,11Zm-8,0a3,3,0,1,1,3,3A3.00328,3.00328,0,0,1,50,11Z"/><path d="M16,53a5,5,0,1,0-5,5A5.00588,5.00588,0,0,0,16,53ZM8,53a3,3,0,1,1,3,3A3.00328,3.00328,0,0,1,8,53Z"/><path d="M6.87891,46.499A29.00749,29.00749,0,0,1,46.499,6.87939L47.501,5.148A31.00754,31.00754,0,0,0,5.14844,47.501Z"/><path d="M57.12109,17.501a29.00764,29.00764,0,0,1-39.59668,39.6333l-1,1.73242A31.00755,31.00755,0,0,0,58.85156,16.499Z"/></svg>
