<svg width="41" height="45" viewBox="0 0 41 45" fill="none" xmlns="http://www.w3.org/2000/svg">
<path d="M37.802 10.4924H35.2084V5.50811C35.2084 5.26025 35.0774 5.02998 34.8639 4.90342C29.2503 1.57324 24.8206 0.0878906 20.4999 0.0878906C16.1801 0.0878906 11.7495 1.57324 6.13682 4.90342C5.92324 5.02998 5.79229 5.26025 5.79229 5.50811V10.4924H3.19775C1.69746 10.4924 0.477539 11.7123 0.477539 13.2126V37.4941C0.477539 38.9944 1.69746 40.2144 3.19775 40.2144H11.9956L10.149 43.3837C9.96357 43.7019 9.96094 44.0815 10.1429 44.3979C10.3248 44.7152 10.6641 44.9121 11.0271 44.9121H29.9719C30.3349 44.9121 30.6741 44.7152 30.8561 44.3979C31.038 44.0815 31.0362 43.7019 30.8499 43.3837L29.0033 40.2144H37.8012C39.3015 40.2144 40.5214 38.9944 40.5214 37.4941V13.2126C40.5223 11.7123 39.3015 10.4924 37.802 10.4924ZM7.19854 5.90977C17.2181 0.0518551 23.7817 0.0518551 33.8021 5.90977V17.5957C33.8021 21.4286 32.1568 24.6375 29.0437 26.8752L20.4999 33.0152L11.9561 26.8743C8.84385 24.6375 7.19854 21.4286 7.19854 17.5948V5.90977ZM3.19775 11.8986H5.79141V17.5957C5.79141 21.9006 7.63887 25.505 11.1343 28.0169L20.0886 34.4522C20.2107 34.5401 20.3549 34.5841 20.499 34.5841C20.6432 34.5841 20.7864 34.5401 20.9095 34.4522L29.8638 28.0169C33.3601 25.5041 35.2075 21.9006 35.2075 17.5957V11.8986H37.8012C38.5254 11.8986 39.1151 12.4884 39.1151 13.2126V35.4305H1.88379V13.2126C1.88379 12.4875 2.47354 11.8986 3.19775 11.8986ZM29.2942 43.5059H11.7056L13.6233 40.2144H27.3765L29.2942 43.5059ZM37.802 38.8081H3.19775C2.47354 38.8081 1.88379 38.2184 1.88379 37.4941V36.8367H39.116V37.4941C39.116 38.2184 38.5263 38.8081 37.802 38.8081ZM12.6038 25.9743L20.0895 31.355C20.2116 31.4429 20.3558 31.4868 20.4999 31.4868C20.644 31.4868 20.7873 31.4429 20.9104 31.355L28.396 25.9743C31.2067 23.9546 32.6921 21.0568 32.6921 17.5957V6.96006C32.6921 6.70605 32.555 6.47139 32.3335 6.34658C27.7254 3.76084 24.0762 2.60771 20.4999 2.60771C16.9236 2.60771 13.2735 3.76084 8.66631 6.34658C8.44482 6.47139 8.30771 6.70518 8.30771 6.96006V17.5957C8.30771 21.0568 9.79307 23.9546 12.6038 25.9743ZM20.4999 29.918L16.6397 27.1441C17.6118 26.0323 19.011 25.3846 20.4999 25.3846C21.9879 25.3846 23.388 26.0323 24.3592 27.1433L20.4999 29.918ZM20.4999 23.6733C19.1481 23.6733 18.0486 22.5738 18.0486 21.2221C18.0486 19.8703 19.1481 18.7708 20.4999 18.7708C21.8517 18.7708 22.9512 19.8703 22.9512 21.2221C22.9512 22.5738 21.8517 23.6733 20.4999 23.6733ZM9.71396 7.37314C17.8271 2.90479 23.1727 2.90479 31.2867 7.37314V17.5957C31.2867 20.6279 30.0378 23.0625 27.576 24.8326L25.5062 26.3206C24.7582 25.4285 23.7976 24.7605 22.7262 24.3712C23.7132 23.6716 24.3583 22.522 24.3583 21.2229C24.3583 19.096 22.6277 17.3654 20.5008 17.3654C18.3738 17.3654 16.6433 19.096 16.6433 21.2229C16.6433 22.522 17.2893 23.6716 18.2754 24.3712C17.204 24.7605 16.2434 25.4294 15.4954 26.3206L13.4256 24.8326C10.9638 23.0634 9.71484 20.6279 9.71484 17.5957V7.37314H9.71396ZM18.2218 10.4396L17.7744 12.3486C17.7094 12.6246 17.8166 12.912 18.046 13.0781C18.2754 13.2442 18.5812 13.2574 18.8238 13.1106L20.4999 12.0955L22.1769 13.1115C22.2894 13.1792 22.415 13.2135 22.5407 13.2135C22.6866 13.2135 22.8316 13.1687 22.9538 13.079C23.1832 12.9129 23.2896 12.6255 23.2254 12.3495L22.778 10.4405L24.2625 9.15908C24.477 8.97451 24.5596 8.6792 24.4717 8.40938C24.3838 8.14043 24.1438 7.94971 23.8617 7.92598L21.9079 7.76162L21.1485 5.95371C21.0387 5.69268 20.7838 5.52305 20.4999 5.52305C20.216 5.52305 19.9611 5.69268 19.8513 5.95371L19.0919 7.76162L17.1381 7.92598C16.856 7.94971 16.616 8.14043 16.5281 8.40938C16.4402 8.67832 16.5229 8.97363 16.7373 9.15908L18.2218 10.4396ZM19.6342 9.12744C19.8952 9.10547 20.122 8.94024 20.2239 8.69941L20.5008 8.04111L20.7776 8.69941C20.8787 8.94111 21.1063 9.10547 21.3674 9.12744L22.0784 9.18721L21.5379 9.65391C21.3401 9.82529 21.2531 10.0916 21.3129 10.3465L21.4764 11.0417L20.8655 10.6717C20.7539 10.604 20.6273 10.5697 20.5017 10.5697C20.376 10.5697 20.2494 10.604 20.1378 10.6717L19.527 11.0417L19.6904 10.3465C19.7502 10.0916 19.6632 9.82441 19.4654 9.65391L18.9249 9.18721L19.6342 9.12744ZM22.7253 13.8375C22.6374 14.1064 22.72 14.4018 22.9345 14.5872L24.4189 15.8687L23.9716 17.7776C23.9065 18.0536 24.0138 18.341 24.2432 18.5071C24.4726 18.6732 24.7784 18.6864 25.021 18.5396L26.6979 17.5236L28.3749 18.5396C28.4874 18.6073 28.6131 18.6416 28.7388 18.6416C28.8847 18.6416 29.0297 18.5968 29.1519 18.5071C29.3813 18.341 29.4876 18.0536 29.4234 17.7776L28.9761 15.8687L30.4605 14.5872C30.675 14.4026 30.7576 14.1073 30.6697 13.8375C30.5818 13.5686 30.3419 13.3778 30.0598 13.3541L28.106 13.1897L27.3466 11.3818C27.2367 11.1208 26.9818 10.9512 26.6979 10.9512C26.4141 10.9512 26.1592 11.1208 26.0493 11.3818L25.2899 13.1897L23.3361 13.3541C23.0531 13.3778 22.8123 13.5677 22.7253 13.8375ZM25.8305 14.5556C26.0915 14.5336 26.3183 14.3684 26.4202 14.1275L26.6971 13.4692L26.9739 14.1275C27.075 14.3692 27.3026 14.5336 27.5637 14.5556L28.2747 14.6153L27.7342 15.082C27.5364 15.2534 27.4494 15.5197 27.5092 15.7746L27.6727 16.4698L27.0618 16.0998C26.9502 16.0321 26.8236 15.9979 26.6979 15.9979C26.5723 15.9979 26.4457 16.0321 26.3341 16.0998L25.7232 16.4698L25.8867 15.7746C25.9465 15.5197 25.8595 15.2525 25.6617 15.082L25.1212 14.6153L25.8305 14.5556ZM12.6258 18.5388L14.3027 17.5228L15.9797 18.5388C16.0922 18.6064 16.2179 18.6407 16.3436 18.6407C16.4895 18.6407 16.6345 18.5959 16.7566 18.5063C16.986 18.3401 17.0924 18.0527 17.0282 17.7768L16.5809 15.8678L18.0653 14.5863C18.2798 14.4018 18.3624 14.1064 18.2745 13.8366C18.1866 13.5677 17.9467 13.377 17.6646 13.3532L15.7107 13.1889L14.9514 11.381C14.8415 11.1199 14.5866 10.9503 14.3027 10.9503C14.0188 10.9503 13.764 11.1199 13.6541 11.381L12.8947 13.1889L10.9409 13.3532C10.6588 13.377 10.4188 13.5677 10.331 13.8366C10.2431 14.1056 10.3257 14.4009 10.5401 14.5863L12.0246 15.8678L11.5772 17.7768C11.5122 18.0527 11.6194 18.3401 11.8488 18.5063C12.0773 18.6724 12.3841 18.6855 12.6258 18.5388ZM13.437 14.5556C13.698 14.5336 13.9248 14.3684 14.0268 14.1275L14.3036 13.4692L14.5805 14.1275C14.6815 14.3692 14.9092 14.5336 15.1702 14.5556L15.8812 14.6153L15.3407 15.082C15.143 15.2534 15.056 15.5197 15.1157 15.7746L15.2792 16.4698L14.6684 16.0998C14.5567 16.0321 14.4302 15.9979 14.3045 15.9979C14.1788 15.9979 14.0522 16.0321 13.9406 16.0998L13.3298 16.4698L13.4933 15.7746C13.553 15.5197 13.466 15.2525 13.2683 15.082L12.7277 14.6153L13.437 14.5556Z" fill="#ED1C24"/>
</svg>
